<?xml version="1.0" encoding="UTF-8"?>
<svg id="_레이어_2" data-name="레이어 2" xmlns="http://www.w3.org/2000/svg" viewBox="0 0 237.14 58.52">
  <defs>
    <style>
      .cls-1 {
        fill: #520506;
      }

      .cls-2 {
        fill: #f6db57;
      }
    </style>
  </defs>
  <g id="_레이어_1-2" data-name="레이어 1">
    <polygon class="cls-2" points="214.04 0 237.14 29.26 214.04 58.52 23.1 58.52 0 29.26 23.1 0 214.04 0"/>
    <g>
      <path class="cls-1" d="M28.97,15.06h11.52c6.4.04,10.32,4,10.32,9.76s-4,9.72-10.48,9.68h-4.72v8.88h-6.64V15.06ZM39.13,29.22c3.12.04,4.8-1.72,4.8-4.4s-1.68-4.32-4.8-4.32h-3.52v8.72h3.52Z"/>
      <path class="cls-1" d="M67.21,43.78c-7.6,0-13.4-5.24-13.44-14.56.04-9.32,5.84-14.52,13.44-14.48,7.6-.04,13.48,5.16,13.52,14.48-.04,9.36-5.92,14.56-13.52,14.56ZM67.21,37.94c4.16-.04,6.68-3.08,6.72-8.72-.04-5.6-2.56-8.68-6.72-8.64-4.08-.04-6.6,3.04-6.64,8.64.04,5.64,2.56,8.68,6.64,8.72Z"/>
      <path class="cls-1" d="M91.29,43.38h-6.64V15.06h6.64v28.32Z"/>
      <path class="cls-1" d="M119.61,43.38h-5.68l-11.52-16.64h-.16v16.64h-6.64V15.06h5.76l11.36,16.64h.16V15.06h6.72v28.32Z"/>
      <path class="cls-1" d="M122.89,15.06h23.76v5.44h-8.56v22.88h-6.64v-22.88h-8.56v-5.44Z"/>
      <path class="cls-1" d="M158.57,29.22c.04-9.24,4.52-14.52,11.84-14.48,7.36-.04,11.88,5.24,11.92,14.48-.04,9.32-4.52,14.56-11.92,14.56s-11.8-5.28-11.84-14.56ZM170.41,38.34c3.04,0,5.04-2.84,5.04-9.12s-2-9.12-5.04-9.12-4.96,2.96-4.96,9.12c-.04,6.28,2,9.12,4.96,9.12Z"/>
      <path class="cls-1" d="M185.77,35.14h6.72c.08,1.88,1.92,3.2,4.4,3.2s4.36-1.44,4.32-3.52c.04-2-1.88-3.44-4.88-3.44h-2.72v-4.8h2.72c2.6.04,4.4-1.36,4.4-3.36s-1.52-3.32-3.76-3.28c-2.36-.04-4.16,1.32-4.24,3.28h-6.32c.04-5,4.48-8.52,10.56-8.48,6.04-.04,10.2,3.44,10.16,8.08.04,3.12-2.28,5.36-5.52,5.84v.24c4.32.48,6.6,2.96,6.56,6.48.04,4.88-4.68,8.4-11.28,8.4s-11-3.56-11.12-8.64Z"/>
    </g>
  </g>
</svg>