<?xml version="1.0" encoding="UTF-8"?>
<svg id="_레이어_2" data-name="레이어 2" xmlns="http://www.w3.org/2000/svg" viewBox="0 0 237.14 58.52">
  <defs>
    <style>
      .cls-1 {
        fill: #a20002;
      }

      .cls-2 {
        fill: #fff;
      }
    </style>
  </defs>
  <g id="_레이어_1-2" data-name="레이어 1">
    <polygon class="cls-1" points="214.04 0 237.14 29.26 214.04 58.52 23.1 58.52 0 29.26 23.1 0 214.04 0"/>
    <g>
      <path class="cls-2" d="M28.73,15.06h11.52c6.4.04,10.32,4,10.32,9.76s-4,9.72-10.48,9.68h-4.72v8.88h-6.64V15.06ZM38.89,29.22c3.12.04,4.8-1.72,4.8-4.4s-1.68-4.32-4.8-4.32h-3.52v8.72h3.52Z"/>
      <path class="cls-2" d="M66.97,43.78c-7.6,0-13.4-5.24-13.44-14.56.04-9.32,5.84-14.52,13.44-14.48,7.6-.04,13.48,5.16,13.52,14.48-.04,9.36-5.92,14.56-13.52,14.56ZM66.97,37.94c4.16-.04,6.68-3.08,6.72-8.72-.04-5.6-2.56-8.68-6.72-8.64-4.08-.04-6.6,3.04-6.64,8.64.04,5.64,2.56,8.68,6.64,8.72Z"/>
      <path class="cls-2" d="M91.05,43.38h-6.64V15.06h6.64v28.32Z"/>
      <path class="cls-2" d="M119.37,43.38h-5.68l-11.52-16.64h-.16v16.64h-6.64V15.06h5.76l11.36,16.64h.16V15.06h6.72v28.32Z"/>
      <path class="cls-2" d="M122.65,15.06h23.76v5.44h-8.56v22.88h-6.64v-22.88h-8.56v-5.44Z"/>
      <path class="cls-2" d="M158.33,29.22c.04-9.24,4.52-14.52,11.84-14.48,7.36-.04,11.88,5.24,11.92,14.48-.04,9.32-4.52,14.56-11.92,14.56s-11.8-5.28-11.84-14.56ZM170.17,38.34c3.04,0,5.04-2.84,5.04-9.12s-2-9.12-5.04-9.12-4.96,2.96-4.96,9.12c-.04,6.28,2,9.12,4.96,9.12Z"/>
      <path class="cls-2" d="M185.53,35.78c0-3.56,2.8-6.44,6.4-6.96v-.24c-3.16-.56-5.36-3.12-5.36-6.24,0-4.4,4.4-7.64,10.4-7.6,5.96-.04,10.36,3.2,10.32,7.6.04,3.16-2.2,5.68-5.28,6.24v.24c3.52.52,6.36,3.4,6.4,6.96-.04,4.56-4.84,8-11.44,8s-11.44-3.44-11.44-8ZM196.97,38.82c2.6,0,4.44-1.56,4.4-3.76.04-2.28-1.84-3.92-4.4-3.92s-4.48,1.64-4.48,3.92c0,2.16,1.84,3.76,4.48,3.76ZM196.97,26.58c2.24,0,3.84-1.44,3.84-3.52s-1.6-3.44-3.84-3.44-3.88,1.44-3.84,3.44c-.04,2.04,1.56,3.52,3.84,3.52Z"/>
    </g>
  </g>
</svg>