<?xml version="1.0" encoding="UTF-8"?>
<svg id="_레이어_2" data-name="레이어 2" xmlns="http://www.w3.org/2000/svg" viewBox="0 0 815.75 128.86">
  <defs>
    <style>
      .cls-1 {
        fill: #fff;
      }

      .cls-2 {
        fill: #e2c94e;
      }
    </style>
  </defs>
  <g id="_레이어_1-2" data-name="레이어 1">
    <g>
      <path class="cls-1" d="M5.66,25.25c.16-.54.26-1.12.29-1.73.03-.61.06-1.18.1-1.73l-.19-10.27-2.02-2.3c-.19-.22-.39-.58-.6-1.08-.21-.5-.38-.92-.5-1.27l.72-.43c.06.26.22.46.46.62.24.16.46.29.65.38.42.16.94.28,1.56.36.62.08,1.18.15,1.66.22,2.75.1,5.3.12,7.66.07,2.35-.05,4.73-.22,7.13-.5l3.07-1.1,3.07,3.65-.38.86-4.61-.24c-1.86.1-3.9.18-6.12.26-2.22.08-4.34.2-6.36.36v9.79h.96c.61,0,1.46-.02,2.54-.05,1.09-.03,2.25-.09,3.48-.17,1.23-.08,2.44-.17,3.62-.26,1.18-.1,2.19-.21,3.02-.34,1.02-.16,1.96-.35,2.81-.58.85-.22,1.54-.42,2.09-.58l.96.1c-.32.54-.74,1.05-1.25,1.51-.51.46-1.08.88-1.7,1.25s-1.29.68-1.99.94c-.7.26-1.39.43-2.06.53-.54.1-1.1.18-1.68.26-.58.08-1.17.15-1.78.22l-.05,7.97c2.46-.25,4.89-.5,7.27-.72,2.38-.22,4.76-.46,7.13-.72V5.38c0-.54-.14-1.04-.41-1.49-.27-.45-.63-.84-1.08-1.18-.45-.34-.94-.64-1.49-.91-.54-.27-1.07-.5-1.58-.7l.38-1.1,10.7,2.3-1.25,2.98v34.9c-.93.67-1.72,1.7-2.38,3.07-.66,1.38-1.1,2.98-1.32,4.8h-1.34c0-.9-.02-1.73-.05-2.5-.03-.77-.06-1.5-.07-2.21-.02-.7-.04-1.41-.07-2.11-.03-.7-.05-1.46-.05-2.26v-6.77c-.64.22-1.29.54-1.94.94-.66.4-1.22.92-1.7,1.56-.45-.13-1.12-.19-2.02-.19s-1.94.06-3.14.17c-1.2.11-2.51.27-3.94.48-1.42.21-2.89.45-4.39.72-1.5.27-3.02.58-4.54.91-1.52.34-2.97.68-4.34,1.03l-2.59,1.73-4.46-4.9c-.45-.42-.8-.98-1.06-1.68-.26-.7-.42-1.38-.48-2.02l1.3-.38c-.03.26-.04.5-.02.72.02.22.1.45.26.67.16.26.38.45.67.58.29.13.58.26.86.38.51.19,1.13.37,1.85.53.72.16,1.48.24,2.28.24,1.34-.22,2.67-.42,3.98-.6,1.31-.18,2.62-.34,3.94-.5l-.19-8.11-4.99.29-4.27.48Z"/>
      <path class="cls-1" d="M86.74,24.58c-2.62-.03-5.41-.02-8.35.05-2.94.06-5.88.14-8.81.24-2.93.1-5.75.22-8.47.36-2.72.14-5.17.28-7.34.41l-3.17.91-3.7-4.66c-.26-.29-.43-.63-.53-1.03-.1-.4-.19-.84-.29-1.32l.96-.29c.06.35.22.66.46.91.24.26.52.46.84.62.64.26,1.47.48,2.5.67,1.02.19,1.95.3,2.78.34,1.89.06,3.96.08,6.22.05,2.26-.03,4.58-.08,6.98-.14v-4.7l-7.25.34c-.32.26-.6.53-.84.82-.24.29-.44.59-.6.91h-1.3l-.38-11.95-2.02-2.35c-.19-.22-.41-.59-.65-1.1-.24-.51-.44-.94-.6-1.3l.77-.53c.13.26.28.47.46.65.18.18.39.34.65.5.42.13.9.25,1.46.36.56.11,1.1.18,1.61.22,1.31.07,2.76.1,4.34.1s3.21-.02,4.87-.05c1.66-.03,3.3-.08,4.9-.14,1.6-.06,3.07-.14,4.42-.24l3.22-1.1,3.46,4.08-.24.72-4.7-.48c-2.56,0-5.18.05-7.85.14-2.67.1-5.53.22-8.57.38l.05,7.06c1.38,0,2.78-.02,4.22-.05,1.44-.03,2.83-.07,4.18-.12,1.34-.05,2.61-.11,3.79-.19,1.18-.08,2.22-.15,3.12-.22l3.6-1.15,3.31,3.79-.29.82-4.42-.34-7.54.19v4.8c2.34-.06,4.59-.14,6.77-.24,2.18-.1,4.18-.19,6-.29l4.32-1.34,3.6,5.42-.29.34-5.66-.86ZM59.14,32.98l-3.65-3.26c-.19-.19-.36-.48-.5-.86-.14-.38-.25-.8-.31-1.25l.58-.29c.03.29.18.53.46.72.27.19.52.37.74.53.54.06,1.1.12,1.68.17.58.05,1.14.09,1.68.12,1.5,0,3.06,0,4.68-.02,1.62-.02,3.18-.05,4.68-.1,1.5-.05,2.93-.1,4.27-.17,1.34-.06,2.5-.14,3.46-.24.9-.22,1.65-.61,2.26-1.15l4.7,2.64c-.42.29-.72.57-.91.84-.19.27-.34.6-.43.98l-.82,3.94,1.01,2.83-4.46-.05c-1.02.03-2.16.06-3.41.1-1.25.03-2.55.07-3.91.12-1.36.05-2.72.1-4.08.17-1.36.06-2.66.11-3.91.14v4.03c2.69,0,5.27-.02,7.75-.07,2.48-.05,4.81-.15,6.98-.31l4.13-1.44,4.13,4.08-.24.86-5.47-.34c-1.31,0-2.7.02-4.18.05-1.47.03-2.97.06-4.49.1-1.52.03-3.02.06-4.51.1-1.49.03-2.9.06-4.25.1-.83,0-1.74.04-2.71.12-.98.08-1.85.18-2.62.31.13-.61.23-1.23.31-1.87.08-.64.14-1.26.17-1.87l-.24-4.22c0-.29-.1-.58-.29-.89-.19-.3-.43-.58-.72-.84s-.62-.49-.98-.7c-.37-.21-.74-.36-1.13-.46l.29-.91,8.21,1.01c1.18,0,2.42,0,3.72-.02,1.3-.02,2.57-.05,3.82-.1,1.25-.05,2.45-.09,3.6-.12s2.16-.08,3.02-.14l.1-3.94c-2.53.03-5.04.09-7.54.17s-5.2.18-8.11.31l-2.54,1.1Z"/>
      <path class="cls-1" d="M110.06,12.91c-1.02,0-2.03.18-3.02.53-.99.35-1.87.86-2.64,1.54s-1.39,1.51-1.87,2.52c-.48,1.01-.72,2.18-.72,3.53,0,.99.16,1.9.48,2.74.32.83.76,1.55,1.32,2.16.56.61,1.22,1.08,1.99,1.42s1.58.5,2.45.5c.99,0,1.88-.17,2.66-.53.78-.35,1.44-.82,1.97-1.39.53-.58.94-1.24,1.22-1.99.29-.75.43-1.54.43-2.38.03-1.92-.38-3.42-1.25-4.51-.86-1.09-1.9-1.73-3.12-1.92-.16-.03-.37-.04-.62-.02-.26.02-.48.04-.67.07.13-.38.35-.74.67-1.06s.7-.51,1.15-.58c1.25-.13,2.43-.05,3.55.24s2.1.78,2.95,1.49c.85.7,1.52,1.6,2.02,2.69.5,1.09.73,2.35.7,3.79-.03,1.57-.38,2.97-1.03,4.2-.66,1.23-1.52,2.28-2.59,3.14-1.07.86-2.32,1.52-3.74,1.97-1.42.45-2.9.66-4.44.62-1.7-.03-3.26-.3-4.68-.82-1.42-.51-2.65-1.22-3.67-2.14-1.02-.91-1.83-2.01-2.42-3.29-.59-1.28-.89-2.7-.89-4.27s.29-2.89.86-4.15,1.36-2.35,2.35-3.26c.99-.91,2.15-1.62,3.48-2.14,1.33-.51,2.73-.77,4.2-.77-.06-.54-.38-1.1-.96-1.68-.58-.58-1.31-1.01-2.21-1.3l.48-1.01,7.39,2.4-1.78,3.65ZM131.14,20.69c.51,0,.99-.02,1.44-.07.45-.05.9-.1,1.34-.17l3.22-1.58,3.41,4.13-.24.96-5.23-.24c-.54.03-1.15.07-1.82.12s-1.38.1-2.11.17v16.18c-.93.67-1.72,1.7-2.38,3.07-.66,1.38-1.1,2.98-1.32,4.8h-1.34c0-.9-.02-1.73-.05-2.5-.03-.77-.06-1.5-.07-2.21-.02-.7-.04-1.41-.07-2.11-.03-.7-.05-1.46-.05-2.26V5.38c0-.54-.14-1.04-.41-1.49-.27-.45-.63-.84-1.08-1.18-.45-.34-.94-.64-1.49-.91-.54-.27-1.07-.5-1.58-.7l.38-1.1,10.7,2.3-1.25,2.98v15.41Z"/>
      <path class="cls-1" d="M181.05,40.22c-2.62-.03-5.36-.02-8.21.02-2.85.05-5.68.12-8.5.22-2.82.1-5.54.22-8.18.38s-5.05.3-7.22.43l-3.36,1.06-3.94-4.7c-.26-.29-.43-.63-.53-1.03-.1-.4-.19-.84-.29-1.32l.96-.38c.06.38.22.7.46.94s.52.46.84.65c.32.13.71.25,1.18.36.46.11.96.21,1.49.29.53.08,1.05.15,1.56.22.51.06.98.1,1.39.1,1.92.06,3.99.09,6.22.07,2.22-.02,4.52-.06,6.89-.12v-4.85c0-.83-.38-1.54-1.15-2.14-.77-.59-1.62-1.02-2.54-1.27l.24-.96,9.98,1.25-1.3,2.64v5.14c2.18-.06,4.28-.14,6.31-.24,2.03-.1,3.93-.19,5.69-.29l4.61-1.68,3.79,5.95-.29.34-6.1-1.06ZM165.79,9.26c-1.22-.03-2.38.13-3.48.48-1.1.35-2.08.86-2.93,1.54-.85.67-1.53,1.5-2.04,2.47-.51.98-.77,2.1-.77,3.38,0,.86.17,1.7.5,2.5.34.8.82,1.5,1.44,2.11.62.61,1.37,1.1,2.23,1.46.86.37,1.82.55,2.88.55s2.07-.17,2.95-.5c.88-.34,1.63-.78,2.26-1.32s1.11-1.18,1.46-1.9c.35-.72.54-1.46.58-2.23.03-.96-.08-1.81-.34-2.54-.26-.74-.61-1.37-1.06-1.9-.45-.53-.98-.94-1.61-1.25-.62-.3-1.29-.5-1.99-.6-.19-.03-.44-.03-.74,0-.3.03-.58.08-.84.14.22-.42.54-.78.94-1.1.4-.32.79-.56,1.18-.72,1.25-.22,2.49-.18,3.72.12,1.23.3,2.32.82,3.26,1.54.94.72,1.7,1.62,2.28,2.71.58,1.09.85,2.32.82,3.7-.06,1.44-.46,2.74-1.18,3.91-.72,1.17-1.67,2.16-2.86,2.98-1.18.82-2.55,1.45-4.1,1.9-1.55.45-3.18.67-4.87.67-1.79,0-3.45-.25-4.97-.74-1.52-.5-2.85-1.19-3.98-2.09-1.14-.9-2.02-1.97-2.66-3.22-.64-1.25-.96-2.64-.96-4.18,0-1.41.31-2.74.94-3.98s1.47-2.34,2.54-3.26c1.07-.93,2.34-1.65,3.79-2.16,1.46-.51,3.02-.72,4.68-.62,0-.48-.3-1.02-.91-1.61-.61-.59-1.42-1.02-2.45-1.27l.38-1.01,7.73,2.3-1.82,3.74Z"/>
      <path class="cls-1" d="M228.67,27.41c-2.62-.03-5.38-.02-8.28.05-2.9.06-5.78.14-8.66.24s-5.66.22-8.35.36c-2.69.14-5.12.28-7.3.41l-3.22,1.01-3.84-4.7c-.26-.29-.43-.64-.53-1.06-.1-.42-.19-.86-.29-1.34l.96-.29c.06.35.22.67.46.94s.52.5.84.7c.32.1.7.2,1.15.31.45.11.92.22,1.42.31.5.1.99.18,1.49.24.5.06.95.1,1.37.1,2.21.06,4.65.08,7.32.05,2.67-.03,5.38-.09,8.14-.17,2.75-.08,5.46-.18,8.11-.31,2.66-.13,5.06-.24,7.2-.34l4.42-1.34,3.74,5.42-.29.38-5.86-.96ZM203.76,7.49v8.54c1.41,0,2.85,0,4.32-.02,1.47-.02,2.91-.04,4.32-.07,1.41-.03,2.76-.08,4.06-.14,1.3-.06,2.47-.16,3.53-.29l3.89-1.39,3.5,4.13-.29.91-4.61-.29c-1.38,0-2.88.02-4.51.05-1.63.03-3.3.07-4.99.12-1.7.05-3.38.1-5.04.17-1.66.06-3.2.11-4.61.14-.83.03-1.74.11-2.74.24-.99.13-1.89.24-2.69.34.1-.54.2-1.23.31-2.06.11-.83.18-1.52.22-2.06v-7.87c0-.8-.38-1.51-1.15-2.14-.77-.62-1.63-1.06-2.59-1.32l.29-1.01,10.03,1.25-1.25,2.78ZM223.39,45.07c-1.31,0-2.77,0-4.37.02-1.6.02-3.24.04-4.92.07-1.68.03-3.34.07-4.97.12-1.63.05-3.12.09-4.46.12-.83.03-1.76.09-2.78.17-1.02.08-1.94.18-2.74.31.1-.54.2-1.22.31-2.02.11-.8.18-1.47.22-2.02.03-.93.02-2.03-.05-3.31-.06-1.28-.18-2.43-.34-3.46-.19-.7-.55-1.26-1.08-1.68-.53-.42-1.18-.78-1.94-1.1l.43-.77,9.07,1.01-.91,2.11v7.58c1.34.06,2.74.1,4.18.1s2.87-.02,4.3-.05c1.42-.03,2.78-.09,4.06-.17,1.28-.08,2.42-.18,3.41-.31l4.13-2.06,4.18,4.75-.24.86-5.47-.29Z"/>
      <path class="cls-1" d="M280.94,5.38c0-.54-.14-1.04-.41-1.49-.27-.45-.62-.84-1.06-1.18s-.92-.64-1.46-.91c-.54-.27-1.09-.5-1.63-.7l.43-1.1,10.61,2.3-1.3,2.98v11.57c.32-.03.63-.06.94-.1.3-.03.63-.08.98-.14l3.22-1.58,3.41,4.13-.24.96-5.23-.29c-.42.06-.89.1-1.42.12-.53.02-1.08.06-1.66.12v3.46c-.83.45-1.57,1.02-2.21,1.7-.64.69-1.18,1.64-1.63,2.86h-1.34v-3.36c-.45.22-.89.52-1.32.89-.43.37-.78.79-1.03,1.27-.64-.22-1.79-.31-3.46-.26-1.66.05-3.57.2-5.71.46-2.14.26-4.4.6-6.77,1.03-2.37.43-4.56.9-6.58,1.42l-2.45,1.73-4.18-4.08c-.45-.45-.8-.99-1.06-1.63-.26-.64-.42-1.28-.48-1.92l1.25-.38c-.03.26-.04.49-.02.7.02.21.1.41.26.6.16.26.39.43.7.53.3.1.6.22.89.38.51.16,1.08.26,1.7.29.62.03,1.35.05,2.18.05,1.18-.16,2.36-.3,3.53-.41,1.17-.11,2.34-.23,3.53-.36l-.1-2.4c-2.02-.26-3.69-.94-5.02-2.06-1.33-1.12-1.99-2.53-1.99-4.22,0-.96.14-1.8.43-2.52.29-.72.68-1.33,1.18-1.85.5-.51,1.08-.94,1.75-1.27.67-.34,1.38-.6,2.11-.79.86-.19,1.39-.62,1.58-1.3l.62-.24,1.2,1.68c1.09-.19,2.21-.24,3.36-.14,1.15.1,2.22.36,3.19.79.98.43,1.78,1.05,2.4,1.85s.95,1.82.98,3.07c0,.96-.17,1.82-.5,2.57-.34.75-.81,1.4-1.42,1.94-.61.54-1.32,1-2.14,1.37-.82.37-1.69.65-2.62.84l-.05,2.21c2.4-.22,4.76-.44,7.08-.65,2.32-.21,4.63-.44,6.94-.7V5.38ZM272.06,7.73c-1.25,0-2.58.02-3.98.07-1.41.05-2.85.11-4.32.19-1.47.08-2.95.18-4.44.31-1.49.13-2.94.27-4.34.43l-2.3,1.06-2.59-2.98c-.29-.35-.52-.77-.7-1.25-.18-.48-.3-.94-.36-1.39l.62-.29c.16.35.36.61.6.77s.52.32.84.48c.54.1,1.12.18,1.73.26.61.08,1.18.12,1.73.12,1.15,0,2.36,0,3.62-.02,1.26-.02,2.55-.06,3.86-.12v-1.63c0-.74-.29-1.34-.86-1.82-.58-.48-1.28-.8-2.11-.96l.34-.86,8.74,1.3-1.3,2.02-.05,1.73c2.05-.1,3.9-.24,5.57-.43l2.59-1.1,2.98,4.13-.53.82c-.61-.13-1.4-.28-2.38-.46-.98-.17-1.96-.29-2.95-.36ZM262.32,34.94l-3.5-3.26c-.42-.35-.72-.96-.91-1.82l.72-.29c.16.29.32.47.48.55.16.08.32.15.48.22.45.16.98.27,1.58.34.61.06,1.14.1,1.58.1,3.2.03,6.29-.02,9.26-.14,2.98-.13,5.52-.29,7.63-.48.38-.13.78-.32,1.18-.58.4-.26.76-.54,1.08-.86l4.7,2.74c-.45.29-.77.58-.96.89-.19.3-.35.65-.48,1.03l-.72,3.5,1.1,3.02-4.51-.1c-2.3.03-4.68.07-7.13.12-2.45.05-4.95.14-7.51.26v3.36c1.44,0,2.8,0,4.08-.02,1.28-.02,2.52-.04,3.72-.07,1.2-.03,2.38-.07,3.53-.12s2.32-.12,3.5-.22l3.74-1.2,3.84,3.89-.24.86-5.14-.38c-3.01.03-5.92.08-8.74.14-2.82.06-5.73.14-8.74.24-.8.03-1.7.08-2.69.14-.99.06-1.89.14-2.69.24.1-.54.19-1.15.29-1.82.1-.67.16-1.28.19-1.82l-.14-3.6c-.06-.58-.42-1.13-1.08-1.68-.66-.54-1.37-.91-2.14-1.1l.34-.82,7.92.91c2.66,0,5.14-.02,7.46-.07,2.32-.05,4.41-.1,6.26-.17l.1-3.55c-1.31,0-2.56.02-3.74.07-1.18.05-2.37.1-3.55.14-1.18.05-2.41.1-3.67.17-1.26.06-2.63.13-4.1.19l-2.4,1.06ZM264.77,13.1c-.29-.13-.54-.22-.74-.26-.21-.05-.52-.04-.94.02-.99.13-1.79.5-2.4,1.1s-.88,1.41-.82,2.4c.06.9.51,1.65,1.34,2.26.83.61,1.95.88,3.36.82,1.44-.06,2.53-.48,3.26-1.25.74-.77,1.1-1.76,1.1-2.98,0-.45-.1-.91-.31-1.39-.21-.48-.5-.91-.89-1.3-.38-.38-.85-.71-1.39-.98-.54-.27-1.15-.41-1.82-.41l1.06,1.34-.82.62Z"/>
      <path class="cls-1" d="M301.15,18.05c-.03-.58-.34-1.14-.91-1.7-.58-.56-1.28-.92-2.11-1.08l.19-.96,7.06.91c1.82.03,3.46,0,4.9-.07s2.77-.18,3.98-.31l.19-5.86c-.61,0-1.28,0-2.02.02-.74.02-1.5.04-2.28.07-.78.03-1.56.07-2.33.12-.77.05-1.49.1-2.16.17l-2.54,1.15-3.41-3.55c-.19-.22-.35-.5-.48-.84-.13-.34-.27-.73-.43-1.18l.62-.29c.1.29.3.54.6.77.3.22.55.37.74.43.99.13,2.05.22,3.17.29,2.02,0,3.89-.03,5.62-.1,1.73-.06,3.31-.17,4.75-.34.74-.22,1.46-.64,2.16-1.25l4.8,2.64c-.8.54-1.31,1.17-1.54,1.87l-.77,5.47,1.06,3.5-4.37-.05c-1.41.06-2.91.13-4.51.19-1.6.06-3.17.18-4.7.34v6.14h.72c1.63,0,3.43-.04,5.4-.12,1.97-.08,4.01-.29,6.12-.65.83-.16,1.79-.36,2.88-.6,1.09-.24,1.95-.5,2.59-.79l1.34.24c-.32.45-.77.9-1.34,1.34-.58.45-1.22.86-1.92,1.25-.7.38-1.46.73-2.26,1.03-.8.3-1.57.52-2.3.65-1.92.35-3.9.62-5.93.79-2.03.18-4.25.33-6.65.46l-3.94.53c.13-.61.21-1.22.24-1.82.03-.61.03-1.18,0-1.73l-.24-7.1ZM311.52,36.34l-3.74-3.74c-.22-.22-.41-.5-.55-.84s-.28-.73-.41-1.18l.67-.34c.16.29.36.52.6.7.24.18.44.31.6.41.45.16,1.02.27,1.7.34.69.06,1.26.1,1.7.1,1.54.03,3.11.04,4.73.02,1.62-.02,3.18-.05,4.7-.1,1.52-.05,2.95-.12,4.3-.22,1.34-.1,2.51-.19,3.5-.29.38-.1.76-.26,1.13-.5.37-.24.71-.5,1.03-.79l4.8,2.69c-.8.54-1.3,1.18-1.49,1.92v8.88c-.83.58-1.57,1.32-2.21,2.23s-1.17,1.9-1.58,2.95h-1.3v-14.02c-2.5-.06-5.02,0-7.56.17s-5.27.31-8.18.41l-2.45,1.2ZM335.66,5.28v19.25c-1.73.9-3.04,2.34-3.94,4.32h-1.25v-8.64l-3.7.43-1.82,1.15-2.88-2.69c-.26-.22-.46-.57-.62-1.03-.16-.46-.27-.86-.34-1.18l.58-.14c.16.22.34.38.55.46.21.08.46.22.74.41.54.06,1.1.08,1.68.05.58-.03,1.14-.05,1.68-.05l4.13-.38v-5.04l-3.74.48-1.87,1.01-2.74-2.88c-.19-.22-.38-.54-.58-.94-.19-.4-.32-.76-.38-1.08l.43-.29c.16.26.35.42.58.5.22.08.48.22.77.41.51.06,1.05.1,1.61.1s1.11-.02,1.66-.05l4.27-.34v-3.74c0-.54-.14-1.04-.41-1.49-.27-.45-.62-.84-1.06-1.18s-.92-.64-1.46-.91c-.54-.27-1.09-.5-1.63-.7l.43-1.1,10.61,2.3-1.3,2.98Z"/>
      <path class="cls-1" d="M350.73,33.6c.42,1.18,1.11,2.3,2.09,3.36.98,1.06,2.17,1.81,3.58,2.26-1.44.26-2.62.92-3.55,1.99-.93,1.07-1.63,2.28-2.11,3.62-.51-1.34-1.22-2.55-2.11-3.62-.9-1.07-2.06-1.74-3.5-1.99,1.41-.45,2.6-1.2,3.58-2.26.98-1.06,1.66-2.18,2.04-3.36ZM347.8,12.43c-.26-3.01-.94-4.66-2.06-4.94v-1.1c.54.03,1.27,0,2.18-.07.91-.08,1.85-.19,2.81-.34.96-.14,1.87-.34,2.74-.58.86-.24,1.54-.5,2.02-.79l.62.91c-.42.51-.74,1.1-.98,1.78-.24.67-.42,1.65-.55,2.93l-2.21,20.69h-2.93l-1.63-18.48Z"/>
      <path class="cls-1" d="M382.65,22.61l3.26-1.87c1.76-1.02,2.98-2.1,3.67-3.24.69-1.14,1.03-2.55,1.03-4.25,0-1.82-.53-3.18-1.58-4.08-1.06-.9-2.59-1.34-4.61-1.34-.54,0-1.13.04-1.75.12s-1.19.2-1.7.36c-.38.67-.7,1.61-.94,2.81-.24,1.2-.41,2.34-.5,3.43l-3.7-.29c.19-1.73.67-3.25,1.44-4.56.77-1.31,1.66-2.24,2.69-2.78l2.11-1.15c1.06-.58,2.77-.86,5.14-.86,1.66,0,3.08.18,4.25.55,1.17.37,2.11.86,2.83,1.46.72.61,1.24,1.32,1.56,2.14.32.82.48,1.67.48,2.57,0,2.02-.53,3.68-1.58,4.99-1.06,1.31-2.45,2.53-4.18,3.65,1.57.77,2.88,1.52,3.94,2.26,1.06.74,1.9,1.5,2.52,2.28.62.79,1.06,1.64,1.32,2.57.26.93.38,1.98.38,3.17,0,1.12-.15,2.13-.46,3.02-.3.9-.68,1.68-1.13,2.35-.45.67-.92,1.24-1.42,1.7-.5.46-.92.81-1.27,1.03l-2.54,1.63c-.61.38-1.46.68-2.57.89-1.1.21-2.18.31-3.24.31s-2.05-.06-2.88-.19c-.83-.13-1.58-.29-2.23-.48-.66-.19-1.22-.39-1.68-.6-.46-.21-.86-.41-1.18-.6-.45.03-.84.14-1.18.34-.34.19-.63.54-.89,1.06h-1.49c.48-1.09.91-2.47,1.3-4.15.38-1.68.46-3.7.24-6.07l1.49.24c.19,1.31.62,2.43,1.27,3.36.66.93,1.44,1.7,2.35,2.3.91.61,1.89,1.06,2.93,1.34,1.04.29,2.02.43,2.95.43.8,0,1.62-.05,2.47-.14.85-.1,1.58-.27,2.18-.53.26-.29.47-.65.65-1.08.18-.43.31-.89.41-1.37.1-.48.17-.96.22-1.44.05-.48.07-.93.07-1.34,0-.86-.11-1.66-.34-2.4-.22-.74-.62-1.46-1.2-2.18-.58-.72-1.38-1.44-2.4-2.16-1.02-.72-2.35-1.48-3.98-2.28l-1.44.82-1.1-1.73Z"/>
      <path class="cls-1" d="M424.56,6.58c-2.3.74-4.29,1.66-5.95,2.76-1.66,1.1-3.06,2.34-4.2,3.7-1.14,1.36-2.01,2.84-2.62,4.44-.61,1.6-1.01,3.26-1.2,4.99,1.12-.77,2.41-1.49,3.86-2.16,1.46-.67,3.06-1.01,4.82-1.01,1.86,0,3.42.25,4.68.74,1.26.5,2.29,1.18,3.07,2.04.79.86,1.34,1.87,1.68,3.02.34,1.15.5,2.38.5,3.7,0,1.47-.18,2.82-.55,4.03-.37,1.22-.86,2.3-1.46,3.24-.61.94-1.28,1.73-2.02,2.35s-1.46,1.08-2.16,1.37l-2.4.86c-.93.35-1.68.58-2.26.67s-1.25.14-2.02.14c-2.02,0-3.79-.4-5.3-1.2s-2.8-1.89-3.84-3.26c-1.04-1.38-1.82-2.98-2.33-4.82-.51-1.84-.77-3.8-.77-5.88,0-3.04.51-5.78,1.54-8.21,1.02-2.43,2.42-4.54,4.2-6.34,1.78-1.79,3.88-3.26,6.31-4.42,2.43-1.15,5.04-1.97,7.82-2.45l.58,1.68ZM417.5,22.27c-1.25,0-2.48.31-3.7.94-1.22.62-2.34,1.37-3.36,2.23,0,1.47.14,2.98.41,4.54s.75,2.97,1.44,4.25c.69,1.28,1.61,2.34,2.76,3.17,1.15.83,2.62,1.25,4.42,1.25.19,0,.4,0,.62-.02.22-.02.46-.04.72-.07.64-.9,1.14-2.08,1.51-3.55.37-1.47.55-3.15.55-5.04,0-1.02-.09-2-.26-2.93-.18-.93-.47-1.74-.89-2.45-.42-.7-.97-1.26-1.66-1.68-.69-.42-1.54-.62-2.57-.62Z"/>
      <path class="cls-1" d="M437.47,9.46c.1-.67.11-1.22.05-1.63-.06-.42-.24-.75-.53-1.01v-1.25h14.64c.61,0,1.11-.02,1.51-.05.4-.03.74-.11,1.01-.24.27-.13.5-.31.67-.55.18-.24.36-.58.55-1.03h1.2c-.26.42-.46.98-.62,1.68-.16.7-.3,1.43-.41,2.18-.11.75-.18,1.48-.22,2.18-.03.7-.02,1.25.05,1.63h-1.1c-.16-.26-.35-.46-.58-.6-.22-.14-.7-.22-1.44-.22h-12.38l-1.06,6.24c3.74.48,6.81,1.14,9.19,1.97,2.38.83,4.25,1.8,5.62,2.9,1.36,1.1,2.3,2.35,2.83,3.74.53,1.39.79,2.89.79,4.49,0,1.25-.15,2.36-.46,3.34-.3.98-.68,1.82-1.13,2.54s-.92,1.32-1.42,1.8c-.5.48-.92.83-1.27,1.06l-2.45,1.58c-.67.45-1.57.77-2.69.96-1.12.19-2.19.29-3.22.29-2.18,0-3.89-.22-5.14-.67-1.25-.45-2.21-.85-2.88-1.2-.42.03-.79.14-1.13.34-.34.19-.63.54-.89,1.06h-1.49c.48-1.09.91-2.47,1.3-4.15.38-1.68.46-3.7.24-6.07l1.49.24c.19,1.34.63,2.48,1.32,3.41.69.93,1.49,1.7,2.4,2.3.91.61,1.89,1.05,2.93,1.32,1.04.27,2.02.41,2.95.41.83,0,1.66-.05,2.5-.14.83-.1,1.52-.27,2.06-.53.26-.29.47-.66.65-1.13s.31-.96.41-1.49.17-1.06.22-1.58.07-1,.07-1.42c0-1.34-.22-2.56-.67-3.65-.45-1.09-1.27-2.05-2.47-2.88-1.2-.83-2.85-1.57-4.94-2.21-2.1-.64-4.79-1.2-8.09-1.68l2.02-12.29Z"/>
      <path class="cls-1" d="M478.36,7.34c-.96.1-1.92.3-2.88.62-.96.32-1.81.78-2.54,1.37-.74.59-1.34,1.34-1.8,2.23-.46.9-.7,1.94-.7,3.12,0,.86.16,1.64.48,2.33.32.69.75,1.28,1.3,1.78.54.5,1.16.89,1.85,1.18.69.29,1.4.43,2.14.43.83,0,1.61-.13,2.33-.38s1.34-.62,1.87-1.08c.53-.46.94-1.02,1.25-1.66.3-.64.47-1.34.5-2.11.03-.9-.06-1.68-.29-2.35-.22-.67-.53-1.25-.91-1.73-.38-.48-.82-.85-1.32-1.1-.5-.26-.98-.43-1.46-.53-.19-.03-.39-.04-.6-.02-.21.02-.41.02-.6.02.13-.35.36-.66.7-.94.34-.27.73-.44,1.18-.5,1.09-.13,2.16-.07,3.22.17,1.06.24,2,.67,2.83,1.3s1.5,1.42,1.99,2.4c.5.98.73,2.12.7,3.43-.03,1.44-.39,2.7-1.08,3.77-.69,1.07-1.57,1.98-2.64,2.71-1.07.74-2.3,1.29-3.67,1.66-1.38.37-2.77.55-4.18.55-1.5,0-2.93-.21-4.27-.62-1.34-.42-2.52-1.02-3.53-1.82-1.01-.8-1.81-1.78-2.4-2.93-.59-1.15-.89-2.48-.89-3.98,0-1.34.29-2.58.86-3.7s1.36-2.09,2.35-2.9c.99-.82,2.14-1.45,3.46-1.9s2.72-.67,4.22-.67c-.1-.45-.47-.94-1.13-1.49-.66-.54-1.4-.96-2.23-1.25l.48-1.01,7.15,2.11-1.73,3.5ZM477.64,32.21l-3.65-3.7c-.19-.22-.35-.51-.48-.86-.13-.35-.27-.75-.43-1.2l.58-.29c.1.29.28.57.55.84.27.27.49.44.65.5.54.06,1.1.13,1.68.19.58.06,1.14.11,1.68.14,1.54,0,3.09,0,4.66-.02,1.57-.02,3.09-.05,4.56-.1,1.47-.05,2.86-.1,4.15-.17,1.3-.06,2.44-.14,3.43-.24.38-.13.77-.31,1.15-.55.38-.24.74-.5,1.06-.79l4.8,2.64c-.42.29-.73.58-.94.89-.21.3-.36.65-.46,1.03l-.86,4.46,1.06,3.12-4.56-.1c-.99,0-2.08.02-3.26.05-1.18.03-2.41.06-3.67.1-1.26.03-2.54.08-3.84.14s-2.55.11-3.77.14v4.32c2.69,0,5.16-.02,7.42-.05,2.26-.03,4.46-.11,6.6-.24l4.13-1.54,4.18,4.22-.24.86-5.47-.34c-2.62,0-5.41.04-8.35.12-2.95.08-5.78.15-8.5.22-.83,0-1.73.04-2.69.12-.96.08-1.82.18-2.59.31.13-.61.22-1.23.29-1.87.06-.64.11-1.26.14-1.87l-.19-4.7c0-.29-.11-.58-.34-.89-.22-.3-.5-.58-.82-.84-.32-.26-.68-.49-1.08-.7-.4-.21-.79-.36-1.18-.46l.34-.86,7.49.96c1.18,0,2.42,0,3.72-.02,1.3-.02,2.58-.04,3.84-.07,1.26-.03,2.47-.08,3.62-.14,1.15-.06,2.21-.13,3.17-.19l.29-4.18c-1.25,0-2.48,0-3.7.02-1.22.02-2.43.04-3.65.07-1.22.03-2.48.07-3.79.12-1.31.05-2.69.1-4.13.17l-2.59,1.2ZM501.26,5.28v15.89c-.83.45-1.6,1.03-2.3,1.75-.7.72-1.28,1.59-1.73,2.62h-1.25V5.38c0-.54-.14-1.04-.41-1.49-.27-.45-.62-.84-1.06-1.18-.43-.34-.92-.64-1.46-.91-.54-.27-1.09-.5-1.63-.7l.43-1.1,10.7,2.3-1.3,2.98Z"/>
      <path class="cls-1" d="M542.25,24.14c-1.34.03-2.6.07-3.77.12-1.17.05-2.33.1-3.48.14-1.15.05-2.3.1-3.46.17-1.15.06-2.37.13-3.65.19-.26.32-.47.65-.65.98-.18.34-.31.71-.41,1.13h-1.3l-1.2-17.14-1.73-2.21c-.16-.22-.33-.53-.5-.91s-.34-.75-.5-1.1l.58-.38c.19.26.41.46.65.62.24.16.44.29.6.38.45.16,1.01.28,1.68.36.67.08,1.23.14,1.68.17,2.56.1,4.99.1,7.3.02,2.3-.08,4.38-.23,6.24-.46.38-.1.77-.25,1.15-.46.38-.21.72-.49,1.01-.84l5.14,2.69c-.45.29-.79.59-1.03.91-.24.32-.44.69-.6,1.1l-.62,8.4c-.42.29-.83.67-1.25,1.13-.42.46-.75.95-1.01,1.46l2.21-.53,2.88,3.74-.34.53-5.62-.24ZM533.99,35.38l-3.41-3.41c-.22-.22-.42-.6-.6-1.13-.18-.53-.33-1.01-.46-1.46l.72-.29c.16.29.36.53.6.72.24.19.44.34.6.43.45.16,1.01.29,1.68.38.67.1,1.23.14,1.68.14,1.54,0,3.1,0,4.7-.02,1.6-.02,3.16-.05,4.68-.1s2.94-.1,4.27-.17c1.33-.06,2.49-.14,3.48-.24.42-.06.82-.22,1.2-.46s.7-.52.96-.84l4.8,2.64c-.45.29-.81.61-1.08.96-.27.35-.41.74-.41,1.15v9.7c-.83.58-1.57,1.32-2.21,2.23-.64.91-1.18,1.9-1.63,2.95h-1.25v-15.07c-2.5.06-5.05.15-7.66.26-2.61.11-5.35.26-8.23.46l-2.45,1.15ZM540.76,9.74c-.93,0-1.83,0-2.71.02-.88.02-1.76.04-2.64.07-.88.03-1.79.07-2.74.12-.94.05-1.94.09-3,.12l.24,11.28c1.92,0,3.77-.03,5.54-.1,1.78-.06,3.51-.14,5.21-.24l.1-11.28ZM557.9,5.28v9.5c.45,0,.87-.02,1.27-.07.4-.05.82-.1,1.27-.17l3.22-1.58,3.41,4.13-.29.96-4.66-.29c-.51.03-1.15.07-1.92.12-.77.05-1.54.1-2.3.17v5.86c-1.66.86-2.98,2.3-3.94,4.32h-1.25V5.38c0-.54-.14-1.04-.41-1.49-.27-.45-.62-.84-1.06-1.18-.43-.34-.92-.64-1.46-.91-.54-.27-1.09-.5-1.63-.7l.43-1.1,10.61,2.3-1.3,2.98Z"/>
      <path class="cls-1" d="M592.6,10.56c-1.22,0-2.54,0-3.98.02-1.44.02-2.93.06-4.46.12-1.54.06-3.07.15-4.61.26-1.54.11-3.01.23-4.42.36l-2.4.96-2.5-3.22c-.26-.35-.48-.77-.67-1.25-.19-.48-.32-.93-.38-1.34l.62-.34c.13.35.35.64.67.86.32.22.64.42.96.58.54.06,1.12.13,1.73.19.61.06,1.18.1,1.73.1,1.12,0,2.3,0,3.55-.02,1.25-.02,2.53-.04,3.84-.07v-2.54c0-.83-.31-1.5-.94-1.99s-1.35-.84-2.18-1.03l.48-.86,8.93,1.3-1.39,2.26-.1,2.69c1.06-.06,2.08-.13,3.07-.19s1.92-.14,2.78-.24l2.74-1.1,3.07,4.51-.53.82c-.61-.13-1.44-.28-2.5-.46-1.06-.17-2.1-.29-3.12-.36ZM583.1,11.71l1.34,1.97c1.09-.13,2.24-.1,3.46.1,1.22.19,2.34.56,3.36,1.1,1.02.54,1.89,1.25,2.59,2.11.7.86,1.1,1.89,1.2,3.07.1,1.31-.12,2.5-.65,3.58-.53,1.07-1.26,1.99-2.18,2.76-.93.77-2.02,1.38-3.26,1.82-1.25.45-2.54.7-3.89.77-1.38.06-2.67-.09-3.89-.46-1.22-.37-2.3-.9-3.24-1.61-.94-.7-1.7-1.54-2.26-2.5-.56-.96-.86-2.02-.89-3.17-.06-1.02.07-1.96.41-2.81.34-.85.78-1.59,1.34-2.23.56-.64,1.2-1.18,1.92-1.63.72-.45,1.46-.78,2.23-1.01.93-.26,1.49-.8,1.68-1.63l.72-.24ZM603.69,45.84c-2.78,0-5.7.04-8.74.12-3.04.08-5.92.18-8.64.31-.51.67-.86,1.42-1.06,2.26h-1.3l-1.2-13.2-2.26-2.64c-.16-.16-.31-.42-.46-.77-.14-.35-.26-.7-.36-1.06l.58-.43c.16.32.36.54.6.65.24.11.46.2.65.26.42.13.96.24,1.63.34.67.1,1.3.16,1.87.19,1.44.06,2.93.09,4.46.07,1.54-.02,3.03-.05,4.49-.1,1.46-.05,2.85-.11,4.18-.19,1.33-.08,2.52-.17,3.58-.26.45-.1.87-.24,1.27-.43.4-.19.74-.46,1.03-.82l4.9,2.5c-.45.29-.78.62-.98.98-.21.37-.38.74-.5,1.13l-.67,5.18c-.48.26-.96.59-1.44,1.01-.48.42-.8.88-.96,1.39l2.5-.72,2.88,3.94-.38.53-5.66-.24ZM585.54,16.99c-.32-.13-.62-.22-.89-.26s-.63-.02-1.08.07c-1.12.16-2.06.69-2.81,1.58-.75.9-1.1,1.9-1.03,3.02.03.61.2,1.16.5,1.66s.7.92,1.2,1.27c.5.35,1.06.62,1.68.79.62.18,1.29.23,1.99.17.83-.03,1.56-.21,2.18-.53.62-.32,1.15-.73,1.58-1.22.43-.5.75-1.05.96-1.66.21-.61.31-1.25.31-1.92,0-.48-.11-.98-.34-1.51-.22-.53-.54-1.02-.96-1.49-.42-.46-.91-.87-1.49-1.22-.58-.35-1.22-.58-1.92-.67l.91,1.25-.82.67ZM588.28,42.96c2.3-.03,4.68-.07,7.13-.12,2.45-.05,4.65-.12,6.6-.22l.14-7.78c-2.37,0-4.65.03-6.84.1-2.19.06-4.58.16-7.18.29l.14,7.73ZM608.06,5.28v19.78c-.83.45-1.6,1.02-2.3,1.73s-1.28,1.57-1.73,2.59h-1.25V5.38c0-.54-.14-1.04-.41-1.49s-.62-.84-1.06-1.18-.92-.64-1.46-.91c-.54-.27-1.09-.5-1.63-.7l.43-1.1,10.7,2.3-1.3,2.98Z"/>
      <path class="cls-1" d="M632.01,8.35c-1.02.06-2.01.26-2.95.58-.94.32-1.78.77-2.5,1.34s-1.3,1.3-1.73,2.18c-.43.88-.65,1.93-.65,3.14,0,.9.15,1.7.46,2.42.3.72.71,1.33,1.22,1.82s1.11.88,1.8,1.15c.69.27,1.42.41,2.18.41,1.79,0,3.19-.5,4.2-1.49,1.01-.99,1.54-2.26,1.61-3.79.06-1.86-.28-3.23-1.03-4.13-.75-.9-1.69-1.41-2.81-1.54-.19-.03-.4-.04-.62-.02-.22.02-.42.02-.58.02.26-.8.88-1.3,1.87-1.49,1.15-.16,2.26-.12,3.31.12,1.06.24,1.98.67,2.76,1.3s1.41,1.43,1.87,2.42c.46.99.68,2.14.65,3.46-.03,1.41-.37,2.66-1.01,3.77-.64,1.1-1.49,2.02-2.54,2.76-1.06.74-2.26,1.3-3.62,1.68s-2.76.58-4.2.58c-1.57-.03-3.02-.26-4.37-.7-1.34-.43-2.5-1.05-3.48-1.85-.98-.8-1.74-1.78-2.3-2.93-.56-1.15-.84-2.48-.84-3.98,0-1.34.26-2.58.79-3.7.53-1.12,1.27-2.09,2.23-2.9.96-.82,2.1-1.46,3.41-1.92,1.31-.46,2.75-.7,4.32-.7-.13-.45-.51-.96-1.15-1.54-.64-.58-1.38-1.01-2.21-1.3l.48-1.06,7.15,2.3-1.73,3.55ZM635.94,45.31c-1.18.03-2.42.07-3.7.12-1.28.05-2.48.15-3.6.31-.86.54-1.52,1.42-1.97,2.64h-1.01l-.38-15.98c-.03-.74-.35-1.3-.96-1.7-.61-.4-1.23-.68-1.87-.84l.29-1.06,8.06,1.34-.86,2.21v2.3c.61,0,1.34-.06,2.18-.17.85-.11,1.48-.31,1.9-.6.32.93.83,1.22,1.54.86l.38-.19v-3.41c0-.64-.24-1.22-.72-1.73-.48-.51-1.12-.88-1.92-1.1l.29-1.01,8.06,1.63-1.1,2.06-.34,13.06c-.7.29-1.34.73-1.9,1.32-.56.59-1.02,1.3-1.37,2.14h-1.01v-2.21ZM629.9,42.58c.93-.03,1.92-.06,2.98-.1,1.06-.03,2.08-.1,3.07-.19v-6.43l-1.44,1.68c-.54,0-1.26,0-2.16.02-.9.02-1.71.09-2.45.22v4.8ZM651.3,38.02c-.16-.22-.3-.35-.41-.38-.11-.03-.25-.03-.41,0h-.05c-.86,1.54-1.8,2.96-2.81,4.27s-1.98,2.33-2.9,3.07c-.93.77-1.81,1.36-2.64,1.78-.83.42-1.84.83-3.02,1.25l-.34-1.15c.35-.03.7-.09,1.03-.17s.63-.22.89-.41c.22-.19.38-.37.48-.53.1-.16.19-.34.29-.53.1-.19.2-.41.31-.65.11-.24.28-.54.5-.89.54-.8,1.1-1.7,1.68-2.71.58-1.01,1.11-2.06,1.61-3.17.5-1.1.94-2.23,1.34-3.38.4-1.15.68-2.29.84-3.41.13-.8-.14-1.51-.79-2.14s-1.46-1.05-2.42-1.27l.48-1.15,9.89,3.36c-.35.16-.67.42-.96.79s-.51.71-.67,1.03c-.48,1.41-1.12,2.9-1.92,4.46.16.06.32.06.48,0s.29-.11.38-.14c.1-.03.22-.11.38-.24.22-.16.41-.24.55-.24s.31.03.5.1c.19.93.75,1.69,1.68,2.28.93.59,2.16,1.06,3.7,1.42.03.45.03.88,0,1.3-.03.42-.07.85-.12,1.3-.05.45-.07.9-.07,1.37s.08.95.24,1.46c-.19.22-.46.46-.79.7s-.69.49-1.06.74c-.37.26-.73.51-1.08.77-.35.25-.62.51-.82.77l-.72-.77c.35-.16.63-.37.84-.62.21-.26.23-.62.07-1.1-.22-.61-.5-1.24-.84-1.9-.34-.66-.7-1.3-1.08-1.94-.38-.64-.78-1.25-1.18-1.82-.4-.58-.76-1.07-1.08-1.49ZM655.43,5.28v17.18c-.83.45-1.58,1.06-2.26,1.85s-1.23,1.69-1.68,2.71h-1.25v-11.42l-2.74.29-2.3,1.39-2.93-3.12c-.22-.22-.45-.59-.67-1.1s-.37-.93-.43-1.25l.62-.24c.16.32.37.54.62.65.26.11.53.26.82.46.51.03,1.12.05,1.82.05h1.87l3.31-.29v-7.06c0-.54-.14-1.04-.41-1.49-.27-.45-.62-.84-1.06-1.18-.43-.34-.92-.64-1.46-.91-.54-.27-1.09-.5-1.63-.7l.43-1.1,10.61,2.3-1.3,2.98Z"/>
      <path class="cls-1" d="M702.71,27.41c-2.62-.03-5.38-.02-8.28.05-2.9.06-5.78.14-8.66.24s-5.66.22-8.35.36c-2.69.14-5.12.28-7.3.41l-3.22,1.01-3.84-4.7c-.26-.29-.43-.64-.53-1.06-.1-.42-.19-.86-.29-1.34l.96-.29c.06.35.22.67.46.94.24.27.52.5.84.7.32.1.7.2,1.15.31s.92.22,1.42.31c.5.1.99.18,1.49.24.5.06.95.1,1.37.1,2.21.06,4.65.08,7.32.05,2.67-.03,5.38-.09,8.14-.17,2.75-.08,5.46-.18,8.11-.31s5.06-.24,7.2-.34l4.42-1.34,3.74,5.42-.29.38-5.86-.96ZM677.8,7.49v8.54c1.41,0,2.85,0,4.32-.02,1.47-.02,2.91-.04,4.32-.07s2.76-.08,4.06-.14c1.3-.06,2.47-.16,3.53-.29l3.89-1.39,3.5,4.13-.29.91-4.61-.29c-1.38,0-2.88.02-4.51.05-1.63.03-3.3.07-4.99.12-1.7.05-3.38.1-5.04.17-1.66.06-3.2.11-4.61.14-.83.03-1.74.11-2.74.24-.99.13-1.89.24-2.69.34.1-.54.2-1.23.31-2.06.11-.83.18-1.52.22-2.06v-7.87c0-.8-.38-1.51-1.15-2.14-.77-.62-1.63-1.06-2.59-1.32l.29-1.01,10.03,1.25-1.25,2.78ZM697.43,45.07c-1.31,0-2.77,0-4.37.02-1.6.02-3.24.04-4.92.07-1.68.03-3.34.07-4.97.12s-3.12.09-4.46.12c-.83.03-1.76.09-2.78.17-1.02.08-1.94.18-2.74.31.1-.54.2-1.22.31-2.02.11-.8.18-1.47.22-2.02.03-.93.02-2.03-.05-3.31-.06-1.28-.18-2.43-.34-3.46-.19-.7-.55-1.26-1.08-1.68-.53-.42-1.18-.78-1.94-1.1l.43-.77,9.07,1.01-.91,2.11v7.58c1.34.06,2.74.1,4.18.1s2.87-.02,4.3-.05c1.42-.03,2.78-.09,4.06-.17,1.28-.08,2.42-.18,3.41-.31l4.13-2.06,4.18,4.75-.24.86-5.47-.29Z"/>
      <path class="cls-1" d="M732.47,9.94c1.86-.03,3.77-.09,5.74-.17s3.77-.25,5.4-.5c.48-.19.86-.41,1.15-.65s.54-.54.77-.89l6,3.22c-.35.16-.7.42-1.06.77-.35.35-.61.74-.77,1.15-.9,2.5-2.06,4.83-3.5,7.01-1.44,2.18-2.99,4.15-4.66,5.93-1.66,1.78-3.34,3.31-5.04,4.61s-3.25,2.3-4.66,3c-.86.45-1.74.84-2.64,1.18-.9.34-1.82.63-2.78.89-.83.22-1.73.38-2.69.48l.1-1.25c.38.06.75.09,1.1.07.35-.02.74-.09,1.15-.22.64-.19,1.13-.46,1.46-.82.34-.35.76-.74,1.27-1.15,1.18-.99,2.49-2.22,3.91-3.7,1.42-1.47,2.82-3.1,4.2-4.87,1.38-1.78,2.67-3.63,3.89-5.57,1.22-1.94,2.24-3.85,3.07-5.74-.71-.03-1.54-.03-2.5,0s-1.94.08-2.95.14c-1.01.06-1.98.14-2.9.24-.93.1-1.73.19-2.4.29l-2.06,1.34-3.41-3.7c-.38-.45-.66-.9-.82-1.34-.16-.45-.29-.9-.38-1.34l.72-.24c.06.45.25.78.55,1.01.3.22.68.42,1.13.58.54.06,1.13.12,1.75.17s1.24.07,1.85.07ZM762.42,40.18c-.93.67-1.71,1.7-2.35,3.07-.64,1.38-1.07,2.98-1.3,4.8h-1.34c0-.9-.02-1.73-.05-2.5-.03-.77-.06-1.5-.1-2.21-.03-.7-.06-1.41-.1-2.11-.03-.7-.05-1.46-.05-2.26V5.38c0-.54-.14-1.04-.41-1.49-.27-.45-.62-.84-1.06-1.18-.43-.34-.92-.64-1.46-.91-.54-.27-1.09-.5-1.63-.7l.43-1.1,10.66,2.3-1.25,2.98v34.9Z"/>
      <path class="cls-1" d="M809.37,27.12c-2.14-.03-4.36-.03-6.65,0-2.29.03-4.58.08-6.89.14v7.73c-1.63.83-2.93,2.27-3.89,4.32h-1.25v-11.86c-2.5.1-4.88.21-7.15.34-2.27.13-4.37.26-6.29.38l-3.36,1.06-3.94-4.7c-.26-.29-.43-.64-.53-1.06-.1-.42-.19-.85-.29-1.3l.96-.34c.06.35.22.66.46.91.24.26.52.48.84.67.32.13.71.24,1.18.34.46.1.96.18,1.49.26.53.08,1.05.15,1.56.22.51.06.98.1,1.39.1,2.18.06,4.58.09,7.2.07,2.62-.02,5.29-.06,7.99-.14s5.36-.18,7.97-.31c2.61-.13,5-.24,7.18-.34l4.61-1.68,3.79,5.86-.29.38-6.1-1.06ZM803.75,45.65c-1.31,0-2.78,0-4.42.02-1.63.02-3.3.04-5.02.07-1.71.03-3.4.07-5.06.12s-3.17.09-4.51.12c-.83.03-1.75.09-2.76.17-1.01.08-1.9.18-2.66.31.1-.54.2-1.22.31-2.02.11-.8.18-1.47.22-2.02.03-.93.02-1.91-.05-2.95s-.18-2.06-.34-3.05c-.22-.7-.61-1.26-1.15-1.68-.54-.42-1.18-.78-1.92-1.1l.38-.77,9.12,1.01-.96,2.11v6.86c1.34.06,2.76.1,4.25.12,1.49.02,2.96,0,4.42-.02s2.84-.1,4.15-.19c1.31-.1,2.46-.21,3.46-.33l4.13-2.02,4.13,4.75-.19.82-5.52-.34ZM794.92,5.9c-1.06-.03-2.06.09-3.02.36s-1.82.7-2.57,1.27c-.75.58-1.35,1.3-1.8,2.16-.45.86-.67,1.87-.67,3.02,0,.8.16,1.53.48,2.18.32.66.74,1.22,1.27,1.7.53.48,1.14.85,1.85,1.1.7.26,1.46.38,2.26.38.93,0,1.76-.14,2.5-.41.74-.27,1.36-.64,1.87-1.1.51-.46.9-1,1.18-1.61.27-.61.41-1.25.41-1.92,0-1.6-.39-2.82-1.18-3.67-.79-.85-1.72-1.35-2.81-1.51-.19-.03-.39-.06-.6-.07-.21-.02-.39-.02-.55-.02.26-.74.85-1.18,1.78-1.34,1.12-.19,2.21-.17,3.26.07,1.06.24,2,.66,2.83,1.25.83.59,1.5,1.36,1.99,2.3s.73,2.02.7,3.24c-.03,1.28-.38,2.43-1.03,3.46-.66,1.02-1.52,1.89-2.59,2.59s-2.3,1.25-3.67,1.63c-1.38.38-2.8.59-4.27.62-1.57.03-3.04-.15-4.42-.55-1.38-.4-2.57-.98-3.58-1.75-1.01-.77-1.81-1.71-2.4-2.83-.59-1.12-.89-2.38-.89-3.79,0-1.28.27-2.48.82-3.6s1.3-2.07,2.26-2.86c.96-.78,2.09-1.39,3.41-1.82,1.31-.43,2.72-.63,4.22-.6-.06-.45-.39-.9-.98-1.34-.59-.45-1.38-.83-2.38-1.15l.38-.96,7.54,2.02-1.58,3.55Z"/>
      <path class="cls-2" d="M91.08,98.58c-.35-1.02-.96-1.97-1.82-2.83-.86-.86-1.92-1.49-3.17-1.87.9-.29,1.63-.86,2.21-1.73.58-.86,1.21-1.93,1.9-3.19.69-1.26,1.57-2.68,2.64-4.25,1.07-1.57,2.57-3.17,4.49-4.8-1.06,1.47-1.9,2.96-2.54,4.46-.64,1.5-1.03,2.9-1.18,4.18-.14,1.28-.02,2.39.38,3.34.4.94,1.13,1.61,2.18,1.99-1.22.38-2.28,1.01-3.19,1.87-.91.86-1.54,1.81-1.9,2.83ZM102.65,98.58c-.35-1.02-.96-1.97-1.82-2.83-.86-.86-1.92-1.49-3.17-1.87.9-.29,1.63-.86,2.21-1.73.58-.86,1.21-1.93,1.9-3.19.69-1.26,1.57-2.68,2.64-4.25,1.07-1.57,2.57-3.17,4.49-4.8-1.06,1.47-1.9,2.96-2.54,4.46s-1.03,2.9-1.18,4.18c-.14,1.28-.02,2.39.38,3.34.4.94,1.13,1.61,2.18,1.99-1.22.38-2.28,1.01-3.19,1.87s-1.54,1.81-1.9,2.83Z"/>
      <path class="cls-2" d="M126.07,102.61c-.13-.16-.24-.29-.34-.38-.1-.1-.24-.14-.43-.14-.22,0-.48.11-.77.34-1.02,1.63-2.1,3.15-3.22,4.56-1.12,1.41-2.26,2.62-3.41,3.65-1.12,1.02-2.29,1.94-3.5,2.74-1.22.8-2.54,1.41-3.98,1.82l.05-1.3c.54-.06.98-.17,1.3-.31.32-.14.59-.3.82-.46.19-.19.36-.41.5-.65.14-.24.29-.51.43-.82.14-.3.32-.62.53-.96.21-.34.47-.7.79-1.08,2.05-2.5,3.86-5.34,5.42-8.54,1.57-3.2,2.74-6.51,3.5-9.94.06-.8-.2-1.51-.79-2.14-.59-.62-1.37-1.14-2.33-1.56l.67-1.15,10.18,3.84c-.38.19-.78.46-1.18.82-.4.35-.68.7-.84,1.06-.45,1.41-.99,2.82-1.63,4.22-.64,1.41-1.34,2.8-2.11,4.18.13.06.27.06.43,0,.19-.03.38-.1.55-.19.18-.1.31-.19.41-.29.19-.16.37-.28.53-.36.16-.08.38-.12.67-.12.48,1.38,1.29,2.48,2.42,3.31,1.14.83,2.41,1.52,3.82,2.06.06.54.09,1.06.07,1.56-.02.5-.04,1-.07,1.51-.03.51-.04,1.04-.02,1.58.02.54.07,1.12.17,1.73-.16.26-.42.53-.77.82-.35.29-.72.59-1.1.91-.38.32-.77.62-1.15.91-.38.29-.67.56-.86.82l-.82-.67c.35-.26.69-.56,1.01-.91.32-.35.42-.78.29-1.3-.16-.77-.46-1.59-.89-2.47-.43-.88-.91-1.74-1.44-2.57-.53-.83-1.06-1.61-1.58-2.33-.53-.72-.97-1.32-1.32-1.8ZM143.83,117.54c-.8.93-1.52,2.02-2.16,3.29-.64,1.26-1.07,2.81-1.3,4.63h-1.44c0-.9-.02-1.73-.05-2.5-.03-.77-.06-1.51-.1-2.23-.03-.72-.06-1.43-.1-2.14-.03-.7-.05-1.46-.05-2.26v-16.22l-2.78.43-1.92,1.06-2.59-2.83c-.19-.25-.43-.64-.72-1.15s-.46-.93-.53-1.25l.48-.29c.16.26.4.46.72.62s.62.32.91.48c.54.03,1.09.04,1.63.02.54-.02,1.09-.02,1.63-.02l3.17-.29v-8.98c0-.54-.12-1.03-.36-1.46-.24-.43-.57-.82-.98-1.18-.42-.35-.88-.66-1.39-.94-.51-.27-1.04-.5-1.58-.7l.43-1.1,10.32,2.3-1.25,2.98v29.71ZM153.09,120.18c-.8.93-1.53,2.02-2.18,3.26-.66,1.25-1.08,2.78-1.27,4.61h-1.44c0-.9-.02-1.73-.05-2.5-.03-.77-.06-1.5-.1-2.21-.03-.7-.06-1.41-.1-2.11-.03-.7-.05-1.46-.05-2.26v-33.6c0-.54-.14-1.04-.41-1.49-.27-.45-.62-.84-1.06-1.18-.43-.34-.92-.64-1.46-.91-.54-.27-1.09-.5-1.63-.7l.43-1.1,10.56,2.3-1.25,2.98v34.9Z"/>
      <path class="cls-2" d="M167.45,89.89c1.34-.06,2.74-.12,4.2-.17,1.46-.05,2.71-.17,3.77-.36.86-.32,1.54-.83,2.02-1.54l5.66,2.98c-.42.13-.77.38-1.06.74-.29.37-.5.74-.62,1.13-.16.45-.32.9-.48,1.37-.16.46-.32.92-.48,1.37.42.03.84.05,1.27.05h1.27l3.26-.19v-7.34c0-.54-.12-1.03-.36-1.46-.24-.43-.56-.82-.96-1.18-.4-.35-.86-.66-1.37-.94-.51-.27-1.04-.5-1.58-.7l.43-1.1,10.27,2.3-1.25,2.98v29.71c-.77.93-1.48,2.02-2.14,3.29-.66,1.26-1.1,2.81-1.32,4.63h-1.39c0-.9-.02-1.73-.05-2.5-.03-.77-.07-1.51-.12-2.23-.05-.72-.09-1.43-.12-2.14-.03-.7-.05-1.46-.05-2.26v-7.87l-3.07.43-1.97,1.06-2.78-2.64c-.35-.35-.64-.74-.86-1.15-.22-.42-.38-.85-.48-1.3l.53-.24c.16.35.38.57.67.65s.64.2,1.06.36c.51.03,1.07.03,1.68,0,.61-.03,1.18-.05,1.73-.05l3.5-.29v-6.82l-2.78.29-1.92,1.1-2.16-2.11c-.83,1.76-1.76,3.42-2.78,4.97-1.02,1.55-2.09,2.97-3.19,4.25-1.1,1.28-2.21,2.42-3.31,3.43s-2.15,1.86-3.14,2.57c-.8.54-1.64,1.07-2.52,1.58-.88.51-1.8.96-2.76,1.34-.38.16-.77.31-1.15.46-.38.14-.8.26-1.25.36l-.1-1.34c.54,0,1-.06,1.37-.17.37-.11.68-.25.94-.41.48-.29.87-.63,1.18-1.03.3-.4.73-.87,1.27-1.42.96-1.02,2-2.27,3.12-3.74,1.12-1.47,2.22-3.08,3.29-4.82,1.07-1.74,2.09-3.57,3.05-5.47.96-1.9,1.76-3.8,2.4-5.69-1.12,0-2.35.04-3.7.12-1.34.08-2.69.22-4.03.41l-2.02,1.39-3.36-3.36c-.32-.32-.55-.7-.7-1.15s-.28-.93-.41-1.44l.72-.34c.19.45.44.74.74.89.3.14.62.33.94.55.54.06,1.1.12,1.68.17s1.17.06,1.78.02ZM200.47,120.18c-.8.93-1.53,2.02-2.18,3.26-.66,1.25-1.08,2.78-1.27,4.61h-1.44c0-.9-.02-1.73-.05-2.5-.03-.77-.06-1.5-.1-2.21-.03-.7-.06-1.41-.1-2.11-.03-.7-.05-1.46-.05-2.26v-33.6c0-.54-.14-1.04-.41-1.49-.27-.45-.62-.84-1.06-1.18-.43-.34-.92-.64-1.46-.91-.54-.27-1.09-.5-1.63-.7l.43-1.1,10.56,2.3-1.25,2.98v34.9Z"/>
      <path class="cls-2" d="M257.83,109.09c-1.22-.03-2.45-.04-3.7-.02-1.25.02-2.51.02-3.79.02v15.17c-1.76.9-3.09,2.34-3.98,4.32h-1.25v-19.39c-1.41.06-2.8.12-4.18.17-1.38.05-2.74.1-4.08.17v14.06c-1.7.86-3.02,2.3-3.98,4.32h-1.25v-18.14l-5.9.38-3.36,1.06-3.94-4.7c-.26-.29-.43-.64-.53-1.06-.1-.42-.19-.85-.29-1.3l.96-.38c.06.35.22.66.46.91.24.26.52.48.84.67.32.13.71.24,1.18.34.46.1.96.19,1.49.29.53.1,1.05.17,1.56.22.51.05.98.09,1.39.12,2.18.06,4.58.08,7.2.05,2.62-.03,5.29-.09,7.99-.17,2.7-.08,5.36-.18,7.97-.31,2.61-.13,5-.24,7.18-.34l4.61-1.68,3.79,5.95-.29.34-6.1-1.06ZM242.71,85.33c-1.15-.03-2.25.1-3.29.41-1.04.3-1.96.77-2.76,1.39-.8.62-1.43,1.4-1.9,2.33-.46.93-.7,2.02-.7,3.26,0,.83.17,1.62.5,2.35.34.74.79,1.38,1.37,1.94.58.56,1.26,1.01,2.06,1.34.8.34,1.66.5,2.59.5.99,0,1.89-.14,2.69-.43.8-.29,1.49-.69,2.06-1.2.58-.51,1.02-1.1,1.34-1.78.32-.67.5-1.38.53-2.11.03-1.66-.4-3.02-1.3-4.06-.9-1.04-1.94-1.62-3.12-1.75-.26-.03-.52-.03-.79,0-.27.03-.54.08-.79.14.22-.42.54-.78.94-1.08.4-.3.79-.54,1.18-.7,1.18-.22,2.35-.22,3.5.02,1.15.24,2.17.68,3.05,1.32.88.64,1.59,1.49,2.14,2.54.54,1.06.82,2.27.82,3.65s-.34,2.67-1.03,3.79c-.69,1.12-1.61,2.06-2.76,2.83-1.15.77-2.47,1.36-3.96,1.78-1.49.42-3.05.62-4.68.62-1.73,0-3.32-.23-4.78-.7-1.46-.46-2.72-1.12-3.79-1.97-1.07-.85-1.91-1.87-2.52-3.07-.61-1.2-.91-2.54-.91-4.01s.29-2.71.86-3.91c.58-1.2,1.38-2.23,2.4-3.1,1.02-.86,2.23-1.53,3.62-1.99,1.39-.46,2.89-.65,4.49-.55,0-.48-.3-1.02-.91-1.61-.61-.59-1.42-1.01-2.45-1.27l.38-1.01,7.73,2.3-1.82,3.74Z"/>
      <path class="cls-2" d="M282.74,87.34c-.96.1-1.92.3-2.88.62-.96.32-1.81.78-2.54,1.37-.74.59-1.34,1.34-1.8,2.23-.46.9-.7,1.94-.7,3.12,0,.86.16,1.64.48,2.33.32.69.75,1.28,1.3,1.78.54.5,1.16.89,1.85,1.18.69.29,1.4.43,2.14.43.83,0,1.61-.13,2.33-.38.72-.26,1.34-.62,1.87-1.08.53-.46.94-1.01,1.25-1.66.3-.64.47-1.34.5-2.11.03-.9-.06-1.68-.29-2.35-.22-.67-.53-1.25-.91-1.73-.38-.48-.82-.85-1.32-1.1-.5-.26-.98-.43-1.46-.53-.19-.03-.39-.04-.6-.02-.21.02-.41.02-.6.02.13-.35.36-.66.7-.94.34-.27.73-.44,1.18-.5,1.09-.13,2.16-.07,3.22.17,1.06.24,2,.67,2.83,1.3.83.62,1.5,1.42,1.99,2.4.5.98.73,2.12.7,3.43-.03,1.44-.39,2.7-1.08,3.77-.69,1.07-1.57,1.98-2.64,2.71-1.07.74-2.3,1.29-3.67,1.66-1.38.37-2.77.55-4.18.55-1.5,0-2.93-.21-4.27-.62-1.34-.42-2.52-1.02-3.53-1.82-1.01-.8-1.81-1.78-2.4-2.93-.59-1.15-.89-2.48-.89-3.98,0-1.34.29-2.58.86-3.7s1.36-2.09,2.35-2.9c.99-.82,2.14-1.45,3.46-1.9,1.31-.45,2.72-.67,4.22-.67-.1-.45-.47-.94-1.13-1.49-.66-.54-1.4-.96-2.23-1.25l.48-1.01,7.15,2.11-1.73,3.5ZM282.02,112.21l-3.65-3.7c-.19-.22-.35-.51-.48-.86-.13-.35-.27-.75-.43-1.2l.58-.29c.1.29.28.57.55.84.27.27.49.44.65.5.54.06,1.1.13,1.68.19s1.14.11,1.68.14c1.54,0,3.09,0,4.66-.02,1.57-.02,3.09-.05,4.56-.1,1.47-.05,2.86-.1,4.15-.17,1.3-.06,2.44-.14,3.43-.24.38-.13.77-.31,1.15-.55.38-.24.74-.5,1.06-.79l4.8,2.64c-.42.29-.73.58-.94.89-.21.3-.36.65-.46,1.03l-.86,4.46,1.06,3.12-4.56-.1c-.99,0-2.08.02-3.26.05-1.18.03-2.41.06-3.67.1-1.26.03-2.54.08-3.84.14-1.3.06-2.55.11-3.77.14v4.32c2.69,0,5.16-.02,7.42-.05,2.26-.03,4.46-.11,6.6-.24l4.13-1.54,4.18,4.22-.24.86-5.47-.34c-2.62,0-5.41.04-8.35.12-2.94.08-5.78.15-8.5.22-.83,0-1.73.04-2.69.12-.96.08-1.82.18-2.59.31.13-.61.22-1.23.29-1.87.06-.64.11-1.26.14-1.87l-.19-4.7c0-.29-.11-.58-.34-.89-.22-.3-.5-.58-.82-.84-.32-.26-.68-.49-1.08-.7-.4-.21-.79-.36-1.18-.46l.34-.86,7.49.96c1.18,0,2.42,0,3.72-.02,1.3-.02,2.58-.04,3.84-.07,1.26-.03,2.47-.08,3.62-.14,1.15-.06,2.21-.13,3.17-.19l.29-4.18c-1.25,0-2.48,0-3.7.02-1.22.02-2.43.04-3.65.07-1.22.03-2.48.07-3.79.12-1.31.05-2.69.1-4.13.17l-2.59,1.2ZM305.64,85.28v15.89c-.83.45-1.6,1.03-2.3,1.75-.7.72-1.28,1.59-1.73,2.62h-1.25v-20.16c0-.54-.14-1.04-.41-1.49-.27-.45-.62-.84-1.06-1.18s-.92-.64-1.46-.91c-.54-.27-1.09-.5-1.63-.7l.43-1.1,10.7,2.3-1.3,2.98Z"/>
      <path class="cls-2" d="M364.72,109.81c-2.21-.03-4.5-.03-6.86,0-2.37.03-4.75.08-7.15.14v14.02c-.83.45-1.6,1.12-2.3,2.02-.7.9-1.3,1.86-1.78,2.88h-1.25v-18.72c-2.37.13-4.63.25-6.79.36-2.16.11-4.15.23-5.98.36l-3.36,1.06-3.94-4.7c-.26-.29-.43-.64-.53-1.06-.1-.42-.19-.86-.29-1.34l.96-.34c.06.35.22.66.46.91.24.26.52.48.84.67.32.1.71.2,1.18.31.46.11.96.21,1.49.29.53.08,1.05.15,1.56.22.51.06.98.1,1.39.1,2.18.06,4.58.09,7.2.07,2.62-.02,5.29-.06,7.99-.14,2.7-.08,5.36-.18,7.97-.31,2.61-.13,5-.24,7.18-.34l4.61-1.68,3.79,5.9-.29.38-6.1-1.06ZM336.16,88.02l-3.65-3.6c-.19-.19-.37-.51-.53-.96s-.3-.9-.43-1.34l.77-.19c.06.32.24.56.53.72.29.16.53.3.72.43.54.06,1.15.14,1.82.22.67.08,1.28.12,1.82.12,3.17,0,6.3-.06,9.38-.17,3.09-.11,5.78-.25,8.09-.41.45-.13.86-.28,1.22-.46.37-.18.71-.42,1.03-.74l5.14,2.74c-.45.29-.81.57-1.08.84-.27.27-.46.6-.55.98l-.72,4.7,1.1,3.22-4.66-.19c-.99.06-2.14.11-3.46.14-1.31.03-2.7.07-4.15.12-1.46.05-2.94.1-4.44.14-1.5.05-2.93.1-4.27.17v4.7c1.31-.03,2.7-.06,4.18-.1,1.47-.03,2.94-.08,4.42-.14,1.47-.06,2.89-.13,4.25-.19,1.36-.06,2.57-.14,3.62-.24l3.65-1.1,3.7,4.08-.29.82-4.85-.34c-1.31,0-2.78.02-4.39.07-1.62.05-3.28.1-4.99.17-1.71.06-3.42.14-5.11.22-1.7.08-3.28.15-4.75.22-.83.06-1.73.14-2.69.24-.96.1-1.82.22-2.59.38.13-.61.22-1.27.26-1.99s.09-1.38.12-1.99l-.24-5.62c-.03-.58-.41-1.13-1.13-1.66-.72-.53-1.46-.87-2.23-1.03l.34-.96,8.35,1.01c2.69,0,5.39-.04,8.11-.12,2.72-.08,5.14-.18,7.25-.31v-4.27c-2.5.03-5.1.08-7.8.14-2.7.06-5.48.21-8.33.43l-2.54,1.1Z"/>
      <path class="cls-2" d="M382.63,97.23c1.47,0,2.76-.04,3.86-.12s2.18-.28,3.24-.6c.22.29.59.58,1.1.89.51.3.99.38,1.44.22l1.49-.53-.05-5.52c0-.64-.33-1.27-.98-1.9-.66-.62-1.46-1.1-2.42-1.42l.38-1.15,9.5,2.02-1.25,2.26-.14,6.53.82.43c.51.03,1.06.05,1.66.05h1.7l4.7-.29v-12.72c0-.54-.14-1.04-.41-1.49-.27-.45-.62-.84-1.06-1.18-.43-.34-.92-.64-1.46-.91-.54-.27-1.07-.5-1.58-.7l.38-1.1,10.7,2.3-1.25,2.98v34.9c-.93.67-1.72,1.7-2.38,3.07-.66,1.38-1.1,2.98-1.32,4.8h-1.34c0-.9-.02-1.73-.05-2.5-.03-.77-.06-1.5-.1-2.21s-.06-1.41-.1-2.11c-.03-.7-.05-1.46-.05-2.26v-17.62l-4.27.43-1.92,1.06-2.74-2.93-.19,10.75c-.74.29-1.43.73-2.09,1.32-.66.59-1.18,1.29-1.56,2.09h-1.01l-.05-2.69c-1.82.06-3.71.11-5.66.14-1.95.03-3.92.13-5.9.29-.64.26-1.23.67-1.78,1.25-.54.58-.94,1.2-1.2,1.87h-1.1l-.77-21.7c-.06-.74-.42-1.38-1.08-1.94-.66-.56-1.38-.97-2.18-1.22l.43-.96,9.02,1.63-1.06,2.11.05,4.37ZM391.75,100.54c-1.47,0-2.94.02-4.42.05-1.47.03-3.02.1-4.66.19l.1,7.54c1.7,0,3.54-.02,5.52-.07,1.98-.05,3.84-.14,5.57-.26l-.1-9.6-2.02,2.16Z"/>
      <path class="cls-2" d="M459.48,119.36c-2.62-.03-5.36-.02-8.21.02-2.85.05-5.68.12-8.5.22-2.82.1-5.54.22-8.18.38-2.64.16-5.05.3-7.22.43l-3.36,1.01-3.94-4.75c-.26-.29-.43-.64-.53-1.06-.1-.42-.19-.85-.29-1.3l.96-.38c.06.35.22.66.46.91.24.26.52.48.84.67.32.13.71.24,1.18.34.46.1.96.18,1.49.26.53.08,1.05.14,1.56.19.51.05.98.07,1.39.07,2.18.06,4.58.09,7.2.07,2.62-.02,5.29-.06,7.99-.14,2.7-.08,5.36-.18,7.97-.31s5-.24,7.18-.34l4.61-1.63,3.79,6-.29.34-6.1-1.01ZM447.57,90.8c-.64,1.12-1.31,2.18-2.02,3.19-.7,1.01-1.47,1.99-2.3,2.95.48.16.9.14,1.27-.05.37-.19.66-.42.89-.67.19-.19.41-.32.65-.38.24-.06.54-.1.89-.1.42.61.98,1.13,1.68,1.56.7.43,1.5.79,2.38,1.08.88.29,1.84.53,2.88.72,1.04.19,2.1.34,3.19.43.42.48.79.99,1.13,1.54s.65,1.1.94,1.66c.29.56.58,1.11.89,1.66.3.54.63,1.04.98,1.49-.64.54-1.32,1.22-2.04,2.02-.72.8-1.22,1.58-1.51,2.35l-1.1-.53c.45-.38.73-.84.84-1.37.11-.53-.04-1.02-.46-1.46-.93-.9-1.94-1.75-3.02-2.57-1.09-.82-2.18-1.57-3.26-2.26-1.09-.69-2.11-1.31-3.07-1.87-.96-.56-1.78-1.05-2.45-1.46-.99-.61-2.13-.56-3.41.14-1.7,1.76-3.52,3.35-5.47,4.78-1.95,1.42-4.03,2.68-6.24,3.77-.83.42-1.69.8-2.57,1.15-.88.35-1.62.61-2.23.77-.42.13-.88.26-1.39.38-.51.13-1.06.22-1.63.29l.19-1.63c.93.1,1.78,0,2.54-.29.35-.13.71-.28,1.08-.46.37-.18.73-.49,1.08-.94.22-.29.51-.62.86-.98.35-.37.8-.76,1.34-1.18.93-.77,1.94-1.66,3.05-2.66,1.1-1.01,2.2-2.12,3.29-3.34,1.09-1.22,2.13-2.53,3.12-3.94.99-1.41,1.82-2.91,2.5-4.51.16-.35.2-.71.12-1.08-.08-.37-.26-.73-.55-1.08-.29-.35-.64-.68-1.06-.98-.42-.3-.88-.58-1.39-.84l.86-1.15c.74.48,1.57.93,2.5,1.34.93.42,1.86.79,2.81,1.13.94.34,1.86.64,2.74.91.88.27,1.64.5,2.28.7l-1.78,1.78Z"/>
      <path class="cls-2" d="M506.85,120.22c-2.62-.03-5.36-.02-8.21.02-2.85.05-5.68.12-8.5.22-2.82.1-5.54.22-8.18.38-2.64.16-5.05.3-7.22.43l-3.36,1.06-3.94-4.7c-.26-.29-.43-.63-.53-1.03-.1-.4-.19-.84-.29-1.32l.96-.38c.06.38.22.7.46.94.24.24.52.46.84.65.32.13.71.25,1.18.36.46.11.96.21,1.49.29.53.08,1.05.15,1.56.22.51.06.98.1,1.39.1,1.92.06,3.99.09,6.22.07,2.22-.02,4.52-.06,6.89-.12v-4.85c0-.83-.38-1.54-1.15-2.14-.77-.59-1.62-1.02-2.54-1.27l.24-.96,9.98,1.25-1.3,2.64v5.14c2.17-.06,4.28-.14,6.31-.24s3.93-.19,5.69-.29l4.61-1.68,3.79,5.95-.29.34-6.1-1.06ZM491.59,89.26c-1.22-.03-2.38.13-3.48.48-1.1.35-2.08.86-2.93,1.54-.85.67-1.53,1.5-2.04,2.47-.51.98-.77,2.1-.77,3.38,0,.86.17,1.7.5,2.5.34.8.82,1.5,1.44,2.11.62.61,1.37,1.1,2.23,1.46.86.37,1.82.55,2.88.55s2.07-.17,2.95-.5c.88-.34,1.63-.78,2.26-1.32.62-.54,1.11-1.18,1.46-1.9.35-.72.54-1.46.58-2.23.03-.96-.08-1.81-.34-2.54-.26-.74-.61-1.37-1.06-1.9s-.98-.94-1.61-1.25c-.62-.3-1.29-.5-1.99-.6-.19-.03-.44-.03-.74,0-.3.03-.58.08-.84.14.22-.42.54-.78.94-1.1.4-.32.79-.56,1.18-.72,1.25-.22,2.49-.18,3.72.12,1.23.3,2.32.82,3.26,1.54.94.72,1.7,1.62,2.28,2.71s.85,2.32.82,3.7c-.06,1.44-.46,2.74-1.18,3.91-.72,1.17-1.67,2.16-2.86,2.98-1.18.82-2.55,1.45-4.1,1.9-1.55.45-3.18.67-4.87.67-1.79,0-3.45-.25-4.97-.74-1.52-.5-2.85-1.19-3.98-2.09s-2.02-1.97-2.66-3.22c-.64-1.25-.96-2.64-.96-4.18,0-1.41.31-2.74.94-3.98s1.47-2.34,2.54-3.26c1.07-.93,2.34-1.65,3.79-2.16,1.46-.51,3.02-.72,4.68-.62,0-.48-.3-1.01-.91-1.61-.61-.59-1.42-1.02-2.45-1.27l.38-1.01,7.73,2.3-1.82,3.74Z"/>
      <path class="cls-2" d="M531.76,87.34c-.96.1-1.92.3-2.88.62-.96.32-1.81.78-2.54,1.37-.74.59-1.34,1.34-1.8,2.23s-.7,1.94-.7,3.12c0,.86.16,1.64.48,2.33.32.69.75,1.28,1.3,1.78s1.16.89,1.85,1.18c.69.29,1.4.43,2.14.43.83,0,1.61-.13,2.33-.38.72-.26,1.34-.62,1.87-1.08.53-.46.94-1.01,1.25-1.66.3-.64.47-1.34.5-2.11.03-.9-.06-1.68-.29-2.35-.22-.67-.53-1.25-.91-1.73-.38-.48-.82-.85-1.32-1.1s-.98-.43-1.46-.53c-.19-.03-.39-.04-.6-.02-.21.02-.41.02-.6.02.13-.35.36-.66.7-.94.34-.27.73-.44,1.18-.5,1.09-.13,2.16-.07,3.22.17,1.06.24,2,.67,2.83,1.3.83.62,1.5,1.42,1.99,2.4.5.98.73,2.12.7,3.43-.03,1.44-.39,2.7-1.08,3.77-.69,1.07-1.57,1.98-2.64,2.71-1.07.74-2.3,1.29-3.67,1.66-1.38.37-2.77.55-4.18.55-1.5,0-2.93-.21-4.27-.62-1.34-.42-2.52-1.02-3.53-1.82-1.01-.8-1.81-1.78-2.4-2.93-.59-1.15-.89-2.48-.89-3.98,0-1.34.29-2.58.86-3.7s1.36-2.09,2.35-2.9,2.14-1.45,3.46-1.9c1.31-.45,2.72-.67,4.22-.67-.1-.45-.47-.94-1.13-1.49-.66-.54-1.4-.96-2.23-1.25l.48-1.01,7.15,2.11-1.73,3.5ZM531.04,112.21l-3.65-3.7c-.19-.22-.35-.51-.48-.86s-.27-.75-.43-1.2l.58-.29c.1.29.28.57.55.84.27.27.49.44.65.5.54.06,1.1.13,1.68.19s1.14.11,1.68.14c1.54,0,3.09,0,4.66-.02,1.57-.02,3.09-.05,4.56-.1s2.86-.1,4.15-.17c1.3-.06,2.44-.14,3.43-.24.38-.13.77-.31,1.15-.55s.74-.5,1.06-.79l4.8,2.64c-.42.29-.73.58-.94.89-.21.3-.36.65-.46,1.03l-.86,4.46,1.06,3.12-4.56-.1c-.99,0-2.08.02-3.26.05-1.18.03-2.41.06-3.67.1-1.26.03-2.54.08-3.84.14-1.3.06-2.55.11-3.77.14v4.32c2.69,0,5.16-.02,7.42-.05,2.26-.03,4.46-.11,6.6-.24l4.13-1.54,4.18,4.22-.24.86-5.47-.34c-2.62,0-5.41.04-8.35.12-2.95.08-5.78.15-8.5.22-.83,0-1.73.04-2.69.12-.96.08-1.82.18-2.59.31.13-.61.22-1.23.29-1.87.06-.64.11-1.26.14-1.87l-.19-4.7c0-.29-.11-.58-.34-.89-.22-.3-.5-.58-.82-.84-.32-.26-.68-.49-1.08-.7-.4-.21-.79-.36-1.18-.46l.34-.86,7.49.96c1.18,0,2.42,0,3.72-.02,1.3-.02,2.58-.04,3.84-.07,1.26-.03,2.47-.08,3.62-.14,1.15-.06,2.21-.13,3.17-.19l.29-4.18c-1.25,0-2.48,0-3.7.02-1.22.02-2.43.04-3.65.07-1.22.03-2.48.07-3.79.12-1.31.05-2.69.1-4.13.17l-2.59,1.2ZM554.66,85.28v15.89c-.83.45-1.6,1.03-2.3,1.75-.7.72-1.28,1.59-1.73,2.62h-1.25v-20.16c0-.54-.14-1.04-.41-1.49-.27-.45-.62-.84-1.06-1.18-.43-.34-.92-.64-1.46-.91-.54-.27-1.09-.5-1.63-.7l.43-1.1,10.7,2.3-1.3,2.98Z"/>
      <path class="cls-2" d="M587.83,120.8c-.61,0-1.32,0-2.14.02-.82.02-1.64.03-2.47.05-.83.02-1.65.05-2.45.1s-1.49.1-2.06.17v-1.39c.86,0,1.66-.02,2.38-.05s1.35-.14,1.9-.34c.54-.19.97-.49,1.27-.89.3-.4.46-.97.46-1.7v-24.96c0-.54-.07-1.01-.22-1.42-.14-.4-.44-.74-.89-1.01-.45-.27-1.09-.47-1.92-.6s-1.95-.19-3.36-.19v-1.1c.99,0,2.18-.07,3.55-.22,1.38-.14,2.78-.34,4.2-.6,1.42-.26,2.79-.58,4.1-.98,1.31-.4,2.43-.86,3.36-1.37l.53.82c-.48.35-.91.68-1.3.98-.38.3-.71.63-.98.98-.27.35-.48.76-.62,1.22-.14.46-.22,1.03-.22,1.7v26.74c0,.74.15,1.3.46,1.7.3.4.73.7,1.27.89.54.19,1.18.3,1.9.34.72.03,1.51.05,2.38.05v1.39c-.58-.06-1.26-.12-2.04-.17-.79-.05-1.6-.08-2.45-.1-.85-.02-1.68-.03-2.5-.05-.82-.02-1.53-.02-2.14-.02Z"/>
      <path class="cls-2" d="M620.61,120.56c-.93.35-1.7.59-2.3.72-.61.13-1.23.19-1.87.19-2.27,0-4.18-.46-5.71-1.39-1.54-.93-2.76-2.2-3.67-3.82-.91-1.62-1.56-3.5-1.94-5.64-.38-2.14-.58-4.42-.58-6.82,0-2.24.18-4.3.55-6.19.37-1.89.86-3.55,1.46-4.99.61-1.44,1.32-2.64,2.14-3.6.82-.96,1.67-1.62,2.57-1.97l3.17-1.3c.93-.35,1.69-.58,2.28-.7.59-.11,1.21-.17,1.85-.17,2.27,0,4.17.46,5.69,1.39,1.52.93,2.74,2.19,3.67,3.79.93,1.6,1.59,3.46,1.99,5.59.4,2.13.6,4.39.6,6.79,0,2.24-.15,4.3-.46,6.19-.3,1.89-.73,3.55-1.27,4.99-.54,1.44-1.19,2.63-1.94,3.58-.75.94-1.59,1.59-2.52,1.94l-3.7,1.39ZM621.76,118.06c.83-1.98,1.42-4.19,1.75-6.62s.5-4.88.5-7.34-.13-4.84-.38-6.84c-.26-2-.68-3.7-1.27-5.09-.59-1.39-1.36-2.46-2.3-3.19-.94-.74-2.09-1.1-3.43-1.1-.64,0-1.18.03-1.63.1-.45.06-1.02.18-1.73.34-.83,1.95-1.42,4.14-1.75,6.55s-.5,4.87-.5,7.37c0,5.15.62,9.15,1.87,12,1.25,2.85,3.18,4.27,5.81,4.27.64,0,1.15-.03,1.54-.1s.9-.18,1.54-.34Z"/>
      <path class="cls-2" d="M650.18,120.56c-.93.35-1.7.59-2.3.72-.61.13-1.23.19-1.87.19-2.27,0-4.18-.46-5.71-1.39-1.54-.93-2.76-2.2-3.67-3.82-.91-1.62-1.56-3.5-1.94-5.64-.38-2.14-.58-4.42-.58-6.82,0-2.24.18-4.3.55-6.19.37-1.89.86-3.55,1.46-4.99.61-1.44,1.32-2.64,2.14-3.6.82-.96,1.67-1.62,2.57-1.97l3.17-1.3c.93-.35,1.69-.58,2.28-.7.59-.11,1.21-.17,1.85-.17,2.27,0,4.17.46,5.69,1.39,1.52.93,2.74,2.19,3.67,3.79.93,1.6,1.59,3.46,1.99,5.59.4,2.13.6,4.39.6,6.79,0,2.24-.15,4.3-.46,6.19-.3,1.89-.73,3.55-1.27,4.99-.54,1.44-1.19,2.63-1.94,3.58-.75.94-1.59,1.59-2.52,1.94l-3.7,1.39ZM651.33,118.06c.83-1.98,1.42-4.19,1.75-6.62s.5-4.88.5-7.34-.13-4.84-.38-6.84c-.26-2-.68-3.7-1.27-5.09-.59-1.39-1.36-2.46-2.3-3.19-.94-.74-2.09-1.1-3.43-1.1-.64,0-1.18.03-1.63.1-.45.06-1.02.18-1.73.34-.83,1.95-1.42,4.14-1.75,6.55s-.5,4.87-.5,7.37c0,5.15.62,9.15,1.87,12,1.25,2.85,3.18,4.27,5.81,4.27.64,0,1.15-.03,1.54-.1s.9-.18,1.54-.34Z"/>
      <path class="cls-2" d="M675.28,103.66c-.58.19-1.07.33-1.49.41s-.88.12-1.39.12c-1.38,0-2.56-.24-3.55-.72-.99-.48-1.8-1.13-2.42-1.97-.62-.83-1.09-1.8-1.39-2.9-.3-1.1-.46-2.26-.46-3.48,0-1.15.14-2.21.43-3.17s.66-1.82,1.13-2.57c.46-.75.99-1.38,1.58-1.9s1.19-.88,1.8-1.1l1.49-.48c.58-.19,1.07-.33,1.49-.41s.88-.12,1.39-.12c1.38,0,2.56.24,3.55.72.99.48,1.8,1.14,2.42,1.97s1.09,1.79,1.39,2.88c.3,1.09.46,2.24.46,3.46,0,1.15-.14,2.22-.43,3.19-.29.98-.67,1.84-1.15,2.59-.48.75-1.02,1.38-1.61,1.9-.59.51-1.19.88-1.8,1.1l-1.44.48ZM665.82,120.8l32.11-36.77,2.3,1.97-32.11,36.72-2.3-1.92ZM675.86,101.79c.32-.67.58-1.6.77-2.78.19-1.18.29-2.4.29-3.65,0-1.12-.09-2.16-.26-3.12-.18-.96-.44-1.78-.79-2.47-.35-.69-.82-1.23-1.42-1.63-.59-.4-1.29-.6-2.09-.6-.29,0-.59.02-.91.07-.32.05-.66.1-1.01.17-.32.67-.58,1.6-.77,2.78-.19,1.18-.29,2.4-.29,3.65,0,1.12.09,2.16.26,3.12.17.96.44,1.78.79,2.47.35.69.82,1.22,1.39,1.61s1.28.58,2.11.58c.64,0,1.28-.06,1.92-.19ZM695.01,120.94c-.58.16-1.07.29-1.49.38-.42.1-.88.14-1.39.14-1.38,0-2.56-.24-3.55-.72-.99-.48-1.8-1.14-2.42-1.97s-1.09-1.8-1.39-2.9c-.3-1.1-.46-2.26-.46-3.48,0-1.15.14-2.22.43-3.19.29-.98.66-1.83,1.13-2.57.46-.74.99-1.36,1.58-1.87.59-.51,1.19-.88,1.8-1.1l1.49-.53c.58-.16,1.07-.29,1.49-.38.42-.1.88-.14,1.39-.14,1.38,0,2.56.25,3.55.74.99.5,1.8,1.16,2.42,1.99.62.83,1.09,1.79,1.39,2.88.3,1.09.46,2.24.46,3.46,0,1.15-.14,2.22-.43,3.19-.29.98-.67,1.84-1.15,2.59-.48.75-1.02,1.38-1.61,1.9-.59.51-1.19.88-1.8,1.1l-1.44.48ZM695.58,119.07c.32-.7.58-1.64.77-2.81.19-1.17.29-2.38.29-3.62,0-1.12-.09-2.16-.26-3.12-.18-.96-.44-1.78-.79-2.47-.35-.69-.82-1.23-1.42-1.63-.59-.4-1.29-.6-2.09-.6-.64,0-1.28.06-1.92.19-.32.7-.58,1.64-.77,2.81-.19,1.17-.29,2.39-.29,3.67,0,1.12.09,2.15.26,3.1.18.94.44,1.77.79,2.47.35.7.82,1.25,1.39,1.63.58.38,1.28.58,2.11.58.64,0,1.28-.06,1.92-.19Z"/>
      <path class="cls-2" d="M711.81,80.96c.35,1.06.97,2.02,1.85,2.88.88.86,1.94,1.47,3.19,1.82-.93.29-1.67.86-2.23,1.73-.56.86-1.18,1.94-1.87,3.22-.69,1.28-1.57,2.7-2.64,4.25-1.07,1.55-2.57,3.14-4.49,4.78,1.06-1.47,1.9-2.96,2.54-4.46.64-1.5,1.03-2.9,1.18-4.18.14-1.28.02-2.39-.38-3.34-.4-.94-1.13-1.61-2.18-1.99,1.22-.35,2.27-.96,3.17-1.82.9-.86,1.52-1.82,1.87-2.88ZM723.38,80.96c.35,1.06.97,2.02,1.85,2.88.88.86,1.94,1.47,3.19,1.82-.93.29-1.67.86-2.23,1.73-.56.86-1.18,1.94-1.87,3.22-.69,1.28-1.57,2.7-2.64,4.25s-2.57,3.14-4.49,4.78c1.06-1.47,1.9-2.96,2.54-4.46.64-1.5,1.03-2.9,1.18-4.18.14-1.28.02-2.39-.38-3.34-.4-.94-1.13-1.61-2.18-1.99,1.22-.35,2.27-.96,3.17-1.82s1.52-1.82,1.87-2.88Z"/>
    </g>
  </g>
</svg>