<?xml version="1.0" encoding="UTF-8"?>
<svg id="_레이어_2" data-name="레이어 2" xmlns="http://www.w3.org/2000/svg" viewBox="0 0 438.77 41.81">
  <defs>
    <style>
      .cls-1 {
        fill: #fffefc;
      }
    </style>
  </defs>
  <g id="_레이어_1-2" data-name="레이어 1">
    <g>
      <path class="cls-1" d="M14.35,22.93c-.42.04-.84.07-1.27.1-.43.04-.86.05-1.27.05v11.54c0,.8.07,1.46.21,2,.14.54.37.97.7,1.3.33.33.79.56,1.38.7.59.14,1.33.21,2.24.21v1.56c-.76-.07-1.46-.13-2.08-.18-.62-.05-1.23-.09-1.82-.1-.59-.02-1.19-.03-1.79-.05-.61-.02-1.26-.03-1.95-.03-1.46,0-2.89.03-4.29.08-1.4.05-2.87.15-4.39.29v-1.56c1,0,1.83-.07,2.47-.21.64-.14,1.15-.37,1.53-.7.38-.33.64-.76.78-1.3.14-.54.21-1.22.21-2.05V7.18c0-.83-.06-1.52-.18-2.05-.12-.54-.36-.96-.73-1.27-.36-.31-.86-.54-1.48-.68-.62-.14-1.44-.21-2.44-.21v-1.56c1.53.17,2.92.31,4.19.42,1.27.1,2.61.12,4.03.05l8.89-.52c1.56.1,3.04.36,4.45.75s2.63.97,3.69,1.72c1.06.75,1.89,1.69,2.5,2.83.61,1.14.91,2.51.91,4.11,0,1.46-.2,2.75-.6,3.87-.4,1.13-.95,2.13-1.66,3.02-.71.88-1.55,1.65-2.52,2.29-.97.64-2.03,1.17-3.17,1.59l7.07,11.6c.42.69.88,1.38,1.4,2.05.52.68,1.09,1.28,1.72,1.82.62.54,1.3.98,2.03,1.33s1.53.52,2.39.52v1.56c-1.21-.14-2.55-.23-4-.29s-2.74-.08-3.85-.08-2.27.03-3.38.08c-1.11.05-2.43.15-3.95.29v-1.56c1.04,0,1.69-.12,1.95-.36.26-.24.39-.55.39-.94,0-.49-.15-1-.44-1.53-.29-.54-.58-1.05-.86-1.53l-6.97-11.54ZM11.8,4.26v16.22c3.47-.17,5.94-1,7.41-2.5,1.47-1.49,2.21-3.85,2.21-7.07,0-1.87-.33-3.4-.99-4.58-.66-1.18-1.6-2.11-2.81-2.81l-5.82.73Z"/>
      <path class="cls-1" d="M48.15,18.77h4.06c1.63,0,2.83-.35,3.59-1.04.76-.69,1.2-2.04,1.3-4.06h1.4c-.07.62-.13,1.17-.18,1.64-.05.47-.1.94-.16,1.4-.05.47-.09.96-.1,1.48-.02.52-.03,1.14-.03,1.87s0,1.33.03,1.92c.02.59.05,1.16.1,1.72.05.55.1,1.1.16,1.64.05.54.11,1.12.18,1.74h-1.4c-.1-2.11-.53-3.59-1.27-4.42-.75-.83-1.93-1.25-3.56-1.25h-4.11v15.81h6.97c4.54,0,7.4-3.03,8.58-9.1h1.51c-.42,1.63-.75,3.44-1.01,5.43-.26,1.99-.36,3.82-.29,5.49,0,1.04.09,1.96.26,2.76h-1.46c-.14-.48-.56-.92-1.27-1.3-.71-.38-1.69-.57-2.94-.57h-13.62c-1.42,0-2.82.04-4.19.13-1.37.09-2.82.2-4.34.34v-1.56c1.8-.03,3.08-.35,3.85-.94.76-.59,1.14-1.7,1.14-3.33V7.18c0-1.63-.36-2.73-1.07-3.3-.71-.57-1.97-.88-3.77-.91v-1.56c1.53.17,2.92.29,4.19.36,1.27.07,2.61.1,4.03.1h12.69c1.35,0,2.33-.16,2.94-.49.61-.33,1-.79,1.17-1.38h1.4c-.1.59-.2,1.21-.29,1.85-.09.64-.13,1.33-.13,2.05-.03,1.18.02,2.42.16,3.72.14,1.3.38,2.61.73,3.93h-1.46c-.35-1.49-.76-2.7-1.25-3.61-.49-.92-1.07-1.62-1.74-2.11-.68-.49-1.46-.81-2.37-.99-.9-.17-1.92-.26-3.07-.26h-5.36v14.2Z"/>
      <path class="cls-1" d="M96.41,1.87c1.35,0,2.33-.16,2.94-.49.61-.33,1-.79,1.17-1.38h1.25c-.07.55-.13,1.08-.18,1.59-.05.5-.08,1.05-.08,1.64,0,.66.03,1.4.1,2.24.07.83.17,1.68.31,2.55.14.87.29,1.72.47,2.55.17.83.35,1.58.52,2.24h-1.56c-.38-1.56-.78-2.87-1.2-3.93s-.92-1.9-1.51-2.52c-.59-.62-1.29-1.07-2.11-1.35-.81-.28-1.79-.42-2.94-.42h-5.04v30.06c0,.8.07,1.46.21,2,.14.54.4.97.78,1.3.38.33.94.56,1.66.7.73.14,1.7.21,2.91.21v1.56c-1.53-.14-3.05-.23-4.58-.29-1.53-.05-3.02-.08-4.47-.08s-2.89.03-4.39.08c-1.51.05-3.02.15-4.55.29v-1.56c1.14,0,2.08-.07,2.81-.21.73-.14,1.29-.37,1.69-.7.4-.33.68-.76.83-1.3.16-.54.23-1.22.23-2.05V4.58h-5.04c-1.14,0-2.12.14-2.94.42-.81.28-1.53.73-2.13,1.35-.61.62-1.12,1.46-1.53,2.52s-.81,2.37-1.2,3.93h-1.56c.17-.66.35-1.4.52-2.24.17-.83.33-1.68.47-2.55.14-.87.24-1.72.31-2.55.07-.83.1-1.58.1-2.24,0-.59-.02-1.13-.05-1.64-.03-.5-.09-1.03-.16-1.59h1.25c.17.59.56,1.05,1.17,1.38.61.33,1.57.49,2.89.49h22.62Z"/>
      <path class="cls-1" d="M140.87,25.64c0,2.39-.33,4.55-.99,6.47-.66,1.92-1.61,3.55-2.86,4.89-1.25,1.33-2.79,2.36-4.63,3.07-1.84.71-3.95,1.07-6.34,1.07-2.64,0-4.99-.29-7.07-.88-2.08-.59-3.84-1.51-5.28-2.76-1.44-1.25-2.54-2.83-3.3-4.76-.76-1.92-1.14-4.22-1.14-6.89V7.18c0-.83-.06-1.52-.18-2.05-.12-.54-.38-.96-.78-1.27-.4-.31-.94-.54-1.64-.68-.69-.14-1.61-.21-2.76-.21v-1.56c3.02.31,5.95.47,8.79.47s5.82-.16,8.84-.47v1.56c-1.21,0-2.18.07-2.89.21-.71.14-1.25.36-1.61.68-.36.31-.61.74-.73,1.27-.12.54-.18,1.21-.18,2v17.26c0,2.36.26,4.37.78,6.03s1.25,3.03,2.18,4.11,2.04,1.86,3.3,2.37c1.27.5,2.66.75,4.19.75,1.94,0,3.58-.3,4.91-.91,1.33-.61,2.42-1.45,3.25-2.52.83-1.07,1.43-2.34,1.79-3.8.36-1.46.55-3.05.55-4.78V7.12c0-1.63-.44-2.72-1.33-3.28-.88-.55-2.38-.85-4.5-.88v-1.56c1.53.17,2.91.29,4.16.36s2.44.1,3.59.1,2.28-.03,3.51-.1c1.23-.07,2.61-.19,4.13-.36v1.56c-2.05.04-3.52.34-4.42.91-.9.57-1.35,1.67-1.35,3.3v18.46Z"/>
      <path class="cls-1" d="M162.45,22.93c-.42.04-.84.07-1.27.1-.43.04-.86.05-1.27.05v11.54c0,.8.07,1.46.21,2,.14.54.37.97.7,1.3.33.33.79.56,1.38.7.59.14,1.33.21,2.24.21v1.56c-.76-.07-1.46-.13-2.08-.18-.62-.05-1.23-.09-1.82-.1-.59-.02-1.19-.03-1.79-.05-.61-.02-1.26-.03-1.95-.03-1.46,0-2.89.03-4.29.08-1.4.05-2.87.15-4.39.29v-1.56c1,0,1.83-.07,2.47-.21.64-.14,1.15-.37,1.53-.7.38-.33.64-.76.78-1.3.14-.54.21-1.22.21-2.05V7.18c0-.83-.06-1.52-.18-2.05-.12-.54-.36-.96-.73-1.27-.36-.31-.86-.54-1.48-.68-.62-.14-1.44-.21-2.44-.21v-1.56c1.53.17,2.92.31,4.19.42,1.27.1,2.61.12,4.03.05l8.89-.52c1.56.1,3.04.36,4.45.75s2.63.97,3.69,1.72c1.06.75,1.89,1.69,2.5,2.83.61,1.14.91,2.51.91,4.11,0,1.46-.2,2.75-.6,3.87-.4,1.13-.95,2.13-1.66,3.02-.71.88-1.55,1.65-2.52,2.29-.97.64-2.03,1.17-3.17,1.59l7.07,11.6c.42.69.88,1.38,1.4,2.05.52.68,1.09,1.28,1.72,1.82.62.54,1.3.98,2.03,1.33s1.53.52,2.39.52v1.56c-1.21-.14-2.55-.23-4-.29s-2.74-.08-3.85-.08-2.27.03-3.38.08c-1.11.05-2.43.15-3.95.29v-1.56c1.04,0,1.69-.12,1.95-.36.26-.24.39-.55.39-.94,0-.49-.15-1-.44-1.53-.29-.54-.58-1.05-.86-1.53l-6.97-11.54ZM159.9,4.26v16.22c3.47-.17,5.94-1,7.41-2.5,1.47-1.49,2.21-3.85,2.21-7.07,0-1.87-.33-3.4-.99-4.58-.66-1.18-1.6-2.11-2.81-2.81l-5.82.73Z"/>
      <path class="cls-1" d="M194.11,11.34v23.3c0,1.63.46,2.73,1.38,3.3.92.57,2.44.88,4.55.91v1.56c-1.53-.14-2.93-.23-4.21-.29-1.28-.05-2.5-.08-3.64-.08s-2.3.03-3.56.08c-1.27.05-2.66.15-4.19.29v-1.56c2.01-.03,3.49-.34,4.45-.91.95-.57,1.43-1.69,1.43-3.35V7.18c0-.83-.08-1.52-.23-2.05-.16-.54-.43-.96-.83-1.27-.4-.31-.93-.54-1.59-.68-.66-.14-1.49-.21-2.5-.21v-1.56c1.28.14,2.6.25,3.95.34,1.35.09,2.72.13,4.11.13h1.61l22.41,25.9V7.12c0-1.63-.46-2.72-1.38-3.28-.92-.55-2.42-.85-4.5-.88v-1.56c2.95.31,5.55.47,7.8.47,1.14,0,2.35-.03,3.62-.1,1.26-.07,2.64-.19,4.13-.36v1.56c-2.01.04-3.49.34-4.45.91s-1.43,1.67-1.43,3.3v33.59h-1.72l-25.22-29.43Z"/>
      <path class="cls-1" d="M270.92,11.08c0,2.39-.49,4.38-1.48,5.95-.99,1.58-2.28,2.85-3.87,3.82s-3.41,1.66-5.43,2.08-4.1.66-6.21.73v10.97c0,.8.08,1.46.23,2,.16.54.46.97.91,1.3.45.33,1.05.56,1.79.7.75.14,1.72.21,2.94.21v1.56c-1.53-.14-3.05-.23-4.58-.29-1.53-.05-3-.08-4.42-.08s-2.89.03-4.29.08-2.87.15-4.39.29v-1.56c1.01,0,1.83-.07,2.47-.21.64-.14,1.15-.37,1.53-.7.38-.33.64-.76.78-1.3.14-.54.21-1.22.21-2.05V7.18c0-.83-.06-1.52-.18-2.05-.12-.54-.36-.96-.73-1.27-.36-.31-.86-.54-1.48-.68-.62-.14-1.44-.21-2.44-.21v-1.56c1.53.17,2.92.31,4.19.42,1.26.1,2.61.12,4.03.05l8.89-.52c1.56.1,3.04.36,4.45.75,1.4.4,2.63.99,3.69,1.77s1.89,1.76,2.5,2.94.91,2.6.91,4.26ZM253.91,4.26v16.74c1.73-.07,3.21-.3,4.45-.7,1.23-.4,2.23-.99,2.99-1.77s1.32-1.77,1.66-2.96.52-2.64.52-4.34c0-1.98-.33-3.58-.99-4.81-.66-1.23-1.59-2.19-2.81-2.89l-5.82.73Z"/>
      <path class="cls-1" d="M298.32,39.62c-1.01.38-2.03.67-3.07.86s-2.01.29-2.91.29c-2.36,0-4.64-.4-6.84-1.2-2.2-.8-4.15-1.98-5.85-3.54-1.7-1.56-3.05-3.49-4.06-5.8-1.01-2.31-1.51-4.97-1.51-7.98,0-2.74.41-5.18,1.22-7.33.81-2.15,1.82-4,3.02-5.56,1.2-1.56,2.47-2.83,3.82-3.82,1.35-.99,2.58-1.71,3.69-2.16l2.86-1.09c1.01-.42,2.03-.71,3.07-.88,1.04-.17,2.01-.26,2.91-.26,2.36,0,4.64.39,6.84,1.17,2.2.78,4.14,1.95,5.82,3.51,1.68,1.56,3.03,3.48,4.06,5.77s1.53,4.94,1.53,7.96c0,2.77-.41,5.24-1.22,7.38-.82,2.15-1.82,4-3.02,5.56-1.2,1.56-2.47,2.83-3.82,3.82-1.35.99-2.58,1.71-3.69,2.16l-2.86,1.14ZM300.25,36.71c1.77-1.59,3.12-3.67,4.06-6.24.94-2.56,1.4-5.51,1.4-8.84,0-2.67-.37-5.08-1.12-7.23-.75-2.15-1.75-3.97-3.02-5.46s-2.76-2.63-4.47-3.41-3.54-1.17-5.49-1.17c-1.53,0-3.14.26-4.84.78-1.77,1.59-3.12,3.67-4.06,6.24-.94,2.57-1.4,5.5-1.4,8.79,0,2.67.36,5.08,1.09,7.23.73,2.15,1.73,3.96,3.02,5.43,1.28,1.47,2.77,2.61,4.47,3.41,1.7.8,3.52,1.18,5.46,1.14.8,0,1.59-.04,2.39-.13.8-.09,1.63-.27,2.5-.55Z"/>
      <path class="cls-1" d="M352.4,41.55l-10.4-27.82-10.09,27.82-12.79-34.37c-.28-.76-.58-1.4-.91-1.92-.33-.52-.73-.95-1.2-1.3-.47-.35-1.02-.6-1.66-.75-.64-.16-1.4-.23-2.26-.23v-1.56c1.53.17,2.97.29,4.34.36,1.37.07,2.78.1,4.24.1s2.74-.03,3.95-.1c1.21-.07,2.58-.19,4.11-.36v1.56c-2.95.04-4.42.55-4.42,1.56,0,.42.05.83.16,1.25.1.42.26.92.47,1.51l7.7,21.27,6.6-19.45-.68-1.92c-.28-.76-.56-1.4-.83-1.92-.28-.52-.6-.95-.96-1.3-.36-.35-.8-.6-1.3-.75s-1.12-.23-1.85-.23v-1.56c.76.07,1.46.14,2.08.21s1.22.12,1.79.16,1.16.06,1.77.08c.61.02,1.26.03,1.95.03,1.46,0,2.8-.03,4.03-.1s2.59-.19,4.08-.36v1.56c-3.05.07-4.58.59-4.58,1.56,0,.42.05.83.16,1.25.1.42.26.92.47,1.51l7.7,21.27,7.33-21.37c.14-.38.25-.73.34-1.04.09-.31.13-.61.13-.88,0-.8-.49-1.37-1.46-1.72-.97-.35-2.6-.54-4.89-.57v-1.56c1.49.17,2.96.29,4.42.36s2.76.1,3.9.1,2.18-.03,3.22-.1,2.32-.19,3.85-.36v1.56c-.83,0-1.57.07-2.21.21-.64.14-1.2.36-1.66.68-.47.31-.88.73-1.22,1.25-.35.52-.66,1.16-.94,1.92l-12.48,34.53Z"/>
      <path class="cls-1" d="M383.71,18.77h4.06c1.63,0,2.83-.35,3.59-1.04s1.2-2.04,1.3-4.06h1.4c-.07.62-.13,1.17-.18,1.64-.05.47-.1.94-.16,1.4-.05.47-.09.96-.1,1.48-.02.52-.03,1.14-.03,1.87s0,1.33.03,1.92c.02.59.05,1.16.1,1.72.05.55.1,1.1.16,1.64.05.54.11,1.12.18,1.74h-1.4c-.1-2.11-.53-3.59-1.27-4.42-.75-.83-1.93-1.25-3.56-1.25h-4.11v15.81h6.97c4.54,0,7.4-3.03,8.58-9.1h1.51c-.42,1.63-.75,3.44-1.01,5.43s-.36,3.82-.29,5.49c0,1.04.09,1.96.26,2.76h-1.46c-.14-.48-.56-.92-1.27-1.3-.71-.38-1.69-.57-2.94-.57h-13.62c-1.42,0-2.82.04-4.19.13-1.37.09-2.82.2-4.34.34v-1.56c1.8-.03,3.09-.35,3.85-.94.76-.59,1.14-1.7,1.14-3.33V7.18c0-1.63-.36-2.73-1.07-3.3-.71-.57-1.97-.88-3.77-.91v-1.56c1.53.17,2.92.29,4.19.36,1.26.07,2.61.1,4.03.1h12.69c1.35,0,2.33-.16,2.94-.49.61-.33,1-.79,1.17-1.38h1.4c-.1.59-.2,1.21-.29,1.85-.09.64-.13,1.33-.13,2.05-.04,1.18.02,2.42.16,3.72.14,1.3.38,2.61.73,3.93h-1.46c-.35-1.49-.76-2.7-1.25-3.61-.49-.92-1.07-1.62-1.74-2.11-.68-.49-1.46-.81-2.37-.99-.9-.17-1.92-.26-3.07-.26h-5.36v14.2Z"/>
      <path class="cls-1" d="M417.66,22.93c-.42.04-.84.07-1.27.1-.43.04-.86.05-1.27.05v11.54c0,.8.07,1.46.21,2,.14.54.37.97.7,1.3.33.33.79.56,1.38.7.59.14,1.33.21,2.24.21v1.56c-.76-.07-1.46-.13-2.08-.18-.62-.05-1.23-.09-1.82-.1-.59-.02-1.19-.03-1.79-.05-.61-.02-1.26-.03-1.95-.03-1.46,0-2.89.03-4.29.08s-2.87.15-4.39.29v-1.56c1.01,0,1.83-.07,2.47-.21.64-.14,1.15-.37,1.53-.7.38-.33.64-.76.78-1.3.14-.54.21-1.22.21-2.05V7.18c0-.83-.06-1.52-.18-2.05-.12-.54-.36-.96-.73-1.27-.36-.31-.86-.54-1.48-.68-.62-.14-1.44-.21-2.44-.21v-1.56c1.53.17,2.92.31,4.19.42,1.26.1,2.61.12,4.03.05l8.89-.52c1.56.1,3.04.36,4.45.75,1.4.4,2.63.97,3.69,1.72,1.06.75,1.89,1.69,2.5,2.83.61,1.14.91,2.51.91,4.11,0,1.46-.2,2.75-.6,3.87-.4,1.13-.95,2.13-1.66,3.02-.71.88-1.55,1.65-2.52,2.29-.97.64-2.03,1.17-3.17,1.59l7.07,11.6c.42.69.88,1.38,1.4,2.05.52.68,1.09,1.28,1.72,1.82.62.54,1.3.98,2.03,1.33.73.35,1.53.52,2.39.52v1.56c-1.21-.14-2.55-.23-4-.29-1.46-.05-2.74-.08-3.85-.08s-2.27.03-3.38.08-2.43.15-3.95.29v-1.56c1.04,0,1.69-.12,1.95-.36s.39-.55.39-.94c0-.49-.15-1-.44-1.53-.29-.54-.58-1.05-.86-1.53l-6.97-11.54ZM415.11,4.26v16.22c3.47-.17,5.94-1,7.41-2.5,1.47-1.49,2.21-3.85,2.21-7.07,0-1.87-.33-3.4-.99-4.58-.66-1.18-1.59-2.11-2.81-2.81l-5.82.73Z"/>
    </g>
  </g>
</svg>