<svg width="2052" height="1512" viewBox="0 0 2052 1512" fill="none" xmlns="http://www.w3.org/2000/svg">
<g clip-path="url(#clip0_600_14147)">
<path d="M2020.7 2H31.3C15.1181 2 2 15.1181 2 31.3V132.7C2 148.882 15.1181 162 31.3 162H2020.7C2036.88 162 2050 148.882 2050 132.7V31.3C2050 15.1181 2036.88 2 2020.7 2Z" stroke="#9F0002" stroke-width="4" stroke-miterlimit="10"/>
<path d="M26 2.60156H362.1V162.602H26C12.8 162.602 2 151.802 2 138.602V26.6016C2 13.3016 12.8 2.60156 26 2.60156Z" fill="#9F0002"/>
<g opacity="0.5">
<path d="M95.1016 65.2047C90.4016 65.2047 87.2016 67.7047 87.2016 71.3047C87.2016 74.9047 90.7016 76.4047 93.9016 77.4047L97.5016 78.4047C101.702 79.6047 106.802 81.9047 106.802 87.6047C106.802 93.0047 102.302 97.2047 94.9016 97.2047C87.5016 97.2047 83.5016 93.5047 83.1016 88.1047H86.6016C86.9016 92.0047 90.5016 94.2047 94.9016 94.2047C99.9016 94.2047 103.502 91.6047 103.502 87.6047C103.502 83.6047 100.602 82.7047 96.5016 81.5047L92.4016 80.3047C87.1016 78.7047 84.0016 76.0047 84.0016 71.6047C84.0016 66.1047 88.9016 62.3047 95.2016 62.3047C101.602 62.3047 106.102 66.1047 106.302 71.3047H103.002C102.702 67.6047 99.4016 65.3047 95.0016 65.4047L95.1016 65.2047Z" fill="white"/>
<path d="M123.003 73.8016H117.703V89.7016C117.703 92.9016 119.503 93.8016 121.403 93.8016C123.303 93.8016 122.903 93.8016 123.503 93.8016V96.8016C122.903 96.8016 122.203 97.0016 121.103 97.0016C117.703 97.0016 114.403 94.8016 114.403 90.6016V73.9016H110.703V71.2016H114.403V65.1016H117.703V71.2016H123.003V73.9016V73.8016Z" fill="white"/>
<path d="M127.203 84.0047C127.203 76.3047 131.803 70.8047 138.403 70.8047C145.003 70.8047 149.303 74.7047 149.303 83.4047V84.9047H130.503C130.603 90.6047 133.903 94.3047 138.903 94.3047C142.403 94.3047 144.503 92.5047 145.303 90.8047H148.803C147.703 94.3047 144.003 97.1047 138.903 97.1047C131.703 97.1047 127.203 91.7047 127.203 83.9047V84.0047ZM146.003 82.1047C146.003 77.3047 142.903 73.7047 138.503 73.7047C134.103 73.7047 130.703 77.5047 130.403 82.1047H146.003Z" fill="white"/>
<path d="M154.898 71.1031H157.998V75.8031H158.398C159.398 73.6031 161.398 70.7031 166.098 70.7031C170.798 70.7031 176.698 75.9031 176.698 83.9031C176.698 91.9031 172.398 97.1031 166.198 97.1031C161.498 97.1031 159.398 94.1031 158.398 91.9031H158.098V106.003H154.898V71.1031ZM165.698 94.2031C170.698 94.2031 173.498 89.7031 173.498 83.9031C173.498 78.1031 170.798 73.7031 165.698 73.6031C160.798 73.6031 158.098 77.8031 158.098 83.9031C158.098 89.9031 160.798 94.2031 165.698 94.2031Z" fill="white"/>
</g>
<path d="M209.203 79.9047C209.203 63.3047 217.003 53.8047 229.603 53.8047C242.303 53.8047 250.003 63.3047 250.003 79.9047C250.003 96.5047 242.303 106.105 229.603 106.105C216.903 106.105 209.203 96.6047 209.203 79.9047ZM229.603 97.3047C235.503 97.3047 239.303 91.7047 239.203 79.9047C239.203 68.3047 235.503 62.5047 229.603 62.5047C223.703 62.5047 220.003 68.3047 220.003 79.9047C220.003 91.7047 223.703 97.3047 229.603 97.3047Z" fill="white"/>
<path d="M275.702 105.405H265.202V64.5047H264.802L253.102 71.8047V62.4047L265.802 54.3047H275.702V105.305V105.405Z" fill="white"/>
<path d="M2020.7 226.602H31.3C15.1181 226.602 2 239.72 2 255.902V357.302C2 373.483 15.1181 386.602 31.3 386.602H2020.7C2036.88 386.602 2050 373.483 2050 357.302V255.902C2050 239.72 2036.88 226.602 2020.7 226.602Z" stroke="#9F0002" stroke-width="4" stroke-miterlimit="10"/>
<path d="M26 227.102H362.1V387.102H26C12.8 387.102 2 376.302 2 363.102V251.102C2 237.902 12.8 227.102 26 227.102Z" fill="#9F0002"/>
<g opacity="0.5">
<path d="M95.1016 289.695C90.4016 289.695 87.2016 292.195 87.2016 295.795C87.2016 299.395 90.7016 300.895 93.9016 301.795L97.5016 302.795C101.702 303.995 106.802 306.295 106.802 311.995C106.802 317.395 102.302 321.595 94.9016 321.595C87.5016 321.595 83.5016 317.895 83.1016 312.495H86.6016C86.9016 316.395 90.5016 318.595 94.9016 318.495C99.9016 318.495 103.502 315.895 103.502 311.895C103.502 307.895 100.602 306.995 96.5016 305.795L92.4016 304.695C87.1016 303.095 84.0016 300.395 84.0016 295.995C84.0016 290.495 88.9016 286.695 95.2016 286.695C101.602 286.695 106.102 290.495 106.302 295.695H103.002C102.702 291.995 99.4016 289.695 95.0016 289.695H95.1016Z" fill="white"/>
<path d="M123.003 298.394H117.703V314.294C117.703 317.494 119.503 318.394 121.403 318.394C123.303 318.394 122.903 318.394 123.503 318.294V321.294C122.903 321.394 122.203 321.494 121.103 321.494C117.703 321.494 114.403 319.294 114.403 315.094V298.394H110.703V295.694H114.403V289.594H117.703V295.694H123.003V298.394Z" fill="white"/>
<path d="M127.203 308.497C127.203 300.797 131.803 295.297 138.403 295.297C145.003 295.297 149.303 299.197 149.303 307.897V309.397H130.503C130.603 315.097 133.903 318.797 138.903 318.797C142.403 318.797 144.503 316.997 145.303 315.297H148.803C147.703 318.797 144.003 321.597 138.903 321.597C131.703 321.597 127.203 316.197 127.203 308.497ZM146.003 306.597C146.003 301.797 142.903 298.097 138.503 298.097C134.103 298.097 130.703 301.897 130.403 306.597H146.003Z" fill="white"/>
<path d="M154.898 295.697H157.998V300.397H158.398C159.398 298.197 161.398 295.297 166.098 295.297C170.798 295.297 176.698 300.497 176.698 308.397C176.698 316.297 172.398 321.597 166.198 321.597C161.498 321.597 159.398 318.597 158.398 316.397H158.098V330.497H154.898V295.497V295.697ZM165.698 318.697C170.698 318.697 173.498 314.197 173.498 308.397C173.498 302.597 170.798 298.197 165.698 298.097C160.798 298.097 158.098 302.297 158.098 308.397C158.098 314.397 160.798 318.697 165.698 318.697Z" fill="white"/>
</g>
<path d="M209.203 304.498C209.203 287.898 217.003 278.398 229.603 278.398C242.303 278.398 250.003 287.898 250.003 304.498C250.003 321.098 242.303 330.698 229.603 330.698C216.903 330.698 209.203 321.198 209.203 304.498ZM229.603 321.898C235.503 321.898 239.303 316.298 239.203 304.498C239.203 292.898 235.503 287.098 229.603 287.098C223.703 287.098 220.003 292.898 220.003 304.498C220.003 316.298 223.703 321.898 229.603 321.898Z" fill="white"/>
<path d="M253.802 322.298L271.902 305.398C276.702 300.898 279.202 298.098 279.202 293.998C279.202 289.898 275.802 286.698 271.102 286.698C266.402 286.698 263.202 289.698 263.202 294.598H253.102C253.102 284.698 260.502 278.198 271.302 278.298C282.202 278.298 289.402 284.398 289.402 293.298C289.402 302.198 286.602 303.898 276.002 313.298L268.402 320.798V321.198H290.202V329.798H253.802V322.198V322.298Z" fill="white"/>
<path d="M2020.7 451.102H31.3C15.1181 451.102 2 464.22 2 480.402V581.802C2 597.983 15.1181 611.102 31.3 611.102H2020.7C2036.88 611.102 2050 597.983 2050 581.802V480.402C2050 464.22 2036.88 451.102 2020.7 451.102Z" stroke="#9F0002" stroke-width="4" stroke-miterlimit="10"/>
<path d="M26 451.703H362.1V611.703H26C12.8 611.703 2 600.903 2 587.703V475.703C2 462.503 12.8 451.703 26 451.703Z" fill="#9F0002"/>
<g opacity="0.5">
<path d="M95.1016 514.303C90.4016 514.303 87.2016 516.803 87.2016 520.403C87.2016 524.003 90.7016 525.503 93.9016 526.403L97.5016 527.403C101.702 528.603 106.802 530.903 106.802 536.603C106.802 542.003 102.302 546.203 94.9016 546.203C87.5016 546.203 83.5016 542.503 83.1016 537.103H86.6016C86.9016 541.003 90.5016 543.203 94.9016 543.103C99.9016 543.103 103.502 540.503 103.502 536.503C103.502 532.503 100.602 531.603 96.5016 530.403L92.4016 529.203C87.1016 527.603 84.0016 524.903 84.0016 520.503C84.0016 515.003 88.9016 511.203 95.2016 511.203C101.602 511.203 106.102 515.003 106.302 520.203H103.002C102.702 516.503 99.4016 514.203 95.0016 514.203L95.1016 514.303Z" fill="white"/>
<path d="M123.003 522.903H117.703V538.803C117.703 542.003 119.503 542.903 121.403 542.903C123.303 542.903 122.903 542.903 123.503 542.903V545.903C122.903 545.903 122.203 546.103 121.103 546.103C117.703 546.103 114.403 543.903 114.403 539.703V523.003H110.703V520.303H114.403V514.203H117.703V520.303H123.003V523.003V522.903Z" fill="white"/>
<path d="M127.203 533.106C127.203 525.406 131.803 519.906 138.403 519.906C145.003 519.906 149.303 523.806 149.303 532.506V534.006H130.503C130.603 539.706 133.903 543.406 138.903 543.406C142.403 543.406 144.503 541.606 145.303 539.906H148.803C147.703 543.406 144.003 546.206 138.903 546.206C131.703 546.206 127.203 540.806 127.203 533.006V533.106ZM146.003 531.206C146.003 526.406 142.903 522.706 138.503 522.706C134.103 522.706 130.703 526.506 130.403 531.206H146.003Z" fill="white"/>
<path d="M154.898 520.306H157.998V525.006H158.398C159.398 522.806 161.398 519.906 166.098 519.906C170.798 519.906 176.698 525.106 176.698 533.106C176.698 541.106 172.398 546.306 166.198 546.306C161.498 546.306 159.398 543.306 158.398 541.106H158.098V555.206H154.898V520.206V520.306ZM165.698 543.306C170.698 543.306 173.498 538.806 173.498 533.006C173.498 527.206 170.798 522.806 165.698 522.706C160.798 522.706 158.098 526.906 158.098 533.006C158.098 539.006 160.798 543.306 165.698 543.306Z" fill="white"/>
</g>
<path d="M209.203 529.1C209.203 512.5 217.003 503 229.603 503C242.303 503 250.003 512.5 250.003 529.1C250.003 545.7 242.303 555.3 229.603 555.3C216.903 555.3 209.203 545.8 209.203 529.1ZM229.603 546.5C235.503 546.5 239.303 540.9 239.203 529.1C239.203 517.5 235.503 511.7 229.603 511.7C223.703 511.7 220.003 517.5 220.003 529.1C220.003 540.9 223.703 546.5 229.603 546.5Z" fill="white"/>
<path d="M253.203 540.301H263.903C264.103 544.001 267.803 546.501 272.703 546.501C277.603 546.501 281.403 543.701 281.303 539.601C281.303 535.501 277.703 532.501 271.703 532.501H267.103V524.701H271.703C276.803 524.701 280.303 521.901 280.203 517.801C280.203 514.001 277.303 511.301 272.903 511.301C268.503 511.301 264.603 513.801 264.503 517.801H254.303C254.503 509.001 262.403 502.901 272.903 503.001C283.503 503.001 290.503 509.301 290.503 517.301C290.503 523.101 286.603 527.101 280.903 528.101V528.501C288.503 529.401 292.603 533.901 292.603 540.301C292.603 546.701 284.303 555.301 272.903 555.301C261.503 555.301 253.703 549.101 253.503 540.301H253.203Z" fill="white"/>
<path d="M2020.7 900.297H31.3C15.1181 900.297 2 913.415 2 929.597V1031C2 1047.18 15.1181 1060.3 31.3 1060.3H2020.7C2036.88 1060.3 2050 1047.18 2050 1031V929.597C2050 913.415 2036.88 900.297 2020.7 900.297Z" stroke="#9F0002" stroke-width="4" stroke-miterlimit="10"/>
<path d="M26 900.898H362.1V1060.9H26C12.8 1060.9 2 1050.1 2 1036.9V924.898C2 911.698 12.8 900.898 26 900.898Z" fill="#9F0002"/>
<g opacity="0.5">
<path d="M95.1016 963.498C90.4016 963.498 87.2016 965.998 87.2016 969.598C87.2016 973.198 90.7016 974.698 93.9016 975.598L97.5016 976.598C101.702 977.798 106.802 980.098 106.802 985.798C106.802 991.198 102.302 995.398 94.9016 995.398C87.5016 995.398 83.5016 991.698 83.1016 986.298H86.6016C86.9016 990.198 90.5016 992.398 94.9016 992.298C99.9016 992.298 103.502 989.698 103.502 985.698C103.502 981.698 100.602 980.698 96.5016 979.598L92.4016 978.398C87.1016 976.798 84.0016 974.098 84.0016 969.698C84.0016 964.198 88.9016 960.398 95.2016 960.398C101.602 960.398 106.102 964.198 106.302 969.398H103.002C102.702 965.698 99.4016 963.398 95.0016 963.398L95.1016 963.498Z" fill="white"/>
<path d="M123.003 972.098H117.703V987.998C117.703 991.198 119.503 992.098 121.403 992.098C123.303 992.098 122.903 992.098 123.503 992.098V995.098C122.903 995.098 122.203 995.298 121.103 995.298C117.703 995.298 114.403 993.098 114.403 988.898V972.198H110.703V969.498H114.403V963.398H117.703V969.498H123.003V972.198V972.098Z" fill="white"/>
<path d="M127.203 982.302C127.203 974.602 131.803 969.102 138.403 969.102C145.003 969.102 149.303 973.002 149.303 981.702V983.202H130.503C130.603 988.902 133.903 992.602 138.903 992.602C142.403 992.602 144.503 990.802 145.303 989.102H148.803C147.703 992.602 144.003 995.402 138.903 995.402C131.703 995.402 127.203 990.002 127.203 982.202V982.302ZM146.003 980.302C146.003 975.502 142.903 971.802 138.503 971.802C134.103 971.802 130.703 975.602 130.403 980.302H146.003Z" fill="white"/>
<path d="M154.898 969.4H157.998V974.1H158.398C159.398 971.9 161.398 969 166.098 969C170.798 969 176.698 974.2 176.698 982.2C176.698 990.2 172.398 995.4 166.198 995.4C161.498 995.4 159.398 992.4 158.398 990.2H158.098V1004.3H154.898V969.3V969.4ZM165.698 992.5C170.698 992.5 173.498 988 173.498 982.2C173.498 976.4 170.798 972 165.698 971.9C160.798 971.9 158.098 976.1 158.098 982.2C158.098 988.2 160.798 992.5 165.698 992.5Z" fill="white"/>
</g>
<path d="M209.203 978.202C209.203 961.602 217.003 952.102 229.603 952.102C242.303 952.102 250.003 961.602 250.003 978.202C250.003 994.802 242.303 1004.4 229.603 1004.4C216.903 1004.4 209.203 994.902 209.203 978.202ZM229.603 995.602C235.503 995.602 239.303 990.002 239.203 978.202C239.203 966.602 235.503 960.802 229.603 960.802C223.703 960.802 220.003 966.602 220.003 978.202C220.003 990.002 223.703 995.602 229.603 995.602Z" fill="white"/>
<path d="M254.006 989.402H264.206C264.406 993.302 268.106 996.002 272.606 996.002C277.106 996.002 281.606 992.302 281.506 986.902C281.506 981.602 277.806 977.802 272.406 977.802C268.506 977.802 265.906 979.202 264.306 982.002H254.806L257.506 952.602H288.706V961.402H266.106L264.806 974.202H265.106C267.006 971.702 270.906 969.902 275.306 969.902C284.706 969.902 291.706 976.902 291.606 986.602C291.606 997.002 283.806 1004.3 272.506 1004.3C261.206 1004.3 254.106 998.002 253.906 989.302L254.006 989.402Z" fill="white"/>
<path d="M26 1350H362.1V1510H26C12.8 1510 2 1499.2 2 1486V1374C2 1360.8 12.8 1350 26 1350Z" fill="#9F0002"/>
<g opacity="0.5">
<path d="M95.1016 1412.6C90.4016 1412.6 87.2016 1415.1 87.2016 1418.7C87.2016 1422.3 90.7016 1423.8 93.9016 1424.8L97.5016 1425.8C101.702 1427 106.802 1429.3 106.802 1435C106.802 1440.4 102.302 1444.6 94.9016 1444.6C87.5016 1444.6 83.5016 1440.9 83.1016 1435.5H86.6016C86.9016 1439.4 90.5016 1441.6 94.9016 1441.6C99.9016 1441.6 103.502 1439 103.502 1435C103.502 1431 100.602 1430.1 96.5016 1428.9L92.4016 1427.7C87.1016 1426.1 84.0016 1423.4 84.0016 1419C84.0016 1413.5 88.9016 1409.7 95.2016 1409.7C101.602 1409.7 106.102 1413.5 106.302 1418.7H103.002C102.702 1415 99.4016 1412.7 95.0016 1412.8L95.1016 1412.6Z" fill="white"/>
<path d="M123.003 1421.19H117.703V1437.09C117.703 1440.29 119.503 1441.19 121.403 1441.19C123.303 1441.19 122.903 1441.19 123.503 1441.19V1444.19C122.903 1444.19 122.203 1444.39 121.103 1444.39C117.703 1444.39 114.403 1442.19 114.403 1437.99V1421.29H110.703V1418.59H114.403V1412.49H117.703V1418.59H123.003V1421.29V1421.19Z" fill="white"/>
<path d="M127.203 1431.4C127.203 1423.7 131.803 1418.2 138.403 1418.2C145.003 1418.2 149.303 1422.1 149.303 1430.8V1432.3H130.503C130.603 1438 133.903 1441.7 138.903 1441.7C142.403 1441.7 144.503 1439.9 145.303 1438.2H148.803C147.703 1441.7 144.003 1444.5 138.903 1444.5C131.703 1444.5 127.203 1439.1 127.203 1431.3V1431.4ZM146.003 1429.5C146.003 1424.7 142.903 1421.1 138.503 1421.1C134.103 1421.1 130.703 1424.9 130.403 1429.5H146.003Z" fill="white"/>
<path d="M154.898 1418.6H157.998V1423.3H158.398C159.398 1421.1 161.398 1418.2 166.098 1418.2C170.798 1418.2 176.698 1423.4 176.698 1431.4C176.698 1439.4 172.398 1444.6 166.198 1444.6C161.498 1444.6 159.398 1441.6 158.398 1439.4H158.098V1453.5H154.898V1418.6ZM165.698 1441.6C170.698 1441.6 173.498 1437.1 173.498 1431.3C173.498 1425.5 170.798 1421.1 165.698 1421C160.798 1421 158.098 1425.2 158.098 1431.3C158.098 1437.3 160.798 1441.6 165.698 1441.6Z" fill="white"/>
</g>
<path d="M209.203 1427.4C209.203 1410.8 217.003 1401.3 229.603 1401.3C242.303 1401.3 250.003 1410.8 250.003 1427.4C250.003 1444 242.303 1453.6 229.603 1453.6C216.903 1453.6 209.203 1444.1 209.203 1427.4ZM229.603 1444.8C235.503 1444.8 239.303 1439.2 239.203 1427.4C239.203 1415.8 235.503 1410 229.603 1410C223.703 1410 220.003 1415.8 220.003 1427.4C220.003 1439.2 223.703 1444.8 229.603 1444.8Z" fill="white"/>
<path d="M275.806 1410.9V1410.6H250.906V1401.8H286.906V1410.7L265.306 1452.8H254.406L275.906 1410.9H275.806Z" fill="white"/>
<path d="M2020.7 1349.4H31.3C15.1181 1349.4 2 1362.52 2 1378.7V1480.1C2 1496.28 15.1181 1509.4 31.3 1509.4H2020.7C2036.88 1509.4 2050 1496.28 2050 1480.1V1378.7C2050 1362.52 2036.88 1349.4 2020.7 1349.4Z" stroke="#9F0002" stroke-width="4" stroke-miterlimit="10"/>
<path d="M2020.7 1124.9H31.3C15.1181 1124.9 2 1138.02 2 1154.2V1255.6C2 1271.78 15.1181 1284.9 31.3 1284.9H2020.7C2036.88 1284.9 2050 1271.78 2050 1255.6V1154.2C2050 1138.02 2036.88 1124.9 2020.7 1124.9Z" stroke="#9F0002" stroke-width="4" stroke-miterlimit="10"/>
<path d="M26 1125.4H362.1V1285.4H26C12.8 1285.4 2 1274.6 2 1261.4V1149.4C2 1136.2 12.8 1125.4 26 1125.4Z" fill="#9F0002"/>
<g opacity="0.5">
<path d="M95.1016 1187.99C90.4016 1187.99 87.2016 1190.49 87.2016 1194.09C87.2016 1197.69 90.7016 1199.19 93.9016 1200.19L97.5016 1201.19C101.702 1202.39 106.802 1204.69 106.802 1210.39C106.802 1215.79 102.302 1219.99 94.9016 1219.99C87.5016 1219.99 83.5016 1216.29 83.1016 1210.89H86.6016C86.9016 1214.79 90.5016 1216.99 94.9016 1216.99C99.9016 1216.99 103.502 1214.39 103.502 1210.39C103.502 1206.39 100.602 1205.49 96.5016 1204.29L92.4016 1203.09C87.1016 1201.49 84.0016 1198.79 84.0016 1194.39C84.0016 1188.89 88.9016 1185.09 95.2016 1185.09C101.602 1185.09 106.102 1188.89 106.302 1194.09H103.002C102.702 1190.39 99.4016 1188.09 95.0016 1188.19L95.1016 1187.99Z" fill="white"/>
<path d="M123.003 1196.69H117.703V1212.59C117.703 1215.79 119.503 1216.69 121.403 1216.69C123.303 1216.69 122.903 1216.69 123.503 1216.69V1219.69C122.903 1219.69 122.203 1219.89 121.103 1219.89C117.703 1219.89 114.403 1217.69 114.403 1213.49V1196.79H110.703V1194.09H114.403V1187.99H117.703V1194.09H123.003V1196.79V1196.69Z" fill="white"/>
<path d="M127.203 1206.79C127.203 1199.09 131.803 1193.59 138.403 1193.59C145.003 1193.59 149.303 1197.49 149.303 1206.19V1207.69H130.503C130.603 1213.39 133.903 1217.09 138.903 1217.09C142.403 1217.09 144.503 1215.29 145.303 1213.59H148.803C147.703 1217.09 144.003 1219.89 138.903 1219.89C131.703 1219.89 127.203 1214.49 127.203 1206.69V1206.79ZM146.003 1204.89C146.003 1200.09 142.903 1196.49 138.503 1196.49C134.103 1196.49 130.703 1200.29 130.403 1204.89H146.003Z" fill="white"/>
<path d="M154.898 1193.99H157.998V1198.69H158.398C159.398 1196.49 161.398 1193.59 166.098 1193.59C170.798 1193.59 176.698 1198.79 176.698 1206.79C176.698 1214.79 172.398 1219.99 166.198 1219.99C161.498 1219.99 159.398 1216.99 158.398 1214.79H158.098V1228.89H154.898V1193.99ZM165.698 1216.99C170.698 1216.99 173.498 1212.49 173.498 1206.69C173.498 1200.89 170.798 1196.49 165.698 1196.39C160.798 1196.39 158.098 1200.59 158.098 1206.69C158.098 1212.69 160.798 1216.99 165.698 1216.99Z" fill="white"/>
</g>
<path d="M209.203 1202.8C209.203 1186.2 217.003 1176.7 229.603 1176.7C242.303 1176.7 250.003 1186.2 250.003 1202.8C250.003 1219.4 242.303 1229 229.603 1229C216.903 1229 209.203 1219.5 209.203 1202.8ZM229.603 1220.2C235.503 1220.2 239.303 1214.6 239.203 1202.8C239.203 1191.2 235.503 1185.4 229.603 1185.4C223.703 1185.4 220.003 1191.2 220.003 1202.8C220.003 1214.6 223.703 1220.2 229.603 1220.2Z" fill="white"/>
<path d="M252.906 1203.9C252.906 1186.8 261.106 1176.6 273.806 1176.7C284.106 1176.7 291.206 1183.1 292.206 1191.5H281.706C280.906 1187.9 278.006 1185.7 273.806 1185.7C267.006 1185.7 263.306 1191.9 263.306 1201.8H263.706C266.106 1197.3 271.106 1194.7 276.806 1194.6C285.906 1194.6 292.706 1201.6 292.606 1211.2C292.606 1221.5 284.906 1228.9 273.506 1228.9C262.906 1228.9 252.906 1222.6 252.906 1203.8V1203.9ZM273.406 1220.6C278.706 1220.6 282.506 1216.6 282.506 1211.5C282.506 1206.4 278.806 1202.4 273.606 1202.4C268.406 1202.4 264.506 1206.5 264.406 1211.5C264.406 1216.5 268.306 1220.6 273.506 1220.6H273.406Z" fill="white"/>
<path d="M2020.7 675.703H31.3C15.1181 675.703 2 688.821 2 705.003V806.403C2 822.585 15.1181 835.703 31.3 835.703H2020.7C2036.88 835.703 2050 822.585 2050 806.403V705.003C2050 688.821 2036.88 675.703 2020.7 675.703Z" stroke="#9F0002" stroke-width="4" stroke-miterlimit="10"/>
<path d="M26 676.305H362.1V836.305H26C12.8 836.305 2 825.505 2 812.305V700.305C2 687.105 12.8 676.305 26 676.305Z" fill="#9F0002"/>
<g opacity="0.5">
<path d="M95.1016 738.911C90.4016 738.911 87.2016 741.411 87.2016 745.011C87.2016 748.611 90.7016 750.111 93.9016 751.011L97.5016 752.011C101.702 753.211 106.802 755.511 106.802 761.211C106.802 766.611 102.302 770.811 94.9016 770.811C87.5016 770.811 83.5016 767.111 83.1016 761.711H86.6016C86.9016 765.611 90.5016 767.811 94.9016 767.711C99.9016 767.711 103.502 765.111 103.502 761.111C103.502 757.111 100.602 756.111 96.5016 754.911L92.4016 753.711C87.1016 752.111 84.0016 749.411 84.0016 745.011C84.0016 739.511 88.9016 735.711 95.2016 735.711C101.602 735.711 106.102 739.511 106.302 744.711H103.002C102.702 741.011 99.4016 738.711 95.0016 738.711L95.1016 738.911Z" fill="white"/>
<path d="M123.003 747.513H117.703V763.413C117.703 766.613 119.503 767.513 121.403 767.513C123.303 767.513 122.903 767.513 123.503 767.513V770.513C122.903 770.513 122.203 770.713 121.103 770.713C117.703 770.713 114.403 768.512 114.403 764.312V747.612H110.703V744.913H114.403V738.812H117.703V744.913H123.003V747.612V747.513Z" fill="white"/>
<path d="M127.203 757.708C127.203 750.008 131.803 744.508 138.403 744.508C145.003 744.508 149.303 748.408 149.303 757.108V758.608H130.503C130.603 764.308 133.903 768.008 138.903 768.008C142.403 768.008 144.503 766.208 145.303 764.508H148.803C147.703 768.008 144.003 770.808 138.903 770.808C131.703 770.808 127.203 765.408 127.203 757.608V757.708ZM146.003 755.808C146.003 751.008 142.903 747.308 138.503 747.308C134.103 747.308 130.703 751.108 130.403 755.808H146.003Z" fill="white"/>
<path d="M154.898 744.814H157.998V749.514H158.398C159.398 747.314 161.398 744.414 166.098 744.414C170.798 744.414 176.698 749.614 176.698 757.614C176.698 765.614 172.398 770.814 166.198 770.814C161.498 770.814 159.398 767.814 158.398 765.614H158.098V779.714H154.898V744.714V744.814ZM165.698 767.914C170.698 767.914 173.498 763.414 173.498 757.614C173.498 751.814 170.798 747.414 165.698 747.314C160.798 747.314 158.098 751.514 158.098 757.614C158.098 763.614 160.798 767.914 165.698 767.914Z" fill="white"/>
</g>
<path d="M209.203 753.608C209.203 737.008 217.003 727.508 229.603 727.508C242.303 727.508 250.003 737.008 250.003 753.608C250.003 770.208 242.303 779.808 229.603 779.808C216.903 779.808 209.203 770.308 209.203 753.608ZM229.603 771.108C235.503 771.108 239.303 765.508 239.203 753.708C239.203 742.108 235.503 736.308 229.603 736.308C223.703 736.308 220.003 742.108 220.003 753.708C220.003 765.508 223.703 771.108 229.603 771.108Z" fill="white"/>
<path d="M252.905 761.709L274.505 728.109H287.705V761.509H294.005V770.009H287.705V779.109H277.605V770.009H252.805V761.709H252.905ZM277.905 761.509V739.709H277.305L263.605 761.209V761.509H277.905Z" fill="white"/>
<path d="M1123.6 75.7031L1123.9 79.7031C1118.4 80.6031 1112.5 81.2031 1106.8 81.5031V94.0031H1101.3V81.8031C1095 82.0031 1088.8 82.0031 1083.6 82.0031L1082.9 77.5031C1094.6 77.5031 1110.3 77.4031 1123.7 75.6031L1123.6 75.7031ZM1103.4 51.2031C1112.6 51.2031 1118.8 55.4031 1118.8 62.0031C1118.8 68.6031 1112.5 72.9031 1103.4 72.9031C1094.1 72.9031 1087.9 68.7031 1087.9 62.0031C1087.9 55.3031 1094.2 51.1031 1103.4 51.2031ZM1091.9 91.4031H1097.4V105.103H1136.3V109.703H1091.9V91.4031ZM1103.4 68.8031C1109.3 68.8031 1113.5 66.1031 1113.6 62.0031C1113.5 58.0031 1109.3 55.3031 1103.4 55.4031C1097.3 55.4031 1093.1 58.1031 1093.2 62.0031C1093.2 66.1031 1097.3 68.8031 1103.4 68.8031ZM1134.7 96.2031H1129.2V89.7031H1116.2V85.7031H1129.2V48.7031H1134.7V96.2031Z" fill="#010101"/>
<path d="M1199.1 103.403H1141.9V98.6031H1157.9V86.8031H1149V67.5031H1186.4V57.8031H1148.8V53.2031H1191.9V72.1031H1154.5V82.2031H1193.4V86.8031H1183.6V98.6031H1199.1C1199.1 98.6031 1199.1 103.403 1199.1 103.303V103.403ZM1178 98.6031V86.8031H1163.3V98.6031H1178Z" fill="#010101"/>
<path d="M1251.6 80.6016L1248.6 84.9016C1241.8 82.2016 1236.3 76.8016 1233.5 69.9016C1230.9 77.5016 1225.2 83.4016 1217.9 86.3016L1214.9 81.8016C1224.3 78.4016 1230.7 69.7016 1230.7 60.0016V52.2016H1236.2V60.1016C1236.2 68.9016 1242.5 77.1016 1251.6 80.4016V80.6016ZM1226.3 90.1016H1231.8V105.102H1268.1V109.702H1226.3V90.1016ZM1247.1 63.3016H1261.1V48.6016H1266.6V95.4016H1261.1V67.9016H1247.1V63.3016Z" fill="#010101"/>
<path d="M1325.2 81.3016H1319.7V73.2016H1305V78.7016H1276.5V51.5016H1282.1V60.6016H1299.5V51.5016H1305V57.5016H1319.7V48.6016H1325.2V81.3016ZM1299.6 74.3016V64.9016H1282.2V74.3016H1299.6ZM1284.7 84.4016H1325.2V99.1016H1290.4V105.902H1327.7V110.402H1284.9V94.8016H1319.7V88.7016H1284.7V84.4016ZM1319.7 69.0016V61.9016H1305V69.0016H1319.7Z" fill="#010101"/>
<path d="M1206.9 193.6L1176.7 162H1237.1L1206.9 193.6Z" fill="#9F0002"/>
<path d="M1127.2 304.505L1124.6 308.805C1117.4 306.605 1111.8 301.705 1109.1 295.605C1106.4 302.305 1100.6 307.605 1093.3 309.905L1090.4 305.605C1099.8 302.705 1106.2 295.205 1106.2 286.705V285.405H1092.1V280.905H1106.2V272.805H1111.7V280.905H1125.7V285.405H1111.7V286.705C1111.7 294.505 1118 301.605 1127.1 304.405L1127.2 304.505ZM1098.4 314.605H1139.3V335.805H1133.8V319.205H1098.4V314.605ZM1133.8 273.205H1139.3V289.905H1148.7V294.505H1139.3V311.405H1133.8V273.205Z" fill="#010101"/>
<path d="M1149.1 302.002H1206V306.602H1149.1V302.002ZM1200.9 280.102H1181C1181.3 287.102 1191.8 292.402 1202.9 293.502L1200.9 298.002C1190.6 296.802 1180.9 292.302 1177.5 285.502C1174 292.302 1164.4 296.802 1154.1 298.002L1152.1 293.502C1163.1 292.402 1173.6 287.102 1174 280.102H1154.3V275.602H1201V280.102H1200.9ZM1156.3 310.702H1161.8V317.902H1193.2V310.702H1198.7V334.902H1156.4V310.702H1156.3ZM1193.1 330.402V322.202H1161.7V330.402H1193.1Z" fill="#010101"/>
<path d="M1207.7 302.305H1231.3V290.205H1236.6V302.305H1264.5V306.805H1207.6V302.305H1207.7ZM1257.8 324.205C1257.8 331.305 1249.3 335.505 1235.9 335.605C1222.5 335.605 1214 331.405 1214 324.205C1214 317.005 1222.5 312.705 1235.9 312.705C1249.3 312.705 1257.8 316.905 1257.8 324.205ZM1214.5 276.405H1257.4V281.705C1257.4 286.705 1257.4 291.805 1255.5 298.305L1250.2 297.705C1251.9 291.205 1251.9 286.505 1251.9 281.705V280.805H1214.5V276.305V276.405ZM1235.9 331.105C1245.8 331.105 1252.2 328.405 1252.3 324.205C1252.3 319.705 1245.8 316.905 1235.9 316.905C1225.9 316.905 1219.5 319.705 1219.5 324.205C1219.5 328.705 1225.9 331.205 1235.9 331.105Z" fill="#010101"/>
<path d="M1282.4 284.603V282.303H1268.3V277.703H1302V282.303H1288V284.603C1288 292.703 1294.2 300.503 1303.4 303.603L1300.5 308.103C1293.4 305.603 1288 300.303 1285.2 293.903C1282.5 301.203 1276.7 307.003 1269.2 309.803L1266.3 305.503C1275.7 302.103 1282.3 293.603 1282.3 284.603H1282.4ZM1297.3 312.403C1310.3 312.403 1318.3 316.603 1318.3 324.103C1318.3 331.603 1310.3 335.603 1297.3 335.603C1284.3 335.603 1276.4 331.403 1276.4 324.103C1276.4 316.703 1284.3 312.403 1297.3 312.403ZM1297.3 331.303C1306.9 331.303 1312.9 328.603 1312.9 324.103C1312.9 319.603 1306.9 316.803 1297.3 316.803C1287.7 316.803 1281.8 319.503 1281.9 324.103C1281.9 328.603 1287.8 331.303 1297.3 331.303ZM1318 310.403H1312.5V294.103H1299.8V289.503H1312.5V273.203H1318V310.303V310.403Z" fill="#010101"/>
<path d="M1206.9 418.202L1176.7 386.602H1237.1L1206.9 418.202Z" fill="#9F0002"/>
<path d="M839.9 534.697H783V530.097H808.6V522.597H790.4V499.297H795.9V506.497H826.9V499.297H832.5V522.597H814.1V530.097H839.9V534.697ZM789.2 540.897H832.8V560.297H827.3V545.297H789.1V540.797L789.2 540.897ZM827 518.097V510.597H796V518.097H827Z" fill="#010101"/>
<path d="M898.702 535.395H873.402V547.595H867.902V535.395H841.602V530.795H898.802V535.395H898.702ZM848.902 541.895H854.402V554.295H892.402V558.895H848.902V541.895ZM849.102 499.695H854.602V507.795H885.602V499.695H891.202V524.795H849.202V499.695H849.102ZM885.602 520.295V512.095H854.602V520.295H885.602Z" fill="#010101"/>
<path d="M937.602 542.297L934.402 546.597C927.402 543.197 921.402 535.797 918.702 527.397C915.802 536.597 909.502 544.597 902.402 548.197L899.102 543.897C908.202 539.497 915.902 527.597 915.902 516.997V508.797H901.402V504.197H935.402V508.797H921.302V516.997C921.302 526.997 928.602 537.997 937.602 542.297ZM943.002 497.797H948.602V522.997H959.002V527.797H948.602V560.297H943.002V497.797Z" fill="#010101"/>
<path d="M967.897 517.497V503.197H973.097V517.497C973.097 523.797 974.297 533.097 979.397 539.397C984.397 533.297 985.697 524.297 985.697 517.497V503.197H990.997V517.497C990.997 525.797 993.197 536.597 1000.8 541.997L997.297 545.997C992.497 542.497 989.697 536.897 988.197 530.797C986.797 537.097 984.097 542.997 979.297 546.397C974.397 542.897 971.697 536.897 970.297 530.697C968.797 536.697 965.997 542.397 961.397 545.797L957.797 541.897C965.397 536.397 967.697 525.397 967.697 517.397L967.897 517.497ZM1011.1 560.297H1005.6V497.797H1011.1V560.297Z" fill="#010101"/>
<path d="M1088.7 535.198H1031.7V530.698H1088.7V535.198ZM1038.1 541.298H1081.4V560.298H1075.8V545.898H1038.1V541.298ZM1039.4 499.398H1081.7V503.898H1044.8V509.798H1079.9V514.098H1044.8V520.398H1082V524.898H1039.4V499.398Z" fill="#010101"/>
<path d="M1127.6 512.297H1090.4V507.697H1106.1V498.497H1111.7V507.697H1127.5V512.297H1127.6ZM1109.1 517.497C1117.6 517.497 1123.7 523.497 1123.8 531.897C1123.8 540.197 1117.6 546.197 1109.1 546.197C1100.5 546.197 1094.3 540.197 1094.4 531.897C1094.4 523.497 1100.5 517.497 1109.1 517.497ZM1109.1 541.397C1114.6 541.397 1118.7 537.497 1118.8 531.897C1118.8 526.297 1114.6 522.197 1109.1 522.197C1103.6 522.197 1099.4 526.197 1099.4 531.897C1099.4 537.597 1103.6 541.497 1109.1 541.397ZM1126.3 523.997H1136.7V497.797H1142.2V560.297H1136.7V528.597H1126.3V523.997Z" fill="#010101"/>
<path d="M1206 540.202H1180.2V560.402H1174.7V540.202H1149.1V535.602H1206V540.202ZM1174.7 510.002H1154.5V505.502H1174.7V497.602H1180.2V505.502H1200.5V510.002H1180.2C1180.2 517.802 1191.2 524.702 1202.4 526.302L1200.4 530.802C1190.7 529.302 1181.6 524.402 1177.6 517.602C1173.6 524.502 1164.4 529.302 1154.8 530.802L1152.6 526.302C1163.8 524.702 1174.8 518.002 1174.8 510.002H1174.7Z" fill="#010101"/>
<path d="M1264.6 529.798H1238.8V535.698H1257.2V549.198H1220V555.198H1259V559.498H1214.6V545.198H1251.8V539.698H1214.5V535.498H1233.2V529.598H1207.6V525.398H1264.5V529.598L1264.6 529.798ZM1233 507.598H1213.5V503.298H1233.4V497.398H1238.9V503.298H1258.9V507.598H1239.2C1240.3 513.898 1250.1 517.698 1261.6 518.498L1259.9 522.698C1249.4 521.798 1240 518.598 1236.2 512.598C1232.3 518.598 1222.9 521.798 1212.4 522.698L1210.8 518.498C1222.2 517.698 1232 513.798 1233 507.498V507.598Z" fill="#010101"/>
<path d="M1266.3 526.898H1289.9V514.798H1295.2V526.898H1323.1V531.398H1266.2V526.898H1266.3ZM1316.4 548.798C1316.4 555.898 1307.9 560.098 1294.5 560.198C1281.1 560.198 1272.6 555.998 1272.6 548.798C1272.6 541.598 1281.1 537.298 1294.5 537.298C1307.9 537.298 1316.4 541.498 1316.4 548.798ZM1273.1 500.998H1316V506.298C1316 511.298 1316 516.398 1314.1 522.898L1308.8 522.298C1310.5 515.798 1310.5 511.098 1310.5 506.298V505.398H1273.1V500.898V500.998ZM1294.5 555.698C1304.4 555.698 1310.8 552.998 1310.9 548.798C1310.9 544.298 1304.4 541.498 1294.5 541.498C1284.5 541.498 1278.1 544.298 1278.1 548.798C1278.1 553.298 1284.5 555.798 1294.5 555.698Z" fill="#010101"/>
<path d="M1333.6 510.597H1351V500.997H1356.5V513.097H1371.2V497.797H1376.7V531.897H1371.2V517.797H1356.5V529.597H1328V500.897H1333.6V510.497V510.597ZM1351 524.997V515.097H1333.6V524.997H1351ZM1336.4 534.997H1341.9V542.597H1371.1V534.997H1376.6V559.297H1336.4V534.997ZM1371.1 554.797V546.997H1341.9V554.797H1371.1Z" fill="#010101"/>
<path d="M1397.8 534.798H1455V539.398H1429.1V560.098H1423.6V539.398H1397.8V534.798ZM1449.5 505.898H1439.8V522.998H1449.2V527.498H1403.4V522.998H1412.9V505.898H1403.2V501.398H1449.4V505.898H1449.5ZM1434.3 522.998V505.898H1418.3V522.998H1434.3Z" fill="#010101"/>
<path d="M1456.5 547.102H1513.7V551.702H1456.5V547.102ZM1506.9 532.402H1463.7V503.602H1506.3V508.202H1469.1V527.802H1506.8V532.402H1506.9Z" fill="#010101"/>
<path d="M1540.8 509.897H1522.8V522.297H1537.9V526.597H1522.8V540.697C1531.8 540.697 1537.3 540.197 1544.1 538.997L1544.5 543.497C1537.3 544.997 1531.4 545.197 1521.5 545.197H1517.6V505.297H1540.8V509.897ZM1541.3 521.397H1550.5V499.197H1555.7V556.997H1550.5V525.997H1541.3V521.397ZM1563.2 497.797H1568.5V560.297H1563.2V497.797Z" fill="#010101"/>
<path d="M1573.7 546.8H1630.6V551.6H1573.7V546.8ZM1623.6 511.9C1623.6 521 1623.6 529.5 1621 542.3L1615.4 541.7C1616.8 535.7 1617.5 530.5 1617.8 525.6L1579.6 527.7L1578.9 523.1L1618.1 521.4C1618.1 518.2 1618.2 515 1618.2 511.8V508.6H1580.5V504H1623.6V511.8V511.9Z" fill="#010101"/>
<path d="M1206.9 642.803L1176.7 611.203H1237.1L1206.9 642.803Z" fill="#9F0002"/>
<path d="M872.995 993.5H844.195V953.3H872.995V993.5ZM867.595 989V957.6H849.595V989H867.595ZM884.395 947H889.995V971.9H900.395V976.7H889.995V1009.5H884.395V947Z" fill="#010101"/>
<path d="M918.492 951.7C927.692 951.7 934.392 960.2 934.492 973.5C934.492 986.9 927.692 995.3 918.492 995.4C909.092 995.4 902.492 986.9 902.492 973.5C902.492 960.1 909.092 951.8 918.492 951.7ZM918.492 990.3C924.692 990.3 928.992 983.7 928.992 973.5C928.992 963.3 924.692 956.7 918.492 956.7C912.192 956.7 907.792 963.5 907.792 973.5C907.792 983.5 912.092 990.4 918.492 990.3ZM951.692 1009.5H946.192V947H951.692V1009.5Z" fill="#010101"/>
<path d="M958.898 995.895H1015.8V1000.7H958.898V995.895ZM1008.7 961.095C1008.7 970.295 1008.7 978.695 1006.1 991.495L1000.5 990.895C1001.9 984.895 1002.6 979.695 1003 974.795L964.798 976.895L964.098 972.295L1003.3 970.595C1003.3 967.395 1003.4 964.195 1003.4 960.995V957.795H965.698V953.195H1008.8V960.995L1008.7 961.095Z" fill="#010101"/>
<path d="M1074.6 1001.7H1017.4V996.9H1043V985.2H1024.4V965.9H1061.8V956.1H1024.2V951.5H1067.3V970.4H1029.9V980.6H1068.8V985.2H1048.5V996.9H1074.6V1001.7Z" fill="#010101"/>
<path d="M1120.39 960.898H1136.69V946.898H1142.19V1009.4H1136.69V985.198H1120.69C1118.09 991.498 1113.19 995.198 1107.19 995.298C1097.99 995.298 1091.49 986.798 1091.69 973.398C1091.59 960.198 1097.99 951.698 1107.19 951.598C1112.99 951.598 1117.69 954.998 1120.39 960.798V960.898ZM1107.19 990.298C1113.39 990.298 1117.59 983.698 1117.59 973.498C1117.59 963.398 1113.39 956.698 1107.19 956.698C1101.09 956.698 1096.79 963.498 1096.79 973.498C1096.79 983.498 1100.99 990.398 1107.19 990.298ZM1122.89 973.498C1122.89 976.098 1122.59 978.498 1122.19 980.698H1136.69V965.598H1121.89C1122.49 967.998 1122.79 970.598 1122.79 973.498H1122.89Z" fill="#010101"/>
<path d="M1161.89 990.8V971.7H1167.39V990.6C1174.29 990.3 1181.39 989.9 1187.89 989.1L1188.19 993.3C1175.09 995.4 1160.29 995.7 1149.19 995.6L1148.49 991C1152.59 991 1157.19 991 1161.99 990.8H1161.89ZM1183.69 957C1183.69 962 1183.69 970.2 1181.99 981.8L1176.39 981.4C1178.09 971 1178.29 963.4 1178.29 958.4H1152.09V953.9H1183.79V957.1L1183.69 957ZM1191.69 947H1197.29V973.1H1207.39V977.9H1197.29V1009.6H1191.69V947.1V947Z" fill="#010101"/>
<path d="M1216.8 972.5V955.6H1210.5V951.1H1244.3V955.6H1238V971.7C1241.2 971.4 1244.5 971.1 1247.5 970.8V974.8C1235.2 976.7 1220.5 977.2 1209.5 977.1L1208.8 972.6H1216.9L1216.8 972.5ZM1218.3 982.4H1259.2V997.2H1223.9V1004.1H1261.6V1008.7H1218.5V993.2H1253.6V986.9H1218.2V982.4H1218.3ZM1232.6 971.9V955.6H1222.1V972.4C1225.6 972.4 1229.1 972.2 1232.6 972V971.9ZM1259.2 979.4H1253.7V947H1259.2V979.4Z" fill="#010101"/>
<path d="M1269.2 952.6H1298.3V957.2H1274.7V970.3H1295.6V974.8H1274.7V989.9C1286.1 989.9 1293.6 989.5 1302.2 988L1302.8 992.5C1293.7 994 1286 994.4 1274 994.5H1269.2V952.6ZM1318 1009.5H1312.5V975.1H1299.4V970.6H1312.5V947H1318V1009.5Z" fill="#010101"/>
<path d="M1339.3 976H1362.9V963.9H1368.2V976H1396.1V980.5H1339.2V976H1339.3ZM1389.4 997.9C1389.4 1005 1380.9 1009.2 1367.5 1009.3C1354.1 1009.3 1345.6 1005.1 1345.6 997.9C1345.6 990.7 1354.1 986.4 1367.5 986.4C1380.9 986.4 1389.4 990.6 1389.4 997.9ZM1346.1 950.1H1389V955.4C1389 960.4 1389 965.5 1387.1 972L1381.8 971.4C1383.5 964.9 1383.5 960.2 1383.5 955.4V954.5H1346.1V950V950.1ZM1367.5 1004.8C1377.4 1004.8 1383.8 1002.1 1383.9 997.9C1383.9 993.4 1377.4 990.6 1367.5 990.6C1357.5 990.6 1351.1 993.4 1351.1 997.9C1351.1 1002.4 1357.5 1004.9 1367.5 1004.8Z" fill="#010101"/>
<path d="M1431.8 964.5C1431.8 973.1 1425 979 1415.5 978.9C1406 978.9 1399.1 973.1 1399.2 964.5C1399.1 955.9 1406 950.1 1415.5 950.1C1425 950.1 1431.8 955.9 1431.8 964.5ZM1415.5 974.3C1421.8 974.3 1426.4 970.2 1426.4 964.5C1426.4 958.8 1421.8 954.7 1415.5 954.7C1409.2 954.7 1404.5 958.7 1404.6 964.5C1404.6 970.2 1409.1 974.2 1415.5 974.3ZM1407.1 983.8H1412.6V991.6H1441.3V983.8H1446.8V1008.6H1407.2V983.8H1407.1ZM1441.3 1004V995.9H1412.6V1004H1441.3ZM1441.3 947H1446.8V961.3H1456.2V965.9H1446.8V980.7H1441.3V947Z" fill="#010101"/>
<path d="M1472.69 958.298V955.998H1458.59V951.398H1492.29V955.998H1478.29V958.298C1478.29 966.398 1484.49 974.198 1493.69 977.298L1490.79 981.798C1483.69 979.298 1478.29 973.998 1475.49 967.598C1472.79 974.898 1466.99 980.698 1459.49 983.498L1456.59 979.198C1465.99 975.798 1472.59 967.298 1472.59 958.298H1472.69ZM1487.49 986.098C1500.49 986.098 1508.49 990.298 1508.49 997.798C1508.49 1005.3 1500.49 1009.3 1487.49 1009.3C1474.49 1009.3 1466.59 1005.1 1466.59 997.798C1466.59 990.398 1474.49 986.098 1487.49 986.098ZM1487.49 1005C1497.09 1005 1503.09 1002.3 1503.09 997.798C1503.09 993.298 1497.09 990.498 1487.49 990.498C1477.89 990.498 1471.99 993.198 1472.09 997.798C1472.09 1002.3 1477.99 1005 1487.49 1005ZM1508.19 984.098H1502.69V967.798H1489.99V963.198H1502.69V946.898H1508.19V984.098Z" fill="#010101"/>
<path d="M1528.09 964.7V958.9H1515.99V954.3H1544.79V958.9H1533.39V964.7C1533.39 975.6 1538.29 986.4 1546.89 991.3L1543.39 995.3C1537.29 991.7 1532.99 985 1530.69 977C1528.49 985.6 1523.89 992.9 1517.69 996.9L1514.09 992.7C1522.89 987.5 1527.89 976.1 1527.89 964.6L1528.09 964.7ZM1540.09 969.4H1550.79V948.4H1555.99V1006.2H1550.79V974.1H1540.09V969.5V969.4ZM1568.39 1009.5H1563.19V947H1568.39V1009.5Z" fill="#010101"/>
<path d="M1206.9 1091.9L1176.7 1060.3H1237.1L1206.9 1091.9Z" fill="#9F0002"/>
<path d="M899.695 1433.3L895.695 1427C902.695 1424.4 907.495 1421.2 910.695 1417.3L897.295 1418.7L896.095 1411.6L914.295 1410.5C914.695 1409.1 914.995 1407.8 915.195 1406.3H898.795V1399.1H924.095C924.095 1415.4 917.295 1426.6 899.595 1433.4L899.695 1433.3ZM906.995 1433.4H916.095V1438.9H941.895V1433.4H950.795V1458.6H906.995V1433.4ZM941.895 1451.6V1445.8H916.095V1451.6H941.895ZM928.095 1396.5H936.595V1409.6H942.395V1395.3H950.895V1430.7H942.395V1416.9H936.595V1430.1H928.095V1396.4V1396.5Z" fill="#010101"/>
<path d="M954.398 1420H1012.9V1427.1H998.798V1431.9H1005.7V1448.3H969.998V1452.2H1007.4V1459H961.198V1442H996.898V1438.5H961.198V1431.9H968.298V1427.1H954.498V1420H954.398ZM1010 1410.7L1007 1417.5C995.898 1416.3 987.798 1412.2 983.598 1406.4C979.498 1412.2 971.398 1416.3 960.298 1417.5L957.298 1410.7C971.598 1409.4 978.998 1403.1 979.098 1397V1395.7H988.298V1397C988.298 1403.1 995.598 1409.4 1010.1 1410.7H1010ZM989.798 1431.8V1427H977.298V1431.8H989.798Z" fill="#010101"/>
<path d="M1084.39 1433.09H1059.49V1437.69C1070.79 1438.39 1077.29 1442.19 1077.39 1448.39C1077.39 1455.49 1069.09 1459.29 1055.09 1459.29C1041.09 1459.29 1032.69 1455.49 1032.79 1448.39C1032.79 1442.19 1039.29 1438.49 1050.69 1437.69V1433.09H1026.09V1425.99H1084.59V1433.09H1084.39ZM1049.89 1408.09H1031.59V1400.99H1050.59V1395.49H1059.49V1400.99H1078.69V1408.09H1060.39C1061.69 1412.59 1068.29 1416.39 1081.69 1417.29L1079.09 1424.09C1067.29 1423.19 1059.09 1419.89 1055.09 1414.69C1051.09 1419.89 1042.89 1423.29 1031.19 1424.09L1028.49 1417.29C1041.99 1416.39 1048.49 1412.49 1049.99 1408.09H1049.89ZM1055.09 1452.69C1063.89 1452.69 1068.39 1451.29 1068.49 1448.39C1068.49 1445.49 1063.89 1444.19 1055.09 1444.19C1046.29 1444.19 1041.79 1445.49 1041.89 1448.39C1041.89 1451.29 1046.19 1452.69 1055.09 1452.69Z" fill="#010101"/>
<path d="M1124.7 1426.6L1120.2 1433.5C1113 1431.3 1108 1426.7 1105.1 1420.9C1102.1 1427.2 1097 1432.3 1089.4 1434.8L1084.8 1427.7C1095.5 1424.3 1100.3 1416 1100.3 1407.8V1406.9H1087.1V1399.7H1122.4V1406.9H1109.4V1407.8C1109.4 1415.5 1114.2 1423.3 1124.7 1426.5V1426.6ZM1095.2 1437.4H1104.3V1450.9H1139.9V1458.1H1095.3V1437.4H1095.2ZM1129.2 1395.4H1138.1V1441.6H1129.2V1395.4Z" fill="#010101"/>
<path d="M1156.9 1439.3C1156.9 1433.5 1160.6 1429.9 1166.3 1426C1163.6 1422.5 1161.4 1418.8 1161.4 1414.3C1161.4 1407 1166.9 1401.3 1175.2 1401.3C1183.5 1401.3 1188.4 1406.8 1188.4 1413.2C1188.4 1418 1185.9 1421.8 1181.6 1424.9L1178.5 1427.1L1187.1 1436.9C1188.5 1434.4 1189.3 1431.4 1189.3 1428H1197.9C1197.9 1434.9 1196.1 1440.2 1193.3 1444L1200.9 1452.8H1189.9L1186.8 1449.3C1183.1 1452.2 1178.3 1453.5 1173.8 1453.5C1163.3 1453.5 1156.8 1447.3 1156.8 1439.2L1156.9 1439.3ZM1174.4 1445.2C1176.7 1445.2 1179.2 1444.5 1181.3 1443.1L1171.5 1432.2L1171.2 1432.4C1168.2 1434.6 1167 1436.8 1166.9 1438.7C1166.9 1442.4 1169.9 1445.2 1174.4 1445.2ZM1173.5 1421.2L1176.2 1419.5C1178.8 1417.8 1180 1416 1179.9 1413.9C1179.9 1411.8 1178.2 1409.7 1175.1 1409.7C1172 1409.7 1170.2 1411.9 1170.2 1414.5C1170.2 1417.1 1171.6 1418.8 1173.4 1421.3L1173.5 1421.2Z" fill="#010101"/>
<path d="M1247.59 1410.9C1247.59 1417.2 1242.89 1421.9 1236.09 1423.4V1428.1C1241.09 1427.8 1246.09 1427.4 1250.79 1426.7L1251.49 1433.3C1238.29 1435.6 1223.69 1435.9 1212.89 1435.9L1211.99 1428.8C1216.49 1428.8 1221.59 1428.8 1226.99 1428.5V1423.5C1219.99 1422.1 1215.29 1417.3 1215.29 1411C1215.29 1404.7 1221.99 1398 1231.39 1398C1240.79 1398 1247.49 1403.3 1247.49 1411L1247.59 1410.9ZM1220.49 1439.9H1229.39V1451H1265.59V1458.2H1220.49V1439.9ZM1231.49 1417.1C1236.09 1417.1 1239.09 1414.8 1239.09 1410.9C1239.09 1407 1236.09 1404.7 1231.49 1404.7C1226.89 1404.7 1223.69 1406.9 1223.69 1410.9C1223.69 1414.8 1226.89 1417.1 1231.49 1417.1ZM1254.29 1395.4H1263.19V1415.6H1271.39V1423.1H1263.19V1444.3H1254.29V1395.5V1395.4Z" fill="#010101"/>
<path d="M1282.4 1412.5V1409H1271.9V1401.8H1300.7V1409H1291V1412.5C1291 1423.1 1294.3 1433.8 1303.7 1439.1L1298.4 1445.7C1292.6 1442.3 1289 1436.6 1286.8 1429.8C1284.6 1437.2 1280.7 1443.6 1274.9 1447.1L1269.4 1440.5C1278.8 1434.7 1282.4 1423.2 1282.4 1412.4V1412.5ZM1296.2 1417.3H1304.5V1396.4H1312.8V1456.3H1304.5V1424.5H1296.2V1417.3ZM1326.1 1459.3H1317.6V1395.2H1326.1V1459.3Z" fill="#010101"/>
<path d="M1387.79 1432.39H1362.89V1437.89H1380.79V1458.59H1336.19V1437.89H1354.09V1432.39H1329.49V1425.29H1387.99V1432.39H1387.79ZM1334.59 1397.09H1382.59V1404.29H1374.29V1413.99H1382.19V1421.19H1335.09V1413.99H1342.89V1404.29H1334.69V1397.09H1334.59ZM1371.99 1451.39V1444.79H1345.09V1451.39H1371.99ZM1365.19 1413.99V1404.29H1351.79V1413.99H1365.19Z" fill="#010101"/>
<path d="M1459.29 1429.1H1434.49V1433.1H1452.19V1448.8H1416.49V1452.3H1453.89V1458.9H1407.69V1442.8H1443.39V1439.6H1407.69V1433.1H1425.69V1429.1H1401.09V1422.6H1459.29V1429.1ZM1424.59 1406.9H1406.59V1400.3H1425.59V1395.3H1434.49V1400.3H1453.69V1406.9H1435.59C1437.39 1410.6 1443.89 1413.7 1456.79 1414.2L1454.19 1420.8C1442.39 1420.1 1434.09 1417.1 1430.09 1412.4C1426.09 1417.2 1417.79 1420.2 1405.79 1420.8L1403.39 1414.2C1416.19 1413.7 1422.69 1410.6 1424.59 1406.9Z" fill="#010101"/>
<path d="M1459.59 1444.2H1480.49V1422.2H1489.39V1444.2H1518.09V1451.5H1459.59V1444.2ZM1512.29 1406.9C1512.29 1414.9 1512.29 1423.9 1509.89 1437.6L1500.79 1436.6C1503.19 1424.6 1503.29 1415.7 1503.39 1408.1H1465.69V1400.9H1512.39V1407L1512.29 1406.9Z" fill="#010101"/>
<path d="M913.195 1177.3H919.495V1200.1H946.395V1177.3H952.695V1228.3H946.395V1205.5H919.495V1228.3H913.195V1177.3Z" fill="#010101"/>
<path d="M956.094 1228.3L974.694 1177.3H981.294L999.994 1228.3H993.394L988.394 1214H967.794L962.794 1228.3H956.194H956.094ZM986.394 1208.4L978.294 1185.5H977.894L969.794 1208.4H986.394Z" fill="#010101"/>
<path d="M1021.6 1182.6C1012.3 1182.6 1005.2 1189.7 1005.2 1202.8C1005.2 1215.9 1012.3 1223 1021.6 1223.1C1028.2 1223.1 1034.2 1219.3 1035.7 1212.3H1042C1040.2 1222.7 1031.8 1229 1021.5 1229C1011.2 1229 998.898 1218.9 998.898 1202.8C998.898 1186.7 1008.4 1176.7 1021.5 1176.7C1031.7 1176.7 1040.1 1182.8 1042 1193.4H1035.7C1034.3 1186.3 1028.2 1182.5 1021.6 1182.6Z" fill="#010101"/>
<path d="M1068 1182.6C1058.7 1182.6 1051.6 1189.7 1051.6 1202.8C1051.6 1215.9 1058.7 1223 1068 1223.1C1074.6 1223.1 1080.6 1219.3 1082.1 1212.3H1088.4C1086.6 1222.7 1078.2 1229 1068 1229C1057.8 1229 1045.4 1218.9 1045.4 1202.8C1045.4 1186.7 1054.9 1176.7 1068 1176.7C1078.2 1176.7 1086.6 1182.8 1088.4 1193.4H1082.1C1080.7 1186.3 1074.6 1182.5 1068 1182.6Z" fill="#010101"/>
<path d="M1093.7 1177.3H1111C1122.9 1177.3 1128.3 1184.5 1128.4 1193.6C1128.4 1202.6 1122.9 1209.8 1111.1 1209.9H1100V1228.3H1093.7V1177.3ZM1110.9 1204.2C1119 1204.2 1122.1 1199.6 1122.1 1193.5C1122.1 1187.4 1118.9 1182.9 1110.7 1182.8H1100V1204.1H1110.8L1110.9 1204.2Z" fill="#010101"/>
<path d="M1187.49 1206.2H1161.69V1213.5H1180.59V1233.1H1137.49V1213.5H1156.19V1206.2H1130.59V1201.7H1187.49V1206.2ZM1135.89 1173.6H1181.99V1178.1H1172.49V1191.3H1181.89V1195.9H1136.09V1191.3H1145.59V1178.1H1135.89V1173.6ZM1175.09 1228.6V1218.1H1142.99V1228.6H1175.09ZM1166.89 1191.3V1178.1H1151.09V1191.3H1166.89Z" fill="#010101"/>
<path d="M1205.99 1180.3V1179.6H1191.49V1175.1H1226.09V1179.6H1211.69V1180.3C1211.69 1188.4 1218.39 1195.6 1227.79 1198.3L1225.09 1202.6C1217.69 1200.3 1211.79 1195.3 1208.99 1188.9C1206.29 1196 1200.39 1201.4 1192.69 1203.9L1190.09 1199.6C1199.39 1196.5 1206.09 1188.9 1206.09 1180.3H1205.99ZM1200.09 1207H1240.69V1221.8H1205.59V1228.9H1242.99V1233.4H1200.19V1217.8H1235.19V1211.3H1200.09V1207ZM1240.59 1203.9H1235.29V1171.5H1240.59V1203.9Z" fill="#010101"/>
<path d="M1311.2 1180.3C1311.2 1185.9 1311.2 1192.9 1309.5 1202.8H1319.2V1207.4H1304.1V1233.9H1298.6V1207.4H1282.6V1233.9H1277.1V1207.4H1262.3V1202.8H1304C1305.9 1192.9 1305.9 1185.9 1305.9 1180.3C1305.9 1180.2 1269.5 1180.2 1269.5 1180.2V1175.6H1311.3V1180.4L1311.2 1180.3Z" fill="#010101"/>
<path d="M1352.9 1182.8H1367V1171.6H1372.5V1208.9H1367V1200.6H1350.4V1196H1367V1187.4H1351.4C1347.2 1197.3 1337.4 1204.4 1323.7 1208.1L1321.7 1203.6C1336.9 1199.4 1346.6 1191 1347.7 1180.3H1324.9V1175.8H1353.7C1353.7 1178.2 1353.4 1180.6 1352.8 1182.9L1352.9 1182.8ZM1330.5 1211.6H1372.6V1233.9H1367.1V1216H1330.5V1211.5V1211.6Z" fill="#010101"/>
<path d="M1450.7 1209.1H1393.7V1204.6H1419.5V1198.4H1401.3V1173.2H1443.6V1177.7H1406.7V1183.6H1441.8V1187.8H1406.7V1194H1443.9V1198.5H1424.9V1204.7H1450.7V1209.2V1209.1ZM1422.2 1213.9C1436 1213.9 1443.7 1217.4 1443.8 1223.8C1443.8 1230.4 1436 1233.8 1422.2 1233.9C1408.4 1233.9 1400.7 1230.4 1400.6 1223.8C1400.6 1217.3 1408.4 1213.8 1422.2 1213.9ZM1422.2 1229.6C1432.5 1229.6 1438.2 1227.7 1438.2 1223.8C1438.2 1219.9 1432.5 1218 1422.2 1218C1411.9 1218 1406.1 1220.1 1406.2 1223.8C1406.2 1227.6 1411.9 1229.6 1422.2 1229.6Z" fill="#010101"/>
<path d="M1465.2 1215.4V1196.3H1470.7V1215.2C1477.6 1214.9 1484.7 1214.5 1491.1 1213.7L1491.4 1217.9C1478.3 1220 1463.5 1220.3 1452.4 1220.2L1451.7 1215.6C1455.8 1215.6 1460.4 1215.6 1465.2 1215.4ZM1487 1181.6C1487 1186.6 1487 1194.8 1485.3 1206.4L1479.7 1206C1481.4 1195.6 1481.6 1188 1481.6 1183H1455.4V1178.5H1487.1V1181.7L1487 1181.6ZM1495.1 1171.5H1500.7V1197.6H1510.8V1202.4H1500.7V1234.1H1495.1V1171.6V1171.5Z" fill="#010101"/>
<path d="M1206.9 1316.5L1176.7 1284.9H1237.1L1206.9 1316.5Z" fill="#9F0002"/>
<path d="M935 759.808H878V755.308H935V759.808ZM884.3 765.908H927.6V784.908H922V770.508H884.3V765.908ZM885.6 724.008H927.9V728.508H891V734.408H926.1V738.708H891V745.008H928.2V749.508H885.6V724.008Z" fill="#010101"/>
<path d="M973.903 736.906H936.703V732.306H952.403V723.106H958.003V732.306H973.803V736.906H973.903ZM955.303 742.106C963.803 742.106 969.903 748.106 970.003 756.506C970.003 764.806 963.803 770.806 955.303 770.806C946.703 770.806 940.503 764.806 940.603 756.506C940.603 748.106 946.703 742.106 955.303 742.106ZM955.303 766.006C960.803 766.006 964.903 762.106 965.003 756.506C965.003 750.906 960.803 746.806 955.303 746.806C949.803 746.806 945.603 750.806 945.603 756.506C945.603 762.206 949.803 766.106 955.303 766.006ZM972.603 748.606H983.003V722.406H988.503V784.906H983.003V753.206H972.603V748.606Z" fill="#010101"/>
<path d="M995.397 751.506H1019V739.406H1024.3V751.506H1052.2V756.006H995.297V751.506H995.397ZM1045.5 773.406C1045.5 780.506 1037 784.706 1023.6 784.806C1010.2 784.806 1001.7 780.606 1001.7 773.406C1001.7 766.206 1010.2 761.906 1023.6 761.906C1037 761.906 1045.5 766.106 1045.5 773.406ZM1002.1 725.506H1045V730.806C1045 735.806 1045 740.906 1043.1 747.406L1037.8 746.806C1039.5 740.306 1039.5 735.606 1039.5 730.806V729.906H1002.1V725.406V725.506ZM1023.6 780.306C1033.5 780.306 1039.9 777.606 1040 773.406C1040 768.906 1033.5 766.106 1023.6 766.106C1013.6 766.106 1007.2 768.906 1007.2 773.406C1007.2 777.906 1013.6 780.406 1023.6 780.306Z" fill="#010101"/>
<path d="M1062.6 735.205H1080V725.505H1085.5V737.605H1100.2V722.305H1105.7V756.405H1100.2V742.305H1085.5V754.105H1057V725.405H1062.6V735.105V735.205ZM1080 749.605V739.705H1062.6V749.605H1080ZM1065.5 759.505H1071V767.105H1100.2V759.505H1105.7V783.805H1065.5V759.505ZM1100.2 779.405V771.605H1071V779.405H1100.2Z" fill="#010101"/>
<path d="M1127 749.609H1150.2V742.009H1155.8V749.609H1183.9V754.109H1127V749.609ZM1176.8 728.109C1176.8 732.609 1176.8 738.309 1175.4 745.809L1169.9 745.509C1170.5 742.609 1170.8 740.009 1171 737.709L1132.9 739.609L1132.2 735.009L1171.3 733.909C1171.3 732.009 1171.3 730.209 1171.3 728.609H1133.7V724.109H1176.8V728.009V728.109ZM1133.9 759.409H1176.5V773.509H1139.3V779.509H1178.3V783.809H1133.9V769.409H1171.1V763.609H1133.8V759.309L1133.9 759.409Z" fill="#010101"/>
<path d="M1185.6 771.603H1242.8V776.203H1185.6V771.603ZM1236 757.003H1192.8V728.203H1235.4V732.803H1198.2V752.403H1235.9V757.003H1236Z" fill="#010101"/>
<path d="M1301.4 776.803H1244.2V772.003H1301.4V776.803ZM1249.2 728.703H1295.9V733.203H1286V755.103H1295.8V759.603H1249.4V755.103H1259.2V733.203H1249.3V728.703H1249.2ZM1280.5 755.103V733.203H1264.7V755.103H1280.5Z" fill="#010101"/>
<path d="M1327.1 750.906H1310.1V764.706C1317.4 764.706 1324.1 764.506 1332.6 763.006L1333 767.606C1324 769.206 1316.9 769.406 1308.9 769.506H1304.7V746.306H1321.7V733.906H1304.6V729.306H1327.1V750.906ZM1330.2 744.806H1338.1V723.806H1343.4V781.606H1338.1V749.506H1330.2V744.906V744.806ZM1350.9 722.406H1356.1V784.906H1350.9V722.406Z" fill="#010101"/>
<path d="M1400.4 766.206L1397.1 770.706C1390 767.206 1383.8 759.706 1380.8 750.706C1377.9 760.206 1371.7 768.106 1364.4 771.806L1360.9 767.206C1370.3 763.006 1378 751.006 1378 739.106V727.706H1383.5V739.106C1383.5 750.606 1391.2 762.006 1400.3 766.206H1400.4ZM1407.3 722.406H1412.8V784.906H1407.3V722.406Z" fill="#010101"/>
<path d="M1456.7 753.606L1454.1 757.906C1446.9 755.706 1441.3 750.806 1438.6 744.706C1435.9 751.406 1430.1 756.706 1422.8 759.006L1419.9 754.706C1429.3 751.806 1435.7 744.306 1435.7 735.806V734.506H1421.6V730.006H1435.7V721.906H1441.2V730.006H1455.2V734.506H1441.2V735.806C1441.2 743.606 1447.5 750.706 1456.6 753.506L1456.7 753.606ZM1427.9 763.706H1468.8V784.906H1463.3V768.306H1427.9V763.706ZM1463.4 722.406H1468.9V739.106H1478.3V743.706H1468.9V760.506H1463.4V722.306V722.406Z" fill="#010101"/>
<path d="M1535.7 762.605H1520.7V784.905H1515.1V762.605H1499.1V784.905H1493.3V762.605H1478.5V758.005H1535.7V762.605ZM1507 724.805C1520.1 724.805 1529 730.105 1529 738.505C1529 746.805 1520.1 752.005 1507 751.905C1493.8 752.005 1485 746.805 1485 738.505C1485 730.205 1493.9 724.905 1507 724.805ZM1507 747.605C1516.7 747.605 1523.3 744.005 1523.3 738.505C1523.3 732.905 1516.7 729.305 1507 729.305C1497.2 729.305 1490.6 732.905 1490.7 738.505C1490.6 744.005 1497.2 747.505 1507 747.605Z" fill="#010101"/>
<path d="M1206.9 867.303L1176.7 835.703H1237.1L1206.9 867.303Z" fill="#9F0002"/>
</g>
<defs>
<clipPath id="clip0_600_14147">
<rect width="2052" height="1511.4" fill="white"/>
</clipPath>
</defs>
</svg>
