<?xml version="1.0" encoding="UTF-8"?>
<svg id="_레이어_2" xmlns="http://www.w3.org/2000/svg" version="1.1" viewBox="0 0 2052 1511.4">
  <!-- Generator: Adobe Illustrator 30.1.0, SVG Export Plug-In . SVG Version: 2.1.1 Build 136)  -->
  <defs>
    <style>
      .st0 {
        fill: #010101;
      }

      .st1 {
        fill: #fff;
      }

      .st2 {
        fill: #9f0002;
      }

      .st3 {
        fill: none;
        stroke: #9f0002;
        stroke-miterlimit: 10;
        stroke-width: 4px;
      }

      .st4 {
        opacity: .5;
      }
    </style>
  </defs>
  <g id="_레이어_1-2">
    <g>
      <g>
        <rect class="st3" x="2" y="2" width="2048" height="160" rx="29.3" ry="29.3"/>
        <g>
          <path class="st2" d="M26,2.6h336.1v160H26c-13.2,0-24-10.8-24-24V26.6C2,13.3,12.8,2.6,26,2.6Z"/>
          <g>
            <g class="st4">
              <path class="st1" d="M95.1,65.2c-4.7,0-7.9,2.5-7.9,6.1s3.5,5.1,6.7,6.1l3.6,1c4.2,1.2,9.3,3.5,9.3,9.2,0,5.4-4.5,9.6-11.9,9.6s-11.4-3.7-11.8-9.1h3.5c.3,3.9,3.9,6.1,8.3,6.1,5,0,8.6-2.6,8.6-6.6s-2.9-4.9-7-6.1l-4.1-1.2c-5.3-1.6-8.4-4.3-8.4-8.7,0-5.5,4.9-9.3,11.2-9.3,6.4,0,10.9,3.8,11.1,9h-3.3c-.3-3.7-3.6-6-8-5.9h0Z"/>
              <path class="st1" d="M123,73.8h-5.3v15.9c0,3.2,1.8,4.1,3.7,4.1s1.5,0,2.1,0v3c-.6,0-1.3.2-2.4.2-3.4,0-6.7-2.2-6.7-6.4v-16.7h-3.7v-2.7h3.7v-6.1h3.3v6.1h5.3v2.7h0Z"/>
              <path class="st1" d="M127.2,84c0-7.7,4.6-13.2,11.2-13.2s10.9,3.9,10.9,12.6v1.5h-18.8c.1,5.7,3.4,9.4,8.4,9.4,3.5,0,5.6-1.8,6.4-3.5h3.5c-1.1,3.5-4.8,6.3-9.9,6.3-7.2,0-11.7-5.4-11.7-13.2h0ZM146,82.1c0-4.8-3.1-8.4-7.5-8.4s-7.8,3.8-8.1,8.4h15.6Z"/>
              <path class="st1" d="M154.9,71.1h3.1v4.7h.4c1-2.2,3-5.1,7.7-5.1s10.6,5.2,10.6,13.2-4.3,13.2-10.5,13.2c-4.7,0-6.8-3-7.8-5.2h-.3v14.1h-3.2v-34.9h0ZM165.7,94.2c5,0,7.8-4.5,7.8-10.3s-2.7-10.2-7.8-10.3c-4.9,0-7.6,4.2-7.6,10.3,0,6,2.7,10.3,7.6,10.3Z"/>
            </g>
            <g>
              <path class="st1" d="M209.2,79.9c0-16.6,7.8-26.1,20.4-26.1,12.7,0,20.4,9.5,20.4,26.1s-7.7,26.2-20.4,26.2-20.4-9.5-20.4-26.2ZM229.6,97.3c5.9,0,9.7-5.6,9.6-17.4,0-11.6-3.7-17.4-9.6-17.4s-9.6,5.8-9.6,17.4c0,11.8,3.7,17.4,9.6,17.4Z"/>
              <path class="st1" d="M275.7,105.4h-10.5v-40.9h-.4l-11.7,7.3v-9.4l12.7-8.1h9.9v51Z"/>
            </g>
          </g>
        </g>
      </g>
      <g>
        <path class="st0" d="M942.7,75.7l.3,4c-5.5.9-11.4,1.5-17.1,1.8v12.5h-5.5v-12.2c-6.3.2-12.5.2-17.7.2l-.7-4.5c11.7,0,27.4-.1,40.8-1.9h0ZM922.5,51.2c9.2,0,15.4,4.2,15.4,10.8s-6.3,10.9-15.4,10.9c-9.3,0-15.5-4.2-15.5-10.9s6.3-10.9,15.5-10.8ZM911,91.4h5.5v13.7h38.9v4.6h-44.4v-18.3h0ZM922.5,68.8c5.9,0,10.1-2.7,10.2-6.8-.1-4-4.3-6.7-10.2-6.6-6.1,0-10.3,2.7-10.2,6.6,0,4.1,4.1,6.8,10.2,6.8ZM953.8,96.2h-5.5v-6.5h-13v-4h13v-37h5.5v47.5Z"/>
        <path class="st0" d="M1018.2,103.4h-57.2v-4.8h16v-11.8h-8.9v-19.3h37.4v-9.7h-37.6v-4.6h43.1v18.9h-37.4v10.1h38.9v4.6h-9.8v11.8h15.5s0,4.8,0,4.7ZM997.1,98.6v-11.8h-14.7v11.8h14.7Z"/>
        <path class="st0" d="M1070.7,80.6l-3,4.3c-6.8-2.7-12.3-8.1-15.1-15-2.6,7.6-8.3,13.5-15.6,16.4l-3-4.5c9.4-3.4,15.8-12.1,15.8-21.8v-7.8h5.5v7.9c0,8.8,6.3,17,15.4,20.3h0ZM1045.4,90.1h5.5v15h36.3v4.6h-41.8v-19.6ZM1066.2,63.3h14v-14.7h5.5v46.8h-5.5v-27.5h-14v-4.6h0Z"/>
        <path class="st0" d="M1144.3,81.3h-5.5v-8.1h-14.7v5.5h-28.5v-27.2h5.6v9.1h17.4v-9.1h5.5v6h14.7v-8.9h5.5v32.7ZM1118.7,74.3v-9.4h-17.4v9.4h17.4ZM1103.8,84.4h40.5v14.7h-34.8v6.8h37.3v4.5h-42.8v-15.6h34.8v-6.1h-35s0-4.3,0-4.3ZM1138.8,69v-7.1h-14.7v7.1h14.7Z"/>
      </g>
      <polygon class="st2" points="1026 193.6 995.8 162 1056.2 162 1026 193.6"/>
    </g>
    <g>
      <g>
        <rect class="st3" x="2" y="226.6" width="2048" height="160" rx="29.3" ry="29.3"/>
        <g>
          <path class="st2" d="M26,227.1h336.1v160H26c-13.2,0-24-10.8-24-24v-112c0-13.2,10.8-24,24-24Z"/>
          <g>
            <g class="st4">
              <path class="st1" d="M95.1,289.7c-4.7,0-7.9,2.5-7.9,6.1s3.5,5.1,6.7,6l3.6,1c4.2,1.2,9.3,3.5,9.3,9.2,0,5.4-4.5,9.6-11.9,9.6s-11.4-3.7-11.8-9.1h3.5c.3,3.9,3.9,6.1,8.3,6,5,0,8.6-2.6,8.6-6.6s-2.9-4.9-7-6.1l-4.1-1.1c-5.3-1.6-8.4-4.3-8.4-8.7,0-5.5,4.9-9.3,11.2-9.3,6.4,0,10.9,3.8,11.1,9h-3.3c-.3-3.7-3.6-6-8-6h0Z"/>
              <path class="st1" d="M123,298.4h-5.3v15.9c0,3.2,1.8,4.1,3.7,4.1s1.5,0,2.1-.1v3c-.6.1-1.3.2-2.4.2-3.4,0-6.7-2.2-6.7-6.4v-16.7h-3.7v-2.7h3.7v-6.1h3.3v6.1h5.3v2.7h0Z"/>
              <path class="st1" d="M127.2,308.5c0-7.7,4.6-13.2,11.2-13.2s10.9,3.9,10.9,12.6v1.5h-18.8c.1,5.7,3.4,9.4,8.4,9.4,3.5,0,5.6-1.8,6.4-3.5h3.5c-1.1,3.5-4.8,6.3-9.9,6.3-7.2,0-11.7-5.4-11.7-13.1h0ZM146,306.6c0-4.8-3.1-8.5-7.5-8.5s-7.8,3.8-8.1,8.5h15.6Z"/>
              <path class="st1" d="M154.9,295.7h3.1v4.7h.4c1-2.2,3-5.1,7.7-5.1s10.6,5.2,10.6,13.1-4.3,13.2-10.5,13.2c-4.7,0-6.8-3-7.8-5.2h-.3v14.1h-3.2v-35h0ZM165.7,318.7c5,0,7.8-4.5,7.8-10.3s-2.7-10.2-7.8-10.3c-4.9,0-7.6,4.2-7.6,10.3,0,6,2.7,10.3,7.6,10.3Z"/>
            </g>
            <g>
              <path class="st1" d="M209.2,304.5c0-16.6,7.8-26.1,20.4-26.1,12.7,0,20.4,9.5,20.4,26.1s-7.7,26.2-20.4,26.2-20.4-9.5-20.4-26.2ZM229.6,321.9c5.9,0,9.7-5.6,9.6-17.4,0-11.6-3.7-17.4-9.6-17.4s-9.6,5.8-9.6,17.4c0,11.8,3.7,17.4,9.6,17.4Z"/>
              <path class="st1" d="M253.8,322.3l18.1-16.9c4.8-4.5,7.3-7.3,7.3-11.4s-3.4-7.3-8.1-7.3-7.9,3-7.9,7.9h-10.1c0-9.9,7.4-16.4,18.2-16.3,10.9,0,18.1,6.1,18.1,15s-2.8,10.6-13.4,20l-7.6,7.5v.4h21.8v8.6h-36.4v-7.6h0Z"/>
            </g>
          </g>
        </g>
      </g>
      <g>
        <path class="st0" d="M946.3,304.5l-2.6,4.3c-7.2-2.2-12.8-7.1-15.5-13.2-2.7,6.7-8.5,12-15.8,14.3l-2.9-4.3c9.4-2.9,15.8-10.4,15.8-18.9v-1.3h-14.1v-4.5h14.1v-8.1h5.5v8.1h14v4.5h-14v1.3c0,7.8,6.3,14.9,15.4,17.7h0ZM917.5,314.6h40.9v21.2h-5.5v-16.6h-35.4v-4.6h0ZM952.9,273.2h5.5v16.7h9.4v4.6h-9.4v16.9h-5.5v-38.2h0Z"/>
        <path class="st0" d="M968.2,302h56.9v4.6h-56.9v-4.6h0ZM1020,280.1h-19.9c.3,7,10.8,12.3,21.9,13.4l-2,4.5c-10.3-1.2-20-5.7-23.4-12.5-3.5,6.8-13.1,11.3-23.4,12.5l-2-4.5c11-1.1,21.5-6.4,21.9-13.4h-19.7v-4.5h46.7v4.5h0ZM975.4,310.7h5.5v7.2h31.4v-7.2h5.5v24.2h-42.3v-24.2h0ZM1012.2,330.4v-8.2h-31.4v8.2h31.4Z"/>
        <path class="st0" d="M1026.8,302.3h23.6v-12.1h5.3v12.1h27.9v4.5h-56.9v-4.5h0ZM1076.9,324.2c0,7.1-8.5,11.3-21.9,11.4-13.4,0-21.9-4.2-21.9-11.4s8.5-11.5,21.9-11.5,21.9,4.2,21.9,11.5ZM1033.6,276.4h42.9v5.3c0,5,0,10.1-1.9,16.6l-5.3-.6c1.7-6.5,1.7-11.2,1.7-16v-.9h-37.4v-4.5h0ZM1055,331.1c9.9,0,16.3-2.7,16.4-6.9,0-4.5-6.5-7.3-16.4-7.3-10,0-16.4,2.8-16.4,7.3s6.4,7,16.4,6.9Z"/>
        <path class="st0" d="M1101.5,284.6v-2.3h-14.1v-4.6h33.7v4.6h-14v2.3c0,8.1,6.2,15.9,15.4,19l-2.9,4.5c-7.1-2.5-12.5-7.8-15.3-14.2-2.7,7.3-8.5,13.1-16,15.9l-2.9-4.3c9.4-3.4,16-11.9,16-20.9h0ZM1116.4,312.4c13,0,21,4.2,21,11.7s-8,11.5-21,11.5-20.9-4.2-20.9-11.5c0-7.4,7.9-11.7,20.9-11.7ZM1116.4,331.3c9.6,0,15.6-2.7,15.6-7.2s-6-7.3-15.6-7.3-15.5,2.7-15.4,7.3c0,4.5,5.9,7.2,15.4,7.2ZM1137.1,310.4h-5.5v-16.3h-12.7v-4.6h12.7v-16.3h5.5v37.1h0Z"/>
      </g>
      <polygon class="st2" points="1026 418.2 995.8 386.6 1056.2 386.6 1026 418.2"/>
    </g>
    <g>
      <g>
        <rect class="st3" x="2" y="451.1" width="2048" height="160" rx="29.3" ry="29.3"/>
        <g>
          <path class="st2" d="M26,451.7h336.1v160H26c-13.2,0-24-10.8-24-24v-112c0-13.2,10.8-24,24-24h0Z"/>
          <g>
            <g class="st4">
              <path class="st1" d="M95.1,514.3c-4.7,0-7.9,2.5-7.9,6.1s3.5,5.1,6.7,6l3.6,1c4.2,1.2,9.3,3.5,9.3,9.2,0,5.4-4.5,9.6-11.9,9.6s-11.4-3.7-11.8-9.1h3.5c.3,3.9,3.9,6.1,8.3,6,5,0,8.6-2.6,8.6-6.6s-2.9-4.9-7-6.1l-4.1-1.2c-5.3-1.6-8.4-4.3-8.4-8.7,0-5.5,4.9-9.3,11.2-9.3,6.4,0,10.9,3.8,11.1,9h-3.3c-.3-3.7-3.6-6-8-6h0Z"/>
              <path class="st1" d="M123,522.9h-5.3v15.9c0,3.2,1.8,4.1,3.7,4.1s1.5,0,2.1,0v3c-.6,0-1.3.2-2.4.2-3.4,0-6.7-2.2-6.7-6.4v-16.7h-3.7v-2.7h3.7v-6.1h3.3v6.1h5.3v2.7h0Z"/>
              <path class="st1" d="M127.2,533.1c0-7.7,4.6-13.2,11.2-13.2s10.9,3.9,10.9,12.6v1.5h-18.8c.1,5.7,3.4,9.4,8.4,9.4,3.5,0,5.6-1.8,6.4-3.5h3.5c-1.1,3.5-4.8,6.3-9.9,6.3-7.2,0-11.7-5.4-11.7-13.2h0ZM146,531.2c0-4.8-3.1-8.5-7.5-8.5s-7.8,3.8-8.1,8.5h15.6Z"/>
              <path class="st1" d="M154.9,520.3h3.1v4.7h.4c1-2.2,3-5.1,7.7-5.1s10.6,5.2,10.6,13.2-4.3,13.2-10.5,13.2c-4.7,0-6.8-3-7.8-5.2h-.3v14.1h-3.2v-35h0ZM165.7,543.3c5,0,7.8-4.5,7.8-10.3s-2.7-10.2-7.8-10.3c-4.9,0-7.6,4.2-7.6,10.3,0,6,2.7,10.3,7.6,10.3Z"/>
            </g>
            <g>
              <path class="st1" d="M209.2,529.1c0-16.6,7.8-26.1,20.4-26.1,12.7,0,20.4,9.5,20.4,26.1s-7.7,26.2-20.4,26.2-20.4-9.5-20.4-26.2ZM229.6,546.5c5.9,0,9.7-5.6,9.6-17.4,0-11.6-3.7-17.4-9.6-17.4s-9.6,5.8-9.6,17.4c0,11.8,3.7,17.4,9.6,17.4Z"/>
              <path class="st1" d="M253.2,540.3h10.7c.2,3.7,3.9,6.2,8.8,6.2s8.7-2.8,8.6-6.9c0-4.1-3.6-7.1-9.6-7.1h-4.6v-7.8h4.6c5.1,0,8.6-2.8,8.5-6.9,0-3.8-2.9-6.5-7.3-6.5s-8.3,2.5-8.4,6.5h-10.2c.2-8.8,8.1-14.9,18.6-14.8,10.6,0,17.6,6.3,17.6,14.3,0,5.8-3.9,9.8-9.6,10.8v.4c7.6.9,11.7,5.4,11.7,11.8s-8.3,15-19.7,15-19.2-6.2-19.4-15h0Z"/>
            </g>
          </g>
        </g>
      </g>
      <g>
        <path class="st0" d="M659,534.7h-56.9v-4.6h25.6v-7.5h-18.2v-23.3h5.5v7.2h31v-7.2h5.6v23.3h-18.4v7.5h25.8v4.6ZM608.3,540.9h43.6v19.4h-5.5v-15h-38.2v-4.5h0ZM646.1,518.1v-7.5h-31v7.5h31Z"/>
        <path class="st0" d="M717.8,535.4h-25.3v12.2h-5.5v-12.2h-26.3v-4.6h57.2v4.6h0ZM668,541.9h5.5v12.4h38v4.6h-43.5v-17ZM668.2,499.7h5.5v8.1h31v-8.1h5.6v25.1h-42v-25.1ZM704.7,520.3v-8.2h-31v8.2h31Z"/>
        <path class="st0" d="M756.7,542.3l-3.2,4.3c-7-3.4-13-10.8-15.7-19.2-2.9,9.2-9.2,17.2-16.3,20.8l-3.3-4.3c9.1-4.4,16.8-16.3,16.8-26.9v-8.2h-14.5v-4.6h34v4.6h-14.1v8.2c0,10,7.3,21,16.3,25.3ZM762.1,497.8h5.6v25.2h10.4v4.8h-10.4v32.5h-5.6v-62.5Z"/>
        <path class="st0" d="M787,517.5v-14.3h5.2v14.3c0,6.3,1.2,15.6,6.3,21.9,5-6.1,6.3-15.1,6.3-21.9v-14.3h5.3v14.3c0,8.3,2.2,19.1,9.8,24.5l-3.5,4c-4.8-3.5-7.6-9.1-9.1-15.2-1.4,6.3-4.1,12.2-8.9,15.6-4.9-3.5-7.6-9.5-9-15.7-1.5,6-4.3,11.7-8.9,15.1l-3.6-3.9c7.6-5.5,9.9-16.5,9.9-24.5h0ZM830.2,560.3h-5.5v-62.5h5.5v62.5Z"/>
        <path class="st0" d="M907.8,535.2h-57v-4.5h57v4.5ZM857.2,541.3h43.3v19h-5.6v-14.4h-37.7v-4.6ZM858.5,499.4h42.3v4.5h-36.9v5.9h35.1v4.3h-35.1v6.3h37.2v4.5h-42.6v-25.5h0Z"/>
        <path class="st0" d="M946.7,512.3h-37.2v-4.6h15.7v-9.2h5.6v9.2h15.8v4.6h0ZM928.2,517.5c8.5,0,14.6,6,14.7,14.4,0,8.3-6.2,14.3-14.7,14.3-8.6,0-14.8-6-14.7-14.3,0-8.4,6.1-14.4,14.7-14.4ZM928.2,541.4c5.5,0,9.6-3.9,9.7-9.5,0-5.6-4.2-9.7-9.7-9.7s-9.7,4-9.7,9.7,4.2,9.6,9.7,9.5ZM945.4,524h10.4v-26.2h5.5v62.5h-5.5v-31.7h-10.4v-4.6h0Z"/>
        <path class="st0" d="M1025.1,540.2h-25.8v20.2h-5.5v-20.2h-25.6v-4.6h56.9v4.6ZM993.8,510h-20.2v-4.5h20.2v-7.9h5.5v7.9h20.3v4.5h-20.3c0,7.8,11,14.7,22.2,16.3l-2,4.5c-9.7-1.5-18.8-6.4-22.8-13.2-4,6.9-13.2,11.7-22.8,13.2l-2.2-4.5c11.2-1.6,22.2-8.3,22.2-16.3h0Z"/>
        <path class="st0" d="M1083.7,529.8h-25.8v5.9h18.4v13.5h-37.2v6h39v4.3h-44.4v-14.3h37.2v-5.5h-37.3v-4.2h18.7v-5.9h-25.6v-4.2h56.9v4.2ZM1052.1,507.6h-19.5v-4.3h19.9v-5.9h5.5v5.9h20v4.3h-19.7c1.1,6.3,10.9,10.1,22.4,10.9l-1.7,4.2c-10.5-.9-19.9-4.1-23.7-10.1-3.9,6-13.3,9.2-23.8,10.1l-1.6-4.2c11.4-.8,21.2-4.7,22.2-11h0Z"/>
        <path class="st0" d="M1085.4,526.9h23.6v-12.1h5.3v12.1h27.9v4.5h-56.9v-4.5h0ZM1135.5,548.8c0,7.1-8.5,11.3-21.9,11.4-13.4,0-21.9-4.2-21.9-11.4s8.5-11.5,21.9-11.5,21.9,4.2,21.9,11.5ZM1092.2,501h42.9v5.3c0,5,0,10.1-1.9,16.6l-5.3-.6c1.7-6.5,1.7-11.2,1.7-16v-.9h-37.4v-4.5h0ZM1113.6,555.7c9.9,0,16.3-2.7,16.4-6.9,0-4.5-6.5-7.3-16.4-7.3-10,0-16.4,2.8-16.4,7.3s6.4,7,16.4,6.9Z"/>
        <path class="st0" d="M1152.7,510.6h17.4v-9.6h5.5v12.1h14.7v-15.3h5.5v34.1h-5.5v-14.1h-14.7v11.8h-28.5v-28.7h5.6v9.6ZM1170.1,525v-9.9h-17.4v9.9h17.4ZM1155.5,535h5.5v7.6h29.2v-7.6h5.5v24.3h-40.2v-24.3h0ZM1190.2,554.8v-7.8h-29.2v7.8h29.2Z"/>
        <path class="st0" d="M1216.9,534.8h57.2v4.6h-25.9v20.7h-5.5v-20.7h-25.8v-4.6ZM1268.6,505.9h-9.7v17.1h9.4v4.5h-45.8v-4.5h9.5v-17.1h-9.7v-4.5h46.2v4.5h0ZM1253.4,523v-17.1h-16v17.1h16Z"/>
        <path class="st0" d="M1275.6,547.1h57.2v4.6h-57.2v-4.6ZM1326,532.4h-43.2v-28.8h42.6v4.6h-37.2v19.6h37.7v4.6h0Z"/>
        <path class="st0" d="M1359.9,509.9h-18v12.4h15.1v4.3h-15.1v14.1c9,0,14.5-.5,21.3-1.7l.4,4.5c-7.2,1.5-13.1,1.7-23,1.7h-3.9v-39.9h23.2v4.6h0ZM1360.4,521.4h9.2v-22.2h5.2v57.8h-5.2v-31h-9.2v-4.6ZM1382.3,497.8h5.3v62.5h-5.3v-62.5Z"/>
        <path class="st0" d="M1392.8,546.8h56.9v4.8h-56.9v-4.8ZM1442.7,511.9c0,9.1,0,17.6-2.6,30.4l-5.6-.6c1.4-6,2.1-11.2,2.4-16.1l-38.2,2.1-.7-4.6,39.2-1.7c0-3.2.1-6.4.1-9.6v-3.2h-37.7v-4.6h43.1v7.8h0Z"/>
      </g>
      <polygon class="st2" points="1026 642.8 995.8 611.2 1056.2 611.2 1026 642.8"/>
    </g>
    <g>
      <g>
        <rect class="st3" x="2" y="900.3" width="2048" height="160" rx="29.3" ry="29.3"/>
        <g>
          <path class="st2" d="M26,900.9h336.1v160H26c-13.2,0-24-10.8-24-24v-112c0-13.2,10.8-24,24-24Z"/>
          <g>
            <g class="st4">
              <path class="st1" d="M95.1,963.5c-4.7,0-7.9,2.5-7.9,6.1s3.5,5.1,6.7,6l3.6,1c4.2,1.2,9.3,3.5,9.3,9.2,0,5.4-4.5,9.6-11.9,9.6s-11.4-3.7-11.8-9.1h3.5c.3,3.9,3.9,6.1,8.3,6,5,0,8.6-2.6,8.6-6.6s-2.9-5-7-6.1l-4.1-1.2c-5.3-1.6-8.4-4.3-8.4-8.7,0-5.5,4.9-9.3,11.2-9.3,6.4,0,10.9,3.8,11.1,9h-3.3c-.3-3.7-3.6-6-8-6h0Z"/>
              <path class="st1" d="M123,972.1h-5.3v15.9c0,3.2,1.8,4.1,3.7,4.1s1.5,0,2.1,0v3c-.6,0-1.3.2-2.4.2-3.4,0-6.7-2.2-6.7-6.4v-16.7h-3.7v-2.7h3.7v-6.1h3.3v6.1h5.3v2.7h0Z"/>
              <path class="st1" d="M127.2,982.3c0-7.7,4.6-13.2,11.2-13.2s10.9,3.9,10.9,12.6v1.5h-18.8c.1,5.7,3.4,9.4,8.4,9.4,3.5,0,5.6-1.8,6.4-3.5h3.5c-1.1,3.5-4.8,6.3-9.9,6.3-7.2,0-11.7-5.4-11.7-13.2h0ZM146,980.3c0-4.8-3.1-8.5-7.5-8.5s-7.8,3.8-8.1,8.5h15.6Z"/>
              <path class="st1" d="M154.9,969.4h3.1v4.7h.4c1-2.2,3-5.1,7.7-5.1s10.6,5.2,10.6,13.2-4.3,13.2-10.5,13.2c-4.7,0-6.8-3-7.8-5.2h-.3v14.1h-3.2v-35h0ZM165.7,992.5c5,0,7.8-4.5,7.8-10.3s-2.7-10.2-7.8-10.3c-4.9,0-7.6,4.2-7.6,10.3,0,6,2.7,10.3,7.6,10.3Z"/>
            </g>
            <g>
              <path class="st1" d="M209.2,978.2c0-16.6,7.8-26.1,20.4-26.1,12.7,0,20.4,9.5,20.4,26.1s-7.7,26.2-20.4,26.2-20.4-9.5-20.4-26.2ZM229.6,995.6c5.9,0,9.7-5.6,9.6-17.4,0-11.6-3.7-17.4-9.6-17.4s-9.6,5.8-9.6,17.4c0,11.8,3.7,17.4,9.6,17.4Z"/>
              <path class="st1" d="M254,989.4h10.2c.2,3.9,3.9,6.6,8.4,6.6s9-3.7,8.9-9.1c0-5.3-3.7-9.1-9.1-9.1-3.9,0-6.5,1.4-8.1,4.2h-9.5l2.7-29.4h31.2v8.8h-22.6l-1.3,12.8h.3c1.9-2.5,5.8-4.3,10.2-4.3,9.4,0,16.4,7,16.3,16.7,0,10.4-7.8,17.7-19.1,17.7s-18.4-6.3-18.6-15h0Z"/>
            </g>
          </g>
        </g>
      </g>
      <g>
        <path class="st0" d="M692.1,993.5h-28.8v-40.2h28.8v40.2ZM686.7,989v-31.4h-18v31.4h18ZM703.5,947h5.6v24.9h10.4v4.8h-10.4v32.8h-5.6v-62.5h0Z"/>
        <path class="st0" d="M737.6,951.7c9.2,0,15.9,8.5,16,21.8,0,13.4-6.8,21.8-16,21.9-9.4,0-16-8.5-16-21.9s6.6-21.7,16-21.8ZM737.6,990.3c6.2,0,10.5-6.6,10.5-16.8s-4.3-16.8-10.5-16.8c-6.3,0-10.7,6.8-10.7,16.8s4.3,16.9,10.7,16.8ZM770.8,1009.5h-5.5v-62.5h5.5v62.5Z"/>
        <path class="st0" d="M778,995.9h56.9v4.8h-56.9v-4.8ZM827.8,961.1c0,9.2,0,17.6-2.6,30.4l-5.6-.6c1.4-6,2.1-11.2,2.5-16.1l-38.2,2.1-.7-4.6,39.2-1.7c0-3.2.1-6.4.1-9.6v-3.2h-37.7v-4.6h43.1v7.8h0Z"/>
        <path class="st0" d="M893.7,1001.7h-57.2v-4.8h25.6v-11.7h-18.6v-19.3h37.4v-9.8h-37.6v-4.6h43.1v18.9h-37.4v10.2h38.9v4.6h-20.3v11.7h26.1v4.8h0Z"/>
        <path class="st0" d="M939.5,960.9h16.3v-14h5.5v62.5h-5.5v-24.2h-16c-2.6,6.3-7.5,10-13.5,10.1-9.2,0-15.7-8.5-15.5-21.9-.1-13.2,6.3-21.7,15.5-21.8,5.8,0,10.5,3.4,13.2,9.2ZM926.3,990.3c6.2,0,10.4-6.6,10.4-16.8,0-10.1-4.2-16.8-10.4-16.8-6.1,0-10.4,6.8-10.4,16.8s4.2,16.9,10.4,16.8ZM942,973.5c0,2.6-.3,5-.7,7.2h14.5v-15.1h-14.8c.6,2.4.9,5,.9,7.9h0Z"/>
        <path class="st0" d="M981,990.8v-19.1h5.5v18.9c6.9-.3,14-.7,20.5-1.5l.3,4.2c-13.1,2.1-27.9,2.4-39,2.3l-.7-4.6c4.1,0,8.7,0,13.5-.2h0ZM1002.8,957c0,5,0,13.2-1.7,24.8l-5.6-.4c1.7-10.4,1.9-18,1.9-23h-26.2v-4.5h31.7v3.2h0ZM1010.8,947h5.6v26.1h10.1v4.8h-10.1v31.7h-5.6v-62.5Z"/>
        <path class="st0" d="M1035.9,972.5v-16.9h-6.3v-4.5h33.8v4.5h-6.3v16.1c3.2-.3,6.5-.6,9.5-.9v4c-12.3,1.9-27,2.4-38,2.3l-.7-4.5h8.1c0,0,0,0,0,0ZM1037.4,982.4h40.9v14.8h-35.3v6.9h37.7v4.6h-43.1v-15.5h35.1v-6.3h-35.4v-4.5h0ZM1051.7,971.9v-16.3h-10.5v16.8c3.5,0,7-.2,10.5-.4h0ZM1078.3,979.4h-5.5v-32.4h5.5v32.4Z"/>
        <path class="st0" d="M1088.3,952.6h29.1v4.6h-23.6v13.1h20.9v4.5h-20.9v15.1c11.4,0,18.9-.4,27.5-1.9l.6,4.5c-9.1,1.5-16.8,1.9-28.8,2h-4.8v-41.9h0ZM1137.1,1009.5h-5.5v-34.4h-13.1v-4.5h13.1v-23.6h5.5v62.5Z"/>
        <path class="st0" d="M1158.4,976h23.6v-12.1h5.3v12.1h27.9v4.5h-56.9v-4.5h0ZM1208.5,997.9c0,7.1-8.5,11.3-21.9,11.4-13.4,0-21.9-4.2-21.9-11.4s8.5-11.5,21.9-11.5,21.9,4.2,21.9,11.5ZM1165.2,950.1h42.9v5.3c0,5,0,10.1-1.9,16.6l-5.3-.6c1.7-6.5,1.7-11.2,1.7-16v-.9h-37.4v-4.5h0ZM1186.6,1004.8c9.9,0,16.3-2.7,16.4-6.9,0-4.5-6.5-7.3-16.4-7.3-10,0-16.4,2.8-16.4,7.3s6.4,7,16.4,6.9Z"/>
        <path class="st0" d="M1250.9,964.5c0,8.6-6.8,14.5-16.3,14.4-9.5,0-16.4-5.8-16.3-14.4-.1-8.6,6.8-14.4,16.3-14.4s16.3,5.8,16.3,14.4ZM1234.6,974.3c6.3,0,10.9-4.1,10.9-9.8s-4.6-9.8-10.9-9.8-11,4-10.9,9.8c0,5.7,4.5,9.7,10.9,9.8ZM1226.2,983.8h5.5v7.8h28.7v-7.8h5.5v24.8h-39.6v-24.8ZM1260.4,1004v-8.1h-28.7v8.1h28.7ZM1260.4,947h5.5v14.3h9.4v4.6h-9.4v14.8h-5.5v-33.7Z"/>
        <path class="st0" d="M1291.8,958.3v-2.3h-14.1v-4.6h33.7v4.6h-14v2.3c0,8.1,6.2,15.9,15.4,19l-2.9,4.5c-7.1-2.5-12.5-7.8-15.3-14.2-2.7,7.3-8.5,13.1-16,15.9l-2.9-4.3c9.4-3.4,16-11.9,16-20.9h0ZM1306.6,986.1c13,0,21,4.2,21,11.7s-8,11.5-21,11.5-20.9-4.2-20.9-11.5c0-7.4,7.9-11.7,20.9-11.7ZM1306.6,1005c9.6,0,15.6-2.7,15.6-7.2s-6-7.3-15.6-7.3-15.5,2.7-15.4,7.3c0,4.5,5.9,7.2,15.4,7.2ZM1327.3,984.1h-5.5v-16.3h-12.7v-4.6h12.7v-16.3h5.5v37.2Z"/>
        <path class="st0" d="M1347.2,964.7v-5.8h-12.1v-4.6h28.8v4.6h-11.4v5.8c0,10.9,4.9,21.7,13.5,26.6l-3.5,4c-6.1-3.6-10.4-10.3-12.7-18.3-2.2,8.6-6.8,15.9-13,19.9l-3.6-4.2c8.8-5.2,13.8-16.6,13.8-28.1h0ZM1359.2,969.4h10.7v-21h5.2v57.8h-5.2v-32.1h-10.7v-4.6ZM1387.5,1009.5h-5.2v-62.5h5.2v62.5Z"/>
      </g>
      <polygon class="st2" points="1026 1091.9 995.8 1060.3 1056.2 1060.3 1026 1091.9"/>
    </g>
    <g>
      <path class="st2" d="M26,1350h336.1v160H26c-13.2,0-24-10.8-24-24v-112c0-13.2,10.8-24,24-24Z"/>
      <g>
        <g class="st4">
          <path class="st1" d="M95.1,1412.6c-4.7,0-7.9,2.5-7.9,6.1s3.5,5.1,6.7,6.1l3.6,1c4.2,1.2,9.3,3.5,9.3,9.2,0,5.4-4.5,9.6-11.9,9.6s-11.4-3.7-11.8-9.1h3.5c.3,3.9,3.9,6.1,8.3,6.1,5,0,8.6-2.6,8.6-6.6s-2.9-4.9-7-6.1l-4.1-1.2c-5.3-1.6-8.4-4.3-8.4-8.7,0-5.5,4.9-9.3,11.2-9.3,6.4,0,10.9,3.8,11.1,9h-3.3c-.3-3.7-3.6-6-8-5.9h0Z"/>
          <path class="st1" d="M123,1421.2h-5.3v15.9c0,3.2,1.8,4.1,3.7,4.1s1.5,0,2.1,0v3c-.6,0-1.3.2-2.4.2-3.4,0-6.7-2.2-6.7-6.4v-16.7h-3.7v-2.7h3.7v-6.1h3.3v6.1h5.3v2.7h0Z"/>
          <path class="st1" d="M127.2,1431.4c0-7.7,4.6-13.2,11.2-13.2s10.9,3.9,10.9,12.6v1.5h-18.8c.1,5.7,3.4,9.4,8.4,9.4,3.5,0,5.6-1.8,6.4-3.5h3.5c-1.1,3.5-4.8,6.3-9.9,6.3-7.2,0-11.7-5.4-11.7-13.2h0ZM146,1429.5c0-4.8-3.1-8.4-7.5-8.4s-7.8,3.8-8.1,8.4h15.6Z"/>
          <path class="st1" d="M154.9,1418.6h3.1v4.7h.4c1-2.2,3-5.1,7.7-5.1s10.6,5.2,10.6,13.2-4.3,13.2-10.5,13.2c-4.7,0-6.8-3-7.8-5.2h-.3v14.1h-3.2v-34.9h0ZM165.7,1441.6c5,0,7.8-4.5,7.8-10.3s-2.7-10.2-7.8-10.3c-4.9,0-7.6,4.2-7.6,10.3,0,6,2.7,10.3,7.6,10.3Z"/>
        </g>
        <g>
          <path class="st1" d="M209.2,1427.4c0-16.6,7.8-26.1,20.4-26.1,12.7,0,20.4,9.5,20.4,26.1s-7.7,26.2-20.4,26.2-20.4-9.5-20.4-26.2ZM229.6,1444.8c5.9,0,9.7-5.6,9.6-17.4,0-11.6-3.7-17.4-9.6-17.4s-9.6,5.8-9.6,17.4c0,11.8,3.7,17.4,9.6,17.4Z"/>
          <path class="st1" d="M275.8,1410.9v-.3h-24.9v-8.8h36v8.9l-21.6,42.1h-10.9l21.5-41.9h0Z"/>
        </g>
      </g>
    </g>
    <g>
      <rect class="st3" x="2" y="1349.4" width="2048" height="160" rx="29.3" ry="29.3"/>
      <g>
        <path class="st0" d="M718.8,1433.3l-4-6.3c7-2.6,11.8-5.8,15-9.7l-13.4,1.4-1.2-7.1,18.2-1.1c.4-1.4.7-2.7.9-4.2h-16.4v-7.2h25.3c0,16.3-6.8,27.5-24.5,34.3h0ZM726.1,1433.4h9.1v5.5h25.8v-5.5h8.9v25.2h-43.8v-25.2ZM761,1451.6v-5.8h-25.8v5.8h25.8ZM747.2,1396.5h8.5v13.1h5.8v-14.3h8.5v35.4h-8.5v-13.8h-5.8v13.2h-8.5v-33.7h0Z"/>
        <path class="st0" d="M773.5,1420h58.5v7.1h-14.1v4.8h6.9v16.4h-35.7v3.9h37.4v6.8h-46.2v-17h35.7v-3.5h-35.7v-6.6h7.1v-4.8h-13.8v-7.1h0ZM829.1,1410.7l-3,6.8c-11.1-1.2-19.2-5.3-23.4-11.1-4.1,5.8-12.2,9.9-23.3,11.1l-3-6.8c14.3-1.3,21.7-7.6,21.8-13.7v-1.3h9.2v1.3c0,6.1,7.3,12.4,21.8,13.7h0ZM808.9,1431.8v-4.8h-12.5v4.8h12.5Z"/>
        <path class="st0" d="M903.5,1433.1h-24.9v4.6c11.3.7,17.8,4.5,17.9,10.7,0,7.1-8.3,10.9-22.3,10.9s-22.4-3.8-22.3-10.9c0-6.2,6.5-9.9,17.9-10.7v-4.6h-24.6v-7.1h58.5v7.1h0ZM869,1408.1h-18.3v-7.1h19v-5.5h8.9v5.5h19.2v7.1h-18.3c1.3,4.5,7.9,8.3,21.3,9.2l-2.6,6.8c-11.8-.9-20-4.2-24-9.4-4,5.2-12.2,8.6-23.9,9.4l-2.7-6.8c13.5-.9,20-4.8,21.5-9.2h0ZM874.2,1452.7c8.8,0,13.3-1.4,13.4-4.3,0-2.9-4.6-4.2-13.4-4.2s-13.3,1.3-13.2,4.2c0,2.9,4.3,4.3,13.2,4.3Z"/>
        <path class="st0" d="M943.8,1426.6l-4.5,6.9c-7.2-2.2-12.2-6.8-15.1-12.6-3,6.3-8.1,11.4-15.7,13.9l-4.6-7.1c10.7-3.4,15.5-11.7,15.5-19.9v-.9h-13.2v-7.2h35.3v7.2h-13v.9c0,7.7,4.8,15.5,15.3,18.7h0ZM914.3,1437.4h9.1v13.5h35.6v7.2h-44.6v-20.7ZM948.3,1395.4h8.9v46.2h-8.9v-46.2Z"/>
        <path class="st0" d="M976,1439.3c0-5.8,3.7-9.4,9.4-13.3-2.7-3.5-4.9-7.2-4.9-11.7,0-7.3,5.5-13,13.8-13s13.2,5.5,13.2,11.9c0,4.8-2.5,8.6-6.8,11.7l-3.1,2.2,8.6,9.8c1.4-2.5,2.2-5.5,2.2-8.9h8.6c0,6.9-1.8,12.2-4.6,16l7.6,8.8h-11l-3.1-3.5c-3.7,2.9-8.5,4.2-13,4.2-10.5,0-17-6.2-17-14.3h0ZM993.5,1445.2c2.3,0,4.8-.7,6.9-2.1l-9.8-10.9-.3.2c-3,2.2-4.2,4.4-4.3,6.3,0,3.7,3,6.5,7.5,6.5ZM992.6,1421.2l2.7-1.7c2.6-1.7,3.8-3.5,3.7-5.6,0-2.1-1.7-4.2-4.8-4.2s-4.9,2.2-4.9,4.8,1.4,4.3,3.2,6.8h0Z"/>
        <path class="st0" d="M1066.7,1410.9c0,6.3-4.7,11-11.5,12.5v4.7c5-.3,10-.7,14.7-1.4l.7,6.6c-13.2,2.3-27.8,2.6-38.6,2.6l-.9-7.1c4.5,0,9.6,0,15-.3v-5c-7-1.4-11.7-6.2-11.7-12.5s6.7-13,16.1-13,16.1,5.3,16.1,13h0ZM1039.6,1439.9h8.9v11.1h36.2v7.2h-45.1v-18.3h0ZM1050.6,1417.1c4.6,0,7.6-2.3,7.6-6.2s-3-6.2-7.6-6.2-7.8,2.2-7.8,6.2c0,3.9,3.2,6.2,7.8,6.2ZM1073.4,1395.4h8.9v20.2h8.2v7.5h-8.2v21.2h-8.9v-48.8h0Z"/>
        <path class="st0" d="M1101.5,1412.5v-3.5h-10.5v-7.2h28.8v7.2h-9.7v3.5c0,10.6,3.3,21.3,12.7,26.6l-5.3,6.6c-5.8-3.4-9.4-9.1-11.6-15.9-2.2,7.4-6.1,13.8-11.9,17.3l-5.5-6.6c9.4-5.8,13-17.3,13-28.1h0ZM1115.3,1417.3h8.3v-20.9h8.3v59.9h-8.3v-31.8h-8.3v-7.2h0ZM1145.2,1459.3h-8.5v-64.1h8.5v64.1Z"/>
        <path class="st0" d="M1206.9,1432.4h-24.9v5.5h17.9v20.7h-44.6v-20.7h17.9v-5.5h-24.6v-7.1h58.5v7.1h0ZM1153.7,1397.1h48v7.2h-8.3v9.7h7.9v7.2h-47.1v-7.2h7.8v-9.7h-8.2v-7.2h0ZM1191.1,1451.4v-6.6h-26.9v6.6h26.9ZM1184.3,1414v-9.7h-13.4v9.7h13.4Z"/>
        <path class="st0" d="M1278.4,1429.1h-24.8v4h17.7v15.7h-35.7v3.5h37.4v6.6h-46.2v-16.1h35.7v-3.2h-35.7v-6.5h18v-4h-24.6v-6.5h58.2v6.5h0ZM1243.7,1406.9h-18v-6.6h19v-5h8.9v5h19.2v6.6h-18.1c1.8,3.7,8.3,6.8,21.2,7.3l-2.6,6.6c-11.8-.7-20.1-3.7-24.1-8.4-4,4.8-12.3,7.8-24.3,8.4l-2.4-6.6c12.8-.5,19.3-3.6,21.2-7.3h0Z"/>
        <path class="st0" d="M1278.7,1444.2h20.9v-22h8.9v22h28.7v7.3h-58.5v-7.3h0ZM1331.4,1406.9c0,8,0,17-2.4,30.7l-9.1-1c2.4-12,2.5-20.9,2.6-28.5h-37.7v-7.2h46.7v6.1h0Z"/>
      </g>
    </g>
    <g>
      <g>
        <rect class="st3" x="2" y="1124.9" width="2048" height="160" rx="29.3" ry="29.3"/>
        <g>
          <path class="st2" d="M26,1125.4h336.1v160H26c-13.2,0-24-10.8-24-24v-112c0-13.2,10.8-24,24-24Z"/>
          <g>
            <g class="st4">
              <path class="st1" d="M95.1,1188c-4.7,0-7.9,2.5-7.9,6.1s3.5,5.1,6.7,6.1l3.6,1c4.2,1.2,9.3,3.5,9.3,9.2,0,5.4-4.5,9.6-11.9,9.6s-11.4-3.7-11.8-9.1h3.5c.3,3.9,3.9,6.1,8.3,6.1,5,0,8.6-2.6,8.6-6.6s-2.9-4.9-7-6.1l-4.1-1.2c-5.3-1.6-8.4-4.3-8.4-8.7,0-5.5,4.9-9.3,11.2-9.3,6.4,0,10.9,3.8,11.1,9h-3.3c-.3-3.7-3.6-6-8-5.9h0Z"/>
              <path class="st1" d="M123,1196.7h-5.3v15.9c0,3.2,1.8,4.1,3.7,4.1s1.5,0,2.1,0v3c-.6,0-1.3.2-2.4.2-3.4,0-6.7-2.2-6.7-6.4v-16.7h-3.7v-2.7h3.7v-6.1h3.3v6.1h5.3v2.7h0Z"/>
              <path class="st1" d="M127.2,1206.8c0-7.7,4.6-13.2,11.2-13.2s10.9,3.9,10.9,12.6v1.5h-18.8c.1,5.7,3.4,9.4,8.4,9.4,3.5,0,5.6-1.8,6.4-3.5h3.5c-1.1,3.5-4.8,6.3-9.9,6.3-7.2,0-11.7-5.4-11.7-13.2h0ZM146,1204.9c0-4.8-3.1-8.4-7.5-8.4s-7.8,3.8-8.1,8.4h15.6Z"/>
              <path class="st1" d="M154.9,1194h3.1v4.7h.4c1-2.2,3-5.1,7.7-5.1s10.6,5.2,10.6,13.2-4.3,13.2-10.5,13.2c-4.7,0-6.8-3-7.8-5.2h-.3v14.1h-3.2v-34.9h0ZM165.7,1217c5,0,7.8-4.5,7.8-10.3s-2.7-10.2-7.8-10.3c-4.9,0-7.6,4.2-7.6,10.3,0,6,2.7,10.3,7.6,10.3Z"/>
            </g>
            <g>
              <path class="st1" d="M209.2,1202.8c0-16.6,7.8-26.1,20.4-26.1,12.7,0,20.4,9.5,20.4,26.1s-7.7,26.2-20.4,26.2-20.4-9.5-20.4-26.2ZM229.6,1220.2c5.9,0,9.7-5.6,9.6-17.4,0-11.6-3.7-17.4-9.6-17.4s-9.6,5.8-9.6,17.4c0,11.8,3.7,17.4,9.6,17.4Z"/>
              <path class="st1" d="M252.9,1203.9c0-17.1,8.2-27.3,20.9-27.2,10.3,0,17.4,6.4,18.4,14.8h-10.5c-.8-3.6-3.7-5.8-7.9-5.8-6.8,0-10.5,6.2-10.5,16.1h.4c2.4-4.5,7.4-7.1,13.1-7.2,9.1,0,15.9,7,15.8,16.6,0,10.3-7.7,17.7-19.1,17.7-10.6,0-20.6-6.3-20.6-25.1h0ZM273.4,1220.6c5.3,0,9.1-4,9.1-9.1s-3.7-9.1-8.9-9.1-9.1,4.1-9.2,9.1c0,5,3.9,9.1,9.1,9.1h0Z"/>
            </g>
          </g>
        </g>
      </g>
      <g>
        <path class="st0" d="M732.3,1177.3h6.3v22.8h26.9v-22.8h6.3v51h-6.3v-22.8h-26.9v22.8h-6.3v-51Z"/>
        <path class="st0" d="M775.2,1228.3l18.6-51h6.6l18.7,51h-6.6l-5-14.3h-20.6l-5,14.3h-6.6ZM805.5,1208.4l-8.1-22.9h-.4l-8.1,22.9h16.6,0Z"/>
        <path class="st0" d="M840.7,1182.6c-9.3,0-16.4,7.1-16.4,20.2s7.1,20.2,16.4,20.3c6.6,0,12.6-3.8,14.1-10.8h6.3c-1.8,10.4-10.2,16.7-20.5,16.7s-22.6-10.1-22.6-26.2,9.5-26.1,22.6-26.1c10.2,0,18.6,6.1,20.5,16.7h-6.3c-1.4-7.1-7.5-10.9-14.1-10.8h0Z"/>
        <path class="st0" d="M887.1,1182.6c-9.3,0-16.4,7.1-16.4,20.2s7.1,20.2,16.4,20.3c6.6,0,12.6-3.8,14.1-10.8h6.3c-1.8,10.4-10.2,16.7-20.4,16.7s-22.6-10.1-22.6-26.2,9.5-26.1,22.6-26.1c10.2,0,18.6,6.1,20.4,16.7h-6.3c-1.4-7.1-7.5-10.9-14.1-10.8h0Z"/>
        <path class="st0" d="M912.8,1177.3h17.3c11.9,0,17.3,7.2,17.4,16.3,0,9-5.5,16.2-17.3,16.3h-11.1v18.4h-6.3v-51h0ZM930,1204.2c8.1,0,11.2-4.6,11.2-10.7s-3.2-10.6-11.4-10.7h-10.7v21.3h10.8Z"/>
        <path class="st0" d="M1006.6,1206.2h-25.8v7.3h18.9v19.6h-43.1v-19.6h18.7v-7.3h-25.6v-4.5h56.9v4.5h0ZM955,1173.6h46.1v4.5h-9.5v13.2h9.4v4.6h-45.8v-4.6h9.5v-13.2h-9.7v-4.5h0ZM994.2,1228.6v-10.5h-32.1v10.5h32.1ZM986,1191.3v-13.2h-15.8v13.2h15.8Z"/>
        <path class="st0" d="M1025.1,1180.3v-.7h-14.5v-4.5h34.6v4.5h-14.4v.7c0,8.1,6.7,15.3,16.1,18l-2.7,4.3c-7.4-2.3-13.3-7.3-16.1-13.7-2.7,7.1-8.6,12.5-16.3,15l-2.6-4.3c9.3-3.1,16-10.7,16-19.3h0ZM1019.2,1207h40.6v14.8h-35.1v7.1h37.4v4.5h-42.8v-15.6h35v-6.5h-35.1v-4.3h0ZM1059.7,1203.9h-5.3v-32.4h5.3v32.4Z"/>
        <path class="st0" d="M1130.3,1180.3c0,5.6,0,12.6-1.7,22.5h9.7v4.6h-15.1v26.5h-5.5v-26.5h-16v26.5h-5.5v-26.5h-14.8v-4.6h41.7c1.9-9.9,1.9-16.9,1.9-22.5h0c0-.1-36.4-.1-36.4-.1v-4.6h41.8v4.8Z"/>
        <path class="st0" d="M1172,1182.8h14.1v-11.2h5.5v37.3h-5.5v-8.3h-16.6v-4.6h16.6v-8.6h-15.6c-4.2,9.9-14,17-27.7,20.7l-2-4.5c15.2-4.2,24.9-12.6,26-23.3h-22.8v-4.5h28.8c0,2.4-.3,4.8-.9,7.1h0ZM1149.6,1211.6h42.1v22.3h-5.5v-17.9h-36.6v-4.5h0Z"/>
        <path class="st0" d="M1269.8,1209.1h-57v-4.5h25.8v-6.2h-18.2v-25.2h42.3v4.5h-36.9v5.9h35.1v4.2h-35.1v6.2h37.2v4.5h-19v6.2h25.8v4.5h0ZM1241.3,1213.9c13.8,0,21.5,3.5,21.6,9.9,0,6.6-7.8,10-21.6,10.1-13.8,0-21.5-3.5-21.6-10.1,0-6.5,7.8-10,21.6-9.9ZM1241.3,1229.6c10.3,0,16-1.9,16-5.8s-5.7-5.8-16-5.8-16.1,2.1-16,5.8c0,3.8,5.7,5.8,16,5.8Z"/>
        <path class="st0" d="M1284.3,1215.4v-19.1h5.5v18.9c6.9-.3,14-.7,20.4-1.5l.3,4.2c-13.1,2.1-27.9,2.4-39,2.3l-.7-4.6c4.1,0,8.7,0,13.5-.2h0ZM1306.1,1181.6c0,5,0,13.2-1.7,24.8l-5.6-.4c1.7-10.4,1.9-18,1.9-23h-26.2v-4.5h31.7v3.2h0ZM1314.2,1171.5h5.6v26.1h10.1v4.8h-10.1v31.7h-5.6v-62.5Z"/>
      </g>
      <polygon class="st2" points="1026 1316.5 995.8 1284.9 1056.2 1284.9 1026 1316.5"/>
    </g>
    <g>
      <g>
        <rect class="st3" x="2" y="675.7" width="2048" height="160" rx="29.3" ry="29.3"/>
        <g>
          <path class="st2" d="M26,676.3h336.1v160H26c-13.2,0-24-10.8-24-24v-112c0-13.2,10.8-24,24-24Z"/>
          <g>
            <g class="st4">
              <path class="st1" d="M95.1,738.9c-4.7,0-7.9,2.5-7.9,6.1s3.5,5.1,6.7,6l3.6,1c4.2,1.2,9.3,3.5,9.3,9.2,0,5.4-4.5,9.6-11.9,9.6s-11.4-3.7-11.8-9.1h3.5c.3,3.9,3.9,6.1,8.3,6,5,0,8.6-2.6,8.6-6.6s-2.9-5-7-6.2l-4.1-1.2c-5.3-1.6-8.4-4.3-8.4-8.7,0-5.5,4.9-9.3,11.2-9.3,6.4,0,10.9,3.8,11.1,9h-3.3c-.3-3.7-3.6-6-8-6h0Z"/>
              <path class="st1" d="M123,747.5h-5.3v15.9c0,3.2,1.8,4.1,3.7,4.1s1.5,0,2.1,0v3c-.6,0-1.3.2-2.4.2-3.4,0-6.7-2.2-6.7-6.4v-16.7h-3.7v-2.7h3.7v-6.1h3.3v6.1h5.3v2.7h0Z"/>
              <path class="st1" d="M127.2,757.7c0-7.7,4.6-13.2,11.2-13.2s10.9,3.9,10.9,12.6v1.5h-18.8c.1,5.7,3.4,9.4,8.4,9.4,3.5,0,5.6-1.8,6.4-3.5h3.5c-1.1,3.5-4.8,6.3-9.9,6.3-7.2,0-11.7-5.4-11.7-13.2h0ZM146,755.8c0-4.8-3.1-8.5-7.5-8.5s-7.8,3.8-8.1,8.5h15.6Z"/>
              <path class="st1" d="M154.9,744.8h3.1v4.7h.4c1-2.2,3-5.1,7.7-5.1s10.6,5.2,10.6,13.2-4.3,13.2-10.5,13.2c-4.7,0-6.8-3-7.8-5.2h-.3v14.1h-3.2v-35h0ZM165.7,767.9c5,0,7.8-4.5,7.8-10.3s-2.7-10.2-7.8-10.3c-4.9,0-7.6,4.2-7.6,10.3,0,6,2.7,10.3,7.6,10.3Z"/>
            </g>
            <g>
              <path class="st1" d="M209.2,753.6c0-16.6,7.8-26.1,20.4-26.1,12.7,0,20.4,9.5,20.4,26.1s-7.7,26.2-20.4,26.2-20.4-9.5-20.4-26.2ZM229.6,771.1c5.9,0,9.7-5.6,9.6-17.4,0-11.6-3.7-17.4-9.6-17.4s-9.6,5.8-9.6,17.4c0,11.8,3.7,17.4,9.6,17.4Z"/>
              <path class="st1" d="M252.9,761.7l21.6-33.6h13.2v33.4h6.3v8.5h-6.3v9.1h-10.1v-9.1h-24.8v-8.3ZM277.9,761.5v-21.8h-.6l-13.7,21.5v.3h14.3,0Z"/>
            </g>
          </g>
        </g>
      </g>
      <g>
        <path class="st0" d="M754.1,759.8h-57v-4.5h57v4.5ZM703.4,765.9h43.3v19h-5.6v-14.4h-37.7v-4.6ZM704.7,724h42.3v4.5h-36.9v5.9h35.1v4.3h-35.1v6.3h37.2v4.5h-42.6v-25.5h0Z"/>
        <path class="st0" d="M793,736.9h-37.2v-4.6h15.7v-9.2h5.6v9.2h15.8v4.6h0ZM774.4,742.1c8.5,0,14.6,6,14.7,14.4,0,8.3-6.2,14.3-14.7,14.3-8.6,0-14.8-6-14.7-14.3,0-8.4,6.1-14.4,14.7-14.4ZM774.4,766c5.5,0,9.6-3.9,9.7-9.5,0-5.6-4.2-9.7-9.7-9.7s-9.7,4-9.7,9.7,4.2,9.6,9.7,9.5ZM791.7,748.6h10.4v-26.2h5.5v62.5h-5.5v-31.7h-10.4v-4.6Z"/>
        <path class="st0" d="M814.5,751.5h23.6v-12.1h5.3v12.1h27.9v4.5h-56.9v-4.5h0ZM864.6,773.4c0,7.1-8.5,11.3-21.9,11.4-13.4,0-21.9-4.2-21.9-11.4s8.5-11.5,21.9-11.5,21.9,4.2,21.9,11.5ZM821.2,725.5h42.9v5.3c0,5,0,10.1-1.9,16.6l-5.3-.6c1.7-6.5,1.7-11.2,1.7-16v-.9h-37.4v-4.5h0ZM842.7,780.3c9.9,0,16.3-2.7,16.4-6.9,0-4.5-6.5-7.3-16.4-7.3-10,0-16.4,2.8-16.4,7.3s6.4,7,16.4,6.9Z"/>
        <path class="st0" d="M881.7,735.2h17.4v-9.7h5.5v12.1h14.7v-15.3h5.5v34.1h-5.5v-14.1h-14.7v11.8h-28.5v-28.7h5.6v9.7h0ZM899.1,749.6v-9.9h-17.4v9.9h17.4ZM884.6,759.5h5.5v7.6h29.2v-7.6h5.5v24.3h-40.2v-24.3h0ZM919.3,779.4v-7.8h-29.2v7.8h29.2Z"/>
        <path class="st0" d="M946.1,749.6h23.2v-7.6h5.6v7.6h28.1v4.5h-56.9v-4.5h0ZM995.9,728.1c0,4.5,0,10.2-1.4,17.7l-5.5-.3c.6-2.9.9-5.5,1.1-7.8l-38.1,1.9-.7-4.6,39.1-1.1c0-1.9,0-3.7,0-5.3h-37.6v-4.5h43.1v3.9h0ZM953,759.4h42.6v14.1h-37.2v6h39v4.3h-44.4v-14.4h37.2v-5.8h-37.3v-4.3h0Z"/>
        <path class="st0" d="M1004.7,771.6h57.2v4.6h-57.2v-4.6ZM1055.1,757h-43.2v-28.8h42.6v4.6h-37.2v19.6h37.7v4.6h0Z"/>
        <path class="st0" d="M1120.5,776.8h-57.2v-4.8h57.2v4.8ZM1068.3,728.7h46.7v4.5h-9.9v21.9h9.8v4.5h-46.4v-4.5h9.8v-21.9h-9.9v-4.5h0ZM1099.6,755.1v-21.9h-15.8v21.9h15.8Z"/>
        <path class="st0" d="M1146.2,750.9h-17v13.8c7.3,0,14-.2,22.5-1.7l.4,4.6c-9,1.6-16.1,1.8-24.1,1.9h-4.2v-23.2h17v-12.4h-17.1v-4.6h22.5v21.6h0ZM1149.3,744.8h7.9v-21h5.3v57.8h-5.3v-32.1h-7.9v-4.6ZM1170,722.4h5.2v62.5h-5.2v-62.5Z"/>
        <path class="st0" d="M1219.5,766.2l-3.3,4.5c-7.1-3.5-13.3-11-16.3-20-2.9,9.5-9.1,17.4-16.4,21.1l-3.5-4.6c9.4-4.2,17.1-16.2,17.1-28.1v-11.4h5.5v11.4c0,11.5,7.7,22.9,16.8,27.1h0ZM1226.4,722.4h5.5v62.5h-5.5v-62.5Z"/>
        <path class="st0" d="M1275.8,753.6l-2.6,4.3c-7.2-2.2-12.8-7.1-15.5-13.2-2.7,6.7-8.5,12-15.8,14.3l-2.9-4.3c9.4-2.9,15.8-10.4,15.8-18.9v-1.3h-14.1v-4.5h14.1v-8.1h5.5v8.1h14v4.5h-14v1.3c0,7.8,6.3,14.9,15.4,17.7h0ZM1247,763.7h40.9v21.2h-5.5v-16.6h-35.4v-4.6ZM1282.5,722.4h5.5v16.7h9.4v4.6h-9.4v16.8h-5.5v-38.2h0Z"/>
        <path class="st0" d="M1354.8,762.6h-15v22.3h-5.6v-22.3h-16v22.3h-5.8v-22.3h-14.8v-4.6h57.2v4.6h0ZM1326.1,724.8c13.1,0,22,5.3,22,13.7,0,8.3-8.9,13.5-22,13.4-13.2.1-22-5.1-22-13.4s8.9-13.6,22-13.7ZM1326.1,747.6c9.7,0,16.3-3.6,16.3-9.1,0-5.6-6.6-9.2-16.3-9.2-9.8,0-16.4,3.6-16.3,9.2-.1,5.5,6.5,9,16.3,9.1Z"/>
      </g>
      <polygon class="st2" points="1026 867.3 995.8 835.7 1056.2 835.7 1026 867.3"/>
    </g>
  </g>
</svg>