<svg width="2384" height="1512" viewBox="0 0 2384 1512" fill="none" xmlns="http://www.w3.org/2000/svg">
<g clip-path="url(#clip0_600_14327)">
<path d="M2352.7 2H31.3C15.1181 2 2 15.1181 2 31.3V132.7C2 148.882 15.1181 162 31.3 162H2352.7C2368.88 162 2382 148.882 2382 132.7V31.3C2382 15.1181 2368.88 2 2352.7 2Z" stroke="#9F0002" stroke-width="4" stroke-miterlimit="10"/>
<path d="M26 2.60156H362.1V162.602H26C12.8 162.602 2 151.802 2 138.602V26.6016C2 13.3016 12.8 2.60156 26 2.60156Z" fill="#9F0002"/>
<g opacity="0.5">
<path d="M95.1016 65.2047C90.4016 65.2047 87.2016 67.7047 87.2016 71.3047C87.2016 74.9047 90.7016 76.4047 93.9016 77.4047L97.5016 78.4047C101.702 79.6047 106.802 81.9047 106.802 87.6047C106.802 93.0047 102.302 97.2047 94.9016 97.2047C87.5016 97.2047 83.5016 93.5047 83.1016 88.1047H86.6016C86.9016 92.0047 90.5016 94.2047 94.9016 94.2047C99.9016 94.2047 103.502 91.6047 103.502 87.6047C103.502 83.6047 100.602 82.7047 96.5016 81.5047L92.4016 80.3047C87.1016 78.7047 84.0016 76.0047 84.0016 71.6047C84.0016 66.1047 88.9016 62.3047 95.2016 62.3047C101.602 62.3047 106.102 66.1047 106.302 71.3047H103.002C102.702 67.6047 99.4016 65.3047 95.0016 65.4047L95.1016 65.2047Z" fill="white"/>
<path d="M123.005 73.8016H117.705V89.7016C117.705 92.9016 119.505 93.8016 121.505 93.8016C123.505 93.8016 123.005 93.8016 123.605 93.8016V96.8016C123.005 96.8016 122.305 97.0016 121.205 97.0016C117.805 97.0016 114.505 94.8016 114.505 90.6016V73.9016H110.805V71.2016H114.505V65.1016H117.805V71.2016H123.105V73.9016L123.005 73.8016Z" fill="white"/>
<path d="M127.203 84.0047C127.203 76.3047 131.803 70.8047 138.403 70.8047C145.003 70.8047 149.303 74.7047 149.303 83.4047V84.9047H130.503C130.603 90.6047 133.903 94.3047 138.903 94.3047C142.403 94.3047 144.503 92.5047 145.303 90.8047H148.803C147.703 94.3047 144.003 97.1047 138.903 97.1047C131.703 97.1047 127.203 91.7047 127.203 83.9047V84.0047ZM146.003 82.1047C146.003 77.3047 142.903 73.7047 138.503 73.7047C134.103 73.7047 130.703 77.5047 130.403 82.1047H146.003Z" fill="white"/>
<path d="M154.898 71.1031H157.998V75.8031H158.398C159.398 73.6031 161.398 70.7031 166.098 70.7031C170.798 70.7031 176.698 75.9031 176.698 83.9031C176.698 91.9031 172.398 97.1031 166.198 97.1031C161.498 97.1031 159.398 94.1031 158.398 91.9031H158.098V106.003H154.898V71.1031ZM165.698 94.2031C170.698 94.2031 173.498 89.7031 173.498 83.9031C173.498 78.1031 170.798 73.7031 165.698 73.6031C160.798 73.6031 158.098 77.8031 158.098 83.9031C158.098 89.9031 160.798 94.2031 165.698 94.2031Z" fill="white"/>
</g>
<path d="M209.203 79.9047C209.203 63.3047 217.003 53.8047 229.603 53.8047C242.303 53.8047 250.003 63.3047 250.003 79.9047C250.003 96.5047 242.303 106.105 229.603 106.105C216.903 106.105 209.203 96.6047 209.203 79.9047ZM229.603 97.3047C235.503 97.3047 239.303 91.7047 239.203 79.9047C239.203 68.3047 235.503 62.5047 229.603 62.5047C223.703 62.5047 220.003 68.3047 220.003 79.9047C220.003 91.7047 223.703 97.3047 229.603 97.3047Z" fill="white"/>
<path d="M275.702 105.405H265.202V64.5047H264.802L253.102 71.8047V62.4047L265.802 54.3047H275.702V105.305V105.405Z" fill="white"/>
<path d="M2352.7 226.602H31.3C15.1181 226.602 2 239.72 2 255.902V357.302C2 373.483 15.1181 386.602 31.3 386.602H2352.7C2368.88 386.602 2382 373.483 2382 357.302V255.902C2382 239.72 2368.88 226.602 2352.7 226.602Z" stroke="#9F0002" stroke-width="4" stroke-miterlimit="10"/>
<path d="M26 227.102H362.1V387.102H26C12.8 387.102 2 376.302 2 363.102V251.102C2 237.902 12.8 227.102 26 227.102Z" fill="#9F0002"/>
<g opacity="0.5">
<path d="M95.1016 289.695C90.4016 289.695 87.2016 292.195 87.2016 295.795C87.2016 299.395 90.7016 300.895 93.9016 301.795L97.5016 302.795C101.702 303.995 106.802 306.295 106.802 311.995C106.802 317.395 102.302 321.595 94.9016 321.595C87.5016 321.595 83.5016 317.895 83.1016 312.495H86.6016C86.9016 316.395 90.5016 318.595 94.9016 318.495C99.9016 318.495 103.502 315.895 103.502 311.895C103.502 307.895 100.602 306.995 96.5016 305.795L92.4016 304.695C87.1016 303.095 84.0016 300.395 84.0016 295.995C84.0016 290.495 88.9016 286.695 95.2016 286.695C101.602 286.695 106.102 290.495 106.302 295.695H103.002C102.702 291.995 99.4016 289.695 95.0016 289.695H95.1016Z" fill="white"/>
<path d="M123.005 298.394H117.705V314.294C117.705 317.494 119.505 318.394 121.505 318.394C123.505 318.394 123.005 318.394 123.605 318.294V321.294C123.005 321.394 122.305 321.494 121.205 321.494C117.805 321.494 114.505 319.294 114.505 315.094V298.394H110.805V295.694H114.505V289.594H117.805V295.694H123.105V298.394H123.005Z" fill="white"/>
<path d="M127.203 308.497C127.203 300.797 131.803 295.297 138.403 295.297C145.003 295.297 149.303 299.197 149.303 307.897V309.397H130.503C130.603 315.097 133.903 318.797 138.903 318.797C142.403 318.797 144.503 316.997 145.303 315.297H148.803C147.703 318.797 144.003 321.597 138.903 321.597C131.703 321.597 127.203 316.197 127.203 308.497ZM146.003 306.597C146.003 301.797 142.903 298.097 138.503 298.097C134.103 298.097 130.703 301.897 130.403 306.597H146.003Z" fill="white"/>
<path d="M154.898 295.697H157.998V300.397H158.398C159.398 298.197 161.398 295.297 166.098 295.297C170.798 295.297 176.698 300.497 176.698 308.397C176.698 316.297 172.398 321.597 166.198 321.597C161.498 321.597 159.398 318.597 158.398 316.397H158.098V330.497H154.898V295.497V295.697ZM165.698 318.697C170.698 318.697 173.498 314.197 173.498 308.397C173.498 302.597 170.798 298.197 165.698 298.097C160.798 298.097 158.098 302.297 158.098 308.397C158.098 314.397 160.798 318.697 165.698 318.697Z" fill="white"/>
</g>
<path d="M209.203 304.498C209.203 287.898 217.003 278.398 229.603 278.398C242.303 278.398 250.003 287.898 250.003 304.498C250.003 321.098 242.303 330.698 229.603 330.698C216.903 330.698 209.203 321.198 209.203 304.498ZM229.603 321.898C235.503 321.898 239.303 316.298 239.203 304.498C239.203 292.898 235.503 287.098 229.603 287.098C223.703 287.098 220.003 292.898 220.003 304.498C220.003 316.298 223.703 321.898 229.603 321.898Z" fill="white"/>
<path d="M253.802 322.298L271.902 305.398C276.702 300.898 279.202 298.098 279.202 293.998C279.202 289.898 275.802 286.698 271.102 286.698C266.402 286.698 263.202 289.698 263.202 294.598H253.102C253.102 284.698 260.502 278.198 271.302 278.298C282.202 278.298 289.402 284.398 289.402 293.298C289.402 302.198 286.602 303.898 276.002 313.298L268.402 320.798V321.198H290.202V329.798H253.802V322.198V322.298Z" fill="white"/>
<path d="M2352.7 451.102H31.3C15.1181 451.102 2 464.22 2 480.402V581.802C2 597.983 15.1181 611.102 31.3 611.102H2352.7C2368.88 611.102 2382 597.983 2382 581.802V480.402C2382 464.22 2368.88 451.102 2352.7 451.102Z" stroke="#9F0002" stroke-width="4" stroke-miterlimit="10"/>
<path d="M26 451.703H362.1V611.703H26C12.8 611.703 2 600.903 2 587.703V475.703C2 462.503 12.8 451.703 26 451.703Z" fill="#9F0002"/>
<g opacity="0.5">
<path d="M95.1016 514.303C90.4016 514.303 87.2016 516.803 87.2016 520.403C87.2016 524.003 90.7016 525.503 93.9016 526.403L97.5016 527.403C101.702 528.603 106.802 530.903 106.802 536.603C106.802 542.003 102.302 546.203 94.9016 546.203C87.5016 546.203 83.5016 542.503 83.1016 537.103H86.6016C86.9016 541.003 90.5016 543.203 94.9016 543.103C99.9016 543.103 103.502 540.503 103.502 536.503C103.502 532.503 100.602 531.503 96.5016 530.403L92.4016 529.203C87.1016 527.603 84.0016 524.903 84.0016 520.503C84.0016 515.003 88.9016 511.203 95.2016 511.203C101.602 511.203 106.102 515.003 106.302 520.203H103.002C102.702 516.503 99.4016 514.203 95.0016 514.203L95.1016 514.303Z" fill="white"/>
<path d="M123.005 523.005H117.705V538.905C117.705 542.105 119.505 543.005 121.505 543.005C123.505 543.005 123.005 543.005 123.605 543.005V546.005C123.005 546.005 122.305 546.205 121.205 546.205C117.805 546.205 114.505 544.005 114.505 539.805V523.105H110.805V520.405H114.505V514.305H117.805V520.405H123.105V523.105L123.005 523.005Z" fill="white"/>
<path d="M127.203 533.106C127.203 525.406 131.803 519.906 138.403 519.906C145.003 519.906 149.303 523.806 149.303 532.506V534.006H130.503C130.603 539.706 133.903 543.406 138.903 543.406C142.403 543.406 144.503 541.606 145.303 539.906H148.803C147.703 543.406 144.003 546.206 138.903 546.206C131.703 546.206 127.203 540.806 127.203 533.006V533.106ZM146.003 531.206C146.003 526.406 142.903 522.706 138.503 522.706C134.103 522.706 130.703 526.506 130.403 531.206H146.003Z" fill="white"/>
<path d="M154.898 520.306H157.998V525.006H158.398C159.398 522.806 161.398 519.906 166.098 519.906C170.798 519.906 176.698 525.106 176.698 533.106C176.698 541.106 172.398 546.306 166.198 546.306C161.498 546.306 159.398 543.306 158.398 541.106H158.098V555.206H154.898V520.206V520.306ZM165.698 543.306C170.698 543.306 173.498 538.806 173.498 533.006C173.498 527.206 170.798 522.806 165.698 522.706C160.798 522.706 158.098 526.906 158.098 533.006C158.098 539.006 160.798 543.306 165.698 543.306Z" fill="white"/>
</g>
<path d="M209.203 529.1C209.203 512.5 217.003 503 229.603 503C242.303 503 250.003 512.5 250.003 529.1C250.003 545.7 242.303 555.3 229.603 555.3C216.903 555.3 209.203 545.8 209.203 529.1ZM229.603 546.5C235.503 546.5 239.303 540.9 239.203 529.1C239.203 517.5 235.503 511.7 229.603 511.7C223.703 511.7 220.003 517.5 220.003 529.1C220.003 540.9 223.703 546.5 229.603 546.5Z" fill="white"/>
<path d="M253.203 540.301H263.903C264.103 544.001 267.803 546.501 272.703 546.501C277.603 546.501 281.403 543.701 281.303 539.601C281.303 535.501 277.703 532.501 271.703 532.501H267.103V524.701H271.703C276.803 524.701 280.303 521.901 280.203 517.801C280.203 514.001 277.303 511.301 272.903 511.301C268.503 511.301 264.603 513.801 264.503 517.801H254.303C254.503 509.001 262.403 502.901 272.903 503.001C283.503 503.001 290.503 509.301 290.503 517.301C290.503 523.101 286.603 527.101 280.903 528.101V528.501C288.503 529.401 292.603 533.901 292.603 540.301C292.603 546.701 284.303 555.301 272.903 555.301C261.503 555.301 253.703 549.101 253.503 540.301H253.203Z" fill="white"/>
<path d="M2352.7 900.297H31.3C15.1181 900.297 2 913.415 2 929.597V1031C2 1047.18 15.1181 1060.3 31.3 1060.3H2352.7C2368.88 1060.3 2382 1047.18 2382 1031V929.597C2382 913.415 2368.88 900.297 2352.7 900.297Z" stroke="#9F0002" stroke-width="4" stroke-miterlimit="10"/>
<path d="M26 900.898H362.1V1060.9H26C12.8 1060.9 2 1050.1 2 1036.9V924.898C2 911.698 12.8 900.898 26 900.898Z" fill="#9F0002"/>
<g opacity="0.5">
<path d="M95.1016 963.498C90.4016 963.498 87.2016 965.998 87.2016 969.598C87.2016 973.198 90.7016 974.698 93.9016 975.598L97.5016 976.598C101.702 977.798 106.802 980.098 106.802 985.798C106.802 991.198 102.302 995.398 94.9016 995.398C87.5016 995.398 83.5016 991.698 83.1016 986.298H86.6016C86.9016 990.198 90.5016 992.398 94.9016 992.298C99.9016 992.298 103.502 989.698 103.502 985.698C103.502 981.698 100.602 980.798 96.5016 979.598L92.4016 978.398C87.1016 976.798 84.0016 974.098 84.0016 969.698C84.0016 964.198 88.9016 960.398 95.2016 960.398C101.602 960.398 106.102 964.198 106.302 969.398H103.002C102.702 965.698 99.4016 963.398 95.0016 963.398L95.1016 963.498Z" fill="white"/>
<path d="M123.005 972.098H117.705V987.998C117.705 991.198 119.505 992.098 121.505 992.098C123.505 992.098 123.005 992.098 123.605 992.098V995.098C123.005 995.098 122.305 995.298 121.205 995.298C117.805 995.298 114.505 993.098 114.505 988.898V972.198H110.805V969.498H114.505V963.398H117.805V969.498H123.105V972.198L123.005 972.098Z" fill="white"/>
<path d="M127.203 982.302C127.203 974.602 131.803 969.102 138.403 969.102C145.003 969.102 149.303 973.002 149.303 981.702V983.202H130.503C130.603 988.902 133.903 992.602 138.903 992.602C142.403 992.602 144.503 990.802 145.303 989.102H148.803C147.703 992.602 144.003 995.402 138.903 995.402C131.703 995.402 127.203 990.002 127.203 982.202V982.302ZM146.003 980.302C146.003 975.502 142.903 971.802 138.503 971.802C134.103 971.802 130.703 975.602 130.403 980.302H146.003Z" fill="white"/>
<path d="M154.898 969.4H157.998V974.1H158.398C159.398 971.9 161.398 969 166.098 969C170.798 969 176.698 974.2 176.698 982.2C176.698 990.2 172.398 995.4 166.198 995.4C161.498 995.4 159.398 992.4 158.398 990.2H158.098V1004.3H154.898V969.3V969.4ZM165.698 992.5C170.698 992.5 173.498 988 173.498 982.2C173.498 976.4 170.798 972 165.698 971.9C160.798 971.9 158.098 976.1 158.098 982.2C158.098 988.2 160.798 992.5 165.698 992.5Z" fill="white"/>
</g>
<path d="M209.203 978.202C209.203 961.602 217.003 952.102 229.603 952.102C242.303 952.102 250.003 961.602 250.003 978.202C250.003 994.802 242.303 1004.4 229.603 1004.4C216.903 1004.4 209.203 994.902 209.203 978.202ZM229.603 995.602C235.503 995.602 239.303 990.002 239.203 978.202C239.203 966.602 235.503 960.802 229.603 960.802C223.703 960.802 220.003 966.602 220.003 978.202C220.003 990.002 223.703 995.602 229.603 995.602Z" fill="white"/>
<path d="M254.006 989.402H264.206C264.406 993.302 268.106 996.002 272.606 996.002C277.106 996.002 281.606 992.302 281.506 986.902C281.506 981.602 277.806 977.802 272.406 977.802C268.506 977.802 265.906 979.202 264.306 982.002H254.806L257.506 952.602H288.706V961.402H266.106L264.806 974.202H265.106C267.006 971.702 270.906 969.902 275.306 969.902C284.706 969.902 291.706 976.902 291.606 986.602C291.606 997.002 283.806 1004.3 272.506 1004.3C261.206 1004.3 254.106 998.002 253.906 989.302L254.006 989.402Z" fill="white"/>
<path d="M2352.7 1349.4H31.3C15.1181 1349.4 2 1362.52 2 1378.7V1480.1C2 1496.28 15.1181 1509.4 31.3 1509.4H2352.7C2368.88 1509.4 2382 1496.28 2382 1480.1V1378.7C2382 1362.52 2368.88 1349.4 2352.7 1349.4Z" stroke="#9F0002" stroke-width="4" stroke-miterlimit="10"/>
<path d="M26 1350H362.1V1510H26C12.8 1510 2 1499.2 2 1486V1374C2 1360.8 12.8 1350 26 1350Z" fill="#9F0002"/>
<g opacity="0.5">
<path d="M95.1016 1412.6C90.4016 1412.6 87.2016 1415.1 87.2016 1418.7C87.2016 1422.3 90.7016 1423.8 93.9016 1424.8L97.5016 1425.8C101.702 1427 106.802 1429.3 106.802 1435C106.802 1440.4 102.302 1444.6 94.9016 1444.6C87.5016 1444.6 83.5016 1440.9 83.1016 1435.5H86.6016C86.9016 1439.4 90.5016 1441.6 94.9016 1441.6C99.9016 1441.6 103.502 1439 103.502 1435C103.502 1431 100.602 1430.1 96.5016 1428.9L92.4016 1427.7C87.1016 1426.1 84.0016 1423.4 84.0016 1419C84.0016 1413.5 88.9016 1409.7 95.2016 1409.7C101.602 1409.7 106.102 1413.5 106.302 1418.7H103.002C102.702 1415 99.4016 1412.7 95.0016 1412.8L95.1016 1412.6Z" fill="white"/>
<path d="M123.005 1421.19H117.705V1437.09C117.705 1440.29 119.505 1441.19 121.505 1441.19C123.505 1441.19 123.005 1441.19 123.605 1441.19V1444.19C123.005 1444.19 122.305 1444.39 121.205 1444.39C117.805 1444.39 114.505 1442.19 114.505 1437.99V1421.29H110.805V1418.59H114.505V1412.49H117.805V1418.59H123.105V1421.29L123.005 1421.19Z" fill="white"/>
<path d="M127.203 1431.4C127.203 1423.7 131.803 1418.2 138.403 1418.2C145.003 1418.2 149.303 1422.1 149.303 1430.8V1432.3H130.503C130.603 1438 133.903 1441.7 138.903 1441.7C142.403 1441.7 144.503 1439.9 145.303 1438.2H148.803C147.703 1441.7 144.003 1444.5 138.903 1444.5C131.703 1444.5 127.203 1439.1 127.203 1431.3V1431.4ZM146.003 1429.5C146.003 1424.7 142.903 1421.1 138.503 1421.1C134.103 1421.1 130.703 1424.9 130.403 1429.5H146.003Z" fill="white"/>
<path d="M154.898 1418.6H157.998V1423.3H158.398C159.398 1421.1 161.398 1418.2 166.098 1418.2C170.798 1418.2 176.698 1423.4 176.698 1431.4C176.698 1439.4 172.398 1444.6 166.198 1444.6C161.498 1444.6 159.398 1441.6 158.398 1439.4H158.098V1453.5H154.898V1418.6ZM165.698 1441.6C170.698 1441.6 173.498 1437.1 173.498 1431.3C173.498 1425.5 170.798 1421.1 165.698 1421C160.798 1421 158.098 1425.2 158.098 1431.3C158.098 1437.3 160.798 1441.6 165.698 1441.6Z" fill="white"/>
</g>
<path d="M209.203 1427.4C209.203 1410.8 217.003 1401.3 229.603 1401.3C242.303 1401.3 250.003 1410.8 250.003 1427.4C250.003 1444 242.303 1453.6 229.603 1453.6C216.903 1453.6 209.203 1444.1 209.203 1427.4ZM229.603 1444.8C235.503 1444.8 239.303 1439.2 239.203 1427.4C239.203 1415.8 235.503 1410 229.603 1410C223.703 1410 220.003 1415.8 220.003 1427.4C220.003 1439.2 223.703 1444.8 229.603 1444.8Z" fill="white"/>
<path d="M275.806 1410.9V1410.6H250.906V1401.8H286.906V1410.7L265.306 1452.8H254.406L275.906 1410.9H275.806Z" fill="white"/>
<path d="M2352.7 1124.9H31.3C15.1181 1124.9 2 1138.02 2 1154.2V1255.6C2 1271.78 15.1181 1284.9 31.3 1284.9H2352.7C2368.88 1284.9 2382 1271.78 2382 1255.6V1154.2C2382 1138.02 2368.88 1124.9 2352.7 1124.9Z" stroke="#9F0002" stroke-width="4" stroke-miterlimit="10"/>
<path d="M26 1125.4H362.1V1285.4H26C12.8 1285.4 2 1274.6 2 1261.4V1149.4C2 1136.2 12.8 1125.4 26 1125.4Z" fill="#9F0002"/>
<g opacity="0.5">
<path d="M95.1016 1187.99C90.4016 1187.99 87.2016 1190.49 87.2016 1194.09C87.2016 1197.69 90.7016 1199.19 93.9016 1200.19L97.5016 1201.19C101.702 1202.39 106.802 1204.69 106.802 1210.39C106.802 1215.79 102.302 1219.99 94.9016 1219.99C87.5016 1219.99 83.5016 1216.29 83.1016 1210.89H86.6016C86.9016 1214.79 90.5016 1216.99 94.9016 1216.99C99.9016 1216.99 103.502 1214.39 103.502 1210.39C103.502 1206.39 100.602 1205.49 96.5016 1204.29L92.4016 1203.09C87.1016 1201.49 84.0016 1198.79 84.0016 1194.39C84.0016 1188.89 88.9016 1185.09 95.2016 1185.09C101.602 1185.09 106.102 1188.89 106.302 1194.09H103.002C102.702 1190.39 99.4016 1188.09 95.0016 1188.19L95.1016 1187.99Z" fill="white"/>
<path d="M123.005 1196.69H117.705V1212.59C117.705 1215.79 119.505 1216.69 121.505 1216.69C123.505 1216.69 123.005 1216.69 123.605 1216.69V1219.69C123.005 1219.69 122.305 1219.89 121.205 1219.89C117.805 1219.89 114.505 1217.69 114.505 1213.49V1196.79H110.805V1194.09H114.505V1187.99H117.805V1194.09H123.105V1196.79L123.005 1196.69Z" fill="white"/>
<path d="M127.203 1206.79C127.203 1199.09 131.803 1193.59 138.403 1193.59C145.003 1193.59 149.303 1197.49 149.303 1206.19V1207.69H130.503C130.603 1213.39 133.903 1217.09 138.903 1217.09C142.403 1217.09 144.503 1215.29 145.303 1213.59H148.803C147.703 1217.09 144.003 1219.89 138.903 1219.89C131.703 1219.89 127.203 1214.49 127.203 1206.69V1206.79ZM146.003 1204.89C146.003 1200.09 142.903 1196.49 138.503 1196.49C134.103 1196.49 130.703 1200.29 130.403 1204.89H146.003Z" fill="white"/>
<path d="M154.898 1193.99H157.998V1198.69H158.398C159.398 1196.49 161.398 1193.59 166.098 1193.59C170.798 1193.59 176.698 1198.79 176.698 1206.79C176.698 1214.79 172.398 1219.99 166.198 1219.99C161.498 1219.99 159.398 1216.99 158.398 1214.79H158.098V1228.89H154.898V1193.99ZM165.698 1216.99C170.698 1216.99 173.498 1212.49 173.498 1206.69C173.498 1200.89 170.798 1196.49 165.698 1196.39C160.798 1196.39 158.098 1200.59 158.098 1206.69C158.098 1212.69 160.798 1216.99 165.698 1216.99Z" fill="white"/>
</g>
<path d="M209.203 1202.8C209.203 1186.2 217.003 1176.7 229.603 1176.7C242.303 1176.7 250.003 1186.2 250.003 1202.8C250.003 1219.4 242.303 1229 229.603 1229C216.903 1229 209.203 1219.5 209.203 1202.8ZM229.603 1220.2C235.503 1220.2 239.303 1214.6 239.203 1202.8C239.203 1191.2 235.503 1185.4 229.603 1185.4C223.703 1185.4 220.003 1191.2 220.003 1202.8C220.003 1214.6 223.703 1220.2 229.603 1220.2Z" fill="white"/>
<path d="M252.906 1203.9C252.906 1186.8 261.106 1176.6 273.806 1176.7C284.106 1176.7 291.206 1183.1 292.206 1191.5H281.706C280.906 1187.9 278.006 1185.7 273.806 1185.7C267.006 1185.7 263.306 1191.9 263.306 1201.8H263.706C266.106 1197.3 271.106 1194.7 276.806 1194.6C285.906 1194.6 292.706 1201.6 292.606 1211.2C292.606 1221.5 284.906 1228.9 273.506 1228.9C262.906 1228.9 252.906 1222.6 252.906 1203.8V1203.9ZM273.406 1220.6C278.706 1220.6 282.506 1216.6 282.506 1211.5C282.506 1206.4 278.806 1202.4 273.606 1202.4C268.406 1202.4 264.506 1206.5 264.406 1211.5C264.406 1216.5 268.306 1220.6 273.506 1220.6H273.406Z" fill="white"/>
<path d="M2352.7 675.703H31.3C15.1181 675.703 2 688.821 2 705.003V806.403C2 822.585 15.1181 835.703 31.3 835.703H2352.7C2368.88 835.703 2382 822.585 2382 806.403V705.003C2382 688.821 2368.88 675.703 2352.7 675.703Z" stroke="#9F0002" stroke-width="4" stroke-miterlimit="10"/>
<path d="M26 676.305H362.1V836.305H26C12.8 836.305 2 825.505 2 812.305V700.305C2 687.105 12.8 676.305 26 676.305Z" fill="#9F0002"/>
<g opacity="0.5">
<path d="M95.1016 738.905C90.4016 738.905 87.2016 741.405 87.2016 745.005C87.2016 748.605 90.7016 750.105 93.9016 751.005L97.5016 752.005C101.702 753.205 106.802 755.505 106.802 761.205C106.802 766.605 102.302 770.805 94.9016 770.805C87.5016 770.805 83.5016 767.105 83.1016 761.705H86.6016C86.9016 765.605 90.5016 767.805 94.9016 767.705C99.9016 767.705 103.502 765.105 103.502 761.105C103.502 757.105 100.602 756.205 96.5016 755.005L92.4016 753.805C87.1016 752.205 84.0016 749.505 84.0016 745.105C84.0016 739.605 88.9016 735.805 95.2016 735.805C101.602 735.805 106.102 739.605 106.302 744.805H103.002C102.702 741.105 99.4016 738.805 95.0016 738.805L95.1016 738.905Z" fill="white"/>
<path d="M123.005 747.505H117.705V763.405C117.705 766.605 119.505 767.505 121.505 767.505C123.505 767.505 123.005 767.505 123.605 767.505V770.505C123.005 770.505 122.305 770.705 121.205 770.705C117.805 770.705 114.505 768.505 114.505 764.305V747.605H110.805V744.905H114.505V738.805H117.805V744.905H123.105V747.605L123.005 747.505Z" fill="white"/>
<path d="M127.203 757.708C127.203 750.008 131.803 744.508 138.403 744.508C145.003 744.508 149.303 748.408 149.303 757.108V758.608H130.503C130.603 764.308 133.903 768.008 138.903 768.008C142.403 768.008 144.503 766.208 145.303 764.508H148.803C147.703 768.008 144.003 770.808 138.903 770.808C131.703 770.808 127.203 765.408 127.203 757.608V757.708ZM146.003 755.808C146.003 751.008 142.903 747.308 138.503 747.308C134.103 747.308 130.703 751.108 130.403 755.808H146.003Z" fill="white"/>
<path d="M154.898 744.806H157.998V749.506H158.398C159.398 747.306 161.398 744.406 166.098 744.406C170.798 744.406 176.698 749.606 176.698 757.606C176.698 765.606 172.398 770.806 166.198 770.806C161.498 770.806 159.398 767.806 158.398 765.606H158.098V779.706H154.898V744.706V744.806ZM165.698 767.906C170.698 767.906 173.498 763.406 173.498 757.606C173.498 751.806 170.798 747.406 165.698 747.306C160.798 747.306 158.098 751.506 158.098 757.606C158.098 763.606 160.798 767.906 165.698 767.906Z" fill="white"/>
</g>
<path d="M209.203 753.608C209.203 737.008 217.003 727.508 229.603 727.508C242.303 727.508 250.003 737.008 250.003 753.608C250.003 770.208 242.303 779.808 229.603 779.808C216.903 779.808 209.203 770.308 209.203 753.608ZM229.603 771.108C235.503 771.108 239.303 765.508 239.203 753.708C239.203 742.108 235.503 736.308 229.603 736.308C223.703 736.308 220.003 742.108 220.003 753.708C220.003 765.508 223.703 771.108 229.603 771.108Z" fill="white"/>
<path d="M252.905 761.709L274.505 728.109H287.705V761.509H294.005V770.009H287.705V779.109H277.605V770.009H252.805V761.709H252.905ZM277.905 761.509V739.709H277.305L263.605 761.209V761.509H277.905Z" fill="white"/>
<path d="M1288.6 75.7031L1288.9 79.7031C1283.4 80.6031 1277.5 81.2031 1271.8 81.5031V94.0031H1266.3V81.8031C1260 82.0031 1253.8 82.0031 1248.6 82.0031L1247.9 77.5031C1259.6 77.5031 1275.3 77.4031 1288.7 75.6031L1288.6 75.7031ZM1268.4 51.2031C1277.6 51.2031 1283.8 55.4031 1283.8 62.0031C1283.8 68.6031 1277.5 72.9031 1268.4 73.0031C1259.1 73.0031 1252.8 68.8031 1252.8 62.0031C1252.8 55.2031 1259.1 51.1031 1268.4 51.2031ZM1256.9 91.4031H1262.4V105.103H1301.3V109.703H1256.9V91.4031ZM1268.4 68.8031C1274.3 68.8031 1278.5 66.1031 1278.6 62.0031C1278.5 58.0031 1274.3 55.3031 1268.4 55.4031C1262.3 55.4031 1258.1 58.1031 1258.2 62.0031C1258.2 66.1031 1262.3 68.8031 1268.4 68.8031ZM1299.7 96.2031H1294.2V89.7031H1281.2V85.7031H1294.2V48.7031H1299.7V96.2031Z" fill="#010101"/>
<path d="M1364.1 103.403H1306.9V98.6031H1322.9V86.8031H1314V67.5031H1351.4V57.8031H1313.8V53.2031H1356.9V72.1031H1319.5V82.2031H1358.4V86.8031H1348.6V98.6031H1364.2C1364.2 98.6031 1364.2 103.403 1364.2 103.303L1364.1 103.403ZM1343 98.6031V86.8031H1328.3V98.6031H1343Z" fill="#010101"/>
<path d="M1416.6 80.6016L1413.6 84.9016C1406.8 82.2016 1401.3 76.8016 1398.5 69.9016C1395.9 77.5016 1390.2 83.4016 1382.9 86.3016L1379.9 81.8016C1389.3 78.4016 1395.7 69.7016 1395.7 60.0016V52.2016H1401.2V60.1016C1401.2 68.9016 1407.5 77.1016 1416.6 80.4016V80.6016ZM1391.3 90.1016H1396.8V105.102H1433.1V109.702H1391.3V90.1016ZM1412.1 63.3016H1426.1V48.6016H1431.6V95.4016H1426.1V67.9016H1412.1V63.3016Z" fill="#010101"/>
<path d="M1490.2 81.3016H1484.7V73.2016H1470V78.7016H1441.5V51.5016H1447.1V60.6016H1464.5V51.5016H1470V57.5016H1484.7V48.6016H1490.2V81.3016ZM1464.6 74.3016V64.9016H1447.2V74.3016H1464.6ZM1449.7 84.4016H1490.2V99.1016H1455.4V105.902H1492.7V110.402H1449.9V94.8016H1484.7V88.7016H1449.7V84.4016ZM1484.7 69.0016V61.9016H1470V69.0016H1484.7Z" fill="#010101"/>
<path d="M1371.9 193.6L1341.7 162H1402.1L1371.9 193.6Z" fill="#9F0002"/>
<path d="M1292.2 304.505L1289.6 308.805C1282.4 306.605 1276.8 301.705 1274.1 295.605C1271.4 302.305 1265.6 307.605 1258.3 309.905L1255.4 305.605C1264.8 302.705 1271.2 295.205 1271.2 286.705V285.405H1257.1V280.905H1271.2V272.805H1276.7V280.905H1290.7V285.405H1276.7V286.705C1276.7 294.505 1283 301.605 1292.1 304.405L1292.2 304.505ZM1263.4 314.605H1304.3V335.805H1298.8V319.205H1263.4V314.605ZM1298.8 273.205H1304.3V289.905H1313.7V294.505H1304.3V311.405H1298.8V273.205Z" fill="#010101"/>
<path d="M1314.1 302.002H1371V306.602H1314.1V302.002ZM1365.9 280.102H1346C1346.3 287.102 1356.8 292.402 1367.9 293.502L1365.9 298.002C1355.6 296.802 1346 292.302 1342.5 285.502C1339 292.302 1329.4 296.802 1319.1 298.002L1317.1 293.502C1328.1 292.402 1338.6 287.102 1339 280.102H1319.3V275.602H1366V280.102H1365.9ZM1321.3 310.702H1326.8V317.902H1358.2V310.702H1363.7V334.902H1321.4V310.702H1321.3ZM1358.1 330.402V322.202H1326.7V330.402H1358.1Z" fill="#010101"/>
<path d="M1372.7 302.305H1396.3V290.205H1401.6V302.305H1429.5V306.805H1372.6V302.305H1372.7ZM1422.8 324.205C1422.8 331.305 1414.3 335.505 1400.9 335.605C1387.5 335.605 1379 331.405 1379 324.205C1379 317.005 1387.5 312.705 1400.9 312.705C1414.3 312.705 1422.8 316.905 1422.8 324.205ZM1379.5 276.405H1422.4V281.705C1422.4 286.705 1422.4 291.805 1420.5 298.305L1415.2 297.705C1416.9 291.205 1416.9 286.505 1416.9 281.705V280.805H1379.5V276.305V276.405ZM1400.9 331.105C1410.8 331.105 1417.2 328.405 1417.3 324.205C1417.3 319.705 1410.8 316.905 1400.9 316.905C1390.9 316.905 1384.5 319.705 1384.5 324.205C1384.5 328.705 1390.9 331.205 1400.9 331.105Z" fill="#010101"/>
<path d="M1447.4 284.603V282.303H1433.3V277.703H1467V282.303H1453V284.603C1453 292.703 1459.2 300.503 1468.4 303.603L1465.5 308.103C1458.4 305.603 1453 300.303 1450.2 293.903C1447.5 301.203 1441.7 307.003 1434.2 309.803L1431.3 305.503C1440.7 302.103 1447.3 293.603 1447.3 284.603H1447.4ZM1462.3 312.403C1475.3 312.403 1483.3 316.603 1483.3 324.103C1483.3 331.603 1475.3 335.603 1462.3 335.603C1449.3 335.603 1441.4 331.403 1441.4 324.103C1441.4 316.703 1449.3 312.403 1462.3 312.403ZM1462.3 331.303C1471.9 331.303 1477.9 328.603 1477.9 324.103C1477.9 319.603 1471.9 316.803 1462.3 316.803C1452.7 316.803 1446.8 319.503 1446.9 324.103C1446.9 328.603 1452.8 331.303 1462.3 331.303ZM1483 310.403H1477.5V294.103H1464.8V289.503H1477.5V273.203H1483V310.403Z" fill="#010101"/>
<path d="M1371.9 418.202L1341.7 386.602H1402.1L1371.9 418.202Z" fill="#9F0002"/>
<path d="M1004.9 534.697H948V530.097H973.6V522.597H955.4V499.297H960.9V506.497H991.9V499.297H997.5V522.597H979.1V530.097H1004.9V534.697ZM954.2 540.897H997.8V560.297H992.3V545.297H954.1V540.797L954.2 540.897ZM992 518.097V510.597H961V518.097H992Z" fill="#010101"/>
<path d="M1063.7 535.395H1038.4V547.595H1032.9V535.395H1006.6V530.795H1063.8V535.395H1063.7ZM1013.9 541.895H1019.4V554.295H1057.4V558.895H1013.9V541.895ZM1014.1 499.695H1019.6V507.795H1050.6V499.695H1056.2V524.795H1014.2V499.695H1014.1ZM1050.6 520.295V512.095H1019.6V520.295H1050.6Z" fill="#010101"/>
<path d="M1102.6 542.297L1099.4 546.597C1092.4 543.197 1086.4 535.797 1083.7 527.397C1080.8 536.497 1074.5 544.597 1067.4 548.197L1064.1 543.897C1073.2 539.497 1080.9 527.597 1080.9 516.997V508.797H1066.4V504.197H1100.4V508.797H1086.3V516.997C1086.3 526.997 1093.6 537.997 1102.6 542.297ZM1108 497.797H1113.6V522.997H1124V527.797H1113.6V560.297H1108V497.797Z" fill="#010101"/>
<path d="M1132.9 517.497V503.197H1138.1V517.497C1138.1 523.797 1139.3 533.097 1144.4 539.397C1149.4 533.297 1150.7 524.297 1150.7 517.497V503.197H1156V517.497C1156 525.797 1158.2 536.597 1165.8 541.997L1162.3 545.997C1157.5 542.497 1154.7 536.897 1153.2 530.797C1151.8 537.097 1149.1 542.997 1144.3 546.397C1139.4 542.897 1136.7 536.897 1135.3 530.697C1133.8 536.697 1131 542.397 1126.4 545.797L1122.8 541.897C1130.4 536.397 1132.7 525.397 1132.7 517.397L1132.9 517.497ZM1176.1 560.297H1170.6V497.797H1176.1V560.297Z" fill="#010101"/>
<path d="M1253.7 535.198H1196.7V530.698H1253.7V535.198ZM1203.1 541.298H1246.5V560.298H1240.9V545.898H1203.2V541.298H1203.1ZM1204.4 499.398H1246.7V503.898H1209.8V509.798H1244.9V514.098H1209.8V520.398H1247V524.898H1204.4V499.398Z" fill="#010101"/>
<path d="M1292.6 512.297H1255.4V507.697H1271.1V498.497H1276.7V507.697H1292.5V512.297H1292.6ZM1274.1 517.497C1282.6 517.497 1288.7 523.497 1288.8 531.897C1288.8 540.197 1282.6 546.197 1274.1 546.197C1265.5 546.197 1259.3 540.197 1259.4 531.897C1259.4 523.497 1265.5 517.497 1274.1 517.497ZM1274.1 541.397C1279.6 541.397 1283.7 537.497 1283.8 531.897C1283.8 526.297 1279.6 522.197 1274.1 522.197C1268.6 522.197 1264.4 526.197 1264.4 531.897C1264.4 537.597 1268.6 541.497 1274.1 541.397ZM1291.3 523.997H1301.7V497.797H1307.2V560.297H1301.7V528.597H1291.3V523.997Z" fill="#010101"/>
<path d="M1371 540.202H1345.2V560.402H1339.7V540.202H1314.1V535.602H1371V540.202ZM1339.7 510.002H1319.5V505.502H1339.7V497.602H1345.2V505.502H1365.5V510.002H1345.2C1345.2 517.802 1356.1 524.702 1367.4 526.302L1365.4 530.802C1355.7 529.302 1346.6 524.402 1342.6 517.602C1338.6 524.502 1329.4 529.302 1319.8 530.802L1317.6 526.302C1328.8 524.702 1339.8 518.002 1339.8 510.002H1339.7Z" fill="#010101"/>
<path d="M1429.6 529.798H1403.8V535.698H1422.2V549.198H1385V555.198H1424V559.498H1379.6V545.198H1416.8V539.698H1379.5V535.498H1398.2V529.598H1372.6V525.398H1429.5V529.598L1429.6 529.798ZM1398 507.598H1378.5V503.298H1398.4V497.398H1403.9V503.298H1423.9V507.598H1404.2C1405.3 513.898 1415.1 517.698 1426.6 518.498L1424.9 522.698C1414.4 521.798 1405 518.598 1401.2 512.598C1397.3 518.598 1387.9 521.798 1377.4 522.698L1375.8 518.498C1387.2 517.698 1397 513.798 1398 507.498V507.598Z" fill="#010101"/>
<path d="M1431.3 526.898H1454.9V514.798H1460.2V526.898H1488.1V531.398H1431.2V526.898H1431.3ZM1481.4 548.798C1481.4 555.898 1472.9 560.098 1459.5 560.198C1446.1 560.198 1437.6 555.998 1437.6 548.798C1437.6 541.598 1446.1 537.298 1459.5 537.298C1472.9 537.298 1481.4 541.498 1481.4 548.798ZM1438.1 500.998H1481V506.298C1481 511.298 1481 516.398 1479.1 522.898L1473.8 522.298C1475.5 515.798 1475.5 511.098 1475.5 506.298V505.398H1438.1V500.898V500.998ZM1459.5 555.698C1469.4 555.698 1475.8 552.998 1475.9 548.798C1475.9 544.298 1469.4 541.498 1459.5 541.498C1449.5 541.498 1443.1 544.298 1443.1 548.798C1443.1 553.298 1449.5 555.798 1459.5 555.698Z" fill="#010101"/>
<path d="M1498.6 510.597H1516V500.997H1521.5V513.097H1536.2V497.797H1541.7V531.897H1536.2V517.797H1521.5V529.597H1493V500.897H1498.6V510.497V510.597ZM1516 524.997V515.097H1498.6V524.997H1516ZM1501.4 534.997H1506.9V542.597H1536.1V534.997H1541.6V559.297H1501.4V534.997ZM1536.1 554.797V546.997H1506.9V554.797H1536.1Z" fill="#010101"/>
<path d="M1562.8 534.798H1620V539.398H1594.1V560.098H1588.6V539.398H1562.8V534.798ZM1614.5 505.898H1604.8V522.998H1614.2V527.498H1568.4V522.998H1577.9V505.898H1568.2V501.398H1614.4V505.898H1614.5ZM1599.3 522.998V505.898H1583.3V522.998H1599.3Z" fill="#010101"/>
<path d="M1621.5 547.102H1678.7V551.702H1621.5V547.102ZM1671.9 532.402H1628.7V503.602H1671.3V508.202H1634.1V527.802H1671.8V532.402H1671.9Z" fill="#010101"/>
<path d="M1705.8 509.897H1687.8V522.297H1702.9V526.597H1687.8V540.697C1696.8 540.697 1702.3 540.197 1709.1 538.997L1709.5 543.497C1702.3 544.997 1696.4 545.197 1686.5 545.197H1682.6V505.297H1705.8V509.897ZM1706.3 521.397H1715.5V499.197H1720.7V556.997H1715.5V525.997H1706.3V521.397ZM1728.2 497.797H1733.5V560.297H1728.2V497.797Z" fill="#010101"/>
<path d="M1738.7 546.8H1795.6V551.6H1738.7V546.8ZM1788.6 511.9C1788.6 521 1788.6 529.5 1786 542.3L1780.4 541.7C1781.8 535.7 1782.5 530.5 1782.8 525.6L1744.6 527.7L1743.9 523.1L1783.1 521.4C1783.1 518.2 1783.2 515 1783.2 511.8V508.6H1745.5V504H1788.6V511.8V511.9Z" fill="#010101"/>
<path d="M1371.9 642.803L1341.7 611.203H1402.1L1371.9 642.803Z" fill="#9F0002"/>
<path d="M1038 993.5H1009.2V953.3H1038V993.5ZM1032.6 989V957.6H1014.6V989H1032.6ZM1049.4 947H1055V971.9H1065.4V976.7H1055V1009.5H1049.4V947Z" fill="#010101"/>
<path d="M1083.49 951.7C1092.69 951.7 1099.39 960.2 1099.49 973.5C1099.49 986.9 1092.69 995.3 1083.49 995.4C1074.09 995.4 1067.49 986.9 1067.49 973.5C1067.49 960.1 1074.09 951.8 1083.49 951.7ZM1083.49 990.3C1089.69 990.3 1093.99 983.7 1093.99 973.5C1093.99 963.3 1089.69 956.7 1083.49 956.7C1077.19 956.7 1072.79 963.5 1072.79 973.5C1072.79 983.5 1077.09 990.4 1083.49 990.3ZM1116.69 1009.5H1111.19V947H1116.69V1009.5Z" fill="#010101"/>
<path d="M1123.9 995.895H1180.8V1000.7H1123.9V995.895ZM1173.7 961.095C1173.7 970.195 1173.7 978.695 1171.1 991.495L1165.5 990.895C1166.9 984.895 1167.6 979.695 1168 974.795L1129.8 976.895L1129.1 972.295L1168.3 970.595C1168.3 967.395 1168.4 964.195 1168.4 960.995V957.795H1130.7V953.195H1173.8V960.995L1173.7 961.095Z" fill="#010101"/>
<path d="M1239.6 1001.7H1182.4V996.9H1208V985.2H1189.4V965.9H1226.8V956.1H1189.2V951.5H1232.3V970.4H1194.9V980.6H1233.8V985.2H1213.5V996.9H1239.6V1001.7Z" fill="#010101"/>
<path d="M1285.39 960.898H1301.7V946.898H1307.2V1009.4H1301.7V985.198H1285.7C1283.1 991.498 1278.2 995.198 1272.2 995.298C1263 995.298 1256.49 986.798 1256.59 973.398C1256.49 960.198 1262.9 951.698 1272.2 951.598C1278 951.598 1282.69 954.998 1285.39 960.798V960.898ZM1272.2 990.298C1278.4 990.298 1282.59 983.698 1282.59 973.498C1282.59 963.398 1278.4 956.698 1272.2 956.698C1266.1 956.698 1261.79 963.498 1261.79 973.498C1261.79 983.498 1266 990.398 1272.2 990.298ZM1287.89 973.498C1287.89 976.098 1287.6 978.498 1287.2 980.698H1301.7V965.598H1286.89C1287.49 967.998 1287.79 970.598 1287.79 973.498H1287.89Z" fill="#010101"/>
<path d="M1326.9 990.8V971.7H1332.4V990.6C1339.3 990.3 1346.4 989.9 1352.8 989.1L1353.1 993.3C1340 995.4 1325.2 995.7 1314.1 995.6L1313.4 991C1317.5 991 1322.1 991 1326.9 990.8ZM1348.7 957C1348.7 962 1348.7 970.2 1347 981.8L1341.4 981.4C1343.1 971 1343.3 963.4 1343.3 958.4H1317.1V953.9H1348.8V957.1L1348.7 957ZM1356.7 947H1362.3V973.1H1372.4V977.9H1362.3V1009.6H1356.7V947.1V947Z" fill="#010101"/>
<path d="M1381.8 972.5V955.6H1375.5V951.1H1409.3V955.6H1403V971.7C1406.2 971.4 1409.5 971.1 1412.5 970.8V974.8C1400.2 976.7 1385.5 977.2 1374.5 977.1L1373.8 972.6H1381.9L1381.8 972.5ZM1383.3 982.4H1424.2V997.2H1388.9V1004.1H1426.6V1008.7H1383.5V993.2H1418.6V986.9H1383.2V982.4H1383.3ZM1397.6 971.9V955.6H1387.1V972.4C1390.6 972.4 1394.1 972.2 1397.6 972V971.9ZM1424.2 979.4H1418.7V947H1424.2V979.4Z" fill="#010101"/>
<path d="M1434.2 952.6H1463.3V957.2H1439.7V970.3H1460.6V974.8H1439.7V989.9C1451.1 989.9 1458.6 989.5 1467.2 988L1467.8 992.5C1458.7 994 1451 994.4 1439 994.5H1434.2V952.6ZM1483 1009.5H1477.5V975.1H1464.4V970.6H1477.5V947H1483V1009.5Z" fill="#010101"/>
<path d="M1504.3 976H1527.9V963.9H1533.2V976H1561.1V980.5H1504.2V976H1504.3ZM1554.4 997.9C1554.4 1005 1545.9 1009.2 1532.5 1009.3C1519.1 1009.3 1510.6 1005.1 1510.6 997.9C1510.6 990.7 1519.1 986.4 1532.5 986.4C1545.9 986.4 1554.4 990.6 1554.4 997.9ZM1511.1 950.1H1554V955.4C1554 960.4 1554 965.5 1552.1 972L1546.8 971.4C1548.5 964.9 1548.5 960.2 1548.5 955.4V954.5H1511.1V950V950.1ZM1532.5 1004.8C1542.4 1004.8 1548.8 1002.1 1548.9 997.9C1548.9 993.4 1542.4 990.6 1532.5 990.6C1522.5 990.6 1516.1 993.4 1516.1 997.9C1516.1 1002.4 1522.5 1004.9 1532.5 1004.8Z" fill="#010101"/>
<path d="M1596.8 964.5C1596.8 973.1 1590 979 1580.5 978.9C1571 978.9 1564.1 973.1 1564.2 964.5C1564.1 955.9 1571 950.1 1580.5 950.1C1590 950.1 1596.8 955.9 1596.8 964.5ZM1580.5 974.3C1586.8 974.3 1591.4 970.2 1591.4 964.5C1591.4 958.8 1586.8 954.7 1580.5 954.7C1574.2 954.7 1569.5 958.7 1569.6 964.5C1569.6 970.2 1574.1 974.2 1580.5 974.3ZM1572.1 983.8H1577.6V991.6H1606.3V983.8H1611.8V1008.6H1572.2V983.8H1572.1ZM1606.3 1004V995.9H1577.6V1004H1606.3ZM1606.3 947H1611.8V961.3H1621.2V965.9H1611.8V980.7H1606.3V947Z" fill="#010101"/>
<path d="M1637.69 958.298V955.998H1623.59V951.398H1657.29V955.998H1643.29V958.298C1643.29 966.398 1649.49 974.198 1658.69 977.298L1655.79 981.798C1648.69 979.298 1643.29 973.998 1640.49 967.598C1637.79 974.898 1631.99 980.698 1624.49 983.498L1621.59 979.198C1630.99 975.798 1637.59 967.298 1637.59 958.298H1637.69ZM1652.49 986.098C1665.49 986.098 1673.49 990.298 1673.49 997.798C1673.49 1005.3 1665.49 1009.3 1652.49 1009.3C1639.49 1009.3 1631.59 1005.1 1631.59 997.798C1631.59 990.398 1639.49 986.098 1652.49 986.098ZM1652.49 1005C1662.09 1005 1668.09 1002.3 1668.09 997.798C1668.09 993.298 1662.09 990.498 1652.49 990.498C1642.89 990.498 1636.99 993.198 1637.09 997.798C1637.09 1002.3 1642.99 1005 1652.49 1005ZM1673.19 984.098H1667.69V967.798H1654.99V963.198H1667.69V946.898H1673.19V984.098Z" fill="#010101"/>
<path d="M1693.09 964.7V958.9H1680.99V954.3H1709.79V958.9H1698.39V964.7C1698.39 975.6 1703.29 986.4 1711.89 991.3L1708.39 995.3C1702.29 991.7 1697.99 985 1695.69 977C1693.49 985.6 1688.89 992.9 1682.69 996.9L1679.09 992.7C1687.89 987.5 1692.89 976.1 1692.89 964.6L1693.09 964.7ZM1705.09 969.4H1715.79V948.4H1720.99V1006.2H1715.79V974.1H1705.09V969.5V969.4ZM1733.39 1009.5H1728.19V947H1733.39V1009.5Z" fill="#010101"/>
<path d="M1371.9 1091.9L1341.7 1060.3H1402.1L1371.9 1091.9Z" fill="#9F0002"/>
<path d="M1064.7 1433.3L1060.7 1427C1067.7 1424.4 1072.5 1421.2 1075.7 1417.3L1062.3 1418.7L1061.1 1411.6L1079.3 1410.5C1079.7 1409.1 1080 1407.8 1080.2 1406.3H1063.8V1399.1H1089.1C1089.1 1415.4 1082.3 1426.6 1064.6 1433.4L1064.7 1433.3ZM1072 1433.4H1081.1V1438.9H1106.9V1433.4H1115.8V1458.6H1072V1433.4ZM1106.9 1451.6V1445.8H1081.1V1451.6H1106.9ZM1093.1 1396.5H1101.6V1409.6H1107.4V1395.3H1115.9V1430.7H1107.4V1416.9H1101.6V1430.1H1093.1V1396.4V1396.5Z" fill="#010101"/>
<path d="M1119.4 1420H1177.9V1427.1H1163.8V1431.9H1170.7V1448.3H1135V1452.2H1172.4V1459H1126.2V1442H1161.9V1438.5H1126.2V1431.9H1133.3V1427.1H1119.5V1420H1119.4ZM1175 1410.7L1172 1417.5C1160.9 1416.3 1152.8 1412.2 1148.6 1406.4C1144.5 1412.2 1136.4 1416.3 1125.3 1417.5L1122.3 1410.7C1136.6 1409.4 1144 1403.1 1144.1 1397V1395.7H1153.3V1397C1153.3 1403.1 1160.6 1409.4 1175.1 1410.7H1175ZM1154.8 1431.8V1427H1142.3V1431.8H1154.8Z" fill="#010101"/>
<path d="M1249.39 1433.09H1224.49V1437.69C1235.79 1438.39 1242.29 1442.19 1242.39 1448.39C1242.39 1455.49 1234.09 1459.29 1220.09 1459.29C1206.09 1459.29 1197.69 1455.49 1197.79 1448.39C1197.79 1442.19 1204.29 1438.49 1215.69 1437.69V1433.09H1191.09V1425.99H1249.59V1433.09H1249.39ZM1214.89 1408.09H1196.59V1400.99H1215.59V1395.49H1224.49V1400.99H1243.69V1408.09H1225.39C1226.69 1412.59 1233.29 1416.39 1246.69 1417.29L1244.09 1424.09C1232.29 1423.19 1224.09 1419.89 1219.99 1414.69C1215.99 1419.89 1207.79 1423.29 1196.09 1424.09L1193.39 1417.29C1206.89 1416.39 1213.39 1412.49 1214.89 1408.09ZM1220.09 1452.69C1228.89 1452.69 1233.39 1451.29 1233.49 1448.39C1233.49 1445.49 1228.89 1444.19 1220.09 1444.19C1211.29 1444.19 1206.79 1445.49 1206.89 1448.39C1206.89 1451.29 1211.19 1452.69 1220.09 1452.69Z" fill="#010101"/>
<path d="M1289.7 1426.6L1285.2 1433.5C1278 1431.3 1273 1426.7 1270.1 1420.9C1267.2 1427.2 1262 1432.3 1254.4 1434.8L1249.8 1427.7C1260.5 1424.3 1265.4 1416 1265.4 1407.8V1406.9H1252.2V1399.7H1287.5V1406.9H1274.5V1407.8C1274.5 1415.5 1279.3 1423.3 1289.8 1426.5L1289.7 1426.6ZM1260.2 1437.4H1269.3V1450.9H1304.9V1458.1H1260.3V1437.4H1260.2ZM1294.2 1395.4H1303.1V1441.6H1294.2V1395.4Z" fill="#010101"/>
<path d="M1321.9 1439.3C1321.9 1433.5 1325.6 1429.9 1331.3 1426C1328.6 1422.5 1326.4 1418.8 1326.4 1414.3C1326.4 1407 1331.9 1401.3 1340.2 1401.3C1348.5 1401.3 1353.4 1406.8 1353.4 1413.2C1353.4 1418 1350.9 1421.8 1346.6 1424.9L1343.5 1427.1L1352.1 1436.9C1353.5 1434.4 1354.3 1431.4 1354.3 1428H1362.9C1362.9 1434.9 1361.1 1440.2 1358.3 1444L1365.9 1452.8H1355L1351.9 1449.3C1348.2 1452.2 1343.4 1453.5 1338.9 1453.5C1328.4 1453.5 1321.9 1447.3 1321.9 1439.2V1439.3ZM1339.4 1445.2C1341.7 1445.2 1344.2 1444.5 1346.3 1443.1L1336.5 1432.2L1336.2 1432.4C1333.3 1434.6 1332 1436.8 1331.9 1438.7C1331.9 1442.4 1334.8 1445.2 1339.4 1445.2ZM1338.5 1421.2L1341.2 1419.5C1343.8 1417.8 1345 1416 1345 1413.9C1345 1411.8 1343.3 1409.7 1340.2 1409.7C1337.1 1409.7 1335.3 1411.9 1335.3 1414.5C1335.3 1417.1 1336.7 1418.8 1338.5 1421.3V1421.2Z" fill="#010101"/>
<path d="M1412.59 1410.9C1412.59 1417.2 1407.89 1421.9 1401.09 1423.4V1428.1C1406.09 1427.8 1411.09 1427.4 1415.79 1426.7L1416.49 1433.3C1403.29 1435.6 1388.69 1435.9 1377.89 1435.9L1376.99 1428.8C1381.49 1428.8 1386.59 1428.8 1391.99 1428.5V1423.5C1384.99 1422.1 1380.29 1417.3 1380.29 1411C1380.29 1404.7 1386.99 1398 1396.39 1398C1405.79 1398 1412.49 1403.3 1412.49 1411L1412.59 1410.9ZM1385.49 1439.9H1394.39V1451H1430.59V1458.2H1385.49V1439.9ZM1396.49 1417.1C1401.09 1417.1 1404.09 1414.8 1404.09 1410.9C1404.09 1407 1401.09 1404.7 1396.49 1404.7C1391.89 1404.7 1388.69 1406.9 1388.69 1410.9C1388.69 1414.8 1391.89 1417.1 1396.49 1417.1ZM1419.29 1395.4H1428.19V1415.6H1436.39V1423.1H1428.19V1444.3H1419.29V1395.5V1395.4Z" fill="#010101"/>
<path d="M1447.4 1412.5V1409H1436.9V1401.8H1465.7V1409H1456V1412.5C1456 1423.1 1459.3 1433.8 1468.7 1439.1L1463.4 1445.7C1457.6 1442.3 1454 1436.6 1451.8 1429.8C1449.6 1437.2 1445.7 1443.6 1439.9 1447.1L1434.4 1440.5C1443.8 1434.7 1447.4 1423.2 1447.4 1412.4V1412.5ZM1461.2 1417.3H1469.5V1396.4H1477.8V1456.3H1469.5V1424.5H1461.2V1417.3ZM1491.1 1459.3H1482.6V1395.2H1491.1V1459.3Z" fill="#010101"/>
<path d="M1552.79 1432.39H1527.89V1437.89H1545.79V1458.59H1501.19V1437.89H1519.09V1432.39H1494.49V1425.29H1552.99V1432.39H1552.79ZM1499.59 1397.09H1547.59V1404.29H1539.29V1413.99H1547.19V1421.19H1500.09V1413.99H1507.89V1404.29H1499.69V1397.09H1499.59ZM1536.99 1451.39V1444.79H1510.09V1451.39H1536.99ZM1530.19 1413.99V1404.29H1516.79V1413.99H1530.19Z" fill="#010101"/>
<path d="M1624.29 1429.1H1599.49V1433.1H1617.19V1448.8H1581.49V1452.3H1618.89V1458.9H1572.69V1442.8H1608.39V1439.6H1572.69V1433.1H1590.69V1429.1H1566.09V1422.6H1624.29V1429.1ZM1589.59 1406.9H1571.59V1400.3H1590.59V1395.3H1599.49V1400.3H1618.69V1406.9H1600.59C1602.39 1410.6 1608.89 1413.7 1621.79 1414.2L1619.19 1420.8C1607.39 1420.1 1599.09 1417.1 1595.09 1412.4C1591.09 1417.2 1582.79 1420.2 1570.79 1420.8L1568.39 1414.2C1581.19 1413.7 1587.69 1410.6 1589.59 1406.9Z" fill="#010101"/>
<path d="M1624.59 1444.2H1645.49V1422.2H1654.39V1444.2H1683.09V1451.5H1624.59V1444.2ZM1677.29 1406.9C1677.29 1414.9 1677.29 1423.9 1674.89 1437.6L1665.79 1436.6C1668.19 1424.6 1668.29 1415.7 1668.39 1408.1H1630.69V1400.9H1677.39V1407L1677.29 1406.9Z" fill="#010101"/>
<path d="M1086.2 1177.3H1092.5V1200.1H1119.4V1177.3H1125.7V1228.3H1119.4V1205.5H1092.5V1228.3H1086.2V1177.3Z" fill="#010101"/>
<path d="M1129.09 1228.3L1147.69 1177.3H1154.29L1172.99 1228.3H1166.39L1161.39 1214H1140.79L1135.79 1228.3H1129.19H1129.09ZM1159.39 1208.4L1151.29 1185.5H1150.89L1142.79 1208.4H1159.39Z" fill="#010101"/>
<path d="M1194.59 1182.6C1185.29 1182.6 1178.19 1189.7 1178.19 1202.8C1178.19 1215.9 1185.29 1223 1194.59 1223.1C1201.19 1223.1 1207.19 1219.3 1208.69 1212.3H1214.99C1213.19 1222.7 1204.79 1229 1194.59 1229C1184.39 1229 1171.99 1218.9 1171.99 1202.8C1171.99 1186.7 1181.49 1176.7 1194.59 1176.7C1204.79 1176.7 1213.19 1182.8 1214.99 1193.4H1208.69C1207.29 1186.3 1201.19 1182.5 1194.59 1182.6Z" fill="#010101"/>
<path d="M1241 1182.6C1231.7 1182.6 1224.6 1189.7 1224.6 1202.8C1224.6 1215.9 1231.7 1223 1241 1223.1C1247.6 1223.1 1253.6 1219.3 1255.1 1212.3H1261.4C1259.6 1222.7 1251.2 1229 1241 1229C1230.8 1229 1218.4 1218.9 1218.4 1202.8C1218.4 1186.7 1227.9 1176.7 1241 1176.7C1251.2 1176.7 1259.6 1182.8 1261.4 1193.4H1255.1C1253.7 1186.3 1247.6 1182.5 1241 1182.6Z" fill="#010101"/>
<path d="M1266.7 1177.3H1284C1295.9 1177.3 1301.3 1184.5 1301.4 1193.6C1301.4 1202.6 1295.9 1209.8 1284.1 1209.9H1273V1228.3H1266.7V1177.3ZM1283.9 1204.2C1292 1204.2 1295.1 1199.6 1295.1 1193.5C1295.1 1187.4 1291.9 1182.9 1283.7 1182.8H1273V1204.1H1283.8L1283.9 1204.2Z" fill="#010101"/>
<path d="M1360.49 1206.2H1334.69V1213.5H1353.59V1233.1H1310.49V1213.5H1329.19V1206.2H1303.59V1201.7H1360.49V1206.2ZM1308.89 1173.6H1354.99V1178.1H1345.49V1191.3H1354.89V1195.9H1309.09V1191.3H1318.59V1178.1H1308.89V1173.6ZM1348.09 1228.6V1218.1H1315.99V1228.6H1348.09ZM1339.89 1191.3V1178.1H1324.09V1191.3H1339.89Z" fill="#010101"/>
<path d="M1378.99 1180.3V1179.6H1364.49V1175.1H1399.09V1179.6H1384.69V1180.3C1384.69 1188.4 1391.39 1195.6 1400.79 1198.3L1398.09 1202.6C1390.69 1200.3 1384.79 1195.3 1381.99 1188.9C1379.29 1196 1373.39 1201.4 1365.69 1203.9L1363.09 1199.6C1372.39 1196.5 1379.09 1188.9 1379.09 1180.3H1378.99ZM1373.09 1207H1413.69V1221.8H1378.59V1228.9H1415.99V1233.4H1373.19V1217.8H1408.19V1211.3H1373.09V1207ZM1413.59 1203.9H1408.29V1171.5H1413.59V1203.9Z" fill="#010101"/>
<path d="M1484.2 1180.3C1484.2 1185.9 1484.2 1192.9 1482.5 1202.8H1492.2V1207.4H1477.1V1233.9H1471.6V1207.4H1455.6V1233.9H1450.1V1207.4H1435.3V1202.8H1477C1478.9 1192.9 1478.9 1185.9 1478.9 1180.3C1478.9 1180.2 1442.5 1180.2 1442.5 1180.2V1175.6H1484.3V1180.4L1484.2 1180.3Z" fill="#010101"/>
<path d="M1525.9 1182.8H1540V1171.6H1545.5V1208.9H1540V1200.6H1523.4V1196H1540V1187.4H1524.4C1520.2 1197.3 1510.4 1204.4 1496.7 1208.1L1494.7 1203.6C1509.9 1199.4 1519.6 1191 1520.7 1180.3H1497.9V1175.8H1526.7C1526.7 1178.2 1526.4 1180.6 1525.8 1182.9L1525.9 1182.8ZM1503.5 1211.6H1545.6V1233.9H1540.1V1216H1503.5V1211.5V1211.6Z" fill="#010101"/>
<path d="M1623.7 1209.1H1566.7V1204.6H1592.5V1198.4H1574.3V1173.2H1616.6V1177.7H1579.7V1183.6H1614.8V1187.8H1579.7V1194H1616.9V1198.5H1597.9V1204.7H1623.7V1209.2V1209.1ZM1595.2 1213.9C1609 1213.9 1616.7 1217.4 1616.8 1223.8C1616.8 1230.4 1609 1233.8 1595.2 1233.9C1581.4 1233.9 1573.7 1230.4 1573.6 1223.8C1573.6 1217.3 1581.4 1213.8 1595.2 1213.9ZM1595.2 1229.6C1605.5 1229.6 1611.2 1227.7 1611.2 1223.8C1611.2 1219.9 1605.5 1218 1595.2 1218C1584.9 1218 1579.1 1220.1 1579.2 1223.8C1579.2 1227.6 1584.9 1229.6 1595.2 1229.6Z" fill="#010101"/>
<path d="M1638.2 1215.4V1196.3H1643.7V1215.2C1650.6 1214.9 1657.7 1214.5 1664.1 1213.7L1664.4 1217.9C1651.3 1220 1636.5 1220.3 1625.4 1220.2L1624.7 1215.6C1628.8 1215.6 1633.4 1215.6 1638.2 1215.4ZM1660 1181.6C1660 1186.6 1660 1194.8 1658.3 1206.4L1652.7 1206C1654.4 1195.6 1654.6 1188 1654.6 1183H1628.4V1178.5H1660.1V1181.7L1660 1181.6ZM1668.1 1171.5H1673.7V1197.6H1683.8V1202.4H1673.7V1234.1H1668.1V1171.6V1171.5Z" fill="#010101"/>
<path d="M1371.9 1316.5L1341.7 1284.9H1402.1L1371.9 1316.5Z" fill="#9F0002"/>
<path d="M1100 759.808H1043V755.308H1100V759.808ZM1049.3 765.908H1092.6V784.908H1087V770.508H1049.3V765.908ZM1050.6 724.008H1092.9V728.508H1056V734.408H1091.1V738.708H1056V745.008H1093.2V749.508H1050.6V724.008Z" fill="#010101"/>
<path d="M1138.9 736.906H1101.7V732.306H1117.4V723.106H1123V732.306H1138.8V736.906H1138.9ZM1120.3 742.106C1128.8 742.106 1134.9 748.106 1135 756.506C1135 764.806 1128.8 770.806 1120.3 770.806C1111.7 770.806 1105.5 764.806 1105.6 756.506C1105.6 748.106 1111.7 742.106 1120.3 742.106ZM1120.3 766.006C1125.8 766.006 1129.9 762.106 1130 756.506C1130 750.906 1125.8 746.806 1120.3 746.806C1114.8 746.806 1110.6 750.806 1110.6 756.506C1110.6 762.206 1114.8 766.106 1120.3 766.006ZM1137.6 748.606H1148V722.406H1153.5V784.906H1148V753.206H1137.6V748.606Z" fill="#010101"/>
<path d="M1160.4 751.506H1184V739.406H1189.3V751.506H1217.2V756.006H1160.3V751.506H1160.4ZM1210.5 773.406C1210.5 780.506 1202 784.706 1188.6 784.806C1175.2 784.806 1166.7 780.606 1166.7 773.406C1166.7 766.206 1175.2 761.906 1188.6 761.906C1202 761.906 1210.5 766.106 1210.5 773.406ZM1167.1 725.506H1210V730.806C1210 735.806 1210 740.906 1208.1 747.406L1202.8 746.806C1204.5 740.306 1204.5 735.606 1204.5 730.806V729.906H1167.1V725.406V725.506ZM1188.6 780.306C1198.5 780.306 1205 777.606 1205 773.406C1205 768.906 1198.5 766.106 1188.6 766.106C1178.6 766.106 1172.2 768.906 1172.2 773.406C1172.2 777.906 1178.6 780.406 1188.6 780.306Z" fill="#010101"/>
<path d="M1227.6 735.205H1245V725.505H1250.5V737.605H1265.2V722.305H1270.7V756.405H1265.2V742.305H1250.5V754.105H1222V725.405H1227.6V735.105V735.205ZM1245 749.605V739.705H1227.6V749.605H1245ZM1230.5 759.505H1236V767.105H1265.2V759.505H1270.7V783.805H1230.5V759.505ZM1265.2 779.405V771.605H1236V779.405H1265.2Z" fill="#010101"/>
<path d="M1292 749.609H1315.2V742.009H1320.8V749.609H1348.9V754.109H1292V749.609ZM1341.8 728.109C1341.8 732.609 1341.8 738.309 1340.4 745.809L1334.9 745.509C1335.5 742.609 1335.8 740.009 1336 737.709L1297.9 739.609L1297.2 735.009L1336.3 733.909C1336.3 732.009 1336.3 730.209 1336.3 728.609H1298.7V724.109H1341.8V728.009V728.109ZM1298.9 759.409H1341.5V773.509H1304.3V779.509H1343.3V783.809H1298.9V769.409H1336.1V763.609H1298.8V759.309L1298.9 759.409Z" fill="#010101"/>
<path d="M1350.6 771.603H1407.8V776.203H1350.6V771.603ZM1401 757.003H1357.8V728.203H1400.4V732.803H1363.2V752.403H1400.9V757.003H1401Z" fill="#010101"/>
<path d="M1466.4 776.803H1409.2V772.003H1466.4V776.803ZM1414.2 728.703H1460.9V733.203H1451V755.103H1460.8V759.603H1414.4V755.103H1424.2V733.203H1414.3V728.703H1414.2ZM1445.5 755.103V733.203H1429.7V755.103H1445.5Z" fill="#010101"/>
<path d="M1492.1 750.906H1475.1V764.706C1482.4 764.706 1489.1 764.506 1497.6 763.006L1498 767.606C1489 769.206 1481.9 769.406 1473.9 769.506H1469.7V746.306H1486.7V733.906H1469.6V729.306H1492.1V750.906ZM1495.2 744.806H1503.1V723.806H1508.4V781.606H1503.1V749.506H1495.2V744.906V744.806ZM1515.9 722.406H1521.1V784.906H1515.9V722.406Z" fill="#010101"/>
<path d="M1565.4 766.206L1562.1 770.706C1555 767.206 1548.8 759.706 1545.8 750.706C1542.9 760.206 1536.7 768.106 1529.4 771.806L1525.9 767.206C1535.3 763.006 1543 751.006 1543 739.106V727.706H1548.5V739.106C1548.5 750.606 1556.2 762.006 1565.3 766.206H1565.4ZM1572.3 722.406H1577.8V784.906H1572.3V722.406Z" fill="#010101"/>
<path d="M1621.7 753.606L1619.1 757.906C1611.9 755.706 1606.3 750.806 1603.6 744.706C1600.9 751.406 1595.1 756.706 1587.8 759.006L1584.9 754.706C1594.3 751.806 1600.7 744.306 1600.7 735.806V734.506H1586.6V730.006H1600.7V721.906H1606.2V730.006H1620.2V734.506H1606.2V735.806C1606.2 743.606 1612.5 750.706 1621.6 753.506L1621.7 753.606ZM1592.9 763.706H1633.8V784.906H1628.3V768.306H1592.9V763.706ZM1628.4 722.406H1633.9V739.106H1643.3V743.706H1633.9V760.506H1628.4V722.306V722.406Z" fill="#010101"/>
<path d="M1700.7 762.605H1685.7V784.905H1680.1V762.605H1664.1V784.905H1658.3V762.605H1643.5V758.005H1700.7V762.605ZM1672 724.805C1685.1 724.805 1694 730.105 1694 738.505C1694 746.805 1685.1 752.005 1672 751.905C1658.8 752.005 1650 746.805 1650 738.505C1650 730.205 1658.9 724.905 1672 724.805ZM1672 747.605C1681.7 747.605 1688.3 744.005 1688.3 738.505C1688.3 732.905 1681.7 729.405 1672 729.305C1662.2 729.305 1655.6 732.905 1655.7 738.505C1655.6 744.005 1662.2 747.505 1672 747.605Z" fill="#010101"/>
<path d="M1371.9 867.303L1341.7 835.703H1402.1L1371.9 867.303Z" fill="#9F0002"/>
</g>
<defs>
<clipPath id="clip0_600_14327">
<rect width="2384" height="1511.4" fill="white"/>
</clipPath>
</defs>
</svg>
