<?xml version="1.0" encoding="UTF-8"?>
<svg id="_레이어_2" data-name="레이어 2" xmlns="http://www.w3.org/2000/svg" viewBox="0 0 2384 1511.45">
  <defs>
    <style>
      .cls-1 {
        fill: #010101;
      }

      .cls-2 {
        fill: #fff;
      }

      .cls-3 {
        fill: #9f0002;
      }

      .cls-4 {
        fill: none;
        stroke: #9f0002;
        stroke-miterlimit: 10;
        stroke-width: 4px;
      }

      .cls-5 {
        opacity: .5;
      }
    </style>
  </defs>
  <g id="_레이어_2-2" data-name="레이어 2">
    <g>
      <g>
        <g>
          <rect class="cls-4" x="2" y="2" width="2380" height="160" rx="29.29" ry="29.29"/>
          <g>
            <path class="cls-3" d="M26,2.57h336.12v160H26c-13.25,0-24-10.75-24-24V26.57C2,13.33,12.75,2.57,26,2.57Z"/>
            <g>
              <g class="cls-5">
                <path class="cls-2" d="M95.14,65.15c-4.66-.05-7.87,2.54-7.87,6.14s3.5,5.14,6.72,6.05l3.55.96c4.22,1.2,9.26,3.46,9.31,9.22-.05,5.43-4.46,9.6-11.91,9.6-7.01,0-11.42-3.7-11.81-9.12h3.46c.29,3.94,3.89,6.1,8.35,6.05,4.99.05,8.64-2.64,8.64-6.62,0-3.41-2.93-4.94-7.01-6.14l-4.13-1.15c-5.28-1.58-8.4-4.32-8.45-8.74.05-5.52,4.9-9.26,11.23-9.31,6.38.05,10.9,3.84,11.14,9.02h-3.26c-.34-3.7-3.55-6-7.97-5.95Z"/>
                <path class="cls-2" d="M122.98,73.8h-5.28v15.94c-.05,3.22,1.78,4.13,3.75,4.13.58,0,1.54-.05,2.11-.1v2.98c-.58.1-1.34.19-2.4.19-3.36,0-6.67-2.16-6.72-6.43v-16.71h-3.74v-2.69h3.74v-6.14h3.26v6.14h5.28v2.69Z"/>
                <path class="cls-2" d="M127.2,83.97c.05-7.73,4.61-13.25,11.23-13.25,5.57,0,10.85,3.94,10.85,12.58v1.54h-18.82c.14,5.71,3.41,9.36,8.45,9.41,3.5-.05,5.57-1.82,6.43-3.46h3.46c-1.15,3.5-4.75,6.29-9.89,6.34-7.2-.05-11.67-5.42-11.71-13.15ZM146.02,82.05c.05-4.8-3.07-8.45-7.49-8.45s-7.82,3.84-8.06,8.45h15.55Z"/>
                <path class="cls-2" d="M154.95,71.11h3.07v4.7h.38c1.01-2.16,3.02-5.09,7.68-5.09,6.34,0,10.56,5.23,10.56,13.15s-4.27,13.2-10.46,13.25c-4.66-.05-6.77-2.98-7.78-5.18h-.29v14.11h-3.17v-34.95ZM165.7,94.15c5.04.05,7.78-4.46,7.78-10.27s-2.69-10.23-7.78-10.27c-4.9.05-7.63,4.22-7.58,10.27-.05,6,2.74,10.32,7.58,10.27Z"/>
              </g>
              <g>
                <path class="cls-2" d="M209.18,79.91c0-16.63,7.78-26.14,20.45-26.07,12.67-.07,20.45,9.5,20.45,26.07s-7.71,26.21-20.45,26.21-20.45-9.5-20.45-26.21ZM229.63,97.33c5.91,0,9.72-5.62,9.65-17.43,0-11.59-3.74-17.42-9.65-17.42s-9.65,5.83-9.65,17.42c-.07,11.81,3.74,17.43,9.65,17.43Z"/>
                <path class="cls-2" d="M275.71,105.4h-10.51v-40.9h-.43l-11.67,7.34v-9.36l12.67-8.07h9.94v50.98Z"/>
              </g>
            </g>
          </g>
        </g>
        <g>
          <path class="cls-1" d="M1108.7,75.73l.29,4.03c-5.54.94-11.38,1.51-17.14,1.8v12.46h-5.47v-12.17c-6.34.22-12.46.22-17.71.22l-.72-4.46c11.67-.07,27.36-.14,40.76-1.87ZM1088.54,51.25c9.15-.07,15.41,4.25,15.41,10.8s-6.26,10.87-15.41,10.95c-9.29-.07-15.55-4.25-15.55-10.95s6.26-10.87,15.55-10.8ZM1077.02,91.43h5.47v13.68h38.88v4.61h-44.36v-18.29ZM1088.54,68.82c5.91,0,10.08-2.66,10.23-6.77-.14-3.96-4.32-6.7-10.23-6.62-6.12-.07-10.3,2.66-10.22,6.62-.07,4.1,4.1,6.77,10.22,6.77ZM1119.79,96.18h-5.47v-6.48h-12.96v-4.03h12.96v-37.01h5.47v47.52Z"/>
          <path class="cls-1" d="M1184.16,103.38h-57.17v-4.75h15.99v-11.81h-8.93v-19.3h37.44v-9.65h-37.59v-4.61h43.06v18.87h-37.44v10.08h38.88v4.61h-9.79v11.81h15.55v4.75ZM1163.13,98.63v-11.81h-14.69v11.81h14.69Z"/>
          <path class="cls-1" d="M1236.72,80.63l-3.02,4.32c-6.84-2.74-12.31-8.14-15.05-14.98-2.59,7.56-8.28,13.54-15.63,16.42l-3.02-4.46c9.36-3.38,15.84-12.1,15.84-21.75v-7.78h5.47v7.92c0,8.78,6.34,16.99,15.41,20.31ZM1211.37,90.13h5.47v14.98h36.29v4.61h-41.76v-19.58ZM1232.25,63.35h13.97v-14.69h5.47v46.8h-5.47v-27.51h-13.97v-4.61Z"/>
          <path class="cls-1" d="M1310.3,81.35h-5.47v-8.06h-14.69v5.47h-28.51v-27.22h5.62v9.07h17.42v-9.07h5.47v6.05h14.69v-8.93h5.47v32.69ZM1284.67,74.29v-9.36h-17.42v9.36h17.42ZM1269.83,84.37h40.47v14.69h-34.85v6.77h37.3v4.46h-42.77v-15.55h34.85v-6.05h-35v-4.32ZM1304.83,68.96v-7.06h-14.69v7.06h14.69Z"/>
        </g>
      </g>
      <polygon class="cls-3" points="1192 193.61 1161.85 162 1222.15 162 1192 193.61"/>
    </g>
    <g>
      <g>
        <g>
          <rect class="cls-4" x="2" y="226.57" width="2380" height="160" rx="29.29" ry="29.29"/>
          <g>
            <path class="cls-3" d="M26,227.15h336.12v160H26c-13.25,0-24-10.75-24-24v-112c0-13.25,10.75-24,24-24Z"/>
            <g>
              <g class="cls-5">
                <path class="cls-2" d="M95.14,289.73c-4.66-.05-7.87,2.54-7.87,6.14s3.5,5.14,6.72,6.05l3.55.96c4.22,1.2,9.26,3.46,9.31,9.22-.05,5.42-4.46,9.6-11.91,9.6-7.01,0-11.42-3.7-11.81-9.12h3.46c.29,3.94,3.89,6.1,8.35,6.05,4.99.05,8.64-2.64,8.64-6.62,0-3.41-2.93-4.94-7.01-6.14l-4.13-1.15c-5.28-1.58-8.4-4.32-8.45-8.74.05-5.52,4.9-9.26,11.23-9.31,6.38.05,10.9,3.84,11.14,9.03h-3.26c-.34-3.7-3.55-6-7.97-5.95Z"/>
                <path class="cls-2" d="M122.98,298.37h-5.28v15.94c-.05,3.22,1.78,4.13,3.75,4.13.58,0,1.54-.05,2.11-.1v2.98c-.58.1-1.34.19-2.4.19-3.36,0-6.67-2.16-6.72-6.43v-16.71h-3.74v-2.69h3.74v-6.14h3.26v6.14h5.28v2.69Z"/>
                <path class="cls-2" d="M127.2,308.55c.05-7.73,4.61-13.25,11.23-13.25,5.57,0,10.85,3.94,10.85,12.58v1.54h-18.82c.14,5.71,3.41,9.36,8.45,9.41,3.5-.05,5.57-1.82,6.43-3.46h3.46c-1.15,3.5-4.75,6.29-9.89,6.34-7.2-.05-11.67-5.42-11.71-13.15ZM146.02,306.63c.05-4.8-3.07-8.45-7.49-8.45s-7.82,3.84-8.06,8.45h15.55Z"/>
                <path class="cls-2" d="M154.95,295.68h3.07v4.7h.38c1.01-2.16,3.02-5.09,7.68-5.09,6.34,0,10.56,5.23,10.56,13.15s-4.27,13.2-10.46,13.25c-4.66-.05-6.77-2.98-7.78-5.18h-.29v14.11h-3.17v-34.95ZM165.7,318.72c5.04.05,7.78-4.46,7.78-10.27s-2.69-10.23-7.78-10.27c-4.9.05-7.63,4.22-7.58,10.27-.05,6,2.74,10.32,7.58,10.27Z"/>
              </g>
              <g>
                <path class="cls-2" d="M209.18,304.48c0-16.63,7.78-26.14,20.45-26.07,12.67-.07,20.45,9.5,20.45,26.07s-7.71,26.21-20.45,26.21-20.45-9.5-20.45-26.21ZM229.63,321.91c5.91,0,9.72-5.62,9.65-17.43,0-11.59-3.74-17.43-9.65-17.43s-9.65,5.83-9.65,17.43c-.07,11.81,3.74,17.43,9.65,17.43Z"/>
                <path class="cls-2" d="M253.82,322.34l18.15-16.85c4.82-4.54,7.34-7.34,7.34-11.38,0-4.54-3.38-7.34-8.06-7.34s-7.92,3.02-7.92,7.92h-10.08c0-9.94,7.42-16.35,18.15-16.27,10.87-.07,18.15,6.12,18.15,14.98,0,5.83-2.81,10.58-13.39,20.02l-7.63,7.49v.43h21.75v8.64h-36.44v-7.63Z"/>
              </g>
            </g>
          </g>
        </g>
        <g>
          <path class="cls-1" d="M1112.3,304.48l-2.59,4.32c-7.2-2.23-12.75-7.06-15.48-13.18-2.74,6.7-8.5,11.95-15.77,14.33l-2.88-4.32c9.36-2.88,15.84-10.37,15.84-18.87v-1.3h-14.11v-4.46h14.11v-8.06h5.47v8.06h13.97v4.46h-13.97v1.3c-.07,7.78,6.26,14.91,15.41,17.71ZM1083.5,314.56h40.9v21.17h-5.47v-16.56h-35.43v-4.61ZM1118.92,273.23h5.47v16.71h9.36v4.61h-9.36v16.85h-5.47v-38.16Z"/>
          <path class="cls-1" d="M1134.18,302.04h56.88v4.61h-56.88v-4.61ZM1186.03,280.15h-19.87c.29,6.98,10.8,12.31,21.89,13.39l-2.02,4.46c-10.3-1.22-19.95-5.69-23.4-12.53-3.53,6.84-13.1,11.3-23.4,12.53l-2.02-4.46c11.02-1.08,21.53-6.41,21.89-13.39h-19.73v-4.46h46.66v4.46ZM1141.39,310.68h5.47v7.2h31.4v-7.2h5.47v24.19h-42.34v-24.19ZM1178.25,330.41v-8.21h-31.4v8.21h31.4Z"/>
          <path class="cls-1" d="M1192.79,302.32h23.62v-12.1h5.33v12.1h27.94v4.46h-56.89v-4.46ZM1242.91,324.21c0,7.13-8.5,11.31-21.89,11.38-13.39-.07-21.89-4.25-21.89-11.38s8.5-11.52,21.89-11.52,21.89,4.18,21.89,11.52ZM1199.56,276.4h42.92v5.33c-.07,4.97-.07,10.08-1.87,16.56l-5.33-.58c1.66-6.55,1.66-11.16,1.73-15.99v-.86h-37.44v-4.46ZM1221.02,331.13c9.94.07,16.35-2.67,16.42-6.91-.07-4.54-6.48-7.27-16.42-7.34-10.01.07-16.42,2.81-16.42,7.34,0,4.25,6.41,6.98,16.42,6.91Z"/>
          <path class="cls-1" d="M1267.53,284.61v-2.3h-14.11v-4.61h33.7v4.61h-13.97v2.3c-.07,8.14,6.19,15.91,15.41,19.01l-2.88,4.46c-7.06-2.52-12.53-7.78-15.27-14.19-2.74,7.34-8.5,13.1-15.99,15.91l-2.88-4.32c9.36-3.38,15.99-11.88,15.99-20.88ZM1282.36,312.4c13.03,0,21.03,4.25,21.03,11.67s-7.99,11.52-21.03,11.52-20.95-4.25-20.88-11.52c-.07-7.42,7.92-11.67,20.88-11.67ZM1282.36,331.27c9.58,0,15.55-2.74,15.55-7.2s-5.98-7.34-15.55-7.34-15.48,2.74-15.41,7.34c-.07,4.46,5.9,7.2,15.41,7.2ZM1303.1,310.39h-5.47v-16.27h-12.67v-4.61h12.67v-16.27h5.47v37.16Z"/>
        </g>
      </g>
      <polygon class="cls-3" points="1192 418.18 1161.85 386.57 1222.15 386.57 1192 418.18"/>
    </g>
    <g>
      <g>
        <g>
          <rect class="cls-4" x="2" y="451.15" width="2380" height="160" rx="29.29" ry="29.29"/>
          <g>
            <path class="cls-3" d="M26,451.72h336.12v160H26c-13.25,0-24-10.75-24-24v-112c0-13.25,10.75-24,24-24Z"/>
            <g>
              <g class="cls-5">
                <path class="cls-2" d="M95.14,514.3c-4.66-.05-7.87,2.54-7.87,6.14s3.5,5.14,6.72,6.05l3.55.96c4.22,1.2,9.26,3.46,9.31,9.22-.05,5.42-4.46,9.6-11.91,9.6-7.01,0-11.42-3.7-11.81-9.12h3.46c.29,3.94,3.89,6.1,8.35,6.05,4.99.05,8.64-2.64,8.64-6.62,0-3.41-2.93-4.95-7.01-6.14l-4.13-1.15c-5.28-1.58-8.4-4.32-8.45-8.74.05-5.52,4.9-9.27,11.23-9.31,6.38.05,10.9,3.84,11.14,9.02h-3.26c-.34-3.7-3.55-6-7.97-5.95Z"/>
                <path class="cls-2" d="M122.98,522.95h-5.28v15.94c-.05,3.22,1.78,4.13,3.75,4.13.58,0,1.54-.05,2.11-.1v2.98c-.58.1-1.34.19-2.4.19-3.36,0-6.67-2.16-6.72-6.43v-16.71h-3.74v-2.69h3.74v-6.14h3.26v6.14h5.28v2.69Z"/>
                <path class="cls-2" d="M127.2,533.12c.05-7.73,4.61-13.25,11.23-13.25,5.57,0,10.85,3.94,10.85,12.58v1.54h-18.82c.14,5.71,3.41,9.36,8.45,9.41,3.5-.05,5.57-1.82,6.43-3.46h3.46c-1.15,3.5-4.75,6.29-9.89,6.34-7.2-.05-11.67-5.43-11.71-13.15ZM146.02,531.2c.05-4.8-3.07-8.45-7.49-8.45s-7.82,3.84-8.06,8.45h15.55Z"/>
                <path class="cls-2" d="M154.95,520.26h3.07v4.71h.38c1.01-2.16,3.02-5.09,7.68-5.09,6.34,0,10.56,5.23,10.56,13.15s-4.27,13.2-10.46,13.25c-4.66-.05-6.77-2.98-7.78-5.19h-.29v14.11h-3.17v-34.95ZM165.7,543.3c5.04.05,7.78-4.46,7.78-10.27s-2.69-10.22-7.78-10.27c-4.9.05-7.63,4.22-7.58,10.27-.05,6,2.74,10.32,7.58,10.27Z"/>
              </g>
              <g>
                <path class="cls-2" d="M209.18,529.06c0-16.63,7.78-26.14,20.45-26.07,12.67-.07,20.45,9.5,20.45,26.07s-7.71,26.21-20.45,26.21-20.45-9.5-20.45-26.21ZM229.63,546.48c5.91,0,9.72-5.62,9.65-17.43,0-11.59-3.74-17.43-9.65-17.43s-9.65,5.83-9.65,17.43c-.07,11.81,3.74,17.43,9.65,17.43Z"/>
                <path class="cls-2" d="M253.24,540.29h10.66c.22,3.67,3.89,6.19,8.79,6.19s8.71-2.81,8.64-6.91c.07-4.1-3.6-7.06-9.65-7.06h-4.61v-7.78h4.61c5.11-.07,8.57-2.81,8.5-6.91.07-3.82-2.88-6.48-7.34-6.48s-8.28,2.52-8.35,6.48h-10.22c.22-8.78,8.14-14.91,18.58-14.83,10.58-.07,17.64,6.26,17.57,14.26.07,5.76-3.89,9.79-9.65,10.8v.43c7.56.86,11.67,5.4,11.67,11.81,0,8.71-8.28,14.98-19.73,14.98s-19.23-6.19-19.44-14.98Z"/>
              </g>
            </g>
          </g>
        </g>
        <g>
          <path class="cls-1" d="M825.02,534.68h-56.88v-4.61h25.63v-7.49h-18.15v-23.33h5.47v7.2h30.96v-7.2h5.62v23.33h-18.43v7.49h25.78v4.61ZM774.33,540.87h43.64v19.44h-5.47v-14.98h-38.16v-4.46ZM812.06,518.11v-7.49h-30.96v7.49h30.96Z"/>
          <path class="cls-1" d="M883.77,535.39h-25.35v12.24h-5.47v-12.24h-26.35v-4.61h57.17v4.61ZM833.95,541.88h5.47v12.38h38.02v4.61h-43.49v-16.99ZM834.23,499.68h5.47v8.06h30.96v-8.06h5.62v25.06h-42.05v-25.06ZM870.67,520.27v-8.21h-30.96v8.21h30.96Z"/>
          <path class="cls-1" d="M922.65,542.31l-3.17,4.32c-6.98-3.38-12.96-10.8-15.7-19.22-2.88,9.14-9.22,17.21-16.27,20.81l-3.31-4.32c9.07-4.39,16.78-16.27,16.85-26.93v-8.21h-14.55v-4.61h33.99v4.61h-14.11v8.21c0,10.01,7.27,21.03,16.27,25.35ZM928.12,497.81h5.62v25.2h10.37v4.75h-10.37v32.55h-5.62v-62.5Z"/>
          <path class="cls-1" d="M953.03,517.54v-14.26h5.18v14.26c-.07,6.34,1.22,15.62,6.34,21.89,5.04-6.12,6.26-15.12,6.34-21.89v-14.26h5.33v14.26c-.07,8.35,2.16,19.08,9.79,24.48l-3.46,4.03c-4.75-3.46-7.56-9.07-9.07-15.19-1.37,6.26-4.1,12.17-8.93,15.63-4.9-3.53-7.56-9.51-9-15.7-1.51,6.05-4.32,11.67-8.86,15.12l-3.6-3.89c7.63-5.54,9.87-16.49,9.94-24.48ZM996.24,560.31h-5.47v-62.5h5.47v62.5Z"/>
          <path class="cls-1" d="M1073.85,535.25h-57.03v-4.46h57.03v4.46ZM1023.16,541.3h43.35v19.01h-5.62v-14.4h-37.73v-4.61ZM1024.46,499.39h42.34v4.46h-36.87v5.9h35.14v4.32h-35.14v6.34h37.16v4.46h-42.63v-25.49Z"/>
          <path class="cls-1" d="M1112.73,512.35h-37.16v-4.61h15.7v-9.22h5.62v9.22h15.84v4.61ZM1094.15,517.54c8.5,0,14.62,5.98,14.69,14.4-.07,8.28-6.19,14.33-14.69,14.26-8.57.07-14.76-5.98-14.69-14.26-.07-8.42,6.12-14.4,14.69-14.4ZM1094.15,541.44c5.47.07,9.58-3.89,9.65-9.5-.07-5.62-4.18-9.65-9.65-9.65s-9.65,4.03-9.65,9.65,4.18,9.58,9.65,9.5ZM1111.44,524.02h10.37v-26.21h5.47v62.5h-5.47v-31.68h-10.37v-4.61Z"/>
          <path class="cls-1" d="M1191.07,540.15h-25.78v20.16h-5.47v-20.16h-25.63v-4.61h56.88v4.61ZM1159.82,510.05h-20.16v-4.46h20.16v-7.92h5.47v7.92h20.31v4.46h-20.31c.07,7.85,10.95,14.69,22.18,16.27l-2.02,4.46c-9.72-1.51-18.79-6.41-22.83-13.25-3.96,6.91-13.18,11.74-22.83,13.25l-2.16-4.46c11.23-1.58,22.18-8.35,22.18-16.27Z"/>
          <path class="cls-1" d="M1249.68,529.78h-25.78v5.9h18.43v13.54h-37.16v6.05h39.03v4.32h-44.36v-14.26h37.16v-5.47h-37.3v-4.18h18.72v-5.9h-25.63v-4.18h56.89v4.18ZM1218.07,507.6h-19.51v-4.32h19.87v-5.9h5.47v5.9h20.02v4.32h-19.66c1.08,6.27,10.87,10.15,22.39,10.95l-1.73,4.18c-10.51-.86-19.87-4.1-23.69-10.08-3.89,5.98-13.32,9.22-23.83,10.08l-1.58-4.18c11.45-.79,21.24-4.68,22.25-10.95Z"/>
          <path class="cls-1" d="M1251.4,526.9h23.62v-12.1h5.33v12.1h27.94v4.46h-56.89v-4.46ZM1301.52,548.79c0,7.13-8.5,11.31-21.89,11.38-13.39-.07-21.89-4.25-21.89-11.38s8.5-11.52,21.89-11.52,21.89,4.18,21.89,11.52ZM1258.17,500.98h42.92v5.33c-.07,4.97-.07,10.08-1.87,16.56l-5.33-.58c1.66-6.55,1.66-11.16,1.73-15.98v-.87h-37.44v-4.46ZM1279.63,555.7c9.94.07,16.35-2.67,16.42-6.91-.07-4.54-6.48-7.27-16.42-7.34-10.01.07-16.42,2.81-16.42,7.34,0,4.25,6.41,6.98,16.42,6.91Z"/>
          <path class="cls-1" d="M1318.65,510.63h17.42v-9.65h5.47v12.1h14.69v-15.26h5.47v34.13h-5.47v-14.11h-14.69v11.81h-28.51v-28.66h5.62v9.65ZM1336.07,525.03v-9.94h-17.42v9.94h17.42ZM1321.53,534.96h5.47v7.63h29.23v-7.63h5.47v24.34h-40.18v-24.34ZM1356.24,554.84v-7.78h-29.23v7.78h29.23Z"/>
          <path class="cls-1" d="M1382.87,534.82h57.17v4.61h-25.92v20.74h-5.47v-20.74h-25.78v-4.61ZM1434.57,505.87h-9.65v17.14h9.36v4.46h-45.8v-4.46h9.5v-17.14h-9.65v-4.46h46.23v4.46ZM1419.45,523.01v-17.14h-15.99v17.14h15.99Z"/>
          <path class="cls-1" d="M1441.62,547.06h57.17v4.61h-57.17v-4.61ZM1492.03,532.37h-43.2v-28.8h42.63v4.61h-37.16v19.59h37.73v4.61Z"/>
          <path class="cls-1" d="M1525.87,509.9h-18v12.38h15.12v4.32h-15.12v14.11c9-.07,14.47-.5,21.31-1.73l.43,4.46c-7.2,1.51-13.11,1.66-23.04,1.73h-3.89v-39.89h23.19v4.61ZM1526.44,521.43h9.22v-22.18h5.18v57.75h-5.18v-30.96h-9.22v-4.61ZM1548.33,497.81h5.33v62.5h-5.33v-62.5Z"/>
          <path class="cls-1" d="M1558.84,546.77h56.89v4.75h-56.89v-4.75ZM1608.67,511.92c0,9.15,0,17.64-2.59,30.39l-5.62-.58c1.44-5.98,2.09-11.16,2.45-16.06l-38.16,2.09-.72-4.61,39.17-1.66c.07-3.24.14-6.41.14-9.58v-3.17h-37.73v-4.61h43.06v7.78Z"/>
        </g>
      </g>
      <polygon class="cls-3" points="1192 642.76 1161.85 611.15 1222.15 611.15 1192 642.76"/>
    </g>
    <g>
      <g>
        <g>
          <rect class="cls-4" x="2" y="900.3" width="2380" height="160" rx="29.29" ry="29.29"/>
          <g>
            <path class="cls-3" d="M26,900.87h336.12v160H26c-13.25,0-24-10.75-24-24v-112c0-13.25,10.75-24,24-24Z"/>
            <g>
              <g class="cls-5">
                <path class="cls-2" d="M95.14,963.45c-4.66-.05-7.87,2.54-7.87,6.14s3.5,5.14,6.72,6.05l3.55.96c4.22,1.2,9.26,3.46,9.31,9.22-.05,5.42-4.46,9.6-11.91,9.6-7.01,0-11.42-3.7-11.81-9.12h3.46c.29,3.94,3.89,6.1,8.35,6.05,4.99.05,8.64-2.64,8.64-6.62,0-3.41-2.93-4.94-7.01-6.14l-4.13-1.15c-5.28-1.58-8.4-4.32-8.45-8.74.05-5.52,4.9-9.26,11.23-9.31,6.38.05,10.9,3.84,11.14,9.03h-3.26c-.34-3.7-3.55-6-7.97-5.95Z"/>
                <path class="cls-2" d="M122.98,972.09h-5.28v15.94c-.05,3.22,1.78,4.13,3.75,4.13.58,0,1.54-.05,2.11-.1v2.98c-.58.1-1.34.19-2.4.19-3.36,0-6.67-2.16-6.72-6.43v-16.71h-3.74v-2.69h3.74v-6.14h3.26v6.14h5.28v2.69Z"/>
                <path class="cls-2" d="M127.2,982.27c.05-7.73,4.61-13.25,11.23-13.25,5.57,0,10.85,3.94,10.85,12.58v1.54h-18.82c.14,5.71,3.41,9.36,8.45,9.41,3.5-.05,5.57-1.82,6.43-3.46h3.46c-1.15,3.5-4.75,6.29-9.89,6.34-7.2-.05-11.67-5.42-11.71-13.15ZM146.02,980.35c.05-4.8-3.07-8.45-7.49-8.45s-7.82,3.84-8.06,8.45h15.55Z"/>
                <path class="cls-2" d="M154.95,969.41h3.07v4.7h.38c1.01-2.16,3.02-5.09,7.68-5.09,6.34,0,10.56,5.23,10.56,13.15s-4.27,13.2-10.46,13.25c-4.66-.05-6.77-2.98-7.78-5.18h-.29v14.11h-3.17v-34.95ZM165.7,992.45c5.04.05,7.78-4.46,7.78-10.27s-2.69-10.23-7.78-10.27c-4.9.05-7.63,4.22-7.58,10.27-.05,6,2.74,10.32,7.58,10.27Z"/>
              </g>
              <g>
                <path class="cls-2" d="M209.18,978.21c0-16.63,7.78-26.14,20.45-26.07,12.67-.07,20.45,9.51,20.45,26.07s-7.71,26.21-20.45,26.21-20.45-9.5-20.45-26.21ZM229.63,995.63c5.91,0,9.72-5.62,9.65-17.43,0-11.59-3.74-17.42-9.65-17.42s-9.65,5.83-9.65,17.42c-.07,11.81,3.74,17.43,9.65,17.43Z"/>
                <path class="cls-2" d="M253.96,989.44h10.22c.22,3.89,3.89,6.62,8.35,6.62,5.26,0,9-3.74,8.93-9.07.07-5.33-3.74-9.14-9.07-9.07-3.89-.07-6.55,1.37-8.07,4.18h-9.5l2.74-29.38h31.25v8.79h-22.61l-1.3,12.82h.29c1.94-2.52,5.76-4.32,10.22-4.32,9.36,0,16.35,6.98,16.27,16.71.07,10.37-7.78,17.71-19.15,17.71-10.66,0-18.43-6.26-18.58-14.98Z"/>
              </g>
            </g>
          </g>
        </g>
        <g>
          <path class="cls-1" d="M858.14,993.47h-28.8v-40.18h28.8v40.18ZM852.67,989.01v-31.39h-18v31.39h18ZM869.52,946.96h5.62v24.91h10.37v4.75h-10.37v32.84h-5.62v-62.5Z"/>
          <path class="cls-1" d="M903.64,951.71c9.22.07,15.91,8.5,15.99,21.75-.07,13.39-6.77,21.82-15.99,21.89-9.36-.07-15.99-8.5-15.99-21.89s6.62-21.67,15.99-21.75ZM903.64,990.3c6.19.07,10.51-6.62,10.51-16.85s-4.32-16.78-10.51-16.85c-6.34.07-10.66,6.77-10.66,16.85s4.32,16.92,10.66,16.85ZM936.77,1009.46h-5.47v-62.5h5.47v62.5Z"/>
          <path class="cls-1" d="M943.96,995.92h56.88v4.75h-56.88v-4.75ZM993.79,961.07c0,9.14,0,17.64-2.59,30.39l-5.62-.58c1.44-5.98,2.09-11.16,2.45-16.06l-38.16,2.09-.72-4.61,39.17-1.66c.07-3.24.14-6.41.14-9.58v-3.17h-37.73v-4.61h43.06v7.78Z"/>
          <path class="cls-1" d="M1059.74,1001.68h-57.17v-4.75h25.63v-11.67h-18.58v-19.3h37.44v-9.79h-37.59v-4.61h43.06v18.87h-37.44v10.23h38.88v4.61h-20.31v11.67h26.07v4.75Z"/>
          <path class="cls-1" d="M1105.46,960.93h16.35v-13.97h5.47v62.5h-5.47v-24.2h-15.99c-2.59,6.34-7.49,10.01-13.54,10.08-9.22-.07-15.7-8.5-15.55-21.89-.14-13.25,6.34-21.67,15.55-21.75,5.83.07,10.51,3.38,13.18,9.22ZM1092.28,990.3c6.19.07,10.44-6.62,10.37-16.85.07-10.08-4.18-16.78-10.37-16.85-6.12.07-10.37,6.77-10.37,16.85s4.25,16.92,10.37,16.85ZM1107.98,973.46c0,2.59-.29,4.97-.72,7.2h14.54v-15.12h-14.76c.58,2.38.94,5.04.94,7.92Z"/>
          <path class="cls-1" d="M1147,990.81v-19.08h5.47v18.94c6.91-.29,13.97-.72,20.45-1.51l.29,4.18c-13.1,2.09-27.87,2.38-39.03,2.3l-.72-4.61c4.1,0,8.71-.07,13.54-.22ZM1168.75,957.04c0,4.97,0,13.25-1.73,24.77l-5.62-.43c1.73-10.44,1.87-18,1.87-23.04h-26.21v-4.46h31.68v3.17ZM1176.81,946.96h5.62v26.07h10.08v4.75h-10.08v31.68h-5.62v-62.5Z"/>
          <path class="cls-1" d="M1201.86,972.52v-16.92h-6.34v-4.46h33.84v4.46h-6.34v16.06c3.24-.29,6.48-.58,9.5-.94l.14,4.03c-12.46,1.87-27.15,2.38-38.16,2.3l-.72-4.46,8.06-.07ZM1203.45,982.38h40.9v14.83h-35.28v6.91h37.73v4.61h-43.06v-15.55h35.14v-6.34h-35.43v-4.46ZM1217.71,971.94v-16.35h-10.51v16.78c3.46-.07,6.99-.22,10.51-.43ZM1244.35,979.36h-5.47v-32.4h5.47v32.4Z"/>
          <path class="cls-1" d="M1254.28,952.57h29.09v4.61h-23.62v13.11h20.88v4.46h-20.88v15.12c11.45-.07,18.87-.36,27.51-1.87l.58,4.46c-9.07,1.51-16.78,1.94-28.8,2.02h-4.75v-41.91ZM1303.1,1009.46h-5.47v-34.42h-13.11v-4.46h13.11v-23.62h5.47v62.5Z"/>
          <path class="cls-1" d="M1324.41,976.05h23.62v-12.1h5.33v12.1h27.94v4.46h-56.89v-4.46ZM1374.53,997.94c0,7.13-8.5,11.3-21.89,11.38-13.39-.07-21.89-4.25-21.89-11.38s8.5-11.52,21.89-11.52,21.89,4.18,21.89,11.52ZM1331.18,950.13h42.92v5.33c-.07,4.97-.07,10.08-1.87,16.56l-5.33-.58c1.66-6.55,1.66-11.16,1.73-15.99v-.86h-37.44v-4.46ZM1352.63,1004.85c9.94.07,16.35-2.66,16.42-6.91-.07-4.54-6.48-7.27-16.42-7.34-10.01.07-16.42,2.81-16.42,7.34,0,4.25,6.41,6.98,16.42,6.91Z"/>
          <path class="cls-1" d="M1416.86,964.53c0,8.57-6.77,14.47-16.27,14.4-9.5.07-16.42-5.83-16.27-14.4-.14-8.57,6.77-14.4,16.27-14.4s16.27,5.83,16.27,14.4ZM1400.59,974.32c6.34-.07,10.94-4.1,10.94-9.79s-4.61-9.79-10.94-9.79-11.02,4.03-10.95,9.79c-.07,5.69,4.54,9.72,10.95,9.79ZM1392.23,983.82h5.47v7.78h28.66v-7.78h5.47v24.77h-39.6v-24.77ZM1426.36,1003.99v-8.07h-28.66v8.07h28.66ZM1426.36,946.96h5.47v14.26h9.36v4.61h-9.36v14.83h-5.47v-33.7Z"/>
          <path class="cls-1" d="M1457.75,958.33v-2.3h-14.11v-4.61h33.7v4.61h-13.97v2.3c-.07,8.14,6.19,15.91,15.41,19.01l-2.88,4.46c-7.06-2.52-12.53-7.78-15.27-14.19-2.74,7.34-8.5,13.1-15.99,15.91l-2.88-4.32c9.36-3.38,15.99-11.88,15.99-20.88ZM1472.59,986.13c13.03,0,21.03,4.25,21.03,11.66s-7.99,11.52-21.03,11.52-20.95-4.25-20.88-11.52c-.07-7.42,7.92-11.66,20.88-11.66ZM1472.59,1004.99c9.58,0,15.55-2.74,15.55-7.2s-5.98-7.34-15.55-7.34-15.48,2.74-15.41,7.34c-.07,4.46,5.9,7.2,15.41,7.2ZM1493.32,984.11h-5.47v-16.27h-12.67v-4.61h12.67v-16.27h5.47v37.15Z"/>
          <path class="cls-1" d="M1513.19,964.67v-5.76h-12.1v-4.61h28.8v4.61h-11.38v5.76c0,10.87,4.9,21.67,13.54,26.64l-3.46,4.03c-6.12-3.6-10.44-10.3-12.67-18.29-2.23,8.57-6.77,15.91-12.96,19.87l-3.6-4.18c8.78-5.18,13.83-16.63,13.83-28.08ZM1525.15,969.42h10.66v-21.03h5.18v57.75h-5.18v-32.12h-10.66v-4.61ZM1553.52,1009.46h-5.18v-62.5h5.18v62.5Z"/>
        </g>
      </g>
      <polygon class="cls-3" points="1192 1091.91 1161.85 1060.3 1222.15 1060.3 1192 1091.91"/>
    </g>
    <g>
      <g>
        <rect class="cls-4" x="2" y="1349.45" width="2380" height="160" rx="29.29" ry="29.29"/>
        <g>
          <path class="cls-3" d="M26,1350.02h336.12v160H26c-13.25,0-24-10.75-24-24v-112c0-13.25,10.75-24,24-24Z"/>
          <g>
            <g class="cls-5">
              <path class="cls-2" d="M95.14,1412.6c-4.66-.05-7.87,2.54-7.87,6.14s3.5,5.14,6.72,6.05l3.55.96c4.22,1.2,9.26,3.46,9.31,9.22-.05,5.42-4.46,9.6-11.91,9.6-7.01,0-11.42-3.7-11.81-9.12h3.46c.29,3.94,3.89,6.1,8.35,6.05,4.99.05,8.64-2.64,8.64-6.62,0-3.41-2.93-4.95-7.01-6.14l-4.13-1.15c-5.28-1.58-8.4-4.32-8.45-8.74.05-5.52,4.9-9.27,11.23-9.31,6.38.05,10.9,3.84,11.14,9.02h-3.26c-.34-3.7-3.55-6-7.97-5.95Z"/>
              <path class="cls-2" d="M122.98,1421.24h-5.28v15.94c-.05,3.22,1.78,4.13,3.75,4.13.58,0,1.54-.05,2.11-.1v2.98c-.58.1-1.34.19-2.4.19-3.36,0-6.67-2.16-6.72-6.43v-16.71h-3.74v-2.69h3.74v-6.14h3.26v6.14h5.28v2.69Z"/>
              <path class="cls-2" d="M127.2,1431.42c.05-7.73,4.61-13.25,11.23-13.25,5.57,0,10.85,3.94,10.85,12.58v1.54h-18.82c.14,5.71,3.41,9.36,8.45,9.41,3.5-.05,5.57-1.82,6.43-3.46h3.46c-1.15,3.5-4.75,6.29-9.89,6.34-7.2-.05-11.67-5.43-11.71-13.15ZM146.02,1429.5c.05-4.8-3.07-8.45-7.49-8.45s-7.82,3.84-8.06,8.45h15.55Z"/>
              <path class="cls-2" d="M154.95,1418.55h3.07v4.71h.38c1.01-2.16,3.02-5.09,7.68-5.09,6.34,0,10.56,5.23,10.56,13.15s-4.27,13.2-10.46,13.25c-4.66-.05-6.77-2.98-7.78-5.19h-.29v14.11h-3.17v-34.95ZM165.7,1441.6c5.04.05,7.78-4.46,7.78-10.27s-2.69-10.22-7.78-10.27c-4.9.05-7.63,4.22-7.58,10.27-.05,6,2.74,10.32,7.58,10.27Z"/>
            </g>
            <g>
              <path class="cls-2" d="M209.18,1427.36c0-16.63,7.78-26.14,20.45-26.07,12.67-.07,20.45,9.5,20.45,26.07s-7.71,26.21-20.45,26.21-20.45-9.5-20.45-26.21ZM229.63,1444.78c5.91,0,9.72-5.62,9.65-17.43,0-11.59-3.74-17.43-9.65-17.43s-9.65,5.83-9.65,17.43c-.07,11.81,3.74,17.43,9.65,17.43Z"/>
              <path class="cls-2" d="M275.78,1410.94v-.29h-24.91v-8.79h36v8.93l-21.6,42.05h-10.95l21.46-41.91Z"/>
            </g>
          </g>
        </g>
      </g>
      <g>
        <path class="cls-1" d="M884.78,1433.26l-4.03-6.34c6.99-2.59,11.81-5.83,14.98-9.72l-13.39,1.37-1.15-7.06,18.22-1.08c.43-1.37.72-2.74.94-4.25h-16.42v-7.2h25.35c0,16.35-6.84,27.51-24.48,34.28ZM892.12,1433.41h9.07v5.47h25.78v-5.47h8.93v25.2h-43.78v-25.2ZM926.97,1451.55v-5.76h-25.78v5.76h25.78ZM913.15,1396.54h8.5v13.11h5.76v-14.26h8.5v35.43h-8.5v-13.83h-5.76v13.25h-8.5v-33.7Z"/>
        <path class="cls-1" d="M939.5,1420.01h58.47v7.06h-14.11v4.75h6.91v16.42h-35.71v3.89h37.44v6.77h-46.23v-16.99h35.72v-3.46h-35.72v-6.62h7.06v-4.75h-13.83v-7.06ZM995.09,1410.65l-3.02,6.77c-11.09-1.22-19.23-5.33-23.4-11.09-4.1,5.76-12.24,9.86-23.26,11.09l-3.02-6.77c14.33-1.3,21.67-7.63,21.75-13.68v-1.3h9.22v1.3c0,6.05,7.27,12.38,21.75,13.68ZM974.92,1431.82v-4.75h-12.53v4.75h12.53Z"/>
        <path class="cls-1" d="M1069.53,1433.12h-24.91v4.61c11.3.72,17.79,4.46,17.86,10.66-.07,7.13-8.28,10.95-22.32,10.95s-22.39-3.82-22.32-10.95c-.07-6.19,6.55-9.94,17.86-10.66v-4.61h-24.63v-7.06h58.47v7.06ZM1034.97,1408.06h-18.29v-7.06h19.01v-5.47h8.93v5.47h19.15v7.06h-18.29c1.3,4.46,7.92,8.35,21.31,9.22l-2.59,6.77c-11.81-.86-20.02-4.25-24.05-9.43-3.96,5.18-12.17,8.57-23.91,9.43l-2.74-6.77c13.47-.86,20.02-4.75,21.46-9.22ZM1040.15,1452.7c8.79,0,13.32-1.37,13.39-4.32-.07-2.88-4.61-4.18-13.39-4.18s-13.32,1.3-13.25,4.18c-.07,2.95,4.32,4.32,13.25,4.32Z"/>
        <path class="cls-1" d="M1109.85,1426.64l-4.46,6.91c-7.2-2.23-12.24-6.84-15.12-12.6-2.95,6.34-8.14,11.38-15.7,13.9l-4.61-7.06c10.66-3.38,15.55-11.74,15.55-19.87v-.86h-13.25v-7.2h35.28v7.2h-12.96v.86c.07,7.71,4.82,15.48,15.27,18.72ZM1080.33,1437.44h9.07v13.54h35.57v7.2h-44.64v-20.74ZM1114.32,1395.39h8.93v46.23h-8.93v-46.23Z"/>
        <path class="cls-1" d="M1141.96,1439.31c0-5.83,3.74-9.43,9.36-13.32-2.74-3.46-4.9-7.2-4.9-11.74,0-7.34,5.47-12.96,13.83-12.96s13.18,5.47,13.25,11.95c-.07,4.75-2.52,8.64-6.77,11.67l-3.1,2.23,8.57,9.79c1.37-2.52,2.16-5.47,2.16-8.86h8.64c0,6.91-1.8,12.24-4.61,15.98l7.63,8.79h-10.95l-3.1-3.46c-3.67,2.95-8.5,4.18-13.03,4.18-10.51,0-16.99-6.19-16.99-14.26ZM1159.53,1445.22c2.3,0,4.75-.72,6.91-2.09l-9.79-10.95-.29.22c-2.95,2.16-4.25,4.39-4.32,6.34.07,3.67,2.95,6.48,7.49,6.48ZM1158.59,1421.17l2.66-1.73c2.59-1.66,3.82-3.46,3.75-5.62.07-2.09-1.66-4.18-4.75-4.18-2.88,0-4.9,2.23-4.9,4.75,0,2.16,1.37,4.32,3.24,6.77Z"/>
        <path class="cls-1" d="M1232.68,1410.94c-.07,6.27-4.68,11.02-11.52,12.46v4.68c5.04-.29,10.01-.72,14.69-1.44l.72,6.62c-13.18,2.3-27.79,2.59-38.6,2.59l-.86-7.06c4.46,0,9.58-.07,14.98-.29v-5.04c-6.98-1.44-11.67-6.19-11.67-12.53,0-7.7,6.7-12.96,16.13-12.96s16.06,5.26,16.13,12.96ZM1205.61,1439.89h8.93v11.09h36.15v7.2h-45.08v-18.29ZM1216.55,1417.13c4.61,0,7.63-2.3,7.63-6.19s-3.02-6.19-7.63-6.19-7.85,2.16-7.78,6.19c-.07,3.89,3.24,6.19,7.78,6.19ZM1239.45,1395.39h8.93v20.16h8.21v7.49h-8.21v21.17h-8.93v-48.82Z"/>
        <path class="cls-1" d="M1267.53,1412.52v-3.46h-10.51v-7.2h28.8v7.2h-9.65v3.46c-.07,10.58,3.31,21.31,12.67,26.64l-5.33,6.62c-5.76-3.38-9.43-9.07-11.59-15.91-2.23,7.42-6.05,13.75-11.88,17.35l-5.47-6.62c9.43-5.76,12.96-17.28,12.96-28.08ZM1281.35,1417.28h8.35v-20.88h8.35v59.91h-8.35v-31.83h-8.35v-7.2ZM1311.16,1459.33h-8.5v-64.09h8.5v64.09Z"/>
        <path class="cls-1" d="M1372.94,1432.4h-24.91v5.47h17.86v20.74h-44.64v-20.74h17.86v-5.47h-24.63v-7.06h58.47v7.06ZM1319.66,1397.12h47.96v7.2h-8.35v9.65h7.92v7.2h-47.09v-7.2h7.78v-9.65h-8.21v-7.2ZM1357.1,1451.41v-6.62h-26.93v6.62h26.93ZM1350.33,1413.97v-9.65h-13.39v9.65h13.39Z"/>
        <path class="cls-1" d="M1444.36,1429.09h-24.77v4.03h17.71v15.7h-35.71v3.46h37.44v6.62h-46.23v-16.13h35.71v-3.17h-35.71v-6.48h18v-4.03h-24.63v-6.48h58.18v6.48ZM1409.66,1406.91h-18v-6.62h19.01v-5.04h8.93v5.04h19.15v6.62h-18.07c1.8,3.74,8.35,6.84,21.24,7.34l-2.59,6.62c-11.81-.65-20.09-3.67-24.12-8.42-4.03,4.75-12.31,7.78-24.27,8.42l-2.45-6.62c12.82-.5,19.3-3.6,21.17-7.34Z"/>
        <path class="cls-1" d="M1444.65,1444.21h20.88v-22.03h8.93v22.03h28.66v7.34h-58.47v-7.34ZM1497.36,1406.91c0,7.99,0,16.99-2.45,30.67l-9.07-1.01c2.38-12.03,2.52-20.95,2.59-28.51h-37.73v-7.2h46.66v6.05Z"/>
      </g>
    </g>
    <g>
      <g>
        <g>
          <rect class="cls-4" x="2" y="1124.87" width="2380" height="160" rx="29.29" ry="29.29"/>
          <g>
            <path class="cls-3" d="M26,1125.45h336.12v160H26c-13.25,0-24-10.75-24-24v-112c0-13.25,10.75-24,24-24Z"/>
            <g>
              <g class="cls-5">
                <path class="cls-2" d="M95.14,1188.03c-4.66-.05-7.87,2.54-7.87,6.14s3.5,5.14,6.72,6.05l3.55.96c4.22,1.2,9.26,3.46,9.31,9.22-.05,5.42-4.46,9.6-11.91,9.6-7.01,0-11.42-3.7-11.81-9.12h3.46c.29,3.94,3.89,6.1,8.35,6.05,4.99.05,8.64-2.64,8.64-6.62,0-3.41-2.93-4.95-7.01-6.14l-4.13-1.15c-5.28-1.58-8.4-4.32-8.45-8.74.05-5.52,4.9-9.26,11.23-9.31,6.38.05,10.9,3.84,11.14,9.02h-3.26c-.34-3.7-3.55-6-7.97-5.95Z"/>
                <path class="cls-2" d="M122.98,1196.67h-5.28v15.94c-.05,3.22,1.78,4.13,3.75,4.13.58,0,1.54-.05,2.11-.1v2.98c-.58.1-1.34.19-2.4.19-3.36,0-6.67-2.16-6.72-6.43v-16.71h-3.74v-2.69h3.74v-6.14h3.26v6.14h5.28v2.69Z"/>
                <path class="cls-2" d="M127.2,1206.85c.05-7.73,4.61-13.25,11.23-13.25,5.57,0,10.85,3.94,10.85,12.58v1.54h-18.82c.14,5.71,3.41,9.36,8.45,9.41,3.5-.05,5.57-1.82,6.43-3.46h3.46c-1.15,3.5-4.75,6.29-9.89,6.34-7.2-.05-11.67-5.42-11.71-13.15ZM146.02,1204.93c.05-4.8-3.07-8.45-7.49-8.45s-7.82,3.84-8.06,8.45h15.55Z"/>
                <path class="cls-2" d="M154.95,1193.98h3.07v4.71h.38c1.01-2.16,3.02-5.09,7.68-5.09,6.34,0,10.56,5.23,10.56,13.15s-4.27,13.2-10.46,13.25c-4.66-.05-6.77-2.98-7.78-5.18h-.29v14.11h-3.17v-34.95ZM165.7,1217.02c5.04.05,7.78-4.46,7.78-10.27s-2.69-10.22-7.78-10.27c-4.9.05-7.63,4.22-7.58,10.27-.05,6,2.74,10.32,7.58,10.27Z"/>
              </g>
              <g>
                <path class="cls-2" d="M209.18,1202.78c0-16.63,7.78-26.14,20.45-26.07,12.67-.07,20.45,9.5,20.45,26.07s-7.71,26.21-20.45,26.21-20.45-9.5-20.45-26.21ZM229.63,1220.21c5.91,0,9.72-5.62,9.65-17.43,0-11.59-3.74-17.43-9.65-17.43s-9.65,5.83-9.65,17.43c-.07,11.81,3.74,17.43,9.65,17.43Z"/>
                <path class="cls-2" d="M252.95,1203.94c0-17.07,8.21-27.29,20.88-27.22,10.3-.07,17.35,6.41,18.43,14.83h-10.51c-.79-3.6-3.74-5.83-7.92-5.76-6.84-.07-10.51,6.19-10.51,16.13h.43c2.38-4.46,7.42-7.13,13.11-7.2,9.07.07,15.91,6.98,15.84,16.56.07,10.3-7.71,17.71-19.15,17.71-10.58-.07-20.59-6.34-20.59-25.06ZM273.4,1220.64c5.26,0,9.07-3.96,9.07-9.07s-3.74-9.07-8.93-9.07-9.14,4.11-9.22,9.07c.07,4.97,3.89,9.07,9.07,9.07Z"/>
              </g>
            </g>
          </g>
        </g>
        <g>
          <path class="cls-1" d="M781.14,1179.02c0,4.68,0,10.3-1.66,17.86h9.14v4.46h-26.07v11.52h19.01v21.17h-5.62v-16.56h-38.6v-4.61h19.73v-11.52h-25.63v-4.46h42.56c1.66-7.63,1.66-13.18,1.66-17.86h-37.01v-4.46h42.48v4.46Z"/>
          <path class="cls-1" d="M803.02,1189.25v-5.76h-12.1v-4.61h28.8v4.61h-11.38v5.76c0,10.87,4.9,21.67,13.54,26.64l-3.46,4.03c-6.12-3.6-10.44-10.3-12.67-18.29-2.23,8.57-6.77,15.91-12.96,19.87l-3.6-4.18c8.79-5.18,13.83-16.63,13.83-28.08ZM814.98,1194h10.66v-21.03h5.18v57.75h-5.18v-32.11h-10.66v-4.61ZM843.35,1234.03h-5.18v-62.5h5.18v62.5Z"/>
          <path class="cls-1" d="M866.53,1175.85c9.29.07,16.27,6.34,16.27,15.41s-6.98,15.41-16.27,15.27c-9.43.14-16.49-6.19-16.42-15.27-.07-9.07,6.99-15.34,16.42-15.41ZM866.53,1201.78c6.12,0,10.94-4.32,10.94-10.51s-4.82-10.51-10.94-10.51-11.09,4.39-11.09,10.51,4.68,10.51,11.09,10.51ZM859.9,1212.58h5.47v15.41h36.87v4.61h-42.34v-20.02ZM900.23,1217.18h-5.47v-45.65h5.47v45.65Z"/>
          <path class="cls-1" d="M964.16,1205.81h-56.88v-4.61h56.88v4.61ZM932.19,1179.31h-19.73v-4.61h46.66v4.61h-19.87c.29,7.06,10.66,12.46,21.75,13.83l-2.02,4.32c-10.22-1.3-19.8-5.83-23.26-12.75-3.46,6.91-13.03,11.45-23.26,12.75l-2.02-4.32c10.87-1.37,21.39-6.77,21.75-13.83ZM935.65,1211.28c13.46,0,21.53,4.1,21.6,11.38-.07,7.13-8.14,11.16-21.6,11.23-13.47-.07-21.53-4.1-21.6-11.23.07-7.27,8.14-11.38,21.6-11.38ZM935.65,1229.43c9.94,0,15.99-2.52,15.99-6.77,0-4.46-6.05-6.98-15.99-7.06-10.01.07-15.99,2.59-15.99,7.06s5.98,6.77,15.99,6.77Z"/>
          <path class="cls-1" d="M1012.83,1200.91h-29.38v-25.35h29.38v25.35ZM1009.09,1215.89h-18.43v-4.18h18.58v-6.19h5.47v6.19h18.72v4.18h-18.58c-.07,6.19,10.01,12.24,20.74,13.54l-2.02,4.32c-9.29-1.3-17.86-5.69-21.6-11.52-3.74,5.9-12.53,10.22-21.89,11.52l-2.02-4.32c10.73-1.15,21.03-7.2,21.03-13.54ZM1007.36,1196.59v-16.56h-18.43v16.56h18.43ZM1026.37,1171.53h5.33v35.86h-5.33v-35.86Z"/>
          <path class="cls-1" d="M1056.32,1177.29h6.34v22.75h26.93v-22.75h6.34v50.98h-6.34v-22.75h-26.93v22.75h-6.34v-50.98Z"/>
          <path class="cls-1" d="M1099.23,1228.27l18.58-50.98h6.62l18.72,50.98h-6.62l-5.04-14.26h-20.59l-5.04,14.26h-6.62ZM1129.47,1208.4l-8.06-22.9h-.43l-8.07,22.9h16.56Z"/>
          <path class="cls-1" d="M1164.68,1182.62c-9.29-.07-16.42,7.06-16.42,20.16s7.13,20.23,16.42,20.3c6.62-.07,12.6-3.82,14.11-10.8h6.34c-1.8,10.44-10.15,16.71-20.45,16.71-13.11,0-22.61-10.08-22.61-26.21s9.5-26.14,22.61-26.07c10.22-.07,18.58,6.12,20.45,16.71h-6.34c-1.44-7.06-7.49-10.87-14.11-10.8Z"/>
          <path class="cls-1" d="M1211.05,1182.62c-9.29-.07-16.42,7.06-16.42,20.16s7.13,20.23,16.42,20.3c6.62-.07,12.6-3.82,14.11-10.8h6.34c-1.8,10.44-10.15,16.71-20.45,16.71-13.1,0-22.61-10.08-22.61-26.21s9.5-26.14,22.61-26.07c10.23-.07,18.58,6.12,20.45,16.71h-6.34c-1.44-7.06-7.49-10.87-14.11-10.8Z"/>
          <path class="cls-1" d="M1236.82,1177.29h17.28c11.95.07,17.35,7.2,17.42,16.27-.07,9-5.47,16.2-17.28,16.27h-11.09v18.43h-6.34v-50.98ZM1253.96,1204.22c8.06-.07,11.23-4.61,11.23-10.66s-3.17-10.59-11.38-10.66h-10.66v21.31h10.8Z"/>
          <path class="cls-1" d="M1330.57,1206.24h-25.78v7.34h18.87v19.59h-43.06v-19.59h18.72v-7.34h-25.63v-4.46h56.89v4.46ZM1279.01,1173.55h46.08v4.46h-9.5v13.25h9.36v4.61h-45.8v-4.61h9.5v-13.25h-9.65v-4.46ZM1318.18,1228.56v-10.51h-32.11v10.51h32.11ZM1309.97,1191.26v-13.25h-15.84v13.25h15.84Z"/>
          <path class="cls-1" d="M1349.14,1180.32v-.72h-14.54v-4.46h34.56v4.46h-14.4v.72c0,8.14,6.7,15.27,16.13,18l-2.74,4.32c-7.42-2.3-13.32-7.27-16.13-13.68-2.67,7.06-8.64,12.46-16.27,14.98l-2.59-4.32c9.29-3.1,15.99-10.73,15.99-19.3ZM1343.24,1206.96h40.61v14.83h-35.14v7.06h37.44v4.46h-42.77v-15.55h34.99v-6.48h-35.14v-4.32ZM1383.7,1203.94h-5.33v-32.4h5.33v32.4Z"/>
          <path class="cls-1" d="M1454.26,1180.32c.07,5.62.07,12.6-1.73,22.47h9.65v4.61h-15.12v26.5h-5.47v-26.5h-15.99v26.5h-5.47v-26.5h-14.83v-4.61h41.69c1.94-9.87,1.94-16.92,1.94-22.47v-.14h-36.43v-4.61h41.76v4.75Z"/>
          <path class="cls-1" d="M1496.02,1182.77h14.11v-11.23h5.47v37.3h-5.47v-8.35h-16.56v-4.61h16.56v-8.64h-15.55c-4.25,9.86-14.04,16.99-27.65,20.74l-2.02-4.46c15.19-4.18,24.91-12.6,25.99-23.33h-22.83v-4.46h28.8c0,2.45-.29,4.82-.86,7.06ZM1473.56,1211.57h42.05v22.32h-5.47v-17.86h-36.58v-4.46Z"/>
          <path class="cls-1" d="M1593.8,1209.12h-57.03v-4.46h25.78v-6.19h-18.15v-25.2h42.34v4.46h-36.87v5.9h35.14v4.18h-35.14v6.19h37.16v4.46h-19.01v6.19h25.78v4.46ZM1565.28,1213.87c13.75-.07,21.53,3.46,21.6,9.94-.07,6.62-7.85,10.01-21.6,10.08-13.83-.07-21.53-3.46-21.6-10.08.07-6.48,7.78-10.01,21.6-9.94ZM1565.28,1229.57c10.3.07,15.99-1.94,15.99-5.76s-5.69-5.76-15.99-5.76-16.06,2.09-15.99,5.76c-.07,3.82,5.69,5.83,15.99,5.76Z"/>
          <path class="cls-1" d="M1608.34,1215.38v-19.08h5.47v18.94c6.91-.29,13.97-.72,20.45-1.51l.29,4.18c-13.1,2.09-27.87,2.38-39.03,2.3l-.72-4.61c4.1,0,8.71-.07,13.54-.22ZM1630.09,1181.61c0,4.97,0,13.25-1.73,24.77l-5.62-.43c1.73-10.44,1.87-18,1.87-23.04h-26.21v-4.46h31.68v3.17ZM1638.15,1171.53h5.62v26.07h10.08v4.75h-10.08v31.68h-5.62v-62.5Z"/>
        </g>
      </g>
      <polygon class="cls-3" points="1192 1316.48 1161.85 1284.87 1222.15 1284.87 1192 1316.48"/>
    </g>
    <g>
      <g>
        <g>
          <rect class="cls-4" x="2" y="675.72" width="2380" height="160" rx="29.29" ry="29.29"/>
          <g>
            <path class="cls-3" d="M26,676.3h336.12v160H26c-13.25,0-24-10.75-24-24v-112c0-13.25,10.75-24,24-24Z"/>
            <g>
              <g class="cls-5">
                <path class="cls-2" d="M95.14,738.88c-4.66-.05-7.87,2.54-7.87,6.14s3.5,5.14,6.72,6.05l3.55.96c4.22,1.2,9.26,3.46,9.31,9.22-.05,5.43-4.46,9.6-11.91,9.6-7.01,0-11.42-3.7-11.81-9.12h3.46c.29,3.94,3.89,6.1,8.35,6.05,4.99.05,8.64-2.64,8.64-6.62,0-3.41-2.93-4.94-7.01-6.14l-4.13-1.15c-5.28-1.58-8.4-4.32-8.45-8.74.05-5.52,4.9-9.26,11.23-9.31,6.38.05,10.9,3.84,11.14,9.02h-3.26c-.34-3.7-3.55-6-7.97-5.95Z"/>
                <path class="cls-2" d="M122.98,747.52h-5.28v15.94c-.05,3.22,1.78,4.13,3.75,4.13.58,0,1.54-.05,2.11-.1v2.98c-.58.1-1.34.19-2.4.19-3.36,0-6.67-2.16-6.72-6.43v-16.71h-3.74v-2.69h3.74v-6.14h3.26v6.14h5.28v2.69Z"/>
                <path class="cls-2" d="M127.2,757.7c.05-7.73,4.61-13.25,11.23-13.25,5.57,0,10.85,3.94,10.85,12.58v1.54h-18.82c.14,5.71,3.41,9.36,8.45,9.41,3.5-.05,5.57-1.82,6.43-3.46h3.46c-1.15,3.5-4.75,6.29-9.89,6.34-7.2-.05-11.67-5.42-11.71-13.15ZM146.02,755.78c.05-4.8-3.07-8.45-7.49-8.45s-7.82,3.84-8.06,8.45h15.55Z"/>
                <path class="cls-2" d="M154.95,744.83h3.07v4.7h.38c1.01-2.16,3.02-5.09,7.68-5.09,6.34,0,10.56,5.23,10.56,13.15s-4.27,13.2-10.46,13.25c-4.66-.05-6.77-2.98-7.78-5.18h-.29v14.11h-3.17v-34.95ZM165.7,767.87c5.04.05,7.78-4.46,7.78-10.27s-2.69-10.23-7.78-10.27c-4.9.05-7.63,4.22-7.58,10.27-.05,6,2.74,10.32,7.58,10.27Z"/>
              </g>
              <g>
                <path class="cls-2" d="M209.18,753.63c0-16.63,7.78-26.14,20.45-26.07,12.67-.07,20.45,9.51,20.45,26.07s-7.71,26.21-20.45,26.21-20.45-9.5-20.45-26.21ZM229.63,771.06c5.91,0,9.72-5.62,9.65-17.43,0-11.59-3.74-17.42-9.65-17.42s-9.65,5.83-9.65,17.42c-.07,11.81,3.74,17.43,9.65,17.43Z"/>
                <path class="cls-2" d="M252.95,761.7l21.6-33.56h13.25v33.41h6.34v8.5h-6.34v9.07h-10.08v-9.07h-24.77v-8.35ZM277.87,761.55v-21.75h-.58l-13.68,21.46v.29h14.26Z"/>
              </g>
            </g>
          </g>
        </g>
        <g>
          <path class="cls-1" d="M920.13,759.83h-57.03v-4.46h57.03v4.46ZM869.44,765.88h43.35v19.01h-5.62v-14.4h-37.73v-4.61ZM870.74,723.97h42.34v4.46h-36.87v5.9h35.14v4.32h-35.14v6.34h37.16v4.46h-42.63v-25.49Z"/>
          <path class="cls-1" d="M959.01,736.93h-37.16v-4.61h15.7v-9.22h5.62v9.22h15.84v4.61ZM940.43,742.11c8.5,0,14.62,5.98,14.69,14.4-.07,8.28-6.19,14.33-14.69,14.26-8.57.07-14.76-5.98-14.69-14.26-.07-8.42,6.12-14.4,14.69-14.4ZM940.43,766.02c5.47.07,9.58-3.89,9.65-9.5-.07-5.62-4.18-9.65-9.65-9.65s-9.65,4.03-9.65,9.65,4.18,9.58,9.65,9.5ZM957.72,748.59h10.37v-26.21h5.47v62.5h-5.47v-31.68h-10.37v-4.61Z"/>
          <path class="cls-1" d="M980.46,751.47h23.62v-12.1h5.33v12.1h27.94v4.46h-56.88v-4.46ZM1030.58,773.36c0,7.13-8.5,11.3-21.89,11.38-13.39-.07-21.89-4.25-21.89-11.38s8.5-11.52,21.89-11.52,21.89,4.18,21.89,11.52ZM987.23,725.55h42.92v5.33c-.07,4.97-.07,10.08-1.87,16.56l-5.33-.58c1.66-6.55,1.66-11.16,1.73-15.99v-.86h-37.44v-4.46ZM1008.69,780.28c9.94.07,16.35-2.66,16.42-6.91-.07-4.54-6.48-7.27-16.42-7.34-10.01.07-16.42,2.81-16.42,7.34,0,4.25,6.41,6.98,16.42,6.91Z"/>
          <path class="cls-1" d="M1047.71,735.2h17.43v-9.65h5.47v12.1h14.69v-15.27h5.47v34.13h-5.47v-14.11h-14.69v11.81h-28.51v-28.66h5.62v9.65ZM1065.14,749.6v-9.94h-17.43v9.94h17.43ZM1050.59,759.54h5.47v7.63h29.23v-7.63h5.47v24.34h-40.18v-24.34ZM1085.3,779.41v-7.78h-29.23v7.78h29.23Z"/>
          <path class="cls-1" d="M1112.08,749.6h23.19v-7.63h5.62v7.63h28.08v4.46h-56.88v-4.46ZM1161.91,728.14c0,4.46,0,10.23-1.44,17.71l-5.47-.29c.58-2.88.86-5.47,1.08-7.85l-38.09,1.94-.72-4.61,39.1-1.08c.07-1.94.07-3.67.07-5.26h-37.59v-4.46h43.06v3.89ZM1118.99,759.39h42.63v14.11h-37.16v6.05h39.03v4.32h-44.36v-14.4h37.16v-5.76h-37.3v-4.32Z"/>
          <path class="cls-1" d="M1170.69,771.64h57.17v4.61h-57.17v-4.61ZM1221.09,756.95h-43.2v-28.8h42.63v4.61h-37.16v19.59h37.73v4.61Z"/>
          <path class="cls-1" d="M1286.47,776.82h-57.17v-4.75h57.17v4.75ZM1234.34,728.72h46.66v4.46h-9.94v21.89h9.79v4.46h-46.37v-4.46h9.79v-21.89h-9.94v-4.46ZM1265.59,755.07v-21.89h-15.84v21.89h15.84Z"/>
          <path class="cls-1" d="M1312.24,750.9h-16.99v13.83c7.27,0,14.04-.22,22.47-1.73l.43,4.61c-9,1.58-16.13,1.8-24.05,1.87h-4.18v-23.19h16.99v-12.38h-17.14v-4.61h22.47v21.6ZM1315.27,744.85h7.92v-21.03h5.33v57.75h-5.33v-32.12h-7.92v-4.61ZM1336,722.38h5.18v62.5h-5.18v-62.5Z"/>
          <path class="cls-1" d="M1385.54,766.16l-3.31,4.46c-7.13-3.53-13.32-10.95-16.27-19.95-2.88,9.5-9.07,17.42-16.42,21.1l-3.46-4.61c9.36-4.25,17.07-16.2,17.14-28.08v-11.38h5.47v11.38c-.07,11.45,7.7,22.9,16.85,27.07ZM1392.45,722.38h5.47v62.5h-5.47v-62.5Z"/>
          <path class="cls-1" d="M1441.84,753.63l-2.59,4.32c-7.2-2.23-12.75-7.06-15.48-13.18-2.74,6.7-8.5,11.95-15.77,14.33l-2.88-4.32c9.36-2.88,15.84-10.37,15.84-18.87v-1.3h-14.11v-4.46h14.11v-8.06h5.47v8.06h13.97v4.46h-13.97v1.3c-.07,7.78,6.26,14.91,15.41,17.71ZM1413.04,763.72h40.9v21.17h-5.47v-16.56h-35.43v-4.61ZM1448.47,722.38h5.47v16.71h9.36v4.61h-9.36v16.85h-5.47v-38.16Z"/>
          <path class="cls-1" d="M1520.76,762.56h-14.98v22.32h-5.62v-22.32h-15.99v22.32h-5.76v-22.32h-14.83v-4.61h57.17v4.61ZM1492.1,724.83c13.1.07,21.96,5.33,22.03,13.68-.07,8.28-8.93,13.54-22.03,13.39-13.18.14-22.03-5.11-22.03-13.39s8.86-13.61,22.03-13.68ZM1492.1,747.59c9.72-.07,16.34-3.6,16.27-9.07.07-5.62-6.55-9.14-16.27-9.22-9.79.07-16.42,3.6-16.27,9.22-.14,5.47,6.48,9,16.27,9.07Z"/>
        </g>
      </g>
      <polygon class="cls-3" points="1192 867.33 1161.85 835.72 1222.15 835.72 1192 867.33"/>
    </g>
  </g>
</svg>