<?xml version="1.0" encoding="UTF-8"?>
<svg id="_레이어_2" data-name="레이어 2" xmlns="http://www.w3.org/2000/svg" viewBox="0 0 663.49 509.43">
  <defs>
    <style>
      .cls-1 {
        fill: #fff;
      }

      .cls-2 {
        fill: none;
        stroke: #fff;
        stroke-miterlimit: 10;
        stroke-width: 3px;
      }
    </style>
  </defs>
  <g id="_레이어_1-2" data-name="레이어 1">
    <g>
      <polygon class="cls-2" points="336.14 61.82 144.14 202 217.48 428.82 454.81 428.82 528.14 202 336.14 61.82"/>
      <circle class="cls-1" cx="336.14" cy="61.82" r="7.5"/>
      <circle class="cls-1" cx="144.14" cy="202.09" r="7.5"/>
      <circle class="cls-1" cx="525.79" cy="202.09" r="7.5"/>
      <circle class="cls-1" cx="454.81" cy="428.82" r="7.5"/>
      <circle class="cls-1" cx="218.22" cy="428.82" r="7.5"/>
      <g>
        <path class="cls-1" d="M235.77,18.05l-1.22-2.37c4.58-1.47,7.46-3.46,9.12-5.92l-8.74.74-.45-2.43,10.27-.42c.35-.96.58-1.98.67-3.04h-9.54v-2.43h12.67c-.03,7.46-3.65,12.86-12.8,15.87ZM239.35,18.69h2.94v6.34h15.74v2.37h-18.69v-8.7ZM248.44,8.77h5.89V0h2.94v20.73h-2.94v-9.54h-5.89v-2.43Z"/>
        <path class="cls-1" d="M261.75,2.62h13.44v2.43h-10.43v13.57c5.28.03,8.67-.13,12.67-.83l.26,2.43c-4.16.8-7.81.96-13.63.96h-2.3V2.62ZM283.19,28.03h-3.01V0h3.01v28.03Z"/>
        <path class="cls-1" d="M302.58,14.53l-1.66,2.3c-3.04-1.22-5.28-3.65-6.46-6.69-1.22,3.26-3.58,5.86-6.85,7.13l-1.6-2.3c4.32-1.63,6.91-5.63,6.98-9.92V1.6h2.94v3.46c-.03,4.03,2.5,7.9,6.66,9.47ZM291.06,18.75h3.01v6.27h15.93v2.37h-18.94v-8.64ZM300.98,9.66h5.44v-3.26h-5.44v-2.43h5.44V0h2.94v20.86h-2.94v-8.83h-5.44v-2.37Z"/>
        <path class="cls-1" d="M326.07,20.29v-2.85c-3.23-.42-5.34-2.34-5.31-5.09-.03-3.14,2.72-5.21,6.78-5.18,4.06-.03,6.88,2.05,6.85,5.18.03,2.72-2.08,4.64-5.31,5.09v2.72c2.59-.13,5.18-.32,7.62-.64l.26,2.24c-6.21,1.02-12.99,1.09-18.11,1.09l-.45-2.43c2.3-.03,4.96-.06,7.68-.13ZM319.03,3.33h7.04V.06h3.01v3.26h7.04v2.37h-17.09v-2.37ZM327.54,15.23c2.4.03,4.03-1.09,4.03-2.88s-1.63-2.91-4.03-2.94c-2.37.03-4.03,1.18-4.03,2.94s1.66,2.91,4.03,2.88ZM341.43,27.97h-2.94V0h2.94v27.97Z"/>
        <path class="cls-1" d="M369.84,16.7h-25.53v-2.43h11.26v-3.01h-7.94V.64h2.94v3.01h12.99V.64h2.94v10.62h-7.94v3.01h11.26v2.43ZM347.12,19.2h19.58v8.77h-3.01v-6.4h-16.57v-2.37ZM363.57,8.9v-3.01h-12.99v3.01h12.99Z"/>
        <path class="cls-1" d="M376.56,16.96h25.6v2.37h-11.39v8.7h-2.94v-8.7h-11.26v-2.37ZM399.09,8.64h-16.45v3.2h17.09v2.43h-20.09v-7.87h16.45v-2.94h-16.51V1.02h19.52v7.62Z"/>
        <path class="cls-1" d="M404.21,2.18h13.5v2.43h-10.5v3.46h9.66v2.3h-9.66v3.58c5.6.03,8.86-.06,12.67-.7l.32,2.3c-4.1.74-7.55.83-13.7.83h-2.3V2.18ZM407.54,18.94h2.94v6.08h16.19v2.37h-19.13v-8.45ZM425.84,20.8h-2.94V0h2.94v20.8Z"/>
      </g>
      <g>
        <path class="cls-1" d="M3.46,173.4h7.3v-3.9h2.94v12.42H.51v-12.42h2.94v3.9ZM2.18,184.47h9.28v6.66h-6.34v2.5c3.87-.03,5.86-.13,8.13-.64l.32,2.24c-2.66.54-4.77.64-9.6.64h-1.73v-6.91h6.34v-2.18H2.18v-2.3ZM10.75,179.54v-3.9H3.46v3.9h7.3ZM12.67,184.47h8.77v11.58h-2.94v-9.21h-5.82v-2.37ZM18.49,168.15h2.94v5.95h4.03v2.5h-4.03v6.46h-2.94v-14.91Z"/>
        <path class="cls-1" d="M25.47,189.91h9.73v-9.85h2.94v9.85h12.86v2.43h-25.53v-2.43ZM48.13,173.59c0,3.46,0,7.33-1.09,13.05l-2.94-.32c1.06-5.41,1.06-9.38,1.09-12.74v-.32h-17.02v-2.43h19.97v2.75Z"/>
        <path class="cls-1" d="M71.87,181.02l-1.54,2.3c-2.59-.99-4.42-2.88-5.44-5.18-1.02,2.59-2.94,4.86-5.63,6.02l-1.66-2.3c3.81-1.66,5.82-5.22,5.82-8.32v-3.65h2.88v3.65c0,3.07,1.95,6.14,5.57,7.49ZM72.25,185.94c5.82,0,9.5,1.89,9.47,5.06.03,3.2-3.65,5.12-9.47,5.12s-9.54-1.92-9.54-5.12,3.65-5.06,9.54-5.06ZM72.25,193.81c4.03.03,6.53-.99,6.53-2.82s-2.5-2.78-6.53-2.82c-4.1.03-6.59,1.06-6.53,2.82-.06,1.82,2.43,2.85,6.53,2.82ZM72.77,168.66h2.75v6.78h3.26v-7.29h2.82v17.28h-2.82v-7.55h-3.26v6.66h-2.75v-15.87Z"/>
        <path class="cls-1" d="M95.71,173.53h-10.27v-2.37h13.31c-.03,8.19-3.52,15.29-13.12,19.9l-1.6-2.43c7.49-3.52,11.1-8.58,11.68-15.1ZM107.07,196.12h-3.01v-27.97h3.01v27.97Z"/>
        <path class="cls-1" d="M7.49,209.75c4.26-.03,7.42,2.66,7.42,6.59s-3.17,6.56-7.42,6.59c-4.32-.03-7.49-2.72-7.49-6.59s3.17-6.62,7.49-6.59ZM12.86,233.11c2.56-1.63,3.84-4.32,3.84-6.46v-1.34h2.94v1.34c-.03,2.91,1.89,5.73,5.5,6.91l-1.47,2.18c-2.75-.93-4.64-2.82-5.6-5.12-.86,2.27-2.53,4.32-5.09,5.38-2.72-.99-4.42-2.98-5.28-5.28-1.02,2.21-2.88,4.06-5.54,5.02l-1.47-2.18c3.62-1.28,5.54-4.19,5.57-6.91v-1.34h2.88v1.34c0,2.4,1.22,4.93,3.71,6.46ZM7.49,220.44c2.59,0,4.51-1.66,4.48-4.1.03-2.46-1.89-4.13-4.48-4.1-2.69-.03-4.61,1.63-4.61,4.1s1.92,4.1,4.61,4.1ZM19.71,208.15h2.94v15.93h-2.94v-15.93Z"/>
        <path class="cls-1" d="M25.47,222.23h25.6v2.37h-25.6v-2.37ZM28.67,227.29h2.94v5.76h16.7v2.43h-19.65v-8.19ZM48.13,218.71h-19.26v-9.54h2.94v7.17h16.32v2.37Z"/>
        <path class="cls-1" d="M57.6,212.57h6.91v-4.03h2.94v4.03h6.72v2.37h-16.58v-2.37ZM65.98,217.05c4-.03,6.94,2.66,6.98,6.46-.03,3.87-2.98,6.53-6.98,6.53s-6.98-2.66-6.98-6.53,2.94-6.5,6.98-6.46ZM65.98,227.54c2.37.03,4.13-1.6,4.16-4.03-.03-2.37-1.79-4.03-4.16-4.03s-4.13,1.66-4.1,4.03c-.03,2.43,1.7,4.06,4.1,4.03ZM79.55,219.48h4.48v2.5h-4.48v14.14h-2.94v-27.97h2.94v11.33Z"/>
        <path class="cls-1" d="M83.77,225.11h25.6v2.37h-11.39v8.7h-2.94v-8.7h-11.26v-2.37ZM106.3,216.79h-16.45v3.2h17.09v2.43h-20.09v-7.87h16.45v-2.94h-16.51v-2.43h19.52v7.62Z"/>
      </g>
      <g>
        <path class="cls-1" d="M570.94,175.38c-.03,3.68-3.14,6.24-7.36,6.21-4.26.03-7.36-2.53-7.36-6.21s3.1-6.27,7.36-6.27,7.33,2.59,7.36,6.27ZM563.58,179.22c2.56-.03,4.48-1.54,4.48-3.84s-1.92-3.81-4.48-3.78c-2.56-.03-4.48,1.5-4.48,3.78s1.92,3.81,4.48,3.84ZM560.45,183.7h18.43v7.04h-15.42v2.69h16.32v2.37h-19.2v-7.29h15.36v-2.43h-15.49v-2.37ZM575.93,168.15h2.94v14.27h-2.94v-14.27Z"/>
        <path class="cls-1" d="M598.14,181.08l-1.6,2.37c-3.07-1.09-5.38-3.3-6.62-6.05-1.18,3.14-3.55,5.6-6.82,6.82l-1.6-2.37c4.35-1.57,6.88-5.31,6.91-9.47v-2.75h2.94v3.01c0,3.68,2.56,7.07,6.78,8.45ZM594.69,185.69c5.73.03,9.28,1.92,9.28,5.18s-3.55,5.25-9.28,5.25-9.41-1.92-9.41-5.25,3.58-5.15,9.41-5.18ZM594.69,193.75c4,0,6.37-.99,6.4-2.88-.03-1.76-2.4-2.82-6.4-2.82s-6.46,1.06-6.46,2.82c0,1.89,2.4,2.88,6.46,2.88ZM600.77,168.15h2.94v7.04h4.03v2.5h-4.03v7.36h-2.94v-16.89Z"/>
        <path class="cls-1" d="M636.35,171.8c0,2.27,0,4.86-.61,8.26h3.87v2.43h-6.98v6.53h-2.88v-6.53h-4.42v6.53h-2.88v-6.53h-8.51v-2.43h18.78c.64-3.36.67-5.86.67-8.06h-16.25v-2.37h19.2v2.18ZM616.96,186.71h2.94v6.46h17.15v2.37h-20.09v-8.83Z"/>
        <path class="cls-1" d="M655.81,173.46h-15.74v-2.37h6.53v-3.2h2.94v3.2h6.27v2.37ZM648.06,174.74c3.74,0,6.43,2.08,6.46,5.25-.03,3.1-2.72,5.15-6.46,5.18-3.84-.03-6.46-2.08-6.46-5.18s2.62-5.25,6.46-5.25ZM648.06,182.94c2.14-.03,3.65-1.15,3.71-2.94-.06-1.86-1.57-3.01-3.71-3.01s-3.71,1.15-3.65,3.01c-.06,1.79,1.41,2.91,3.65,2.94ZM654.01,186.46c5.89,0,9.47,1.76,9.47,4.86s-3.58,4.8-9.47,4.8-9.5-1.79-9.47-4.8c-.03-3.1,3.58-4.86,9.47-4.86ZM654.01,193.81c3.97.03,6.33-.9,6.33-2.5,0-1.7-2.37-2.56-6.33-2.56s-6.4.86-6.4,2.56c0,1.6,2.4,2.53,6.4,2.5ZM655.87,180.18h4.54v-3.07h-4.54v-2.43h4.54v-6.53h2.94v18.05h-2.94v-3.58h-4.54v-2.43Z"/>
        <path class="cls-1" d="M590.3,222.46v-5.92h2.94v5.82c3.01-.13,6.08-.35,8.9-.77l.19,2.18c-5.86,1.02-12.54,1.15-17.47,1.15l-.26-2.37c1.7,0,3.65-.03,5.7-.1ZM600.41,211.86c-.03,1.86-.03,4.64-.7,8.26l-2.94-.26c.61-3.17.7-5.41.7-7.17h-11.2v-2.43h14.14v1.6ZM588.83,227.29h2.94v5.89h16.06v2.37h-19.01v-8.26ZM603.93,208.15h3.01v8.89h3.9v2.5h-3.9v9.66h-3.01v-21.05Z"/>
        <path class="cls-1" d="M612.38,210.65h13.12v10.24h-9.98v6.14c4.54-.03,8.51-.22,13.18-1.02l.26,2.5c-4.96.8-9.18.99-14.14.96h-2.37v-10.94h10.05v-5.44h-10.11v-2.43ZM634.08,236.18h-2.94v-28.03h2.94v28.03Z"/>
      </g>
      <g>
        <path class="cls-1" d="M67.33,494.87v-1.41c-3.17-.35-5.12-1.66-5.12-3.68,0-2.34,2.66-3.68,6.85-3.65,4.1-.03,6.78,1.31,6.78,3.65,0,2.02-1.95,3.33-5.06,3.68v1.28c2.4-.13,4.83-.32,7.1-.61l.26,2.18c-6.02,1.02-12.64,1.06-17.53,1.02l-.38-2.43c2.11,0,4.54,0,7.1-.03ZM60.93,483.06h6.4v-2.18h3.46v2.18h6.34v2.37h-16.19v-2.37ZM64,502.83h15.36v-1.6h-15.36v-2.37h18.81v6.14h-15.36v1.79h16.38v2.37h-19.84v-6.34ZM69.06,491.32c2.14,0,3.46-.58,3.46-1.54s-1.31-1.47-3.46-1.47-3.52.51-3.52,1.47,1.28,1.54,3.52,1.54ZM82.81,487.99h3.84v2.94h-3.84v6.85h-3.46v-16.64h3.46v6.85Z"/>
        <path class="cls-1" d="M99.87,491.32h-8.9v3.52c4.54-.03,7.14-.16,10.18-.7l.32,2.82c-3.36.54-6.3.64-11.84.64h-2.11v-8.83h8.9v-3.2h-8.9v-2.75h12.35v8.51ZM90.78,499.89h19.26v9.54h-3.46v-6.72h-15.81v-2.82ZM101.6,491.12h4.99v-3.2h-4.99v-2.75h4.99v-3.97h3.46v17.34h-3.46v-4.67h-4.99v-2.75Z"/>
        <path class="cls-1" d="M126.43,482.68c4.32,0,7.58,2.75,7.55,6.72.03,3.94-3.23,6.69-7.55,6.72-4.38-.03-7.65-2.78-7.62-6.72-.03-3.97,3.23-6.72,7.62-6.72ZM131.81,505.88c2.46-1.63,3.62-4.19,3.65-6.37v-1.15h3.39v1.15c-.03,2.98,1.73,5.73,5.44,6.91l-1.73,2.56c-2.72-.93-4.54-2.75-5.54-5.02-.9,2.24-2.53,4.26-5.09,5.28-2.69-.99-4.38-2.91-5.28-5.18-1.02,2.18-2.82,3.97-5.47,4.93l-1.66-2.56c3.62-1.28,5.41-4.16,5.44-6.91v-1.15h3.33v1.15c.03,2.37,1.12,4.83,3.52,6.37ZM126.43,493.17c2.4.03,4.16-1.47,4.16-3.78s-1.76-3.81-4.16-3.78c-2.5-.03-4.26,1.47-4.22,3.78-.03,2.3,1.73,3.81,4.22,3.78ZM138.33,481.21h3.46v16h-3.46v-16Z"/>
        <path class="cls-1" d="M144.19,495.16h25.85v2.75h-25.85v-2.75ZM147.33,500.4h3.46v5.5h16.51v2.82h-19.97v-8.32ZM167.1,491.89h-19.58v-9.73h3.46v6.98h16.13v2.75Z"/>
        <path class="cls-1" d="M190.4,493.94l-1.86,2.62c-2.5-.96-4.22-2.72-5.25-4.93-1.06,2.53-2.88,4.67-5.57,5.82l-1.86-2.69c3.87-1.73,5.7-5.25,5.7-8.38v-3.52h3.39v3.52c-.03,3.07,1.76,6.11,5.44,7.55ZM190.72,498.93c5.92.03,9.66,1.95,9.66,5.25s-3.74,5.18-9.66,5.18-9.7-1.95-9.66-5.18c-.03-3.3,3.71-5.22,9.66-5.25ZM190.72,506.68c3.87.03,6.18-.86,6.21-2.5-.03-1.7-2.34-2.59-6.21-2.62-3.9.03-6.21.93-6.21,2.62s2.3,2.53,6.21,2.5ZM190.91,481.72h3.2v6.59h2.88v-7.1h3.26v17.28h-3.26v-7.36h-2.88v6.46h-3.2v-15.87Z"/>
        <path class="cls-1" d="M208.93,494.87v-1.41c-3.17-.35-5.12-1.66-5.12-3.68,0-2.34,2.66-3.68,6.85-3.65,4.1-.03,6.78,1.31,6.78,3.65,0,2.02-1.95,3.33-5.06,3.68v1.28c2.4-.13,4.83-.32,7.1-.61l.26,2.18c-6.02,1.02-12.64,1.06-17.54,1.02l-.38-2.43c2.11,0,4.54,0,7.1-.03ZM202.53,483.06h6.4v-2.18h3.46v2.18h6.34v2.37h-16.19v-2.37ZM205.6,502.83h15.36v-1.6h-15.36v-2.37h18.81v6.14h-15.36v1.79h16.38v2.37h-19.84v-6.34ZM210.65,491.32c2.14,0,3.46-.58,3.46-1.54s-1.31-1.47-3.46-1.47-3.52.51-3.52,1.47,1.28,1.54,3.52,1.54ZM224.41,487.99h3.84v2.94h-3.84v6.85h-3.46v-16.64h3.46v6.85Z"/>
      </g>
      <g>
        <path class="cls-1" d="M409.98,494.52h11.07v-2.62h-7.87v-9.73h19.26v9.73h-7.87v2.62h11.14v2.82h-25.73v-2.82ZM432.57,509.04h-19.58v-9.54h19.58v9.54ZM429.18,506.23v-3.9h-12.74v3.9h12.74ZM428.99,489.14v-4.22h-12.42v4.22h12.42Z"/>
        <path class="cls-1" d="M461.66,497.84h-25.73v-2.82h11.07v-3.9h3.46v3.9h11.2v2.82ZM447,482.68v-1.09h3.52v1.09c-.03,3.46,3.78,6.56,9.66,7.3l-1.34,2.75c-4.61-.7-8.32-2.82-10.11-5.79-1.82,2.98-5.54,5.09-10.17,5.79l-1.28-2.75c5.86-.74,9.7-3.94,9.73-7.3ZM438.75,500.08h19.77v9.28h-3.52v-6.53h-16.25v-2.75Z"/>
        <path class="cls-1" d="M472.16,485.94h4.67v-3.33h3.2v11.97h-11.13v-11.97h3.26v3.33ZM476.83,491.89v-3.39h-4.67v3.39h4.67ZM472.79,496.88h19.13v7.23h-15.55v2.24h16.45v2.82h-19.97v-7.55h15.61v-2.05h-15.68v-2.69ZM482.59,481.72h3.2v5.31h2.88v-5.82h3.26v14.59h-3.26v-5.95h-2.88v5.7h-3.2v-13.82Z"/>
        <path class="cls-1" d="M507.58,491.83h-9.28v3.58c4.67-.06,7.81-.16,11.33-.77l.32,2.82c-3.94.64-7.36.74-12.8.77h-2.3v-9.09h9.28v-3.26h-9.34v-2.82h12.8v8.77ZM498.68,500.28h3.46v5.76h16v2.82h-19.45v-8.58ZM509.11,488.18h4.8v-6.98h3.46v20.73h-3.46v-10.88h-4.8v-2.88Z"/>
        <path class="cls-1" d="M519.71,502.9h25.79v2.88h-25.79v-2.88ZM544.47,494.77l-1.6,2.94c-4.74-.99-8.58-3.87-10.4-7.65-1.89,3.74-5.76,6.62-10.46,7.65l-1.54-2.94c5.82-1.02,10.08-5.41,10.11-9.73v-2.11h3.71v2.11c-.03,4.35,4.26,8.74,10.18,9.73Z"/>
        <path class="cls-1" d="M556.76,495.41v-5.76h3.46v5.63c2.91-.1,5.92-.32,8.64-.7l.19,2.5c-5.86,1.06-12.54,1.18-17.47,1.22l-.32-2.82c1.66,0,3.52-.03,5.5-.06ZM567.32,484.92c-.03,1.92-.03,4.74-.7,8.32l-3.39-.32c.54-2.94.64-5.12.67-6.85h-10.98v-2.82h14.4v1.66ZM555.48,500.4h3.46v5.63h16.06v2.82h-19.52v-8.45ZM570.52,481.14h3.58v8.83h3.65v2.88h-3.65v9.47h-3.58v-21.18Z"/>
        <path class="cls-1" d="M579.07,491.44h9.73v-4.99h-9.73v-2.82h13.31v10.56h-9.73v5.7c4.45-.03,8.26-.26,12.67-.96l.32,2.82c-4.8.83-9.02.99-14.08,1.02h-2.5v-11.33ZM601.02,509.43h-3.46v-28.29h3.46v28.29Z"/>
      </g>
    </g>
  </g>
</svg>