<svg width="20" height="20" viewBox="0 0 20 20" fill="none" xmlns="http://www.w3.org/2000/svg">
<path d="M7.5 3.5H5.7C4.58 3.5 4.02 3.5 3.592 3.718C3.21565 3.90969 2.90969 4.21565 2.718 4.592C2.5 5.02 2.5 5.58 2.5 6.7V14.3C2.5 15.42 2.5 15.98 2.718 16.408C2.90974 16.7843 3.21569 17.0903 3.592 17.282C4.019 17.5 4.579 17.5 5.697 17.5H13.303C14.421 17.5 14.98 17.5 15.407 17.282C15.784 17.09 16.09 16.784 16.282 16.408C16.5 15.98 16.5 15.421 16.5 14.303V12.5M17.5 7.5V2.5M17.5 2.5H12.5M17.5 2.5L10.5 9.5" stroke="#555555" stroke-width="1.4" stroke-linecap="round" stroke-linejoin="round"/>
</svg>
