<?xml version="1.0" encoding="utf-8"?><svg width="430" height="10" viewBox="0 0 430 10" xmlns="http://www.w3.org/2000/svg" xmlns:xlink="http://www.w3.org/1999/xlink"><svg width="10" height="10" fill="none" viewBox="0 0 16 16" id="ic_arrow_out_black" xmlns="http://www.w3.org/2000/svg"><path d="m4.464 11.536 7.072-7.07m0 0H4.464m7.072 0v7.071" stroke="#000" stroke-width="2" stroke-linecap="square"/></svg><svg width="10" height="10" fill="none" viewBox="0 0 12 12" id="ic_arrow_out_white" x="10" xmlns="http://www.w3.org/2000/svg"><path d="m2.249 7.5 3.75-3.75L9.75 7.5" stroke="#fff" stroke-width="2" stroke-linecap="square"/></svg><svg width="10" height="10" fill="none" viewBox="0 0 14 14" id="ic_arrow_right_black" x="20" xmlns="http://www.w3.org/2000/svg"><path d="M2.625 7h8.75m0 0L6.999 2.626m4.376 4.376-4.376 4.375" stroke="#000" stroke-width="1.75" stroke-linecap="square"/></svg><svg width="9.412" height="10" fill="none" viewBox="0 0 16 17" id="ic_arrow_top_white" x="30" xmlns="http://www.w3.org/2000/svg"><path d="M8 13.5v-10m0 0-5 5m5-5 5.001 5" stroke="#fff" stroke-width="2" stroke-linecap="square"/></svg><svg width="10" height="10" fill="none" viewBox="0 0 16 16" id="ic_chevron_down_black" x="40" xmlns="http://www.w3.org/2000/svg"><path d="m13 6-5 5-5.001-5" stroke="#000" stroke-width="2" stroke-linecap="square"/></svg><svg width="10" height="10" fill="none" viewBox="0 0 24 24" id="ic_close" x="50" xmlns="http://www.w3.org/2000/svg"><path fill="#000" d="m5.414 4.142 14.142 14.142-1.414 1.414L4 5.556z"/><path fill="#000" d="M4.414 18.142 18.556 4l1.414 1.414L5.828 19.556z"/></svg><svg width="10" height="10" fill="none" viewBox="0 0 16 16" id="ic_close_white" x="60" xmlns="http://www.w3.org/2000/svg"><path d="m11.536 4.464-7.072 7.072m7.072 0L4.464 4.464" stroke="#fff" stroke-width="2"/></svg><svg width="10" height="10" fill="none" viewBox="0 0 36 36" id="ic_easymenu01" x="70" xmlns="http://www.w3.org/2000/svg"><path d="M18.224 5H4.019A2.019 2.019 0 0 0 2 7.019v4.255c0 1.115.904 2.019 2.019 2.019h14.205a2.019 2.019 0 0 0 2.019-2.019V7.02A2.019 2.019 0 0 0 18.223 5Z" fill="#FFC555"/><path d="M32.698 30.956c-.332 0-.663-.124-.912-.383l-5.673-5.674a1.294 1.294 0 0 1 0-1.832 1.293 1.293 0 0 1 1.832 0l5.674 5.673a1.293 1.293 0 0 1 0 1.833c-.248.248-.58.383-.911.383h-.01Z" fill="#102161"/><path d="M18.224 21.596H4.019A2.019 2.019 0 0 0 2 23.616v4.255c0 1.115.904 2.019 2.019 2.019h14.205a2.019 2.019 0 0 0 2.019-2.02v-4.255a2.019 2.019 0 0 0-2.02-2.019Z" fill="#FFC555"/><path d="M18.224 13.252H4.019A2.019 2.019 0 0 0 2 15.27v4.338c0 1.116.904 2.02 2.019 2.02h14.205a2.019 2.019 0 0 0 2.019-2.02V15.27a2.019 2.019 0 0 0-2.02-2.018Z" fill="#EBAC33"/><path d="M20.336 27.674c-5.725 0-10.374-4.66-10.374-10.374 0-5.715 4.649-10.374 10.374-10.374 5.725 0 10.374 4.659 10.374 10.374 0 5.715-4.659 10.374-10.374 10.374Zm0-18.17c-4.297 0-7.786 3.499-7.786 7.785 0 4.287 3.5 7.786 7.786 7.786s7.786-3.489 7.786-7.786c0-4.296-3.5-7.785-7.786-7.785Z" fill="#102161"/></svg><svg width="10" height="10" fill="none" viewBox="0 0 36 36" id="ic_easymenu02" x="80" xmlns="http://www.w3.org/2000/svg"><path d="M16.504 2.493C14.416 4.018 10.87 5.781 6.61 6.677A2.04 2.04 0 0 0 5 8.67v10.98c0 2.697.991 5.299 2.802 7.29 1.744 1.926 4.48 3.784 8.663 5.5.982.4 2.088.4 3.07 0 4.183-1.725 6.919-3.574 8.663-5.5 1.81-2 2.802-5.546 2.802-8.243V8.669a2.04 2.04 0 0 0-1.61-1.992c-4.261-.896-7.806-2.659-9.894-4.184a2.488 2.488 0 0 0-2.973 0h-.02Z" fill="#3E7BF1"/><path d="M17.99 26.816a8.625 8.625 0 1 0 0-17.25 8.625 8.625 0 0 0 0 17.25Z" fill="#0052CC"/><path d="m13.911 18.372 3.021 3.078 5.147-5.252" stroke="#fff" stroke-width="2" stroke-linecap="round" stroke-linejoin="round"/></svg><svg width="10" height="10" fill="none" viewBox="0 0 36 36" id="ic_easymenu03" x="90" xmlns="http://www.w3.org/2000/svg"><path d="M24.46 2H5.31A2.31 2.31 0 0 0 3 4.31v23.86a2.31 2.31 0 0 0 2.31 2.31h19.15a2.31 2.31 0 0 0 2.31-2.31V4.31A2.31 2.31 0 0 0 24.46 2Z" fill="#CBD0D5"/><path d="M21.11 8.67H8.67c-.55 0-1-.45-1-1s.45-1 1-1h12.44c.55 0 1 .45 1 1s-.45 1-1 1ZM21.11 13.83H8.67c-.55 0-1-.45-1-1s.45-1 1-1h12.44c.55 0 1 .45 1 1s-.45 1-1 1ZM15.32 18.99H8.67c-.55 0-1-.45-1-1s.45-1 1-1h6.65c.55 0 1 .45 1 1s-.45 1-1 1Z" fill="#99A2AA"/><path d="m26.83 31.19 3.18 2.61c.54.44 1.35.06 1.35-.64V19.82H22.3l.02 13.34c0 .7.82 1.08 1.36.64l3.15-2.6v-.01Z" fill="#E06F73"/><path d="M26.83 27.71a7.09 7.09 0 1 0 0-14.18 7.09 7.09 0 0 0 0 14.18Z" fill="#FFC555"/><path d="M26.83 25.32a4.7 4.7 0 1 0 0-9.4 4.7 4.7 0 0 0 0 9.4Z" fill="#EBAC33"/></svg><svg width="10" height="10" fill="none" viewBox="0 0 36 36" id="ic_easymenu04" x="100" xmlns="http://www.w3.org/2000/svg"><path d="M29.506 9.358H6.49A3.49 3.49 0 0 0 3 12.848v14.976a3.49 3.49 0 0 0 3.49 3.49h23.016a3.49 3.49 0 0 0 3.49-3.49V12.848a3.49 3.49 0 0 0-3.49-3.49Z" fill="#5FAF57"/><path d="M6.49 9.358h23.02a3.493 3.493 0 0 1 3.49 3.49v2.486a6.683 6.683 0 0 1-6.68 6.679H9.68A6.683 6.683 0 0 1 3 15.33v-2.485a3.493 3.493 0 0 1 3.49-3.49v.003Z" fill="#498F43"/><path d="M22.32 19.615h-8.644c-.854 0-1.547.693-1.547 1.547v1.418c0 .855.693 1.547 1.547 1.547h8.643c.855 0 1.547-.692 1.547-1.547v-1.418c0-.854-.692-1.547-1.547-1.547ZM24.742 9.358h-1.75V8.07a1.32 1.32 0 0 0-1.32-1.32h-7.344a1.32 1.32 0 0 0-1.32 1.32v1.288h-1.75V8.07c0-1.694 1.379-3.07 3.07-3.07h7.344c1.694 0 3.07 1.38 3.07 3.07v1.288Z" fill="#277320"/></svg><svg width="10" height="10" fill="none" viewBox="0 0 36 36" id="ic_easymenu05" x="110" xmlns="http://www.w3.org/2000/svg"><path d="M18 30.387c8.288 0 15-6.134 15-13.694C33 9.134 26.288 3 18 3S3 9.134 3 16.694c0 7.56 6.712 13.693 15 13.693Z" fill="#99A2AA"/><path d="M16.205 28.582 7.43 23.515v7.71a1.405 1.405 0 0 0 2.104 1.217l6.672-3.85v-.01Z" fill="#99A2AA"/><path d="M21.991 13.296v.199c0 1.155-.46 1.923-2.131 3.43-1.03.93-1.174 1.301-1.174 2.05 0 .533-.479.867-1.03.867-.586 0-1.083-.28-1.083-.92 0-1.247.199-1.906 1.481-3.026 1.472-1.282 1.67-1.67 1.67-2.383v-.09c0-.75-.514-1.41-1.923-1.41-.939 0-1.616.317-2.257.768-.46.316-.958.199-1.3-.253-.344-.424-.344-1.03.126-1.39C15.237 10.46 16.4 10 17.873 10 20.456 10 22 11.354 22 13.296h-.009Zm-3.007 9.093a1.33 1.33 0 0 1-1.354 1.354 1.33 1.33 0 0 1-1.355-1.354 1.33 1.33 0 0 1 1.355-1.355 1.33 1.33 0 0 1 1.354 1.355Z" fill="#fff"/></svg><svg width="10" height="10" fill="none" viewBox="0 0 36 36" id="ic_easymenu06" x="120" xmlns="http://www.w3.org/2000/svg"><path d="M8.465 34.93a8.465 8.465 0 1 0 0-16.93 8.465 8.465 0 0 0 0 16.93Z" fill="#82C7F1"/><path d="M8.466 30.177a3.637 3.637 0 0 1-3.19-1.914.712.712 0 0 1 .282-.96.714.714 0 0 1 .961.282 2.216 2.216 0 0 0 1.947 1.17 2.21 2.21 0 0 0 1.938-1.17.708.708 0 0 1 .961-.29.715.715 0 0 1 .29.96 3.628 3.628 0 0 1-3.19 1.914v.008ZM6.01 26.204a1.01 1.01 0 1 0-.001-2.02 1.01 1.01 0 0 0 0 2.02ZM10.912 26.204a1.01 1.01 0 1 0 0-2.02 1.01 1.01 0 0 0 0 2.02Z" fill="#0052CC"/><path d="M21.901 27.331c7.668 0 13.875-5.676 13.875-12.665C35.776 7.676 29.558 2 21.9 2S8.026 7.676 8.026 14.666c0 6.989 6.218 12.665 13.875 12.665Z" fill="#0052CC"/><path d="m20.955 24.257-8.117-4.687v7.128a1.3 1.3 0 0 0 1.946 1.128l6.171-3.57Z" fill="#0052CC"/><path d="M16.594 16.047a1.382 1.382 0 1 0 0-2.763 1.382 1.382 0 0 0 0 2.763ZM21.9 16.047a1.382 1.382 0 1 0 0-2.763 1.382 1.382 0 0 0 0 2.763ZM27.197 16.047a1.382 1.382 0 1 0 0-2.763 1.382 1.382 0 0 0 0 2.763Z" fill="#fff"/></svg><svg width="10" height="10" fill="none" viewBox="0 0 32 32" id="ic_floating_chatbot" x="130" xmlns="http://www.w3.org/2000/svg"><path d="M24.45 13H7.55c-.718 0-1.3.597-1.3 1.333v13.334c0 .736.582 1.333 1.3 1.333h16.9c.718 0 1.3-.597 1.3-1.333V14.333c0-.736-.582-1.333-1.3-1.333Z" stroke="#fff" stroke-width="2"/><path d="M11.45 19.667c.718 0 1.3-.597 1.3-1.334 0-.736-.582-1.333-1.3-1.333-.718 0-1.3.597-1.3 1.333 0 .737.582 1.334 1.3 1.334ZM20.55 19.667c.718 0 1.3-.597 1.3-1.334 0-.736-.582-1.333-1.3-1.333-.718 0-1.3.597-1.3 1.333 0 .737.582 1.334 1.3 1.334ZM13.4 22.333a1.52 1.52 0 0 0-.92.293c-.243.188-.38.442-.38.707 0 .266.137.52.38.707.244.188.575.293.92.293v-2Zm5.2 2c.345 0 .675-.105.92-.293.243-.187.38-.441.38-.707 0-.265-.137-.52-.38-.707a1.52 1.52 0 0 0-.92-.293v2Zm-5.2 0h5.2v-2h-5.2v2Z" fill="#fff"/><path d="M16 7.667V13M2 18.333v5.334m28-5.334v5.334" stroke="#fff" stroke-width="2" stroke-linecap="round" stroke-linejoin="round"/><path d="M16.002 7.67c1.257 0 2.276-1.045 2.276-2.335S17.26 3 16.002 3c-1.258 0-2.277 1.045-2.277 2.335s1.02 2.335 2.277 2.335Z" stroke="#fff" stroke-width="2"/></svg><svg width="10" height="10" fill="none" viewBox="0 0 32 32" id="ic_floating_easy" x="140" xmlns="http://www.w3.org/2000/svg"><rect x="6" y="6" width="8" height="8" rx="2" fill="#fff"/><rect x="6" y="18" width="8" height="8" rx="2" fill="#fff"/><rect x="18" y="6" width="8" height="8" rx="2" fill="#fff"/><rect x="18" y="18" width="8" height="8" rx="2" fill="#fff"/></svg><svg width="10" height="10" fill="none" viewBox="0 0 48 48" id="ic_gnb_01" x="150" xmlns="http://www.w3.org/2000/svg"><path d="M24 11.967c10.16 0 18.4 8.18 18.4 18.263v.579c0 6.184-5.057 11.195-11.271 11.195H16.872c-6.23 0-11.272-5.026-11.272-11.195v-.58c0-10.083 8.24-18.262 18.4-18.262Z" fill="#6DB55C"/><path d="M17.938 12.957h12.125l2.909-4.189c.929-1.34-.03-3.168-1.676-3.168H16.69c-1.645 0-2.604 1.828-1.675 3.168l2.909 4.189h.015Z" fill="#3B9353"/><path fill-rule="evenodd" clip-rule="evenodd" d="M17.805 23.459a1.36 1.36 0 1 0-2.532.994l.71 1.806h-1.595a1.36 1.36 0 0 0 0 2.72h2.663l1.33 3.387a1.936 1.936 0 0 0 1.805 1.255c.784 0 1.502-.48 1.805-1.257v-.002L24 27.224l2.008 5.138.001.002a1.936 1.936 0 0 0 1.805 1.257c.785 0 1.502-.479 1.805-1.255l.001-.004 1.329-3.383h2.663a1.36 1.36 0 0 0 0-2.72h-1.595l.71-1.806a1.36 1.36 0 0 0-2.532-.994l-2.379 6.056-2.01-5.142-.001-.003A1.936 1.936 0 0 0 24 23.113c-.785 0-1.503.48-1.805 1.257l-.001.003-2.01 5.142-2.379-6.056Z" fill="#fff"/></svg><svg width="10" height="10" fill="none" viewBox="0 0 48 48" id="ic_gnb_02" x="160" xmlns="http://www.w3.org/2000/svg"><path d="m39.08 27.9-7.557 4.327a2.99 2.99 0 0 1-3.428-.29l-5.029-3.718h6.842c1.356-.045 2.422-1.417 2.407-2.758a2.461 2.461 0 0 0-2.468-2.437h-9.798c-1.98 0-3.93.609-5.546 1.752L6.23 30.87l3.505 8.365h18.36c2.012 0 3.993-.549 5.715-1.6l8.075-5.028a2.722 2.722 0 0 0 .838-3.87 2.731 2.731 0 0 0-3.642-.823v-.016Z" fill="#F2B25F"/><path d="M6.939 28.63 3.37 30.97a2.118 2.118 0 0 0-.61 2.932l5.79 8.83a2.118 2.118 0 0 0 2.932.61l3.568-2.339a2.118 2.118 0 0 0 .61-2.932L9.87 29.24a2.118 2.118 0 0 0-2.932-.61Z" fill="#436FC6"/><path d="M24 20.8a9.6 9.6 0 1 0 0-19.2 9.6 9.6 0 0 0 0 19.2Z" fill="#F9D768"/><path d="M24 18.133a6.933 6.933 0 1 0 0-13.867 6.933 6.933 0 0 0 0 13.867Z" fill="#E2A861"/><path d="M27.232 11.224H29M18.785 11.224h1.768M19.928 9.288l1.652 4.182a.301.301 0 0 0 .571 0l1.456-3.702a.301.301 0 0 1 .571 0l1.456 3.702a.301.301 0 0 0 .571 0l1.652-4.182" stroke="#fff" stroke-width="1.133" stroke-linecap="round" stroke-linejoin="round"/></svg><svg width="10" height="10" fill="none" viewBox="0 0 48 48" id="ic_gnb_03" x="170" xmlns="http://www.w3.org/2000/svg"><path d="M24 30.58c-2.514 0-4.825-1.388-6.034-3.627a1.337 1.337 0 1 1 2.354-1.273c.742 1.37 2.15 2.222 3.68 2.222 1.53 0 2.938-.853 3.677-2.223a1.338 1.338 0 1 1 2.357 1.27c-1.21 2.239-3.52 3.628-6.034 3.628v.003Z" fill="#0A2065"/><path d="M32.67 40.902h-7.074v-2.678h7.074a3.85 3.85 0 0 0 3.845-3.845V18.637c0-6.902-5.613-12.514-12.515-12.514s-12.514 5.612-12.514 12.514v11.08H8.808v-11.08c0-8.379 6.814-15.193 15.192-15.193 8.38 0 15.193 6.814 15.193 15.193V34.38a6.531 6.531 0 0 1-6.523 6.523Z" fill="#82C7F1"/><path d="M26.72 36.43h-5.443a3.06 3.06 0 1 0 0 6.12h5.444a3.06 3.06 0 0 0 0-6.12Z" fill="#3E7BF1"/><path d="M19.36 23.07a1.913 1.913 0 1 0 0-3.825 1.913 1.913 0 0 0 0 3.825ZM28.638 23.07a1.913 1.913 0 1 0 0-3.826 1.913 1.913 0 0 0 0 3.826Z" fill="#0A2065"/><path d="M38.315 15.106h.987c4.74 0 8.589 3.849 8.589 8.59 0 4.74-3.849 8.588-8.59 8.588h-.986a1.807 1.807 0 0 1-1.806-1.805v-13.56c0-.998.81-1.806 1.806-1.806v-.007ZM9.69 32.284h-.988c-4.74 0-8.59-3.848-8.59-8.589 0-4.74 3.85-8.59 8.59-8.59h.987a1.813 1.813 0 0 1 1.806 1.81v13.56a1.81 1.81 0 0 1-1.806 1.81Z" fill="#3E7BF1"/></svg><svg width="10" height="10" fill="none" viewBox="0 0 48 48" id="ic_gnb_04" x="180" xmlns="http://www.w3.org/2000/svg"><path d="M7.362 12.877h33.262v23.36a2.597 2.597 0 0 1-2.594 2.594H9.94a2.597 2.597 0 0 1-2.594-2.594v-23.36h.015Z" fill="#F7B7C7"/><path d="M44.448 20.466H3.538c-1.72 0-2.58-2.075-1.379-3.29l7.485-7.59A5.377 5.377 0 0 1 13.44 8h21.122c1.423 0 2.787.578 3.795 1.586l7.485 7.59c1.2 1.23.341 3.29-1.378 3.29h-.015Z" fill="#EE99A9"/><path d="M32.279 19.013c-1.809-1.912-4.61-2.194-6.7-.756a4.506 4.506 0 0 0-.8.697l-.712.741-.712-.741a7.084 7.084 0 0 0-.8-.697c-2.09-1.438-4.892-1.156-6.7.756-2.223 2.342-2.06 6.21.326 8.345l6.137 5.559c.993.889 2.49.889 3.483 0l6.166-5.559c2.401-2.149 2.55-6.003.326-8.345h-.014Z" fill="#E51F44"/></svg><svg width="10" height="10" fill="none" viewBox="0 0 48 48" id="ic_gnb_05" x="190" xmlns="http://www.w3.org/2000/svg"><ellipse cx="33.881" cy="22.082" rx="3.068" ry="3.129" fill="#436FC6"/><rect x="29.279" y="8" width="4.602" height="28.163" rx="1.5" fill="#62A2E1"/><path d="M3.2 18.388a1 1 0 0 1 1-1h2.068v9.388H4.2a1 1 0 0 1-1-1v-7.388ZM8.137 28.067a1 1 0 0 1 .993-1.122h4.385a1 1 0 0 1 .993.878l1.355 11.055A1 1 0 0 1 14.87 40h-4.385a1 1 0 0 1-.993-.878L8.137 28.067Z" fill="#436FC6"/><path d="m15.473 15.823 13.806-4.694v21.905L15.473 28.34V15.823Z" fill="#8DD1F1"/><path d="M6.268 16.823a1 1 0 0 1 1-1h8.204V28.34H7.268a1 1 0 0 1-1-1V16.823Z" fill="#62A2E1"/><path d="m39.939 15.823 2.666-2.72M39.939 28.142l2.666 2.72M41.272 22.04h3.77" stroke="#62A2E1" stroke-width="2" stroke-linecap="round"/></svg><svg width="10" height="10" fill="none" viewBox="0 0 48 48" id="ic_gnb_06" x="200" xmlns="http://www.w3.org/2000/svg"><path d="M39.342 12.478H8.653A4.653 4.653 0 0 0 4 17.131V37.1a4.653 4.653 0 0 0 4.653 4.653h30.689a4.653 4.653 0 0 0 4.653-4.653V17.132a4.653 4.653 0 0 0-4.653-4.654Z" fill="#5FAF57"/><path d="M8.653 12.478h30.694A4.657 4.657 0 0 1 44 17.13v3.314c0 4.915-3.99 8.906-8.906 8.906H12.905C7.992 29.35 4 25.36 4 20.44v-3.314a4.657 4.657 0 0 1 4.653-4.654v.005Z" fill="#498F43"/><path d="M29.76 26.153H18.236c-1.14 0-2.063.924-2.063 2.063v1.89c0 1.14.924 2.064 2.063 2.064H29.76c1.14 0 2.063-.924 2.063-2.063v-1.89c0-1.14-.924-2.064-2.063-2.064ZM32.99 12.478h-2.334V10.76c0-.97-.789-1.76-1.76-1.76h-9.792c-.97 0-1.76.79-1.76 1.76v1.718h-2.333V10.76a4.098 4.098 0 0 1 4.093-4.093h9.792a4.098 4.098 0 0 1 4.094 4.093v1.718Z" fill="#277320"/></svg><svg width="10" height="10" fill="none" viewBox="0 0 48 48" id="ic_gnb_07" x="210" xmlns="http://www.w3.org/2000/svg"><path d="M22.16 6.788 6.419 13.846h35.147L25.84 6.788a4.556 4.556 0 0 0-3.68 0Z" fill="#5594D2"/><path d="M39.108 14.738H31.79v21.519h7.317v-21.52ZM16.209 14.738H8.892v21.519h7.317v-21.52ZM27.723 14.738h-7.317v21.519h7.317v-21.52Z" fill="#436FC6"/><path d="M5.6 34.79v2.933c0 1.048.85 1.898 1.897 1.898h33.005c1.048 0 1.898-.85 1.898-1.898v-2.932c0-1.048-.85-1.898-1.898-1.898H7.497c-1.048 0-1.897.85-1.897 1.898ZM5.6 15.456v2.746c0 1.048.85 1.897 1.897 1.897h33.005c1.048 0 1.898-.85 1.898-1.897v-2.746c0-1.048-.85-1.897-1.898-1.897H7.497c-1.048 0-1.897.85-1.897 1.897Z" fill="#69B9DE"/></svg><svg width="10" height="10" fill="none" viewBox="0 0 24 24" id="ic_gnb_all" x="220" xmlns="http://www.w3.org/2000/svg"><path fill="#000" d="M2 4h20v2H2zm0 7h20v2H2zm0 7h20v2H2z"/></svg><svg width="10" height="10" fill="none" viewBox="0 0 24 24" id="ic_gnb_cert" x="230" xmlns="http://www.w3.org/2000/svg"><path d="M16.333 3.667H5V19h3.333M13 14.333l-.667 6 3-1.333 3 1.333-.666-6" stroke="#666" stroke-width="1.5" stroke-linecap="round" stroke-linejoin="round"/><path d="M15.333 15a3.667 3.667 0 1 0 0-7.333 3.667 3.667 0 0 0 0 7.333Z" stroke="#666" stroke-width="1.5" stroke-linecap="round" stroke-linejoin="round"/></svg><svg width="10" height="10" fill="none" viewBox="0 0 40 40" id="ic_gnb_certificate" x="240" xmlns="http://www.w3.org/2000/svg"><path d="M9.166 18.167c0-7.732 6.268-14 14-14H28.5a4 4 0 0 1 4 4v24.5a4 4 0 0 1-4 4H13.166a4 4 0 0 1-4-4v-14.5Z" fill="#EE99A9"/><path fill-rule="evenodd" clip-rule="evenodd" d="M26.833 3.334H14.167V10H7.5v21a4 4 0 0 0 4 4h15.333a4 4 0 0 0 4-4V7.334a4 4 0 0 0-4-4Z" fill="#F7B7C7"/><path d="M25 26.667H13.333M20.834 30h-7.5" stroke="#fff" stroke-width="1.5" stroke-linecap="round" stroke-linejoin="round"/><path d="m19.167 10 1.078.9 1.33-.45.68 1.23 1.403.06.19 1.392 1.286.563-.325 1.367.996.99-.797 1.156.57 1.284-1.16.79.069 1.403-1.368.318-.443 1.332-1.39-.198-.894 1.083-1.225-.686-1.225.686-.895-1.082-1.39.197-.443-1.332-1.367-.318.068-1.403-1.16-.79.57-1.284-.797-1.156.996-.99-.325-1.367 1.286-.563.19-1.392 1.403-.06.68-1.23 1.33.45 1.079-.9Z" fill="#E51F44"/><circle cx="19.166" cy="16.667" r="5.556" fill="#E51F44"/><path d="m16.944 16.187 1.903 1.903 2.854-2.854" stroke="#fff" stroke-width="1.5" stroke-linecap="round" stroke-linejoin="round"/><path d="M14.166 10H7.5l3.333-3.333 3.333-3.333V10Z" fill="#EE99A9"/></svg><svg width="10" height="10" fill="none" viewBox="0 0 40 40" id="ic_gnb_check" x="250" xmlns="http://www.w3.org/2000/svg"><path fill-rule="evenodd" clip-rule="evenodd" d="M16.194 8.05 18.246 10h14.421a4 4 0 0 1 4 4v12.834a4 4 0 0 1-4 4H7.334a4 4 0 0 1-4-4V9.5a2 2 0 0 1 2-2h9.482a2 2 0 0 1 1.378.55z" fill="#498F43"/><path fill-rule="evenodd" clip-rule="evenodd" d="m16.11 10.555 2.035 1.946h14.522a4 4 0 0 1 4 4v12a4 4 0 0 1-4 4H7.334a4 4 0 0 1-4-4V12a2 2 0 0 1 2-2h9.394a2 2 0 0 1 1.383.554z" fill="#5FAF57"/><rect x="24.857" y="29.715" width="3.333" height="9.167" rx="1" transform="rotate(-45 24.857 29.715)" fill="#498F43"/><path d="m23.679 26.18 5.303 5.303" stroke="#498F43" stroke-width="1.5" stroke-linecap="round" stroke-linejoin="round"/><circle cx="20" cy="22.501" r="6.667" fill="#277320"/><path d="M20 20v5m2.5-2.5h-5" stroke="#fff" stroke-width="1.5" stroke-linecap="round" stroke-linejoin="round"/></svg><svg width="10" height="10" fill="none" viewBox="0 0 40 40" id="ic_gnb_cs" x="260" xmlns="http://www.w3.org/2000/svg"><path d="M27.224 34.048H21.33v-2.232h5.895a3.209 3.209 0 0 0 3.204-3.204V15.495c0-5.752-4.677-10.43-10.428-10.43-5.752 0-10.43 4.678-10.43 10.43v9.233H7.34v-9.233C7.34 8.512 13.018 2.834 20 2.834c6.983 0 12.661 5.678 12.661 12.66v13.118a5.443 5.443 0 0 1-5.436 5.436z" fill="#8DD1F1"/><path d="M22.266 30.321H17.73a2.55 2.55 0 0 0 0 5.101h4.537a2.55 2.55 0 0 0 0-5.101zm9.663-17.769h.822a7.161 7.161 0 0 1 7.158 7.157 7.161 7.161 0 0 1-7.158 7.158h-.822a1.506 1.506 0 0 1-1.505-1.505v-11.3c0-.831.676-1.504 1.505-1.504v-.006zM8.074 26.867h-.822A7.161 7.161 0 0 1 .094 19.71a7.161 7.161 0 0 1 7.158-7.157h.822A1.51 1.51 0 0 1 9.58 14.06v11.3c0 .831-.676 1.507-1.505 1.507z" fill="#436FC6"/></svg><svg width="10" height="10" fill="none" viewBox="0 0 24 24" id="ic_gnb_eng" x="270" xmlns="http://www.w3.org/2000/svg"><path d="M11.556 4a15.112 15.112 0 0 0 0 16m.888-16a15.11 15.11 0 0 1 0 16" stroke="#666" stroke-width="1.5" stroke-linecap="round" stroke-linejoin="round"/><circle cx="12" cy="12" r="8.25" stroke="#666" stroke-width="1.5"/><path d="M4 12h16" stroke="#666" stroke-width="1.5"/></svg><svg width="10" height="10" fill="none" viewBox="0 0 40 40" id="ic_gnb_info" x="280" xmlns="http://www.w3.org/2000/svg"><rect x="12" y="6" width="16" height="27.5" rx="8" stroke="#3B9353" stroke-width="4"/><path fill-rule="evenodd" clip-rule="evenodd" d="M9.166 14.167a5 5 0 0 0-5 5v11.666a5 5 0 0 0 5 5h21.667a5 5 0 0 0 5-5V19.167a5 5 0 0 0-5-5H9.166zm13.333 7.5a2.5 2.5 0 0 1-1.386 2.238l1.386 6.928h-5l1.386-6.928a2.5 2.5 0 1 1 3.614-2.238z" fill="#6DB55C"/></svg><svg width="10" height="10" fill="none" viewBox="0 0 24 24" id="ic_gnb_key" x="290" xmlns="http://www.w3.org/2000/svg"><path d="M7 13.846c.513 0 .95-.18 1.308-.538.359-.36.538-.795.538-1.308s-.18-.949-.538-1.308A1.783 1.783 0 0 0 7 10.154c-.513 0-.949.18-1.308.538-.359.36-.538.795-.538 1.308s.18.949.538 1.308c.36.359.795.538 1.308.538zm0 2.885c-1.333 0-2.455-.455-3.365-1.366-.91-.91-1.366-2.032-1.366-3.365 0-1.333.455-2.455 1.366-3.365.91-.91 2.032-1.366 3.365-1.366 1.132 0 2.112.32 2.941.958.83.639 1.36 1.396 1.594 2.273h9.048l1.494 1.494-2.48 2.635-1.828-1.379-1.827 1.442-1.557-1.192h-2.85c-.237.892-.773 1.654-1.608 2.285-.835.63-1.81.946-2.927.946z" fill="#666"/></svg><svg width="10" height="10" fill="none" viewBox="0 0 40 40" id="ic_gnb_protect" x="300" xmlns="http://www.w3.org/2000/svg"><path d="M6.135 10.73h27.718v19.468a2.164 2.164 0 0 1-2.162 2.161H8.284a2.164 2.164 0 0 1-2.161-2.161V10.73h.012Z" fill="#F7B7C7"/><path d="M37.04 17.055H2.948c-1.433 0-2.15-1.73-1.149-2.742l6.238-6.324A4.48 4.48 0 0 1 11.2 6.667h17.602a4.48 4.48 0 0 1 3.162 1.322l6.238 6.324c1 1.025.284 2.742-1.149 2.742h-.012Z" fill="#EE99A9"/><path d="M26.899 15.845c-1.507-1.594-3.842-1.829-5.584-.63-.247.16-.469.37-.667.58l-.592.618-.593-.618a5.915 5.915 0 0 0-.667-.58c-1.742-1.198-4.076-.964-5.583.63-1.853 1.951-1.717 5.175.271 6.954l5.114 4.632a2.173 2.173 0 0 0 2.903 0l5.138-4.632c2.001-1.791 2.125-5.003.272-6.954h-.012Z" fill="#E51F44"/></svg><svg width="10" height="10" fill="none" viewBox="0 0 40 40" id="ic_gnb_service" x="310" xmlns="http://www.w3.org/2000/svg"><rect x="5" y="7.5" width="21.667" height="28.333" rx="4" fill="#4A7BDC"/><rect width="15" height="3.333" rx="1.667" transform="matrix(1 0 0 -1 8.333 9.167)" fill="#2B59B3"/><rect width="10" height="3.333" rx="1.667" transform="matrix(1 0 0 -1 10.833 7.5)" fill="#2B59B3"/><path d="M20.833 19.167h-10m10-4.167h-10m7.5 8.333h-7.5" stroke="#fff" stroke-width="1.5" stroke-linecap="round" stroke-linejoin="round"/><path fill-rule="evenodd" clip-rule="evenodd" d="M31 14.977a1 1 0 0 0-1 1v15.434l2.054 4.05a.5.5 0 0 0 .892 0L35 31.412V15.977a1 1 0 0 0-1-1h-3z" fill="#F2B25F"/><path d="M30.833 14.977h3.333v-.643a1 1 0 0 0-1-1h-1.333a1 1 0 0 0-1 1v.643z" fill="#E2A861"/></svg><svg width="10" height="10" fill="none" viewBox="0 0 24 24" id="ic_header_user" x="320" xmlns="http://www.w3.org/2000/svg"><path d="M21.818 23v-2.454a4.91 4.91 0 0 0-4.909-4.91H7.091a4.91 4.91 0 0 0-4.91 4.91V23" stroke="#000" stroke-width="2" stroke-linejoin="round"/><path d="M12 12.435A5.217 5.217 0 1 0 12 2a5.217 5.217 0 0 0 0 10.435Z" stroke="#000" stroke-width="2" stroke-linecap="round" stroke-linejoin="round"/></svg><svg width="10" height="10" fill="none" viewBox="0 0 12 12" id="ic_minus_white" x="330" xmlns="http://www.w3.org/2000/svg"><path stroke="#fff" stroke-width="1.5" d="M9.75 6h-7.5"/></svg><svg width="10" height="10" fill="none" viewBox="0 0 12 12" id="ic_plus_white" x="340" xmlns="http://www.w3.org/2000/svg"><path stroke="#fff" stroke-width="1.5" d="M6 2.25v7.5M9.75 6h-7.5"/></svg><svg width="10" height="10" fill="none" viewBox="0 0 32 32" id="ic_quickmenu_customer" x="350" xmlns="http://www.w3.org/2000/svg"><path d="M16 20.387a4.575 4.575 0 0 1-4.022-2.418.891.891 0 1 1 1.569-.85A2.798 2.798 0 0 0 16 18.603a2.79 2.79 0 0 0 2.451-1.482.892.892 0 1 1 1.572.846A4.575 4.575 0 0 1 16 20.384v.003Z" fill="#0A2065"/><path d="M21.78 27.268h-4.716v-1.786h4.716a2.567 2.567 0 0 0 2.564-2.563V12.425c0-4.601-3.742-8.343-8.343-8.343-4.602 0-8.343 3.742-8.343 8.343v7.386H5.872v-7.386c0-5.586 4.543-10.129 10.129-10.129 5.585 0 10.128 4.543 10.128 10.129v10.494a4.354 4.354 0 0 1-4.349 4.349Z" fill="#82C7F1"/><path d="M17.815 24.286h-3.63a2.04 2.04 0 0 0 0 4.081h3.63a2.04 2.04 0 1 0 0-4.081Z" fill="#3E7BF1"/><path d="M12.906 15.38a1.275 1.275 0 1 0 0-2.55 1.275 1.275 0 0 0 0 2.55ZM19.092 15.38a1.275 1.275 0 1 0 0-2.55 1.275 1.275 0 0 0 0 2.55Z" fill="#0A2065"/><path d="M25.543 10.07h.658a5.73 5.73 0 0 1 5.726 5.727 5.73 5.73 0 0 1-5.726 5.726h-.658c-.665 0-1.204-.54-1.204-1.204v-9.04c0-.665.541-1.203 1.204-1.203v-.005ZM6.46 21.523h-.658a5.729 5.729 0 0 1-5.727-5.726 5.73 5.73 0 0 1 5.727-5.726h.658c.663.002 1.204.54 1.204 1.206v9.04c0 .665-.541 1.206-1.204 1.206Z" fill="#3E7BF1"/></svg><svg width="10" height="10" fill="none" viewBox="0 0 40 40" id="ic_quickmenu_pig" x="360" xmlns="http://www.w3.org/2000/svg"><path d="M19.4 6.111c-8.033 0-14.545 6.512-14.545 14.546 0 4.52 2.062 9.162 5.298 12.357.354.347.828.547 1.322.547h2.522c.782 0 1.465-.523 1.669-1.276l.326-1.214h6.813l.326 1.213a1.727 1.727 0 0 0 1.67 1.277h2.52c.495 0 .972-.197 1.323-.547 3.236-3.195 5.298-7.838 5.298-12.358 0-8.033-6.512-14.545-14.545-14.545h.003Z" fill="#FFAFC4"/><path d="m7.874 24.97-4.8-2.136a1.899 1.899 0 0 1-1.13-1.736v-2.566c0-.947.768-1.715 1.715-1.715h4.215v8.156-.003ZM14.6 15.085H6.556L4.329 10.54A1.84 1.84 0 0 1 5.98 7.889h8.62v7.196Z" fill="#FFAFC4"/><path d="M23.282 10.786a.843.843 0 0 1-.386-.092c-.645-.319-1.799-.698-3.608-.698a.877.877 0 0 1 0-1.753c1.725 0 3.198.295 4.383.877a.877.877 0 0 1-.389 1.666Z" fill="#CA3054"/><path d="M15.518 10.786a.88.88 0 0 1-.389-1.666c1.185-.582 2.658-.877 4.38-.877a.877.877 0 0 1 0 1.753c-1.81 0-2.96.38-3.608.698a.89.89 0 0 1-.386.091h.003Z" fill="#CA3054"/><path d="M33.522 20.618c-.677 0-1.228-.55-1.228-1.227s.55-1.228 1.228-1.228c1.146 0 2.079-.933 2.079-2.08 0-.676.55-1.227 1.227-1.227s1.227.551 1.227 1.228c0 2.5-2.033 4.534-4.533 4.534Z" fill="#FFAFC4"/><path d="M9.806 18.104c-.908 0-1.739-.502-2.177-1.305a.878.878 0 0 1 .354-1.188.878.878 0 0 1 1.189.354.714.714 0 0 0 1.27 0 .878.878 0 0 1 1.542.834 2.472 2.472 0 0 1-2.178 1.305ZM36.092 12.828H28.86c-.45 0-.855-.265-1.03-.679-.18-.409-.094-.89.211-1.213l5.458-5.818h-4.64a1.124 1.124 0 0 1 0-2.248h7.234c.45 0 .854.266 1.03.68.18.408.094.89-.212 1.213l-5.457 5.817h4.64a1.124 1.124 0 0 1 0 2.248Z" fill="#070B32"/></svg><svg width="10" height="10" fill="none" viewBox="0 0 32 32" id="ic_quickmenu_pouch" x="370" xmlns="http://www.w3.org/2000/svg"><path d="M16 7.516c7.155 0 12.963 5.765 12.963 12.867v.403c0 4.353-3.56 7.887-7.946 7.887H10.983c-4.386-.003-7.946-3.538-7.946-7.89v-.403C3.037 13.281 8.845 7.516 16 7.516Z" fill="#6EB7E4"/><path d="M11.728 8.215h8.54l2.052-2.947c.657-.941-.024-2.23-1.179-2.23H10.852c-1.155 0-1.835 1.285-1.179 2.23l2.052 2.947h.003Z" fill="#2757C3"/><path d="M13.113 23.137a.859.859 0 0 1-.797-.536L9.46 15.495a.85.85 0 0 1 .481-1.108.86.86 0 0 1 1.117.477l2.059 5.12 2.058-5.12a.864.864 0 0 1 1.117-.478c.44.175.657.673.481 1.11L13.918 22.6a.859.859 0 0 1-.798.536h-.007Z" fill="#fff"/><path d="M18.887 23.137a.859.859 0 0 1-.797-.536l-2.856-7.106a.85.85 0 0 1 .48-1.108.86.86 0 0 1 1.118.477l2.058 5.12 2.059-5.12a.864.864 0 0 1 1.117-.478c.44.175.656.673.48 1.11L19.692 22.6a.859.859 0 0 1-.797.536h-.007ZM11.068 19.21H8.687a.856.856 0 0 1-.86-.853c0-.47.386-.853.86-.853h2.381c.475 0 .86.383.86.853 0 .471-.385.853-.86.853Z" fill="#fff"/><path d="M23.31 19.21H20.93a.856.856 0 0 1-.859-.853c0-.47.385-.853.86-.853h2.378c.474 0 .859.383.859.853 0 .471-.385.853-.86.853Z" fill="#fff"/></svg><svg width="10" height="10" fill="none" viewBox="0 0 32 32" id="ic_quickmenu_window" x="380" xmlns="http://www.w3.org/2000/svg"><path d="M24.539 4.148H7.461A2.572 2.572 0 0 0 4.889 6.72v17.079A2.572 2.572 0 0 0 7.46 26.37h17.078a2.572 2.572 0 0 0 2.572-2.572V6.72a2.572 2.572 0 0 0-2.572-2.572Z" fill="#5FAF57"/><path d="M7.46 4.148H24.54a2.573 2.573 0 0 1 2.572 2.572v2.492H4.889V6.72A2.573 2.573 0 0 1 7.46 4.148Z" fill="#277320"/><path d="M22.492 15.981h-1.4l.719-1.8a.764.764 0 0 0-1.417-.566l-1.83 4.584-1.83-4.584a.763.763 0 0 0-.735-.477.76.76 0 0 0-.738.477L13.43 18.2l-1.83-4.584a.763.763 0 0 0-1.417.567l.719 1.799h-1.4a.764.764 0 1 0 0 1.528h2.007l1.211 3.034c.115.29.397.48.71.48a.767.767 0 0 0 .71-.48l1.855-4.651 1.856 4.651c.115.29.397.48.71.48a.767.767 0 0 0 .71-.48l1.21-3.034h2.008a.764.764 0 1 0 0-1.528h.002Z" fill="#fff"/><path d="M7.682 7.558a.879.879 0 1 0 0-1.758.879.879 0 0 0 0 1.758Z" fill="#F1ACBE"/><path d="M10.58 7.558a.879.879 0 1 0 0-1.758.879.879 0 0 0 0 1.758Z" fill="#FFDD87"/><path d="M13.475 7.558a.879.879 0 1 0 0-1.758.879.879 0 0 0 0 1.758Z" fill="#83CC7B"/><path d="M29.897 23.764 23.42 19.82c-.692-.422-1.549.201-1.363.99l1.75 7.38a.787.787 0 0 0 1.43.243l1.155-1.804 1.724 2.373a.757.757 0 1 0 1.222-.891l-1.724-2.375 2.072-.54a.787.787 0 0 0 .21-1.435l.002.004Z" fill="#0A2065"/></svg><svg width="9.6" height="10" fill="none" viewBox="0 0 24 25" id="ic_sns_blog_black" x="390" xmlns="http://www.w3.org/2000/svg"><path fill-rule="evenodd" clip-rule="evenodd" d="M19.525 3.5H4.475C2.555 3.5 1 5.073 1 7.013v8.333c0 1.94 1.555 3.513 3.475 3.513h5.184l1.77 2.901s.018.035.057.083c.103.178.294.3.514.3.22 0 .408-.12.512-.297.044-.052.06-.086.06-.086l1.769-2.902h5.184c1.919 0 3.475-1.573 3.475-3.513V7.013c0-1.94-1.556-3.513-3.475-3.513ZM5.885 9.606s-.6 0-1.145.534V7.988H3.394v5.654h1.36v-.443s.322.584 1.132.584c0 0 1.898-.07 1.898-2.11 0 0-.07-2.066-1.898-2.066v-.001ZM5.59 12.59a.87.87 0 0 1-.866-.872c0-.482.388-.872.866-.872s.865.39.865.872a.87.87 0 0 1-.865.872Zm2.628-3.42V7.862c1.968 0 1.912 2.124 1.912 2.124v3.656H8.832v-3.347c0-1.153-.614-1.125-.614-1.125Zm5.086.454s-2.225 0-2.225 2.093c0 0-.072 2.066 2.225 2.066 0 0 2.277-.004 2.277-2.066 0 0 .075-2.093-2.277-2.093Zm0 2.965a.87.87 0 0 1-.866-.872c0-.481.388-.871.866-.871s.865.39.865.871a.87.87 0 0 1-.865.872Zm5.994-2.828h-.002.002Zm0 .379V9.76h1.308v3.829c0 2.14-1.968 2.12-1.968 2.12h-.524v-1.203h.324c.954 0 .86-.991.86-.991v-.317c-.419.549-1.183.517-1.183.517-1.874 0-1.853-2.013-1.853-2.013 0-2.16 1.905-2.08 1.905-2.08.744 0 1.13.517 1.13.517Zm-1.67 1.577c0 .482.387.872.865.872a.87.87 0 0 0 .865-.872.868.868 0 0 0-.865-.871.868.868 0 0 0-.865.871Z" fill="#000"/></svg><svg width="9.6" height="10" fill="none" viewBox="0 0 24 25" id="ic_sns_facebook_black" x="400" xmlns="http://www.w3.org/2000/svg"><path d="M14.4 3.5h2.8v3.733h-1.867c-1.03 0-1.866.836-1.866 1.867v1.867H17.2l-.974 3.733h-2.922v7.467H9.41V14.7H6v-3.696h3.733V8.167A4.667 4.667 0 0 1 14.4 3.5Z" fill="#000"/></svg><svg width="9.6" height="10" fill="none" viewBox="0 0 24 25" id="ic_sns_insta_black" x="410" xmlns="http://www.w3.org/2000/svg"><path fill-rule="evenodd" clip-rule="evenodd" d="M7.2 5.5A2.2 2.2 0 0 0 5 7.7v9.6a2.2 2.2 0 0 0 2.2 2.2h9.6a2.2 2.2 0 0 0 2.2-2.2V7.7a2.2 2.2 0 0 0-2.2-2.2H7.2ZM3 7.7a4.2 4.2 0 0 1 4.2-4.2h9.6A4.2 4.2 0 0 1 21 7.7v9.6a4.2 4.2 0 0 1-4.2 4.2H7.2A4.2 4.2 0 0 1 3 17.3V7.7Z" fill="#000"/><path fill-rule="evenodd" clip-rule="evenodd" d="M12 9.944a2.556 2.556 0 1 0 0 5.111 2.556 2.556 0 0 0 0-5.111Zm-4.555 2.555a4.556 4.556 0 1 1 9.111 0 4.556 4.556 0 0 1-9.11 0ZM16.8 6.7a1 1 0 0 1 1 1v.017a1 1 0 1 1-2 0V7.7a1 1 0 0 1 1-1Z" fill="#000"/></svg><svg width="9.6" height="10" fill="none" viewBox="0 0 24 25" id="ic_sns_youtube_black" x="420" xmlns="http://www.w3.org/2000/svg"><path fill-rule="evenodd" clip-rule="evenodd" d="M21.019 6.23c.312.321.534.72.643 1.155.29 1.612.431 3.248.421 4.886a26.577 26.577 0 0 1-.421 4.812 2.547 2.547 0 0 1-1.779 1.834c-1.576.421-7.883.421-7.883.421s-6.307 0-7.883-.422a2.549 2.549 0 0 1-1.779-1.76 26.582 26.582 0 0 1-.421-4.885c-.008-1.626.133-3.25.421-4.85a2.548 2.548 0 0 1 1.779-1.833C5.693 5.167 12 5.167 12 5.167s6.306 0 7.883.385c.432.122.823.355 1.136.677Zm-5.81 6.04-5.272 2.998V9.273l5.271 2.998Z" fill="#000"/></svg></svg>