<?xml version="1.0" encoding="UTF-8"?>
<svg id="_레이어_1" data-name="레이어 1" xmlns="http://www.w3.org/2000/svg" viewBox="0 0 1400 1270">
  <defs>
    <style>
      .cls-1 {
        fill: #a20002;
      }

      .cls-2 {
        fill: #fff;
      }

      .cls-3 {
        font-family: Pretendard-Regular-KSCpc-EUC-H, Pretendard;
        font-size: 42px;
      }

      .cls-3, .cls-4 {
        fill: #252525;
      }

      .cls-4 {
        font-family: NotoSerifKR-Bold, 'Noto Serif KR';
        font-size: 58px;
        font-variation-settings: 'wght' 700;
        font-weight: 700;
      }
    </style>
  </defs>
  <text class="cls-4" transform="translate(.29 335.68)"><tspan x="0" y="0">자연이 주는 최고의 황금 비율 1:1.8</tspan></text>
  <text class="cls-3" transform="translate(.29 412.99)"><tspan x="0" y="0">루버스오일에 함유된 오메가3 오메가6의 함유비율</tspan><tspan x="0" y="62">몸의 흐름을 건강하게 관리하는데 도움을 줍니다</tspan></text>
  <g>
    <polygon class="cls-1" points="215.76 165.74 238.86 195 215.76 224.26 24.82 224.26 1.72 195 24.82 165.74 215.76 165.74"/>
    <g>
      <path class="cls-2" d="M34.25,179.25h11.52c6.4.04,10.32,4,10.32,9.76s-4,9.72-10.48,9.68h-4.72v8.88h-6.64v-28.32ZM44.41,193.4c3.12.04,4.8-1.72,4.8-4.4s-1.68-4.32-4.8-4.32h-3.52v8.72h3.52Z"/>
      <path class="cls-2" d="M72.48,207.96c-7.6,0-13.4-5.24-13.44-14.56.04-9.32,5.84-14.52,13.44-14.48,7.6-.04,13.48,5.16,13.52,14.48-.04,9.36-5.92,14.56-13.52,14.56ZM72.48,202.12c4.16-.04,6.68-3.08,6.72-8.72-.04-5.6-2.56-8.68-6.72-8.64-4.08-.04-6.6,3.04-6.64,8.64.04,5.64,2.56,8.68,6.64,8.72Z"/>
      <path class="cls-2" d="M96.57,207.56h-6.64v-28.32h6.64v28.32Z"/>
      <path class="cls-2" d="M124.88,207.56h-5.68l-11.52-16.64h-.16v16.64h-6.64v-28.32h5.76l11.36,16.64h.16v-16.64h6.72v28.32Z"/>
      <path class="cls-2" d="M128.17,179.25h23.76v5.44h-8.56v22.88h-6.64v-22.88h-8.56v-5.44Z"/>
      <path class="cls-2" d="M163.85,193.4c.04-9.24,4.52-14.52,11.84-14.48,7.36-.04,11.88,5.24,11.92,14.48-.04,9.32-4.52,14.56-11.92,14.56s-11.8-5.28-11.84-14.56ZM175.68,202.52c3.04,0,5.04-2.84,5.04-9.12s-2-9.12-5.04-9.12-4.96,2.96-4.96,9.12c-.04,6.28,2,9.12,4.96,9.12Z"/>
      <path class="cls-2" d="M191.05,199.32h6.72c.08,1.88,1.92,3.2,4.4,3.2s4.36-1.44,4.32-3.52c.04-2-1.88-3.44-4.88-3.44h-2.72v-4.8h2.72c2.6.04,4.4-1.36,4.4-3.36s-1.52-3.32-3.76-3.28c-2.36-.04-4.16,1.32-4.24,3.28h-6.32c.04-5,4.48-8.52,10.56-8.48,6.04-.04,10.2,3.44,10.16,8.08.04,3.12-2.28,5.36-5.52,5.84v.24c4.32.48,6.6,2.96,6.56,6.48.04,4.88-4.68,8.4-11.28,8.4s-11-3.56-11.12-8.64Z"/>
    </g>
  </g>
</svg>