<?xml version="1.0" encoding="UTF-8"?>
<svg id="_레이어_1" data-name="레이어 1" xmlns="http://www.w3.org/2000/svg" viewBox="0 0 1400 312.61">
  <defs>
    <style>
      .cls-1 {
        fill: #252525;
      }

      .cls-2 {
        fill: #a20002;
      }

      .cls-3 {
        fill: #fff;
      }
    </style>
  </defs>
  <g>
    <path class="cls-1" d="M3.02,162.75l-1.1-.93c-.23-.27-.23-.56,0-.87,3.13-2.51,5.99-5.25,8.58-8.21,2.59-2.96,4.84-5.99,6.76-9.11,1.91-3.11,3.43-6.12,4.55-9.02l4.18-1.39,4.12,1.28c-1.08,2.59-2.48,5.19-4.2,7.8-1.72,2.61-3.71,5.14-5.97,7.6-2.26,2.46-4.75,4.77-7.45,6.93-2.71,2.17-5.57,4.1-8.58,5.8-.35.23-.64.27-.87.12ZM23.84,130.79v3.89c-.62,0-1.42,0-2.41-.03-.99-.02-2.02-.02-3.1,0-1.08.02-2.06.04-2.93.06-.87.02-1.5.05-1.89.09-.62.04-1.39.15-2.32.32-.93.17-1.68.36-2.26.55-.89-.43-1.79-.95-2.7-1.57-.91-.62-1.69-1.26-2.35-1.91-.23-.23-.29-.46-.17-.7l.46-.81c.89.12,1.86.2,2.9.26s1.97.09,2.78.09h2.03c.93,0,1.95,0,3.07-.03,1.12-.02,2.27-.04,3.45-.06,1.18-.02,2.25-.04,3.22-.06.97-.02,1.7-.05,2.2-.09ZM28.42,151.03l-.46.46-9.28-3.94,2.78-3.19,6.96,6.67ZM29.52,159.15l-10.85-11.6,9.74,3.48,2.84.99c.46.7.96,1.55,1.48,2.55.52,1.01.92,1.82,1.19,2.44.39,1.04.46,1.82.23,2.32-.19.46-.61.81-1.25,1.04s-1.21.25-1.71.06c-.23-.08-.5-.25-.81-.52-.31-.27-.6-.52-.87-.75ZM30.1,134.5l-8.29.12,1.97-3.83,2.44-1.04c.42-.15.85-.15,1.28,0,.54.19,1.23.47,2.06.84.83.37,1.42.69,1.77.96.39.19.42.5.12.93l-1.33,2.03ZM42.51,176.32h-3.77c-.08-.54-.17-1.37-.26-2.49-.1-1.12-.18-2.35-.26-3.68s-.13-2.6-.14-3.8c-.02-1.2-.03-2.15-.03-2.84v-37.47c-.46-.66-1.11-1.3-1.94-1.91-.83-.62-1.77-1.12-2.81-1.51l.7-2.03c.08-.12.16-.21.26-.29.1-.08.3-.12.61-.12.93.04,1.97.16,3.13.35,1.16.19,2.3.42,3.42.67,1.12.25,2.03.53,2.73.84.62.23.91.75.87,1.57l-.29,3.54v34.28c0,.97-.05,2.1-.14,3.39-.1,1.3-.24,2.64-.44,4.03s-.43,2.74-.7,4.06c-.27,1.31-.58,2.46-.93,3.42ZM53.82,148.42l-10.67.29v-4.06l4.76-.23,1.86-1.22c.85-.04,1.81-.03,2.87.03s1.85.15,2.35.26c.77.16,1.18.6,1.22,1.33.08.66.04,1.27-.12,1.83-.16.56-.35.96-.58,1.19-.16.19-.41.34-.75.44-.35.1-.66.15-.93.15Z"/>
    <path class="cls-1" d="M85.26,139.49c0,2.4-.57,4.52-1.71,6.38s-2.72,3.32-4.73,4.38c-2.01,1.06-4.33,1.59-6.96,1.59s-4.96-.53-6.99-1.59c-2.03-1.06-3.62-2.52-4.76-4.38-1.14-1.86-1.71-3.98-1.71-6.38s.57-4.51,1.71-6.35c1.14-1.84,2.73-3.27,4.76-4.29,2.03-1.02,4.36-1.54,6.99-1.54s4.95.51,6.96,1.54c2.01,1.02,3.59,2.46,4.73,4.29,1.14,1.84,1.71,3.95,1.71,6.35ZM78.71,139.49c0-1.55-.29-2.87-.87-3.97s-1.39-1.95-2.44-2.55c-1.04-.6-2.22-.9-3.54-.9s-2.54.3-3.57.9c-1.03.6-1.84,1.45-2.44,2.55-.6,1.1-.9,2.43-.9,3.97s.3,2.82.9,3.94c.6,1.12,1.41,1.97,2.44,2.55,1.02.58,2.21.87,3.57.87s2.49-.29,3.54-.87,1.86-1.43,2.44-2.55c.58-1.12.87-2.44.87-3.94ZM79.52,165.07h-6.84v-3.13c-.46-.39-1.05-.78-1.77-1.19-.72-.41-1.46-.73-2.23-.96l.41-1.74c.04-.31.31-.46.81-.46.85,0,1.83.03,2.93.09,1.1.06,2.17.14,3.22.23,1.04.1,1.89.22,2.55.38.7.16,1.04.62,1.04,1.39l-.12,3.07v2.32ZM80.91,170.46l-2.15,4c-2.2-.04-3.77-.49-4.7-1.36-.93-.87-1.39-2.17-1.39-3.92v-4.64h6.84v4.47c0,.97.46,1.45,1.39,1.45ZM103.3,174.23l-24.59.23,2.2-4h5.74c1.16,0,2.3-.01,3.42-.03,1.12-.02,2.18-.04,3.19-.06,1-.02,1.86-.05,2.55-.09l2.32-1.28c.97-.04,2.07,0,3.31.09,1.24.1,2.18.24,2.84.44.73.15,1.1.54,1.1,1.16,0,.81-.11,1.5-.32,2.06-.21.56-.44.94-.67,1.13-.23.23-.6.35-1.1.35ZM87.7,144.02l2.67,3.77c-.5.04-1.1.14-1.8.29-.7.16-1.3.31-1.8.46-.81-.46-1.58-.98-2.29-1.54-.72-.56-1.36-1.13-1.94-1.71-.23-.23-.29-.48-.17-.75l.52-.81c.66.08,1.43.15,2.32.2.89.06,1.72.09,2.49.09ZM89.38,131.37l2.67,3.77c-.5.04-1.09.13-1.77.26-.68.14-1.29.3-1.83.49-.81-.46-1.58-.98-2.29-1.54-.72-.56-1.36-1.13-1.94-1.71-.23-.23-.29-.48-.17-.75l.52-.81c.7.08,1.48.15,2.35.2.87.06,1.69.09,2.46.09ZM97.03,143.67v3.94c-.66-.04-1.43-.06-2.32-.06s-1.73.02-2.52.06c-.79.04-1.4.1-1.83.17l-2.67-3.77c.7,0,1.62,0,2.78-.03,1.16-.02,2.35-.06,3.57-.12,1.22-.06,2.21-.13,2.99-.2ZM98.43,131.02v3.89c-.62-.04-1.35-.05-2.2-.03-.85.02-1.65.05-2.41.09-.75.04-1.34.1-1.77.17l-2.67-3.77c.7,0,1.6,0,2.73-.03,1.12-.02,2.26-.06,3.42-.12,1.16-.06,2.13-.12,2.9-.2ZM99.41,161.76h-3.83c-.12-.58-.22-1.38-.32-2.41-.1-1.02-.17-2.15-.23-3.36-.06-1.22-.1-2.39-.12-3.51-.02-1.12-.03-2.03-.03-2.73v-23.78c-.43-.62-1.04-1.24-1.86-1.86-.81-.62-1.72-1.1-2.73-1.45l.7-2.09c.12-.27.41-.41.87-.41.93.04,1.97.16,3.13.35,1.16.19,2.28.42,3.36.67,1.08.25,1.95.53,2.61.84.58.23.85.75.81,1.57l-.23,3.42v20.71c0,1.47-.09,3.08-.26,4.84-.17,1.76-.43,3.44-.75,5.05-.33,1.6-.71,2.99-1.13,4.15Z"/>
    <path class="cls-1" d="M139.49,144.07c0,2.48-.6,4.67-1.8,6.58-1.2,1.91-2.85,3.42-4.96,4.52-2.11,1.1-4.51,1.65-7.22,1.65s-5.11-.55-7.22-1.65c-2.11-1.1-3.76-2.61-4.96-4.52-1.2-1.91-1.8-4.11-1.8-6.58s.6-4.68,1.8-6.61c1.2-1.93,2.85-3.45,4.96-4.55,2.11-1.1,4.51-1.65,7.22-1.65s5.11.55,7.22,1.65c2.11,1.1,3.76,2.62,4.96,4.55,1.2,1.93,1.8,4.14,1.8,6.61ZM132.53,144.07c0-1.58-.3-2.94-.9-4.06-.6-1.12-1.42-1.99-2.46-2.61-1.04-.62-2.26-.93-3.65-.93-1.31,0-2.5.31-3.57.93-1.06.62-1.91,1.49-2.52,2.61-.62,1.12-.93,2.48-.93,4.06s.31,2.89.93,4.03c.62,1.14,1.46,2.01,2.52,2.61,1.06.6,2.25.9,3.57.9,1.39,0,2.61-.3,3.65-.9,1.04-.6,1.87-1.47,2.46-2.61.6-1.14.9-2.48.9-4.03ZM152.25,176.32h-3.77c-.08-.54-.16-1.37-.26-2.49-.1-1.12-.18-2.35-.26-3.68-.08-1.33-.13-2.6-.15-3.8-.02-1.2-.03-2.15-.03-2.84v-37.47c-.46-.66-1.11-1.3-1.94-1.91-.83-.62-1.77-1.12-2.81-1.51l.7-2.03c.08-.12.16-.21.26-.29.1-.08.3-.12.61-.12.93.04,1.97.16,3.13.35,1.16.19,2.3.42,3.42.67,1.12.25,2.03.53,2.73.84.62.23.89.75.81,1.57l-.23,3.54v34.28c0,.97-.05,2.1-.15,3.39-.1,1.3-.24,2.64-.43,4.03-.19,1.39-.43,2.74-.7,4.06-.27,1.31-.58,2.46-.93,3.42Z"/>
    <path class="cls-1" d="M215.53,150.22l2.49-1.16c.81.04,1.69.12,2.64.23.95.12,1.86.25,2.73.41.87.16,1.54.33,2,.52.66.23.99.68.99,1.33,0,.74-.19,1.39-.58,1.97s-.77.97-1.16,1.16c-.46-.08-1.17-.14-2.12-.17-.95-.04-1.91-.07-2.87-.09-.97-.02-1.76-.03-2.38-.03-.66,0-1.81,0-3.45.03-1.64.02-3.55.04-5.71.06-2.17.02-4.42.04-6.76.06-2.34.02-4.58.05-6.73.09-2.15.04-4,.08-5.57.12-1.57.04-2.64.08-3.22.12-.5.04-1.18.13-2.03.26-.85.14-1.69.28-2.52.44-.83.15-1.52.31-2.06.46-1.16-.43-2.32-1.02-3.48-1.8-1.16-.77-2.17-1.55-3.02-2.32-.23-.23-.29-.5-.17-.81l.52-.99c1.16.19,2.42.35,3.77.46,1.35.12,2.57.19,3.65.23h2.93c1.37,0,3.02,0,4.96-.03,1.93-.02,4-.05,6.21-.09,2.2-.04,4.41-.08,6.61-.12,2.2-.04,4.28-.08,6.24-.12,1.95-.04,3.64-.08,5.08-.12,1.43-.04,2.44-.08,3.02-.12ZM178,146.51l-.81-.93c-.27-.39-.19-.66.23-.81,5.49-2.13,10.46-4.51,14.91-7.16,4.45-2.65,8.22-5.5,11.31-8.56l4.93-1.57,4.93,1.45c-2.75,2.75-5.94,5.26-9.57,7.54-3.64,2.28-7.56,4.27-11.77,5.97-4.21,1.7-8.6,3.09-13.17,4.18-.5.12-.83.08-.99-.12ZM207.06,125.11v4h-6.29c-1.26,0-2.49,0-3.68.03-1.2.02-2.26.04-3.19.06-.93.02-1.62.05-2.09.09-.7.04-1.6.15-2.7.32-1.1.17-2.02.38-2.75.61-.97-.43-1.94-.96-2.93-1.6-.99-.64-1.83-1.27-2.52-1.88-.27-.27-.33-.52-.17-.75l.46-.99c.97.16,2.02.27,3.16.35,1.14.08,2.16.12,3.04.12h2.75c1.29,0,2.76,0,4.41-.03,1.64-.02,3.3-.05,4.96-.09,1.66-.04,3.17-.08,4.52-.12,1.35-.04,2.36-.08,3.02-.12ZM200.8,175.97h-3.77c-.08-.62-.16-1.45-.23-2.49s-.15-2.17-.23-3.36c-.08-1.2-.14-2.34-.17-3.42-.04-1.08-.06-1.95-.06-2.61v-11.48h6.73v9.45c0,.89-.07,1.95-.2,3.19-.14,1.24-.3,2.52-.49,3.86s-.43,2.6-.7,3.8c-.27,1.2-.56,2.22-.87,3.07ZM213.03,138.33l-.17.41-15.83-.46,4.35-2.78,11.66,2.84ZM217.79,144.25l-20.76-5.97,16.01.06,3.02.06c.7.23,1.47.55,2.32.96.85.41,1.49.76,1.91,1.07.77.54,1.18,1.04,1.22,1.51.08.54-.06,1.04-.41,1.51-.35.46-.77.75-1.28.87-.27.12-.59.16-.96.12-.37-.04-.72-.1-1.07-.17ZM213.5,128.94l-9.86.12,3.36-3.94,2.84-1.04c.46-.19.95-.19,1.45,0,.58.19,1.32.47,2.23.84.91.37,1.58.67,2,.9.19.12.3.27.32.46.02.19-.07.37-.26.52l-2.09,2.15Z"/>
    <path class="cls-1" d="M268.66,148.54l2.49-1.1c.81.04,1.69.12,2.64.23s1.86.25,2.73.41c.87.16,1.54.33,2,.52.66.23.99.66.99,1.28,0,.73-.19,1.4-.58,2-.39.6-.77.98-1.16,1.13-.46-.08-1.17-.13-2.12-.17-.95-.04-1.91-.07-2.87-.09-.97-.02-1.76-.03-2.38-.03-.66,0-1.81.01-3.45.03-1.64.02-3.55.04-5.71.06-2.17.02-4.42.04-6.76.06-2.34.02-4.58.05-6.73.09-2.15.04-4,.08-5.57.12-1.57.04-2.64.08-3.22.12-.5.04-1.18.13-2.03.26-.85.14-1.69.29-2.52.46-.83.17-1.52.34-2.06.49-1.16-.46-2.32-1.08-3.48-1.86-1.16-.77-2.17-1.53-3.02-2.26-.23-.23-.29-.5-.17-.81l.52-.99c1.16.15,2.42.29,3.77.41,1.35.12,2.57.19,3.65.23h2.93c1.37,0,3.02,0,4.96-.03,1.93-.02,4-.04,6.21-.06,2.2-.02,4.41-.05,6.61-.09,2.2-.04,4.28-.08,6.24-.12,1.95-.04,3.64-.09,5.08-.15,1.43-.06,2.44-.11,3.02-.15ZM243.95,131.08h-6.9v-2.32c-.39-.42-.92-.82-1.59-1.19-.68-.37-1.38-.67-2.12-.9l.41-1.74c.08-.31.37-.46.87-.46.81,0,1.76.03,2.84.09,1.08.06,2.14.14,3.16.23,1.02.1,1.83.22,2.41.38.7.15,1.04.64,1.04,1.45l-.12,3.07v1.39ZM244.76,166.35h-6.67v-3.94c-.5-.39-1.11-.76-1.83-1.13-.72-.37-1.46-.69-2.23-.96l.46-1.68c.04-.35.31-.52.81-.52.81,0,1.77.03,2.87.09,1.1.06,2.17.14,3.22.23,1.04.1,1.88.22,2.49.38.66.19.99.68.99,1.45l-.12,3.07v3.02ZM245.4,138.51l-2.38,4c-2.01-.04-3.51-.53-4.5-1.48-.99-.95-1.48-2.29-1.48-4.03v-6.55h6.9v6.55c0,.54.11.93.32,1.16.21.23.59.35,1.13.35ZM246.21,169.88l-2.61,4.06c-1.97-.04-3.38-.49-4.23-1.36s-1.28-2.17-1.28-3.91v-4.64h6.67v4.35c0,.5.11.88.32,1.13.21.25.59.38,1.13.38ZM269.18,142.16l-26.16.35,2.2-4h6.41c1.29,0,2.59-.02,3.89-.06,1.29-.04,2.49-.08,3.6-.12,1.1-.04,2.02-.08,2.75-.12l2.26-1.22c.97,0,2.05.05,3.25.15,1.2.1,2.11.22,2.73.38.7.19,1.04.6,1.04,1.22,0,.77-.1,1.44-.29,2-.19.56-.41.92-.64,1.07-.23.23-.58.35-1.04.35ZM269.41,173.71l-25.87.23,2.32-4.06h6.15c1.24,0,2.47,0,3.71-.03,1.24-.02,2.39-.04,3.45-.06,1.06-.02,1.96-.05,2.7-.09l2.38-1.33c.97,0,2.08.05,3.33.15,1.26.1,2.21.22,2.87.38.7.15,1.04.56,1.04,1.22,0,.85-.11,1.56-.32,2.12-.21.56-.42.94-.61,1.13-.23.23-.62.35-1.16.35Z"/>
    <path class="cls-1" d="M299.22,159.68l4.06,4.7c-.7.04-1.58.17-2.64.41s-1.9.46-2.52.7c-1.12-.5-2.29-1.17-3.51-2-1.22-.83-2.25-1.67-3.1-2.52-.23-.19-.29-.42-.17-.7l.41-1.04c1.2.19,2.46.33,3.8.41,1.33.08,2.56.1,3.68.06ZM294.64,154.05l-.93-.99c-.23-.27-.23-.54,0-.81,4.21-1.93,8.06-4.22,11.54-6.87,3.48-2.65,6.42-5.33,8.82-8.03l4.35-1.57,4.35,1.22c-1.93,2.51-4.31,4.87-7.13,7.08-2.82,2.2-5.94,4.15-9.34,5.83-3.4,1.68-6.98,3.03-10.73,4.03-.46.19-.77.23-.93.12ZM316.62,133.58v3.77c-.62,0-1.44.01-2.46.03-1.03.02-2.11.04-3.25.06-1.14.02-2.18.04-3.1.06-.93.02-1.59.05-1.97.09-.62.04-1.37.14-2.26.32-.89.17-1.62.36-2.2.55-.89-.42-1.77-.94-2.64-1.54-.87-.6-1.63-1.21-2.29-1.83-.19-.19-.25-.44-.17-.75l.46-.81c.89.15,1.84.26,2.84.32,1,.06,1.91.09,2.73.09h2c.91,0,1.96,0,3.16-.03,1.2-.02,2.41-.05,3.62-.09,1.22-.04,2.32-.08,3.31-.12.99-.04,1.73-.08,2.23-.12ZM331.53,157.18l.35,2.26c.08.43-.12.7-.58.81-1.35.35-2.95.69-4.79,1.02-1.84.33-3.79.67-5.86,1.02-2.07.35-4.16.66-6.26.93-2.11.27-4.12.51-6.03.73-1.91.21-3.61.36-5.07.44l-4.06-4.7c1.7-.04,3.65-.12,5.86-.23,2.2-.12,4.5-.26,6.87-.44,2.38-.17,4.74-.39,7.08-.64,2.34-.25,4.51-.52,6.52-.81,2.01-.29,3.71-.57,5.1-.84.19-.08.38-.06.55.06s.28.25.32.41ZM302.59,125.63l.52-.64c2.47.43,4.89.72,7.25.87,2.36.16,4.39.21,6.09.17.62,0,1.04.19,1.28.58.23.46.32,1.07.26,1.83-.06.75-.24,1.29-.55,1.6-.19.23-.56.35-1.1.35-.77,0-1.69.01-2.75.03-1.06.02-2.13.06-3.19.12s-2,.13-2.81.2c-.35,0-.62,0-.81-.03-.19-.02-.39-.11-.58-.26-.58-.42-1.2-1-1.86-1.74-.66-.73-1.22-1.47-1.68-2.2-.15-.35-.17-.64-.06-.87ZM315.87,155.91l-6.38-1.16c-.23-.35-.6-.71-1.1-1.07-.5-.37-1.01-.63-1.51-.78l.46-1.86c.04-.15.12-.26.26-.32s.38-.09.73-.09c.7,0,1.5.03,2.41.09.91.06,1.8.15,2.67.29.87.14,1.57.28,2.12.44.5.15.72.56.64,1.22l-.29,3.25ZM315.69,159.97h-6.21v-5.22l6.38,1.16-.17,4.06ZM320.51,145.58l-.29.46-10.09-.23,3.42-2.84,6.96,2.61ZM323.47,151.85l-13.34-6.03,10.38-.23h2.55c.58.35,1.22.77,1.91,1.28.7.5,1.24.95,1.62,1.33.31.31.53.59.67.84.14.25.2.49.2.73,0,.58-.21,1.1-.64,1.57-.43.46-.87.74-1.33.81-.31.08-.64.08-.99,0-.35-.08-.7-.17-1.04-.29ZM322.77,137l-8.7.35,2.49-3.77,2.44-1.04c.46-.19.91-.19,1.33,0,.54.19,1.22.47,2.03.84.81.37,1.39.67,1.74.9.39.27.43.6.12.99l-1.45,1.74ZM335.01,176.32h-3.77c-.12-.54-.21-1.37-.29-2.49-.08-1.12-.16-2.35-.23-3.68-.08-1.33-.14-2.6-.17-3.8-.04-1.2-.06-2.15-.06-2.84v-37.47c-.43-.66-1.06-1.3-1.91-1.91-.85-.62-1.78-1.12-2.78-1.51l.7-2.03c.08-.12.16-.21.26-.29.1-.08.28-.12.55-.12.93.04,1.98.16,3.16.35,1.18.19,2.33.42,3.45.67,1.12.25,2.03.53,2.73.84.62.23.89.75.81,1.57l-.23,3.54v34.28c0,.97-.05,2.1-.15,3.39-.1,1.3-.24,2.64-.43,4.03-.19,1.39-.43,2.74-.7,4.06-.27,1.31-.58,2.46-.93,3.42Z"/>
    <path class="cls-1" d="M386.51,162.05l2.49-1.1c.81,0,1.69.07,2.64.2.95.14,1.86.28,2.73.44.87.15,1.54.31,2,.46.66.23.99.68.99,1.33,0,.74-.19,1.4-.58,2-.39.6-.77.98-1.16,1.13-.46-.08-1.17-.14-2.12-.17-.95-.04-1.91-.07-2.87-.09-.97-.02-1.76-.03-2.38-.03-.66,0-1.81,0-3.45.03-1.64.02-3.55.04-5.71.06-2.17.02-4.42.04-6.76.06-2.34.02-4.58.05-6.73.09-2.15.04-4,.08-5.57.12-1.57.04-2.64.08-3.22.12-.5.04-1.18.13-2.03.26-.85.14-1.69.29-2.52.46-.83.17-1.52.34-2.06.49-1.16-.46-2.32-1.08-3.48-1.86-1.16-.77-2.17-1.55-3.02-2.32-.23-.23-.29-.48-.17-.75l.52-1.04c1.16.19,2.42.35,3.77.46,1.35.12,2.57.19,3.65.23h2.93c1.37,0,3.02,0,4.96-.03,1.93-.02,4-.04,6.21-.06,2.2-.02,4.41-.05,6.61-.09,2.2-.04,4.28-.08,6.24-.12,1.95-.04,3.64-.09,5.08-.15,1.43-.06,2.44-.11,3.02-.15ZM382.28,127.78v4.29c-.97,0-2.18,0-3.65.03-1.47.02-3.02.04-4.64.06-1.62.02-3.21.05-4.76.09-1.55.04-2.93.08-4.15.12-1.22.04-2.14.08-2.75.12-.85.04-1.88.15-3.07.35-1.2.19-2.19.41-2.96.64-1.01-.5-2.03-1.11-3.07-1.83-1.04-.71-1.91-1.42-2.61-2.12-.31-.31-.39-.6-.23-.87l.46-.93c1.04.16,2.17.28,3.39.38,1.22.1,2.27.15,3.16.15h2.64c1.22,0,2.65,0,4.29-.03,1.64-.02,3.36-.05,5.16-.09,1.8-.04,3.55-.08,5.25-.12,1.7-.04,3.22-.08,4.55-.12,1.33-.04,2.33-.08,2.99-.12ZM371.55,149.29l-6.55-1.1c-.31-.39-.8-.78-1.48-1.19-.68-.41-1.36-.73-2.06-.96l.41-1.86c.04-.12.12-.2.23-.26.12-.06.33-.09.64-.09.7-.04,1.61,0,2.75.09,1.14.1,2.24.21,3.31.35,1.06.14,1.85.28,2.35.44.62.19.87.6.75,1.22l-.35,3.36ZM371.37,163.79h-6.32l-.06-15.6,6.55,1.1-.17,14.5ZM382.45,156.25l-1.91-.41c-.35-.04-.5-.37-.46-.99.27-1.55.5-3.28.7-5.19s.34-3.92.44-6c.1-2.09.17-4.13.23-6.12.06-1.99.07-3.82.03-5.48l4-1.22,3.54,1.45c-.12,2.28-.43,4.83-.93,7.66-.5,2.82-1.14,5.61-1.91,8.35-.77,2.75-1.64,5.22-2.61,7.42-.23.39-.6.56-1.1.52ZM389.01,132.3l-7.54-.23.52-4.23,2.73-1.33c.42-.23.83-.23,1.22,0,.54.23,1.22.58,2.03,1.04.81.46,1.43.83,1.86,1.1.27.23.33.56.17.99l-.99,2.67Z"/>
    <path class="cls-1" d="M405.48,157.94l4.12,4.64c-.7.04-1.59.17-2.67.41-1.08.23-1.95.48-2.61.75-1.08-.54-2.23-1.23-3.45-2.06-1.22-.83-2.27-1.65-3.16-2.46-.23-.23-.29-.48-.17-.75l.46-.99c1.16.16,2.42.28,3.77.38,1.35.1,2.59.13,3.71.09ZM429.37,139.49c0,2.2-.58,4.17-1.74,5.89-1.16,1.72-2.74,3.08-4.73,4.09-1.99,1.01-4.3,1.51-6.93,1.51s-4.83-.5-6.84-1.51c-2.01-1-3.59-2.37-4.73-4.09-1.14-1.72-1.71-3.68-1.71-5.89s.57-4.17,1.71-5.89c1.14-1.72,2.72-3.06,4.73-4.03,2.01-.97,4.29-1.45,6.84-1.45s4.94.48,6.93,1.45c1.99.97,3.57,2.31,4.73,4.03,1.16,1.72,1.74,3.68,1.74,5.89ZM437.78,155.38l.35,2.38c.08.43-.12.7-.58.81-1.35.31-2.95.64-4.79.99-1.84.35-3.78.69-5.83,1.01-2.05.33-4.13.63-6.23.9-2.11.27-4.12.5-6.03.7-1.91.19-3.61.33-5.08.41l-4.12-4.64c1.74-.04,3.7-.12,5.89-.23,2.18-.12,4.47-.27,6.84-.46,2.38-.19,4.74-.41,7.08-.64,2.34-.23,4.51-.49,6.52-.78,2.01-.29,3.71-.57,5.1-.84.5-.08.79.06.87.41ZM422.59,139.49c0-1.35-.28-2.5-.84-3.45-.56-.95-1.33-1.69-2.32-2.23-.99-.54-2.14-.81-3.45-.81s-2.41.27-3.39.81c-.99.54-1.76,1.29-2.32,2.23-.56.95-.84,2.1-.84,3.45,0,1.28.28,2.41.84,3.39.56.99,1.33,1.74,2.32,2.26.99.52,2.12.78,3.39.78s2.46-.26,3.45-.78,1.76-1.28,2.32-2.26c.56-.99.84-2.12.84-3.39ZM441.15,176.32h-3.77c-.08-.54-.17-1.37-.26-2.49-.1-1.12-.18-2.35-.26-3.68-.08-1.33-.13-2.6-.14-3.8-.02-1.2-.03-2.15-.03-2.84v-37.47c-.43-.66-1.06-1.3-1.91-1.91-.85-.62-1.78-1.12-2.78-1.51l.64-2.03c.08-.12.17-.21.29-.29.12-.08.31-.12.58-.12.93.04,1.98.16,3.16.35,1.18.19,2.33.42,3.45.67,1.12.25,2.01.53,2.67.84.62.23.91.75.87,1.57l-.29,3.54v34.28c0,.97-.05,2.1-.14,3.39-.1,1.3-.24,2.64-.44,4.03s-.43,2.74-.7,4.06c-.27,1.31-.58,2.46-.93,3.42Z"/>
    <path class="cls-1" d="M468.58,153.41l4.06,4.52c-.74.04-1.62.17-2.64.38-1.02.21-1.87.42-2.52.61-1.04-.5-2.11-1.14-3.19-1.91-1.08-.77-2.05-1.55-2.9-2.32-.23-.23-.29-.48-.17-.75l.46-.99c1.08.19,2.23.33,3.45.41,1.22.08,2.37.1,3.45.06ZM487.66,129.11l1.97-.81c.85,0,1.83.09,2.93.26,1.1.17,1.92.34,2.46.49.46.19.7.54.7,1.04,0,.66-.17,1.26-.52,1.8-.35.54-.66.89-.93,1.04-.35-.04-.85-.07-1.51-.09-.66-.02-1.33-.04-2-.06-.68-.02-1.25-.03-1.71-.03-.43,0-1.23.01-2.41.03-1.18.02-2.53.05-4.06.09-1.53.04-3.04.08-4.55.12-1.51.04-2.84.07-4,.09-1.16.02-1.95.05-2.38.09-.58.04-1.33.14-2.23.29-.91.15-1.63.31-2.17.46-.85-.42-1.7-.96-2.55-1.59-.85-.64-1.59-1.27-2.2-1.89-.19-.23-.25-.42-.17-.58l.46-.87c.85.16,1.82.28,2.9.38,1.08.1,1.97.15,2.67.15.46,0,1.34,0,2.64-.03,1.29-.02,2.79-.04,4.5-.06,1.7-.02,3.38-.05,5.05-.09,1.66-.04,3.14-.08,4.44-.12,1.3-.04,2.19-.08,2.7-.12ZM491.55,141.17c0,1.39-.51,2.61-1.54,3.65-1.03,1.04-2.41,1.85-4.15,2.41-1.74.56-3.67.84-5.8.84s-4.12-.28-5.86-.84c-1.74-.56-3.11-1.36-4.12-2.41-1.01-1.04-1.51-2.26-1.51-3.65,0-1.47.5-2.72,1.51-3.74,1.01-1.02,2.38-1.83,4.12-2.41s3.69-.87,5.86-.87,4.06.29,5.8.87,3.12,1.38,4.15,2.41c1.02,1.02,1.54,2.27,1.54,3.74ZM498.97,150.86l.29,2.2c.08.39-.1.64-.52.75-1.24.31-2.72.64-4.44.99-1.72.35-3.54.69-5.45,1.02-1.91.33-3.86.63-5.83.9-1.97.27-3.85.51-5.63.73-1.78.21-3.36.38-4.76.49l-4.06-4.52c1.58-.04,3.41-.12,5.48-.23,2.07-.12,4.22-.26,6.47-.43,2.24-.17,4.46-.39,6.64-.64,2.18-.25,4.23-.51,6.15-.78,1.91-.27,3.53-.56,4.84-.87.46-.12.73.02.81.41ZM470.84,122.44l.52-.64c2.51.46,4.99.78,7.42.96,2.44.17,4.56.24,6.38.2.58,0,.97.19,1.16.58.23.43.32,1.01.26,1.74-.06.74-.24,1.24-.55,1.51-.12.15-.26.26-.43.32s-.38.09-.61.09c-.85,0-1.83.01-2.93.03-1.1.02-2.2.05-3.28.09-1.08.04-2.05.1-2.9.17-.35,0-.61,0-.78-.03-.17-.02-.36-.11-.55-.26-.62-.42-1.27-1.02-1.94-1.77-.68-.75-1.25-1.48-1.71-2.17-.16-.35-.17-.62-.06-.81ZM485.17,141.17c0-1.08-.47-1.92-1.42-2.52-.95-.6-2.17-.9-3.68-.9s-2.69.3-3.65.9c-.97.6-1.45,1.44-1.45,2.52s.48,1.87,1.45,2.46c.97.6,2.18.9,3.65.9s2.74-.3,3.68-.9c.95-.6,1.42-1.42,1.42-2.46ZM483.37,153.7h-6.26v-6.55h6.26v6.55ZM503.9,166.75c0,2.01-.57,3.73-1.71,5.16-1.14,1.43-2.66,2.53-4.55,3.31-1.9.77-4,1.16-6.32,1.16s-4.38-.39-6.29-1.16c-1.91-.77-3.44-1.88-4.58-3.31-1.14-1.43-1.71-3.15-1.71-5.16,0-1.82.57-3.38,1.71-4.7,1.14-1.31,2.67-2.33,4.58-3.04,1.91-.71,4.01-1.07,6.29-1.07s4.43.36,6.32,1.07c1.89.72,3.41,1.73,4.55,3.04,1.14,1.31,1.71,2.88,1.71,4.7ZM497.23,166.75c0-1.47-.56-2.63-1.68-3.48-1.12-.85-2.53-1.28-4.23-1.28s-3.05.43-4.18,1.28c-1.12.85-1.68,2.01-1.68,3.48,0,1.55.56,2.73,1.68,3.54,1.12.81,2.51,1.22,4.18,1.22s3.11-.41,4.23-1.22c1.12-.81,1.68-1.99,1.68-3.54ZM502.51,158.11h-3.89c-.12-.46-.21-1.14-.29-2.03-.08-.89-.15-1.84-.23-2.84-.08-1-.14-1.97-.17-2.9-.04-.93-.06-1.7-.06-2.32v-22.04c-.39-.62-.99-1.24-1.8-1.86-.81-.62-1.72-1.1-2.73-1.45l.7-2.09c.08-.27.37-.41.87-.41.89.04,1.91.16,3.07.35,1.16.19,2.28.42,3.36.67,1.08.25,1.97.53,2.67.84.58.23.85.75.81,1.57l-.23,3.42v19.31c0,1.12-.1,2.43-.29,3.92-.19,1.49-.45,2.94-.75,4.35-.31,1.41-.66,2.58-1.04,3.51ZM513.65,143.96l-10.67.29v-4.06l4.76-.23,1.86-1.22c.85-.04,1.81-.03,2.87.03,1.06.06,1.85.15,2.35.26.77.16,1.18.6,1.22,1.33.08.66.04,1.27-.12,1.83-.16.56-.35.96-.58,1.19-.16.23-.41.39-.75.46-.35.08-.66.12-.93.12Z"/>
    <path class="cls-1" d="M557.5,143.55l2.49-1.1c.81,0,1.69.07,2.64.2.95.14,1.86.28,2.73.44.87.15,1.54.31,2,.46.66.23.99.68.99,1.33,0,.74-.19,1.4-.58,2-.39.6-.77.98-1.16,1.13-.46-.08-1.17-.14-2.12-.17-.95-.04-1.91-.07-2.87-.09-.97-.02-1.76-.03-2.38-.03-.66,0-1.81,0-3.45.03-1.64.02-3.55.04-5.71.06-2.17.02-4.42.04-6.76.06-2.34.02-4.58.05-6.73.09-2.15.04-4,.08-5.57.12-1.57.04-2.64.08-3.22.12-.5.04-1.18.13-2.03.26-.85.14-1.69.29-2.52.46-.83.17-1.52.34-2.06.49-1.16-.46-2.32-1.08-3.48-1.86-1.16-.77-2.17-1.55-3.02-2.32-.23-.23-.29-.48-.17-.75l.52-1.04c1.16.19,2.42.35,3.77.46,1.35.12,2.57.19,3.65.23h2.93c1.37,0,3.02,0,4.96-.03,1.93-.02,4-.04,6.21-.06,2.2-.02,4.41-.05,6.61-.09,2.2-.04,4.28-.08,6.24-.12,1.95-.04,3.64-.09,5.08-.15,1.43-.06,2.44-.11,3.02-.15ZM552.22,125.34v4.23h-7.31c-1.43,0-2.83.02-4.21.06-1.37.04-2.6.07-3.68.09-1.08.02-1.9.05-2.44.09-.77.04-1.74.17-2.9.38-1.16.21-2.13.43-2.9.67-1.04-.46-2.09-1.05-3.13-1.77-1.04-.72-1.93-1.42-2.67-2.12-.31-.27-.39-.54-.23-.81l.46-.99c1.04.15,2.19.28,3.45.38,1.26.1,2.35.15,3.28.15h2.46c1.1,0,2.39,0,3.86-.03,1.47-.02,3.01-.04,4.61-.06,1.6-.02,3.16-.05,4.67-.09,1.51-.04,2.84-.07,4-.09,1.16-.02,2.05-.05,2.67-.09ZM534.59,159.85l-6.9-.7c-.77-.89-1.88-1.6-3.31-2.15l.52-1.8c.08-.23.29-.35.64-.35.77,0,1.7.03,2.78.09,1.08.06,2.17.15,3.28.26,1.1.12,2.04.23,2.81.35l.17,4.29ZM533.19,175.92h-3.65c-.23-.46-.43-1.03-.61-1.71-.17-.68-.28-1.34-.32-2l-.93-13.11,6.9-.41.06,12.7c.04,1.12-.06,2.01-.29,2.67-.23.66-.62,1.28-1.16,1.86ZM555.87,173.89l-21.75.23.17-4.35h7.28c1.33,0,2.6-.02,3.8-.06,1.2-.04,2.24-.08,3.13-.12l1.86-.52c1-.35,1.86-.52,2.55-.52s1.31.19,1.86.58l1.62.81c.35.19.52.5.52.93,0,.7-.11,1.31-.32,1.83-.21.52-.46.92-.73,1.19ZM550.36,155.21l-.23,4.35c-2.44,0-5.07.03-7.89.09-2.82.06-5.41.13-7.77.2l-.12-4.29c.89,0,2.05-.02,3.48-.06,1.43-.04,2.95-.07,4.55-.09,1.6-.02,3.11-.05,4.52-.09,1.41-.04,2.56-.08,3.45-.12ZM552.86,145.35l-2.73-.23c-.39-.04-.56-.39-.52-1.04.35-1.28.65-2.78.9-4.52.25-1.74.44-3.5.58-5.28.14-1.78.2-3.36.2-4.76l3.94-1.28,3.54,1.33c-.16,1.55-.47,3.26-.96,5.13-.48,1.88-1.06,3.69-1.74,5.45-.68,1.76-1.38,3.32-2.12,4.67-.23.43-.6.6-1.1.52ZM555.18,169.48l-5.45-.12.12-9.86,6.79-.23c-.12,1.62-.31,3.33-.58,5.1-.27,1.78-.56,3.48-.87,5.1ZM556.63,159.33l-6.79.23.41-4.35,2.49-.99c.42-.19.83-.19,1.22,0,.46.19,1.05.45,1.77.78.71.33,1.25.63,1.59.9.27.16.31.45.12.87l-.81,2.55ZM558.77,129.57l-7.48-.06.75-4.18,2.73-1.16c.42-.19.83-.19,1.22,0,.54.19,1.21.48,2,.87.79.39,1.38.72,1.77.99.27.19.31.48.12.87l-1.1,2.67Z"/>
    <path class="cls-1" d="M591.6,135.78l-6.73-.46c-.31-.39-.79-.79-1.45-1.22-.66-.42-1.32-.75-1.97-.99l.46-1.8c.08-.08.17-.15.29-.23.12-.08.33-.12.64-.12.7,0,1.58.04,2.64.12,1.06.08,2.11.17,3.13.29,1.02.12,1.81.25,2.35.41.5.16.75.58.75,1.28l-.12,2.73ZM589.63,160.95h-3.54c-.27-.7-.47-1.47-.61-2.32-.14-.85-.2-1.57-.2-2.15l-.41-21.17,6.73.35-.06,19.89c0,1.47-.2,2.64-.61,3.51s-.84,1.5-1.3,1.88ZM604.71,144.48l-14.27.17v-4.06l14.27-.17v4.06ZM608.71,153.99l2.03.7c.35.12.52.37.52.75,0,.58-.09,1.12-.26,1.62-.17.5-.36.87-.55,1.1h-7.45c-1.49,0-2.99,0-4.5.03-1.51.02-2.92.04-4.23.06-1.31.02-2.44.05-3.36.09l.29-4.18,13.51-.12,4-.06ZM610.33,133.63l-6.67-1.33c-.35-.46-.85-.92-1.51-1.36-.66-.44-1.33-.82-2.03-1.13l.64-1.74c.04-.15.12-.26.26-.32.14-.06.34-.09.61-.09.73.04,1.63.15,2.7.32,1.06.17,2.1.39,3.1.64,1,.25,1.78.51,2.32.78.5.23.75.64.75,1.22l-.17,3.02ZM609.35,154.28h-5.68v-21.98l6.67,1.04-.17,15.02c0,1.01-.08,2.07-.23,3.19-.16,1.12-.35,2.03-.58,2.73ZM623.67,176.38h-3.77c-.08-.54-.16-1.37-.26-2.49-.1-1.12-.18-2.35-.26-3.68-.08-1.33-.13-2.61-.15-3.83-.02-1.22-.03-2.16-.03-2.81v-37.47c-.43-.7-1.06-1.34-1.91-1.94-.85-.6-1.78-1.09-2.78-1.48l.7-2.03c.04-.12.12-.21.23-.29.12-.08.31-.12.58-.12.93.04,1.98.15,3.16.32,1.18.17,2.33.4,3.45.67,1.12.27,2.01.56,2.67.87.62.23.91.75.87,1.57l-.23,3.48v34.34c0,.97-.05,2.09-.14,3.36-.1,1.28-.24,2.62-.44,4.03-.19,1.41-.43,2.77-.72,4.09s-.61,2.46-.96,3.42Z"/>
    <path class="cls-1" d="M675.35,144.6l2.49-1.1c.81.04,1.69.12,2.64.23.95.12,1.86.25,2.73.41.87.15,1.54.33,2,.52.66.23.99.66.99,1.28,0,.66-.19,1.27-.58,1.83-.39.56-.77.92-1.16,1.07-.46-.08-1.17-.14-2.12-.17-.95-.04-1.91-.07-2.87-.09-.97-.02-1.76-.03-2.38-.03-.66,0-1.81,0-3.45.03-1.64.02-3.56.04-5.74.06-2.18.02-4.45.04-6.79.06-2.34.02-4.59.05-6.76.09-2.17.04-4.02.08-5.57.12-1.55.04-2.61.08-3.19.12-.5.04-1.17.13-2,.26-.83.14-1.66.29-2.49.46-.83.17-1.52.34-2.06.49-1.16-.39-2.32-.95-3.48-1.68-1.16-.73-2.17-1.47-3.02-2.2-.23-.23-.29-.5-.17-.81l.52-.99c1.16.19,2.42.35,3.77.46,1.35.12,2.57.17,3.65.17h2.9c1.39,0,3.05,0,4.99-.03,1.93-.02,4-.04,6.21-.06,2.2-.02,4.41-.05,6.61-.09,2.2-.04,4.29-.08,6.26-.12,1.97-.04,3.66-.09,5.07-.15,1.41-.06,2.41-.11,2.99-.15ZM668.45,154.92v3.83h-10.29c-1.33,0-2.51,0-3.54.03-1.02.02-1.77.05-2.23.09-.66.04-1.49.15-2.49.32-1.01.17-1.89.36-2.67.55-.93-.46-1.85-1-2.75-1.62-.91-.62-1.71-1.26-2.41-1.91-.23-.23-.29-.48-.17-.75l.41-.81c.89.15,1.92.29,3.1.41,1.18.12,2.14.17,2.87.17h2.93c1.33,0,2.85,0,4.55-.03,1.7-.02,3.41-.04,5.13-.06,1.72-.02,3.26-.05,4.61-.09,1.35-.04,2.34-.08,2.96-.12ZM651.92,169.01h-6.73v-2.32c-.39-.42-.87-.79-1.45-1.1-.58-.31-1.22-.58-1.91-.81l.29-1.45c.08-.27.29-.41.64-.41.73,0,1.71.01,2.93.03,1.22.02,2.42.06,3.6.12s2.1.13,2.76.2l-.12,3.6v2.15ZM653.02,171.45l-2.9,3.89c-1.82-.04-3.09-.42-3.83-1.13-.74-.72-1.1-1.79-1.1-3.22v-2.96h6.73v2.32c0,.73.37,1.1,1.1,1.1ZM673.03,132.07c0,1.9-.6,3.55-1.8,4.96-1.2,1.41-2.83,2.51-4.9,3.31-2.07.79-4.46,1.19-7.16,1.19s-5.1-.4-7.19-1.19c-2.09-.79-3.72-1.89-4.9-3.31-1.18-1.41-1.77-3.06-1.77-4.96s.59-3.55,1.77-4.96c1.18-1.41,2.81-2.51,4.9-3.31,2.09-.79,4.49-1.19,7.19-1.19s5.09.4,7.16,1.19c2.07.79,3.7,1.9,4.9,3.31,1.2,1.41,1.8,3.06,1.8,4.96ZM653.72,156.78h-4.12c-.23-.66-.42-1.49-.55-2.49-.14-1-.2-1.91-.2-2.73v-3.83h6.55v2.61c0,1.16-.15,2.34-.46,3.54-.31,1.2-.72,2.17-1.22,2.9ZM676.22,175.16l-26.1.17,2.09-3.89h6.64c1.37,0,2.74,0,4.09-.03s2.61-.04,3.77-.06,2.11-.05,2.84-.09l1.86-.87c.85,0,1.85.04,2.99.12,1.14.08,2.02.21,2.64.41.66.15.99.52.99,1.1,0,.7-.09,1.29-.26,1.8-.17.5-.36.83-.55.99-.23.23-.56.35-.99.35ZM673.79,166.58l-22.85.29v-3.6h2.46c1.06,0,2.22,0,3.48-.03,1.26-.02,2.5-.03,3.74-.03s2.35,0,3.33-.03c.99-.02,1.71-.05,2.17-.09l1.74-.41c2.09-.46,3.63-.44,4.64.06l1.62.75c.27.15.41.39.41.7,0,.5-.08.98-.23,1.42-.16.44-.33.76-.52.96ZM666.19,132.07c0-1.08-.3-2.01-.9-2.78-.6-.77-1.42-1.37-2.47-1.8-1.04-.42-2.26-.64-3.65-.64s-2.62.21-3.68.64c-1.06.43-1.89,1.02-2.49,1.8-.6.77-.9,1.7-.9,2.78s.3,2.01.9,2.78c.6.77,1.43,1.36,2.49,1.77,1.06.41,2.29.61,3.68.61s2.61-.2,3.65-.61c1.04-.41,1.87-1,2.47-1.77.6-.77.9-1.7.9-2.78ZM668.39,156.31h-4.12c-.27-.7-.46-1.55-.58-2.55-.12-1-.17-1.89-.17-2.67v-3.77h6.5v2.55c0,1.12-.16,2.29-.46,3.51-.31,1.22-.7,2.19-1.16,2.93ZM673.03,163.04h-5.74c.08-.31.12-.75.14-1.33s.04-1.16.06-1.74,0-1-.03-1.28l6.73-.41c-.04.66-.19,1.48-.46,2.47-.27.99-.5,1.75-.7,2.29ZM674.19,158.34l-6.73.35.93-3.77,2.09-.93c.35-.15.73-.15,1.16,0,.42.16,1,.38,1.71.67.71.29,1.25.53,1.59.73.27.19.33.52.17.99l-.93,1.97Z"/>
    <path class="cls-1" d="M706.15,169.94c.12-4.56.17-9.11.17-13.63v-25.58l-7.37.99v-1.97l14.56-3.42.87.64-.23,9.34v20.01c0,2.24.03,4.51.09,6.81.06,2.3.11,4.57.14,6.81h-8.24ZM699.13,169.94v-1.74l7.6-1.04h7.19l6.96,1.22v1.68l-21.75-.12Z"/>
    <path class="cls-1" d="M729.7,148.31c-1.35,0-2.49-.46-3.39-1.39-.91-.93-1.36-2.01-1.36-3.25,0-1.31.45-2.45,1.36-3.39.91-.95,2.04-1.42,3.39-1.42s2.43.47,3.33,1.42c.91.95,1.36,2.08,1.36,3.39,0,1.24-.46,2.32-1.36,3.25-.91.93-2.02,1.39-3.33,1.39ZM729.7,170.87c-1.35,0-2.49-.46-3.39-1.39-.91-.93-1.36-2.03-1.36-3.31s.45-2.39,1.36-3.33c.91-.95,2.04-1.42,3.39-1.42s2.43.47,3.33,1.42c.91.95,1.36,2.06,1.36,3.33s-.46,2.38-1.36,3.31c-.91.93-2.02,1.39-3.33,1.39Z"/>
    <path class="cls-1" d="M746.81,169.94c.12-4.56.17-9.11.17-13.63v-25.58l-7.37.99v-1.97l14.56-3.42.87.64-.23,9.34v20.01c0,2.24.03,4.51.09,6.81.06,2.3.11,4.57.14,6.81h-8.24ZM739.79,169.94v-1.74l7.6-1.04h7.19l6.96,1.22v1.68l-21.75-.12Z"/>
    <path class="cls-1" d="M770.36,170.87c-1.35,0-2.49-.46-3.39-1.39-.91-.93-1.36-2.03-1.36-3.31s.45-2.39,1.36-3.33c.91-.95,2.04-1.42,3.39-1.42s2.43.47,3.33,1.42c.91.95,1.36,2.06,1.36,3.33s-.46,2.38-1.36,3.31c-.91.93-2.02,1.39-3.33,1.39Z"/>
    <path class="cls-1" d="M793.67,170.87c-4.45,0-7.79-.95-10.03-2.84-2.24-1.89-3.36-4.31-3.36-7.25,0-2.67.93-4.94,2.78-6.81,1.86-1.88,4.54-3.41,8.06-4.61v-.35l.93.75c-1.86,1.51-3.2,3.04-4.03,4.58-.83,1.55-1.25,3.38-1.25,5.51,0,3.02.66,5.29,1.97,6.81,1.31,1.53,3.15,2.29,5.51,2.29s4.1-.66,5.34-1.97c1.24-1.31,1.86-3.09,1.86-5.34,0-1.43-.31-2.78-.93-4.06-.62-1.28-1.66-2.5-3.13-3.68-1.47-1.18-3.52-2.35-6.15-3.51-3.4-1.43-5.91-3.26-7.51-5.48-1.6-2.22-2.41-4.73-2.41-7.51,0-2.32.58-4.33,1.74-6.03,1.16-1.7,2.75-3.02,4.76-3.94,2.01-.93,4.27-1.39,6.79-1.39,2.78,0,5.08.45,6.9,1.36,1.82.91,3.18,2.11,4.09,3.6.91,1.49,1.36,3.14,1.36,4.96,0,2.05-.75,4-2.26,5.86s-4.1,3.5-7.77,4.93v.17l-.64-.52c1.58-1.58,2.73-3.21,3.42-4.87.7-1.66,1.04-3.6,1.04-5.8s-.54-4.04-1.62-5.51c-1.08-1.47-2.65-2.2-4.7-2.2-1.12,0-2.19.28-3.19.84-1.01.56-1.82,1.35-2.44,2.38-.62,1.02-.93,2.25-.93,3.68,0,1.24.25,2.47.75,3.68.5,1.22,1.43,2.42,2.78,3.6,1.35,1.18,3.33,2.33,5.92,3.45,3.91,1.74,6.75,3.67,8.53,5.8,1.78,2.13,2.67,4.62,2.67,7.48,0,2.4-.58,4.5-1.74,6.29s-2.84,3.19-5.05,4.18c-2.2.99-4.89,1.48-8.06,1.48Z"/>
  </g>
  <g>
    <path class="cls-1" d="M1.72,236.24h33.35v2.69h-15.12v11.68h-3.19v-11.68H1.72v-2.69ZM31.04,225.07H9.11v4.7h22.77v2.69H5.83v-9.91h21.93v-4.37H5.75v-2.6h25.29v9.49Z"/>
    <path class="cls-1" d="M68.25,250.61h-3.19v-20.25h-8.74v11.09h-16.8v-24.45h3.28v9.49h10.42v-9.49h3.11v10.67h8.74v-13.53h3.19v36.46ZM53.21,238.76v-9.75h-10.42v9.75h10.42Z"/>
    <path class="cls-1" d="M74.38,242.96h33.35v2.69h-33.35v-2.69ZM106.05,232.46l-1.51,2.69c-5.5-1.26-11.26-5.17-13.65-10.46-2.39,5.29-8.15,9.2-13.65,10.46l-1.51-2.69c6.34-1.22,13.4-6.72,13.44-12.94v-2.86h3.36v2.86c0,6.22,7.14,11.76,13.53,12.94Z"/>
    <path class="cls-1" d="M140.58,226.07c0,5.38-4.83,8.95-11.76,9.45v7.69h15.21v2.69h-33.35v-2.69h14.95v-7.69c-6.85-.5-11.72-4.07-11.68-9.45-.04-5.8,5.59-9.54,13.27-9.58,7.77.04,13.36,3.78,13.36,9.58ZM127.22,232.96c5.92,0,10.25-2.73,10.25-6.89s-4.33-6.93-10.25-6.89c-5.88-.04-10.21,2.73-10.17,6.89-.04,4.16,4.29,6.89,10.17,6.89Z"/>
    <path class="cls-1" d="M166.7,223.55c0,4.75-3.99,8.02-9.41,8.07-5.54-.04-9.54-3.32-9.49-8.07-.04-4.75,3.95-8.07,9.49-8.07s9.41,3.32,9.41,8.07ZM157.29,228.93c3.57,0,6.3-2.18,6.3-5.38s-2.73-5.42-6.3-5.38c-3.7-.04-6.38,2.18-6.38,5.38s2.69,5.38,6.38,5.38ZM153.34,234.56h23.69v8.82h-20.5v4.12h21.84v2.6h-24.95v-9.16h20.42v-3.7h-20.5v-2.69ZM173.84,214.14h3.19v18.65h-3.19v-18.65Z"/>
    <path class="cls-1" d="M191.48,217.17c4.41.04,7.43,4.28,7.86,11.17h4.75v-13.44h3.02v33.86h-3.02v-17.73h-4.75c-.34,7.1-3.36,11.51-7.86,11.51-4.75,0-7.81-4.91-7.81-12.69s3.07-12.64,7.81-12.69ZM191.48,239.43c2.98.08,4.87-3.65,4.87-9.58s-1.89-9.66-4.87-9.66-4.83,3.74-4.79,9.66c-.04,5.92,1.85,9.66,4.79,9.58ZM214.5,250.61h-3.11v-36.46h3.11v36.46Z"/>
    <path class="cls-1" d="M230.11,218.01h9.24v-4.2h3.19v4.2h9.24v2.6h-21.68v-2.6ZM240.95,222.46c5.25,0,8.74,2.6,8.74,6.47s-3.49,6.55-8.74,6.55-8.82-2.56-8.74-6.55c-.08-3.86,3.45-6.47,8.74-6.47ZM240.95,232.96c3.4,0,5.71-1.51,5.71-4.03,0-2.35-2.31-3.95-5.71-3.95s-5.71,1.6-5.71,3.95c0,2.52,2.27,4.03,5.71,4.03ZM235.49,238.17h23.02v11.93h-23.02v-11.93ZM255.32,247.41v-6.64h-16.63v6.64h16.63ZM258.51,223.81h5.46v2.77h-5.46v9.49h-3.19v-21.93h3.19v9.66Z"/>
    <path class="cls-1" d="M299.59,237.58h-8.74v13.02h-3.28v-13.02h-9.33v13.02h-3.36v-13.02h-8.65v-2.69h33.35v2.69ZM282.87,215.57c7.65.04,12.81,3.11,12.85,7.98-.04,4.83-5.21,7.9-12.85,7.81-7.69.08-12.85-2.98-12.85-7.81s5.17-7.94,12.85-7.98ZM282.87,228.85c5.67-.04,9.54-2.1,9.49-5.29.04-3.28-3.82-5.33-9.49-5.38-5.71.04-9.58,2.1-9.49,5.38-.08,3.19,3.78,5.25,9.49,5.29Z"/>
    <path class="cls-1" d="M323.78,228.68h-7.39v5.12c3.4-.17,6.85-.42,10-.76l.25,2.35c-7.85,1.09-16.55,1.34-23.44,1.34l-.5-2.6c3.23-.04,6.8-.08,10.5-.21v-5.25h-7.14v-12.18h17.47v2.69h-14.2v6.89h14.45v2.6ZM308.99,239.52h3.19v7.56h21.68v2.69h-24.87v-10.25ZM329.41,214.14h3.19v27.31h-3.19v-27.31Z"/>
    <path class="cls-1" d="M379.3,226.07c0,5.38-4.83,8.95-11.76,9.45v7.69h15.21v2.69h-33.35v-2.69h14.95v-7.69c-6.85-.5-11.72-4.07-11.68-9.45-.04-5.8,5.59-9.54,13.27-9.58,7.77.04,13.36,3.78,13.36,9.58ZM365.95,232.96c5.92,0,10.25-2.73,10.25-6.89s-4.33-6.93-10.25-6.89c-5.88-.04-10.21,2.73-10.17,6.89-.04,4.16,4.29,6.89,10.17,6.89Z"/>
    <path class="cls-1" d="M400.97,227.84h5.54v-12.94h3.02v33.86h-3.02v-18.23h-5.54v10.25h-14.03v-22.43h14.03v9.49ZM397.95,238.17v-17.22h-7.9v17.22h7.9ZM413.83,214.14h3.11v36.46h-3.11v-36.46Z"/>
    <path class="cls-1" d="M437.43,220.7h-13.53v-2.69h16.8c0,10.33-4.83,19.74-16.72,25.62l-1.85-2.52c9.45-4.7,14.62-11.72,15.29-20.42ZM450.2,228.93h5.88v2.77h-5.88v18.82h-3.28v-36.38h3.28v14.79Z"/>
    <path class="cls-1" d="M459.43,239.77h3.78c.17,2.86,2.98,4.62,6.55,4.62,3.91,0,6.72-2.14,6.72-5.21,0-3.23-2.56-5.54-7.22-5.54h-2.35v-3.28h2.35c3.65.04,6.17-2.02,6.13-5.04.04-2.98-2.14-4.96-5.54-4.96-3.15,0-6.05,1.72-6.22,4.62h-3.53c.17-4.7,4.54-7.85,9.83-7.81,5.63-.04,9.07,3.7,9.07,7.98,0,3.32-1.97,5.8-5.04,6.64v.25c3.82.59,6.18,3.36,6.13,7.14.04,4.87-4.37,8.49-10.33,8.49s-10.12-3.19-10.33-7.9Z"/>
    <path class="cls-1" d="M524.54,226.07c0,5.38-4.83,8.95-11.76,9.45v7.69h15.21v2.69h-33.35v-2.69h14.95v-7.69c-6.85-.5-11.72-4.07-11.68-9.45-.04-5.8,5.59-9.54,13.27-9.58,7.77.04,13.36,3.78,13.36,9.58ZM511.18,232.96c5.92,0,10.25-2.73,10.25-6.89s-4.33-6.93-10.25-6.89c-5.88-.04-10.21,2.73-10.17,6.89-.04,4.16,4.29,6.89,10.17,6.89Z"/>
    <path class="cls-1" d="M546.21,227.84h5.54v-12.94h3.02v33.86h-3.02v-18.23h-5.54v10.25h-14.03v-22.43h14.03v9.49ZM543.18,238.17v-17.22h-7.9v17.22h7.9ZM559.06,214.14h3.11v36.46h-3.11v-36.46Z"/>
    <path class="cls-1" d="M582.67,220.7h-13.53v-2.69h16.8c0,10.33-4.83,19.74-16.72,25.62l-1.85-2.52c9.45-4.7,14.62-11.72,15.29-20.42ZM595.44,228.93h5.88v2.77h-5.88v18.82h-3.28v-36.38h3.28v14.79Z"/>
    <path class="cls-1" d="M604.25,233.55c.04-10.54,4.33-16.42,11.34-16.38,5.21-.04,8.86,3.19,9.58,7.81h-3.61c-.67-2.6-2.69-4.58-5.96-4.54-4.92-.04-7.86,4.16-7.81,11.34h.34c1.72-2.52,4.45-3.99,7.65-3.95,5.29-.04,9.7,4.07,9.66,9.83.04,5.59-4.08,10.04-10.33,10-5.12-.08-10.8-3.11-10.84-14.11ZM615.09,244.39c3.86,0,6.76-3.02,6.8-6.72-.04-3.61-2.81-6.6-6.72-6.64-3.87.04-6.85,3.19-6.89,6.72,0,3.44,2.86,6.64,6.81,6.64Z"/>
    <path class="cls-1" d="M653.56,238.59l.25,2.44c-8.36,1.55-17.35,1.6-23.94,1.6l-.42-2.77c6.72.04,16-.04,24.11-1.26ZM651.04,225.32c-.08,5.08-4.12,8.57-9.83,8.57s-9.91-3.49-9.91-8.57,4.12-8.53,9.91-8.57c5.71.04,9.75,3.53,9.83,8.57ZM641.21,231.11c3.82-.04,6.64-2.39,6.64-5.8s-2.81-5.71-6.64-5.71-6.72,2.35-6.72,5.71,2.82,5.75,6.72,5.8ZM655.92,214.14h3.28v36.46h-3.28v-36.46Z"/>
    <path class="cls-1" d="M676.15,218.01h9.24v-4.2h3.19v4.2h9.24v2.6h-21.68v-2.6ZM686.99,222.46c5.25,0,8.74,2.6,8.74,6.47s-3.49,6.55-8.74,6.55-8.82-2.56-8.74-6.55c-.08-3.86,3.45-6.47,8.74-6.47ZM686.99,232.96c3.4,0,5.71-1.51,5.71-4.03,0-2.35-2.31-3.95-5.71-3.95s-5.71,1.6-5.71,3.95c0,2.52,2.27,4.03,5.71,4.03ZM681.53,238.17h23.02v11.93h-23.02v-11.93ZM701.36,247.41v-6.64h-16.63v6.64h16.63ZM704.55,223.81h5.46v2.77h-5.46v9.49h-3.19v-21.93h3.19v9.66Z"/>
    <path class="cls-1" d="M745.63,237.58h-8.74v13.02h-3.28v-13.02h-9.33v13.02h-3.36v-13.02h-8.65v-2.69h33.35v2.69ZM728.91,215.57c7.65.04,12.81,3.11,12.85,7.98-.04,4.83-5.21,7.9-12.85,7.81-7.69.08-12.85-2.98-12.85-7.81s5.17-7.94,12.85-7.98ZM728.91,228.85c5.67-.04,9.54-2.1,9.49-5.29.04-3.28-3.82-5.33-9.49-5.38-5.71.04-9.58,2.1-9.49,5.38-.08,3.19,3.78,5.25,9.49,5.29Z"/>
    <path class="cls-1" d="M750.75,217.25h3.19v9.58h10.84v-9.58h3.19v24.53h-17.22v-24.53ZM764.78,239.1v-9.66h-10.84v9.66h10.84ZM778.64,250.61h-3.19v-36.46h3.19v36.46Z"/>
    <path class="cls-1" d="M784.93,229.43h33.19v2.6h-9.24v3.61h4.96v8.15h-21.68v3.78h22.77v2.6h-25.88v-8.74h21.68v-3.28h-21.76v-2.52h4.96v-3.61h-8.99v-2.6ZM814.34,220.86c.04,4.12-4.7,6.34-12.85,6.39-8.11-.04-12.9-2.27-12.94-6.39.04-4.03,4.83-6.3,12.94-6.3s12.9,2.27,12.85,6.3ZM801.49,224.73c6.09,0,9.62-1.34,9.58-3.86.04-2.39-3.49-3.82-9.58-3.86-6.01.04-9.58,1.47-9.49,3.86-.08,2.52,3.49,3.86,9.49,3.86ZM805.69,235.65v-3.61h-8.57v3.61h8.57Z"/>
    <path class="cls-1" d="M1.8,293.87h14.95v-4.2H6.09v-12.18h24.7v12.18h-10.84v4.2h15.04v2.6H1.8v-2.6ZM30.96,312.1H5.83v-12.01h25.12v12.01ZM27.76,309.41v-6.72H9.03v6.72h18.74ZM27.59,287.07v-6.97H9.2v6.97h18.4Z"/>
    <path class="cls-1" d="M62.37,300.59l.25,2.44c-8.36,1.55-17.35,1.6-23.94,1.6l-.42-2.77c6.72.04,16-.04,24.11-1.26ZM59.85,287.32c-.08,5.08-4.12,8.57-9.83,8.57s-9.91-3.49-9.91-8.57,4.12-8.53,9.91-8.57c5.71.04,9.75,3.53,9.83,8.57ZM50.02,293.11c3.82-.04,6.64-2.39,6.64-5.8s-2.81-5.71-6.64-5.71-6.72,2.35-6.72,5.71,2.81,5.75,6.72,5.8ZM64.72,276.14h3.28v36.46h-3.28v-36.46Z"/>
    <path class="cls-1" d="M84.88,305.46h33.35v2.69h-33.35v-2.69ZM116.38,284.38h-29.91v-2.6h13.36v-4.96h3.19v4.96h13.36v2.6ZM101.43,286.81c7.39,0,12.01,2.69,12.01,7.22s-4.62,7.18-12.01,7.14c-7.39.04-12.01-2.69-11.93-7.14-.08-4.54,4.54-7.22,11.93-7.22ZM101.43,298.58c5.33.04,8.74-1.72,8.74-4.54s-3.4-4.62-8.74-4.54c-5.38-.08-8.78,1.68-8.74,4.54-.04,2.81,3.36,4.58,8.74,4.54Z"/>
    <path class="cls-1" d="M154.44,297.57h-33.35v-2.6h33.35v2.6ZM125.28,276.98h24.87v8.65h-21.51v3.61h22.35v2.52h-25.54v-8.57h21.51v-3.61h-21.68v-2.6ZM125.62,300.93h24.53v11.17h-24.53v-11.17ZM147.04,309.41v-5.88h-18.23v5.88h18.23Z"/>
    <path class="cls-1" d="M157.46,291.94h33.19v2.6h-33.19v-2.6ZM186.86,283.03c.04,4.12-4.71,6.39-12.85,6.39s-12.9-2.27-12.94-6.39c.04-4.03,4.83-6.26,12.94-6.3,8.15.04,12.9,2.27,12.85,6.3ZM161.49,297.65h24.87v8.15h-21.68v3.78h22.77v2.6h-25.88v-8.74h21.68v-3.28h-21.76v-2.52ZM174.01,286.98c6.09,0,9.62-1.43,9.58-3.95.04-2.39-3.49-3.82-9.58-3.86-6.01.04-9.58,1.47-9.49,3.86-.08,2.52,3.49,3.95,9.49,3.95Z"/>
    <path class="cls-1" d="M219.7,281.6h-13.11v-2.69h16.64c0,9.37-6.68,16.51-17.06,19.91l-1.34-2.6c8.36-2.77,14.24-8.02,14.87-14.62ZM211.22,300.34h3.28v8.74h20.84v2.69h-24.11v-11.43ZM234.4,303.11h-3.19v-13.02h-8.07v-2.69h8.07v-11.26h3.19v26.97Z"/>
    <path class="cls-1" d="M255.57,281.52h-13.44v-2.69h16.97c-.04,9.28-6.59,16.09-17.22,19.24l-1.34-2.6c8.78-2.6,14.41-7.65,15.04-13.95ZM257.5,298.41c7.31,0,11.93,2.65,11.93,7.06s-4.62,7.01-11.93,7.06c-7.27-.04-11.97-2.65-11.93-7.06-.04-4.41,4.66-7.06,11.93-7.06ZM257.5,309.92c5.33,0,8.78-1.76,8.82-4.45-.04-2.77-3.49-4.5-8.82-4.45-5.38-.04-8.78,1.68-8.74,4.45-.04,2.69,3.36,4.45,8.74,4.45ZM269.01,285.64h5.46v2.6h-5.46v9.75h-3.19v-21.84h3.19v9.49Z"/>
    <path class="cls-1" d="M276.57,281.94h9.41v-5.38h3.19v5.38h9.07v2.69h-21.68v-2.69ZM287.57,287.65c5.21,0,8.95,3.44,8.99,8.4-.04,4.92-3.78,8.36-8.99,8.32-5.17.04-8.95-3.4-8.91-8.32-.04-4.96,3.74-8.4,8.91-8.4ZM287.57,301.68c3.4,0,5.88-2.31,5.88-5.63s-2.48-5.71-5.88-5.71-5.84,2.39-5.8,5.71c-.04,3.32,2.44,5.63,5.8,5.63ZM305.05,291.18h6.05v2.69h-6.05v18.74h-3.19v-36.46h3.19v15.04Z"/>
    <path class="cls-1" d="M325.62,283.45h-10.92v-2.69h14.11c0,3.61-.59,7.1-1.81,10.33h6.51v-14.03h3.11v33.69h-3.11v-17.06h-7.69c-2.23,4.24-5.75,7.98-10.88,11.01l-1.85-2.35c7.94-4.7,11.93-11.26,12.52-18.9ZM344.28,312.61h-3.02v-36.46h3.02v36.46Z"/>
    <path class="cls-1" d="M367.46,294.96v-7.98h3.19v7.9c4.07-.17,8.23-.46,12.01-1.01l.25,2.35c-7.65,1.34-16.42,1.47-22.94,1.51l-.34-2.69c2.35,0,5,0,7.81-.08ZM380.06,280.85c0,2.39,0,6.05-.92,10.84l-3.19-.25c.88-4.41.97-7.52,1.01-9.83h-15.04v-2.69h18.15v1.93ZM365.27,301.1h3.28v7.98h21.09v2.69h-24.36v-10.67ZM385.18,276.14h3.28v11.85h5.29v2.77h-5.29v12.77h-3.28v-27.39Z"/>
    <path class="cls-1" d="M398.2,279.5h16.97v12.94h-13.61v8.65c6.09,0,11.43-.25,17.98-1.34l.34,2.69c-6.72,1.09-12.27,1.34-18.57,1.34h-3.02v-13.95h13.61v-7.65h-13.69v-2.69ZM426.26,312.61h-3.19v-36.46h3.19v36.46Z"/>
    <path class="cls-1" d="M432.22,281.94h9.41v-5.38h3.19v5.38h9.07v2.69h-21.68v-2.69ZM443.22,287.65c5.21,0,8.95,3.44,8.99,8.4-.04,4.92-3.78,8.36-8.99,8.32-5.17.04-8.95-3.4-8.91-8.32-.04-4.96,3.74-8.4,8.91-8.4ZM443.22,301.68c3.4,0,5.88-2.31,5.88-5.63s-2.48-5.71-5.88-5.71-5.84,2.39-5.8,5.71c-.04,3.32,2.44,5.63,5.8,5.63ZM460.7,291.18h6.05v2.69h-6.05v18.74h-3.19v-36.46h3.19v15.04Z"/>
    <path class="cls-1" d="M468.67,294.71h33.35v2.6h-33.35v-2.6ZM473.04,301.1h3.19v7.9h22.18v2.69h-25.37v-10.59ZM498.16,289.75h-24.95v-12.27h3.19v9.66h21.76v2.6Z"/>
    <path class="cls-1" d="M506.47,280.6h13.69v2.69h-10.59v17.81c5.25-.04,8.57-.25,12.52-1.09l.25,2.69c-4.16.88-7.73,1.05-13.61,1.09h-2.27v-23.19ZM517.73,290.01h7.98v-13.02h3.02v33.69h-3.02v-17.9h-7.98v-2.77ZM536.22,312.61h-3.11v-36.46h3.11v36.46Z"/>
    <path class="cls-1" d="M581.24,295.8h-11.26v9.49h15.21v2.69h-33.35v-2.69h14.95v-9.49h-10.75v-16.72h24.87v2.6h-21.59v11.51h21.93v2.6Z"/>
    <path class="cls-1" d="M588.12,293.28h33.19v2.69h-15.04v4.12h11.01v12.01h-25.12v-12.01h10.92v-4.12h-14.95v-2.69ZM617.53,283.7c.04,4.24-4.92,6.76-12.85,6.72-7.9.04-12.9-2.48-12.94-6.72.04-4.37,5.04-6.89,12.94-6.89s12.9,2.52,12.85,6.89ZM604.67,287.91c5.88,0,9.62-1.55,9.58-4.2.04-2.73-3.7-4.37-9.58-4.37s-9.58,1.64-9.58,4.37,3.7,4.2,9.58,4.2ZM614.08,309.41v-6.72h-18.74v6.72h18.74Z"/>
    <path class="cls-1" d="M624.41,291.94h33.19v2.6h-33.19v-2.6ZM653.82,283.03c.04,4.12-4.7,6.39-12.85,6.39s-12.9-2.27-12.94-6.39c.04-4.03,4.83-6.26,12.94-6.3,8.15.04,12.9,2.27,12.85,6.3ZM628.44,297.65h24.87v8.15h-21.68v3.78h22.77v2.6h-25.88v-8.74h21.68v-3.28h-21.76v-2.52ZM640.96,286.98c6.09,0,9.62-1.43,9.58-3.95.04-2.39-3.49-3.82-9.58-3.86-6.01.04-9.58,1.47-9.49,3.86-.08,2.52,3.49,3.95,9.49,3.95Z"/>
    <path class="cls-1" d="M671.2,292.61h33.19v2.69h-15.04v5.12h-3.19v-5.12h-14.95v-2.69ZM701.44,280.09h-11.55c.38,3.95,6.38,7.02,12.64,7.65l-1.18,2.6c-5.96-.76-11.55-3.36-13.57-7.35-2.02,3.99-7.6,6.6-13.57,7.35l-1.18-2.6c6.22-.63,12.22-3.7,12.64-7.65h-11.47v-2.69h27.22v2.69ZM675.4,298.07h3.19v4.28h18.32v-4.28h3.19v14.03h-24.7v-14.03ZM696.91,309.5v-4.62h-18.32v4.62h18.32Z"/>
    <path class="cls-1" d="M709.84,279.67h3.19v20.67c5.54.04,11.26-.42,17.39-1.68l.42,2.69c-6.43,1.39-12.22,1.85-18.06,1.85h-2.94v-23.52ZM737.48,312.61h-3.19v-36.46h3.19v36.46Z"/>
    <path class="cls-1" d="M745.37,279.67h16.97v2.69h-13.78v18.4c6.6,0,11.26-.25,16.64-1.26l.42,2.77c-5.67,1.01-10.46,1.22-17.39,1.26h-2.86v-23.86ZM772,290.51h6.05v2.69h-6.05v19.41h-3.28v-36.46h3.28v14.37Z"/>
  </g>
  <g>
    <polygon class="cls-2" points="215.76 0 238.86 29.26 215.76 58.52 24.82 58.52 1.72 29.26 24.82 0 215.76 0"/>
    <g>
      <path class="cls-3" d="M34.25,13.5h11.52c6.4.04,10.32,4,10.32,9.76s-4,9.72-10.48,9.68h-4.72v8.88h-6.64V13.5ZM44.41,27.66c3.12.04,4.8-1.72,4.8-4.4s-1.68-4.32-4.8-4.32h-3.52v8.72h3.52Z"/>
      <path class="cls-3" d="M72.48,42.22c-7.6,0-13.4-5.24-13.44-14.56.04-9.32,5.84-14.52,13.44-14.48,7.6-.04,13.48,5.16,13.52,14.48-.04,9.36-5.92,14.56-13.52,14.56ZM72.48,36.38c4.16-.04,6.68-3.08,6.72-8.72-.04-5.6-2.56-8.68-6.72-8.64-4.08-.04-6.6,3.04-6.64,8.64.04,5.64,2.56,8.68,6.64,8.72Z"/>
      <path class="cls-3" d="M96.57,41.82h-6.64V13.5h6.64v28.32Z"/>
      <path class="cls-3" d="M124.88,41.82h-5.68l-11.52-16.64h-.16v16.64h-6.64V13.5h5.76l11.36,16.64h.16V13.5h6.72v28.32Z"/>
      <path class="cls-3" d="M128.17,13.5h23.76v5.44h-8.56v22.88h-6.64v-22.88h-8.56v-5.44Z"/>
      <path class="cls-3" d="M163.85,27.66c.04-9.24,4.52-14.52,11.84-14.48,7.36-.04,11.88,5.24,11.92,14.48-.04,9.32-4.52,14.56-11.92,14.56s-11.8-5.28-11.84-14.56ZM175.68,36.78c3.04,0,5.04-2.84,5.04-9.12s-2-9.12-5.04-9.12-4.96,2.96-4.96,9.12c-.04,6.28,2,9.12,4.96,9.12Z"/>
      <path class="cls-3" d="M191.05,33.58h6.72c.08,1.88,1.92,3.2,4.4,3.2s4.36-1.44,4.32-3.52c.04-2-1.88-3.44-4.88-3.44h-2.72v-4.8h2.72c2.6.04,4.4-1.36,4.4-3.36s-1.52-3.32-3.76-3.28c-2.36-.04-4.16,1.32-4.24,3.28h-6.32c.04-5,4.48-8.52,10.56-8.48,6.04-.04,10.2,3.44,10.16,8.08.04,3.12-2.28,5.36-5.52,5.84v.24c4.32.48,6.6,2.96,6.56,6.48.04,4.88-4.68,8.4-11.28,8.4s-11-3.56-11.12-8.64Z"/>
    </g>
  </g>
</svg>