<?xml version="1.0" encoding="UTF-8"?>
<svg id="_레이어_1" data-name="레이어 1" xmlns="http://www.w3.org/2000/svg" viewBox="0 0 1400 101.44">
  <path d="M782.85,7.64l-3.86-.15c-.2-.23-.48-.45-.84-.67-.36-.23-.74-.41-1.14-.56l.22-1.01c.08-.15.22-.23.45-.23.45,0,.99.02,1.63.06.64.04,1.28.09,1.93.15.65.06,1.19.14,1.61.24v2.17ZM782.21,21.06h-1.99c-.12-.35-.22-.75-.3-1.2-.08-.45-.13-.89-.15-1.31l-.79-11.1,3.86-.26.15,10.84c.02.67-.03,1.25-.15,1.73-.12.48-.34.91-.64,1.31ZM794.77,19.3l-12.04.11.11-2.18h2.55c.98,0,1.92-.01,2.83-.04.91-.02,1.67-.05,2.27-.07l1.24-.34c.52-.12.94-.19,1.24-.21.3-.01.6.06.9.21l1.05.49c.22.1.34.26.34.49,0,.33-.06.63-.17.92-.11.29-.22.49-.32.62ZM791.44,5.27v2.21c-1.33,0-2.76.01-4.31.04-1.55.03-2.99.06-4.31.11l-.04-2.17c.53,0,1.17,0,1.93-.02.76-.01,1.57-.02,2.42-.02s1.66-.02,2.42-.06,1.39-.07,1.89-.09ZM790.99,26.05l-3.79-.26c-.47-.53-1.15-.95-2.02-1.28l.26-1.01c.05-.12.19-.19.41-.19.42,0,.95.02,1.58.06.62.04,1.25.09,1.88.15.62.06,1.16.13,1.61.21l.08,2.32ZM790.39,36.32h-2.02c-.13-.28-.23-.61-.32-1.01-.09-.4-.14-.79-.17-1.16l-.68-8.4,3.79-.26.15,8.18c.03.65-.02,1.17-.15,1.58-.13.4-.33.76-.6,1.09ZM801.45,23.46l.04,2.36c-1.68,0-3.45.03-5.33.08-1.88.05-3.62.1-5.25.15l-.04-2.32c.62,0,1.41-.01,2.34-.04s1.92-.04,2.96-.06,2.03-.04,2.96-.08,1.71-.07,2.31-.09ZM804.6,35.01l-13.72.19.11-2.33c.67,0,1.43,0,2.27-.02.84-.01,1.7-.03,2.59-.04.89-.01,1.72-.03,2.51-.06.79-.03,1.47-.05,2.04-.08l1.16-.3c.52-.2.97-.3,1.33-.3s.68.1.96.3l1.01.49c.22.1.34.28.34.53,0,.35-.06.67-.19.97-.12.3-.26.51-.41.64ZM794.25,17.01h-3.04l.11-9.52,3.79.04c-.03,1.48-.13,3.06-.3,4.74-.18,1.69-.36,3.27-.56,4.74ZM795.11,7.64l-3.79-.15-.07-2.17,1.54-.79c.22-.12.45-.12.67,0,.3.13.67.3,1.11.52s.77.41.99.56c.12.13.15.3.07.52l-.52,1.5ZM796.57,10.67l1.84,1.99c-.3.02-.68.09-1.14.21-.46.11-.86.23-1.18.36-.52-.27-1.01-.57-1.46-.88-.45-.31-.86-.63-1.24-.96-.12-.15-.16-.3-.11-.45l.3-.49c.45.08.94.13,1.48.17.54.04,1.04.06,1.52.06ZM802.84,10.45v2.18c-.42-.02-.93-.04-1.52-.06-.59-.01-1.14-.01-1.67,0-.52.01-.94.04-1.24.09l-1.84-1.99c.45,0,1.07,0,1.86-.02.79-.01,1.58-.04,2.38-.08.8-.04,1.47-.08,2.02-.13ZM804.34,21.89h-2.14c-.05-.3-.1-.71-.15-1.22-.05-.51-.09-1.06-.13-1.65-.04-.59-.06-1.15-.07-1.69-.01-.54-.02-.98-.02-1.33V4c-.28-.4-.68-.79-1.22-1.16-.54-.38-1.13-.67-1.78-.9l.38-1.16c.05-.15.21-.23.49-.23.52.03,1.14.09,1.84.21.7.11,1.37.24,2.01.39.64.15,1.16.33,1.56.52.35.13.51.43.49.9l-.11,2.1v10.31c0,.73-.05,1.53-.15,2.4-.1.88-.23,1.71-.39,2.49-.16.79-.36,1.46-.58,2.01ZM804.15,32.54h-2.96l.11-6.71,3.75-.04c-.08,1.08-.19,2.2-.34,3.38-.15,1.18-.34,2.3-.56,3.38ZM805.05,25.82h-3.75l.08-2.36,1.46-.6c.23-.12.45-.12.67,0,.3.1.65.25,1.05.45.4.2.69.36.86.49.15.13.19.3.11.52l-.49,1.5Z"/>
  <path d="M838.46,19.75l1.5-.68c.5.03,1.04.07,1.61.13.58.06,1.13.14,1.67.23.54.09.96.19,1.26.32.38.13.56.38.56.75,0,.4-.11.77-.34,1.11-.23.34-.45.56-.68.66-.3-.05-.74-.09-1.33-.11-.59-.02-1.17-.04-1.76-.06-.59-.01-1.08-.02-1.48-.02h-2.27c-1.09,0-2.36.01-3.81.04-1.45.03-2.97.04-4.56.06-1.59.01-3.09.03-4.52.06s-2.66.05-3.69.07c-1.04.03-1.73.05-2.08.08-.33.02-.74.07-1.26.15-.51.08-1.03.17-1.54.28-.51.11-.93.22-1.26.32-.73-.27-1.44-.63-2.16-1.07-.71-.44-1.32-.87-1.82-1.29-.15-.12-.19-.27-.11-.45l.3-.6c.7.1,1.47.19,2.31.26.84.07,1.58.12,2.23.15h1.89c.91,0,2.01,0,3.28-.02,1.28-.01,2.64-.03,4.11-.06,1.46-.02,2.93-.05,4.41-.07,1.47-.02,2.86-.05,4.16-.08,1.3-.02,2.42-.05,3.38-.08.95-.02,1.61-.05,1.99-.07ZM814.01,18.1l-.45-.56c-.15-.2-.11-.35.11-.45,3.55-1.12,6.84-2.41,9.86-3.84,3.02-1.44,5.67-2.99,7.95-4.67l2.74-.94,2.74.98c-1.88,1.55-4.01,2.95-6.39,4.2-2.39,1.25-4.94,2.32-7.67,3.23-2.73.9-5.53,1.61-8.4,2.14-.25.03-.41,0-.49-.07ZM822.07,31h-3.67v-2.48c-.3-.25-.69-.49-1.16-.71s-.96-.4-1.46-.52l.26-1.01c.02-.2.17-.3.45-.3.5,0,1.07.02,1.71.06.64.04,1.26.08,1.88.13.61.05,1.09.12,1.44.22.42.13.64.41.64.86l-.08,1.84v1.91ZM833.21,6.47v2.1h-1.86c-.76,0-1.58,0-2.44.02-.86.01-1.71.03-2.55.06-.84.03-1.59.04-2.25.06-.66.01-1.13.03-1.41.06-.43.03-.98.1-1.67.23-.69.13-1.24.26-1.67.41-.62-.23-1.24-.51-1.84-.84-.6-.34-1.12-.69-1.58-1.07-.15-.12-.2-.26-.15-.41l.3-.6c.6.1,1.26.17,1.97.21.71.04,1.34.06,1.89.06h1.82c.86,0,1.86-.01,2.98-.04,1.12-.02,2.26-.05,3.39-.07s2.16-.05,3.08-.08c.91-.02,1.57-.05,1.97-.07ZM822.97,33.51l-1.12,2.17c-1.25-.02-2.14-.29-2.66-.81-.52-.51-.79-1.31-.79-2.38v-2.62h3.67v2.66c0,.32.07.57.21.73.14.16.37.24.69.24ZM821.1,1.49l.26-.38c1.22.2,2.46.35,3.69.45,1.24.1,2.44.17,3.6.21,1.16.04,2.19.04,3.09.02.35,0,.58.12.67.38.08.12.12.32.13.58.01.26,0,.51-.04.75-.04.24-.11.41-.21.51-.05.1-.14.17-.26.21s-.25.06-.38.06c-.67,0-1.45.01-2.32.04-.88.03-1.73.06-2.55.09-.82.04-1.54.08-2.14.13-.23.03-.4.03-.53,0-.12-.02-.26-.08-.41-.15-.43-.25-.88-.61-1.37-1.07-.49-.46-.91-.93-1.26-1.41-.1-.12-.1-.26,0-.41ZM838.46,35.57l-16.61.11.97-2.17h4.26c.86,0,1.72,0,2.57-.02.85-.01,1.64-.03,2.38-.04.74-.01,1.34-.03,1.82-.06l1.35-.75c.6-.02,1.29,0,2.06.06.77.06,1.36.14,1.76.24.38.08.56.29.56.64,0,.45-.06.83-.17,1.14s-.23.52-.36.62c-.12.15-.33.22-.6.22ZM828.9,30.4h-2.29c-.05-.45-.09-1.04-.13-1.76-.04-.72-.08-1.46-.11-2.19-.04-.74-.06-1.34-.06-1.82v-3.71h3.6v2.74c0,.62-.04,1.36-.13,2.19-.09.84-.21,1.67-.36,2.49-.15.83-.33,1.51-.52,2.06ZM835.95,13.71l-.11.26-9.11-.3,2.4-1.5,6.83,1.54ZM839.77,16.9l-13.05-3.23,9.22.04,2.4-.15c.42.13.91.29,1.44.51.54.21.96.41,1.26.58.4.25.62.51.68.79.05.3-.01.6-.19.9-.18.3-.39.5-.64.6-.15.05-.33.07-.53.06-.2-.01-.4-.04-.6-.09ZM836.96,8.61l-5.48-.04,1.69-2.1,1.76-.68c.3-.1.59-.1.86,0,.3.13.71.31,1.22.54.51.24.88.42,1.11.54.12.08.19.17.19.28s-.05.22-.15.32l-1.2,1.12Z"/>
  <path d="M881.55,16.64l1.5-.64c.5,0,1.04.04,1.61.11.58.08,1.13.16,1.67.24.54.09.96.18,1.26.28.38.13.56.38.56.75s-.11.72-.34,1.03c-.23.31-.45.52-.68.62-.3-.05-.74-.09-1.33-.11-.59-.02-1.17-.04-1.76-.06-.59-.01-1.08-.02-1.48-.02-.43,0-1.18,0-2.27.02-1.09.01-2.36.03-3.82.04-1.46.01-2.98.02-4.56.04s-3.08.03-4.52.06c-1.44.02-2.68.05-3.71.07-1.04.03-1.73.05-2.08.08-.3.03-.71.08-1.22.17-.51.09-1.03.18-1.54.28-.51.1-.93.2-1.26.3-.73-.23-1.44-.55-2.16-.98-.71-.42-1.32-.85-1.82-1.27-.15-.12-.19-.27-.11-.45l.3-.6c.7.12,1.47.22,2.31.3s1.58.11,2.23.11h1.86c.91,0,2.01,0,3.3-.02,1.29-.01,2.66-.02,4.12-.04,1.46-.01,2.93-.03,4.41-.06,1.47-.02,2.87-.05,4.18-.08,1.31-.02,2.44-.06,3.38-.09.94-.04,1.59-.07,1.97-.09ZM856.95,15.1l-.41-.56c-.15-.23-.11-.38.11-.45,3.7-1.12,7.09-2.44,10.18-3.96,3.09-1.51,5.73-3.17,7.93-4.97l2.66-.94,2.66.86c-1.83,1.63-3.94,3.09-6.34,4.41-2.4,1.31-4.98,2.45-7.74,3.41-2.76.96-5.61,1.72-8.53,2.27-.28.03-.45,0-.53-.07ZM876.38,2.95v2.21h-1.86c-.76,0-1.58,0-2.46-.02-.88-.01-1.73,0-2.55.02-.82.02-1.56.04-2.21.04s-1.12.01-1.42.04c-.43.03-.98.1-1.65.23-.67.13-1.23.25-1.65.38-.6-.23-1.21-.51-1.84-.86-.62-.35-1.16-.71-1.61-1.09-.15-.15-.19-.3-.11-.45l.3-.56c.6.1,1.26.18,1.97.23.71.05,1.34.07,1.89.07.38,0,.99,0,1.86-.02.86-.01,1.86-.02,2.98-.02s2.24-.01,3.36-.04,2.12-.05,3.02-.08c.9-.02,1.56-.05,1.99-.08ZM877.12,22.64v2.06h-4.28c-.92,0-1.84,0-2.74.02-.9.01-1.7.02-2.4.04s-1.21.03-1.54.06c-.4.02-.91.09-1.54.21-.62.11-1.17.23-1.65.36-.6-.25-1.18-.55-1.73-.9s-1.04-.71-1.46-1.09c-.15-.15-.19-.3-.11-.45l.26-.45c.53.1,1.14.18,1.86.24.71.06,1.31.09,1.78.09.4,0,1.05,0,1.95-.02.9-.01,1.91-.02,3.04-.04,1.12-.01,2.26-.02,3.41-.04,1.15-.01,2.19-.02,3.11-.04s1.6-.03,2.03-.06ZM865.54,32.12h-3.71v-1.88c-.25-.23-.56-.43-.92-.62-.36-.19-.77-.34-1.22-.47l.15-.86c.05-.15.19-.23.41-.23.45,0,1.02,0,1.71.02.69.01,1.37.04,2.06.07.69.04,1.22.08,1.59.13l-.08,1.95v1.88ZM866.21,33.85l-1.35,2.14c-1.1-.03-1.88-.25-2.34-.68-.46-.42-.69-1.08-.69-1.95v-1.99h3.71v1.76c0,.47.22.71.67.71ZM881.89,35.87l-17.02.11.94-2.14h4.58c.95,0,1.89,0,2.83-.02.94-.01,1.81-.03,2.61-.04.8-.01,1.44-.03,1.91-.06l1.16-.56c.55,0,1.17.02,1.88.07s1.24.12,1.61.23c.38.08.56.29.56.64,0,.38-.05.71-.15.99-.1.29-.2.48-.3.58-.13.12-.33.19-.6.19ZM880.16,30.06l-15.19.19v-1.95c.38,0,.94,0,1.69-.02.75-.01,1.59-.02,2.51-.04.92-.01,1.84-.02,2.74-.02s1.7,0,2.4-.02c.7-.01,1.2-.03,1.5-.06l1.01-.26c1.12-.25,1.97-.24,2.55.04l.97.45c.15.1.22.24.22.41,0,.28-.04.53-.13.77-.09.24-.18.41-.28.51ZM879.15,10.52l-.11.26-9.75-.3,2.06-1.61,7.8,1.65ZM882.94,13.75l-13.65-3.26,9.86.04,2.14-.15c.47.15.99.34,1.56.56s1.01.44,1.33.64c.42.25.67.53.75.83.05.28-.01.55-.19.83-.18.28-.39.46-.64.56-.15.05-.33.07-.54.06-.21-.01-.42-.04-.62-.09ZM872.06,23.84h-2.36c-.12-.45-.22-1-.28-1.65-.06-.65-.09-1.24-.09-1.76v-2.32h3.64v1.65c0,.7-.09,1.44-.26,2.21-.17.78-.39,1.4-.64,1.88ZM880.09,5.09l-5.33.08,1.58-2.21,1.73-.64c.25-.1.52-.1.82,0,.33.1.74.26,1.26.49.51.23.88.4,1.11.52.1.05.16.13.17.24.01.11-.03.22-.13.32l-1.2,1.2ZM879.64,28.11h-3.11c.05-.25.08-.6.09-1.05.01-.45.02-.91.04-1.37.01-.46,0-.81-.02-1.03l3.75-.15c-.02.33-.07.72-.15,1.18-.08.46-.17.91-.28,1.35-.11.44-.22.79-.32,1.07ZM880.39,24.59l-3.75.08.41-2.03,1.24-.56c.2-.1.42-.1.67,0,.25.08.58.2.99.38.41.18.71.33.88.45.15.1.17.29.08.56l-.53,1.12Z"/>
  <path d="M906.82,11.54c0,1.45-.36,2.73-1.09,3.82-.72,1.1-1.72,1.96-2.98,2.59-1.26.63-2.71.94-4.33.94s-3.07-.31-4.35-.94c-1.28-.62-2.28-1.49-3-2.59-.73-1.1-1.09-2.37-1.09-3.82s.36-2.72,1.09-3.81c.72-1.09,1.72-1.94,3-2.57s2.72-.94,4.35-.94,3.07.31,4.33.94c1.26.62,2.26,1.48,2.98,2.57.73,1.09,1.09,2.36,1.09,3.81ZM903.22,11.54c0-.98-.21-1.81-.62-2.51-.41-.7-.98-1.23-1.71-1.59-.73-.36-1.55-.54-2.48-.54s-1.75.18-2.47.54-1.29.89-1.71,1.59c-.41.7-.62,1.54-.62,2.51s.21,1.78.62,2.47c.41.7.98,1.23,1.71,1.59.72.36,1.55.54,2.47.54s1.75-.18,2.48-.54c.72-.36,1.29-.89,1.71-1.59.41-.7.62-1.52.62-2.47ZM912.41,21.81v2.1h-1.59c-.71,0-1.49,0-2.34.02-.85.01-1.7.03-2.55.04-.85.01-1.61.02-2.27.04s-1.14.03-1.44.06c-.4.02-.91.09-1.54.19-.62.1-1.17.23-1.65.38-.6-.27-1.18-.59-1.74-.96-.56-.36-1.07-.73-1.52-1.11-.12-.12-.16-.26-.11-.41l.26-.49c.55.1,1.19.18,1.91.24.72.06,1.31.09,1.76.09h1.86c.86,0,1.83,0,2.91-.02,1.07-.01,2.16-.02,3.24-.04,1.09-.01,2.06-.03,2.92-.06.86-.02,1.49-.05,1.89-.07ZM901.54,31.75h-3.71v-2.1c-.25-.23-.56-.44-.92-.64-.36-.2-.77-.35-1.22-.45l.15-.86c.05-.15.19-.22.41-.22.45,0,1.02,0,1.71.02.69.01,1.38.04,2.06.08.69.04,1.22.08,1.59.13l-.07,1.99v2.06ZM902.21,33.51l-1.31,2.17c-1.12,0-1.92-.22-2.38-.66s-.69-1.11-.69-2.01v-1.99h3.71v1.76c0,.47.22.71.67.71ZM917.21,35.57l-16.31.11.97-2.17h4.31c.88,0,1.76,0,2.64-.02s1.7-.03,2.44-.04c.74-.01,1.33-.03,1.78-.06l1.12-.6c.58,0,1.21.02,1.91.07.7.05,1.24.12,1.61.23.38.1.56.32.56.67,0,.4-.05.74-.15,1.03-.1.29-.2.48-.3.58-.15.12-.35.19-.6.19ZM915.49,29.5l-14.44.19v-1.99c.38,0,.91,0,1.61-.02.7-.01,1.47-.02,2.31-.04.84-.01,1.67-.02,2.51-.02s1.58,0,2.23-.02c.65-.01,1.12-.03,1.42-.06l1.09-.3c.52-.1.99-.15,1.41-.15s.76.06,1.03.19l.97.49c.17.1.26.24.26.41,0,.28-.04.54-.13.79s-.18.43-.28.52ZM914.92,20.12h-2.14c-.08-.4-.14-.94-.21-1.61-.06-.67-.11-1.36-.13-2.04-.03-.69-.04-1.26-.04-1.71V4c-.28-.4-.69-.79-1.24-1.16s-1.15-.67-1.8-.9l.41-1.16c.05-.15.21-.23.49-.23.52.03,1.13.09,1.82.21.69.11,1.36.24,2.01.39.65.15,1.17.33,1.57.52.35.13.51.43.49.9l-.11,2.1v9.11c0,.7-.05,1.46-.15,2.27-.1.81-.23,1.58-.39,2.29-.16.71-.36,1.31-.58,1.78ZM914.96,27.47h-3.11c.02-.25.04-.61.06-1.09.01-.47.02-.95.04-1.42.01-.47,0-.84-.02-1.09l3.79-.15c-.03.35-.08.76-.15,1.24-.08.48-.17.94-.28,1.39-.11.45-.22.82-.32,1.12ZM915.71,23.8l-3.79.11.41-2.1,1.31-.56c.2-.1.42-.1.67,0,.25.07.57.21.96.39s.68.33.88.43c.15.13.17.33.07.6l-.52,1.12ZM922.2,13.56l-6.94.15v-2.21l3.11-.15,1.2-.75c.55-.02,1.16-.02,1.84.02.67.04,1.17.09,1.5.17.45.1.69.35.71.75.02.4-.01.75-.11,1.05-.1.3-.21.52-.34.67-.1.1-.24.18-.43.23-.19.05-.37.08-.54.08Z"/>
  <path d="M941.7,11.99c0,1.48-.36,2.78-1.09,3.92-.73,1.14-1.71,2.02-2.96,2.66-1.25.64-2.7.96-4.35.96s-3.03-.32-4.29-.96c-1.26-.64-2.26-1.52-3-2.66-.74-1.14-1.11-2.44-1.11-3.92s.37-2.74,1.11-3.86,1.74-2.01,3-2.64c1.26-.64,2.69-.96,4.29-.96s3.1.32,4.35.96c1.25.64,2.24,1.52,2.96,2.64.72,1.12,1.09,2.41,1.09,3.86ZM926.59,36.17l-.6-.53c-.17-.15-.16-.3.04-.45,1.97-1.55,3.67-3.22,5.08-5.02,1.41-1.8,2.41-3.56,2.98-5.29l4.01-.6c0,.17-.02.34-.06.49-.04.15-.08.28-.13.38-.83,2.08-2.16,4.06-4.01,5.96-1.85,1.9-4.11,3.57-6.79,5.02-.2.12-.38.14-.53.04ZM938.1,11.99c0-1-.21-1.86-.62-2.57-.41-.71-.98-1.27-1.71-1.67-.72-.4-1.55-.6-2.47-.6s-1.71.2-2.44.6c-.73.4-1.29.96-1.71,1.67-.41.71-.62,1.57-.62,2.57s.21,1.83.62,2.55c.41.73.98,1.28,1.71,1.67.72.39,1.54.58,2.44.58s1.75-.19,2.47-.58c.73-.39,1.29-.94,1.71-1.67.41-.73.62-1.58.62-2.55ZM938.1,24.29l-4.01.6c-.4-.57-1.04-1.1-1.91-1.57l.56-.98c.1-.17.27-.24.53-.19.47.05.99.16,1.56.32s1.09.33,1.59.51.89.35,1.16.52c.35.2.52.46.52.79ZM938.81,29.27l-.26.26-3.75-1.24,1.31-1.69,2.7,2.66ZM938.81,32.8l-4.01-4.5,4.01.98,1.24.6c.17.28.34.61.51.99.16.39.29.71.39.96.07.38.07.66,0,.86-.1.23-.28.4-.53.53s-.49.17-.71.15c-.3-.03-.6-.21-.9-.56ZM938.17,36.85l-.6-.49c-.13-.18-.11-.34.04-.49,1.38-1.15,2.6-2.36,3.67-3.64s1.99-2.57,2.76-3.88c.76-1.31,1.33-2.59,1.71-3.84l4.05-.6c0,.17-.01.34-.04.49-.03.15-.06.29-.11.41-.77,2.17-2.11,4.31-3.99,6.39-1.89,2.09-4.21,3.96-6.96,5.61-.2.12-.38.14-.53.04ZM949.8,23.91l-4.05.6c-.13-.32-.38-.66-.75-.99s-.76-.62-1.16-.84l.53-1.01c.1-.17.29-.24.56-.19.47.1,1,.25,1.58.45.57.2,1.12.41,1.63.62.51.21.91.41,1.18.58.32.23.49.49.49.79ZM949.8,21.06h-2.1c-.05-.3-.1-.71-.15-1.22-.05-.51-.09-1.06-.13-1.63-.04-.57-.06-1.13-.08-1.67-.01-.54-.02-.99-.02-1.37V4c-.28-.4-.69-.79-1.24-1.16s-1.15-.67-1.8-.9l.41-1.16c.05-.15.21-.23.49-.23.52.03,1.13.09,1.82.21.69.11,1.36.24,2.01.39.65.15,1.17.33,1.57.52.35.13.51.43.49.9l-.11,2.1v9.49c0,.75-.05,1.56-.15,2.44-.1.88-.23,1.71-.39,2.49-.16.79-.37,1.44-.62,1.97ZM951.11,30.66l-.22.26-4.91-2.48,1.28-1.65,3.86,3.86ZM951.79,35.09l-5.81-6.64,5.14,2.21,1.69.79c.27.38.54.82.79,1.33.25.51.42.93.53,1.26.17.45.2.81.08,1.09-.13.25-.34.44-.66.58-.31.14-.59.17-.84.09-.13-.05-.27-.14-.43-.28-.16-.14-.32-.28-.47-.43ZM957.11,13.9l-6.94.15v-2.17l3.11-.15,1.2-.75c.55-.02,1.16-.02,1.84.02.67.04,1.17.09,1.5.17.45.1.69.35.71.75.02.38-.01.72-.11,1.03-.1.31-.21.53-.34.66-.1.1-.24.17-.43.22-.19.05-.37.08-.54.08Z"/>
  <path d="M966.07,14.87h-3.67v-6.34c-.28-.27-.62-.53-1.03-.77-.41-.24-.86-.42-1.33-.54l.26-1.05c.07-.15.21-.23.41-.23.42,0,.99.01,1.71.04.71.03,1.42.07,2.12.13.7.06,1.24.14,1.61.24l-.08,2.14v6.38ZM979.61,18.66l.19.9c.02.18-.08.31-.3.41-.82.33-1.76.64-2.81.94-1.05.3-2.12.57-3.22.81-1.1.24-2.16.43-3.17.56-1.01.14-1.92.23-2.72.28h-1.58c-.65,0-1.19-.06-1.63-.17-.44-.11-.79-.31-1.05-.58-.26-.27-.51-.68-.73-1.2-.05-.12-.09-.39-.13-.79-.04-.4-.06-.85-.06-1.35v-4.39h3.67v4.8c0,.48.25.71.75.71.85,0,1.83-.02,2.92-.08,1.1-.05,2.23-.13,3.38-.24,1.15-.11,2.25-.24,3.3-.38,1.05-.14,1.95-.29,2.7-.47.28-.05.44.02.49.23ZM977.25,8.12l-11.25.38v-2.14c.38,0,.91-.01,1.59-.04.69-.02,1.43-.06,2.21-.09.79-.04,1.51-.07,2.17-.11s1.14-.07,1.44-.09l1.05-.64c.5,0,1.08.02,1.74.06.66.04,1.18.09,1.56.17.38.08.56.29.56.64,0,.4-.05.74-.15,1.03-.1.29-.21.51-.34.66-.13.13-.33.19-.6.19ZM973.42,29.87h-3.71v-2.14c-.3-.25-.69-.49-1.16-.71-.48-.23-.96-.41-1.46-.56l.22-.98c.03-.2.19-.3.49-.3.47,0,1.04.02,1.69.06.65.04,1.28.09,1.89.15.61.06,1.09.13,1.44.21.42.1.64.38.64.82l-.04,1.84v1.61ZM974.32,33.25l-.97,2.18c-1.33,0-2.26-.26-2.81-.79-.55-.52-.83-1.33-.83-2.4v-3.15h3.71v3.23c0,.62.3.94.9.94ZM989.51,35.31l-16.2.11,1.01-2.18h5.31c1.06,0,2.06-.01,2.98-.04.92-.03,1.67-.05,2.25-.08l1.35-.75c.62,0,1.32.03,2.08.08.76.05,1.34.13,1.74.22.4.1.6.33.6.68,0,.45-.06.82-.17,1.12-.11.3-.23.51-.36.64-.15.12-.35.19-.6.19ZM977.51,11.95l1.84,2.1c-.33.03-.72.09-1.18.21-.46.11-.86.22-1.18.32-.55-.25-1.08-.53-1.58-.84-.5-.31-.96-.66-1.39-1.03-.12-.17-.15-.32-.08-.45l.3-.52c.47.07,1.01.13,1.59.17.59.04,1.14.06,1.67.06ZM985.09,11.57v2.18c-.55,0-1.21.01-1.97.04s-1.49.06-2.17.11c-.69.05-1.22.1-1.59.15l-1.84-2.1c.38,0,.89-.01,1.54-.04.65-.02,1.35-.05,2.1-.08.75-.02,1.48-.06,2.19-.11.71-.05,1.29-.1,1.74-.15ZM987.04,27.81h-2.1c-.05-.35-.1-.84-.15-1.46-.05-.62-.09-1.3-.13-2.03-.04-.72-.06-1.42-.07-2.08-.01-.66-.02-1.22-.02-1.67V4c-.28-.4-.68-.79-1.22-1.16-.54-.38-1.13-.67-1.78-.9l.38-1.16c.05-.15.21-.23.49-.23.52.03,1.14.09,1.84.21.7.11,1.37.24,2.01.39.64.15,1.16.33,1.56.52.35.13.51.43.49.9l-.11,2.1v14.77c0,.93-.04,1.91-.13,2.94-.09,1.04-.22,2.03-.39,2.98-.18.95-.39,1.76-.64,2.44Z"/>
  <path d="M1009.2,15.77h-3.6v-5.62c-.28-.25-.63-.49-1.07-.73-.44-.24-.88-.42-1.33-.54l.22-1.05c.05-.2.22-.3.53-.3.45,0,.97.02,1.56.06.59.04,1.17.09,1.76.15.59.06,1.04.13,1.37.21.4.1.6.38.6.82l-.04,1.88v5.14ZM1022.14,20.99v1.95c-1.2.48-2.51.9-3.94,1.27-1.43.38-2.83.69-4.22.94-1.39.25-2.66.43-3.81.52-.22.03-.46.04-.71.04h-.64c-.75,0-1.39-.21-1.91-.62-.52-.41-.9-.94-1.12-1.59-.05-.23-.09-.5-.13-.83-.04-.32-.06-.67-.06-1.05v-7.73h3.6v8.1c0,.48.22.71.67.71.85-.02,1.79-.08,2.83-.17,1.04-.09,2.11-.21,3.22-.36s2.21-.32,3.28-.52,2.05-.42,2.93-.68ZM1023.49,34.26h-1.88c-.05-.38-.1-.87-.15-1.48-.05-.61-.09-1.27-.13-1.97-.04-.7-.06-1.37-.08-2.01s-.02-1.16-.02-1.56V6.25c-.22-.35-.58-.68-1.05-.98-.48-.3-.99-.56-1.54-.79l.41-1.09c.05-.17.22-.26.52-.26.45.03.98.09,1.58.19.6.1,1.19.23,1.76.38.58.15,1.02.31,1.35.49.3.15.45.43.45.82l-.11,1.8v19.35c0,.75-.04,1.62-.13,2.61-.09.99-.21,1.97-.38,2.94-.16.97-.37,1.82-.62,2.55ZM1030.39,17.87l-6.49.15v-2.29l6.49-.15v2.29ZM1031.4,36.74h-1.99c-.05-.35-.1-.85-.15-1.5-.05-.65-.09-1.35-.13-2.1-.04-.75-.06-1.47-.08-2.16-.01-.69-.02-1.24-.02-1.67V3.85c-.25-.38-.63-.74-1.14-1.09-.51-.35-1.07-.62-1.67-.82l.38-1.12c.02-.1.08-.17.17-.21.09-.04.21-.06.36-.06.47.03,1.04.09,1.71.19.66.1,1.3.23,1.91.39s1.09.33,1.44.51c.38.15.54.44.49.86l-.11,1.99v23.7c0,.75-.04,1.65-.13,2.7-.09,1.05-.22,2.09-.39,3.13-.17,1.04-.39,1.94-.64,2.72Z"/>
  <path d="M1072.46,19l1.5-.64c.5,0,1.04.04,1.61.11.58.07,1.13.16,1.67.24.54.09.96.18,1.26.28.38.13.56.38.56.75,0,.43-.11.8-.34,1.12-.23.33-.45.54-.68.64-.3-.05-.74-.09-1.33-.11-.59-.02-1.17-.04-1.76-.06-.59-.01-1.08-.02-1.48-.02-.43,0-1.18,0-2.27.02-1.09.01-2.36.02-3.81.04-1.45.01-2.97.02-4.56.04-1.59.01-3.09.03-4.52.06-1.42.02-2.66.05-3.69.07-1.04.03-1.73.05-2.08.08-.33.02-.74.08-1.26.17-.51.09-1.03.18-1.54.28-.51.1-.93.2-1.26.3-.73-.25-1.44-.6-2.16-1.05-.71-.45-1.32-.89-1.82-1.31-.15-.12-.19-.27-.11-.45l.3-.6c.7.13,1.47.23,2.31.3.84.08,1.58.11,2.23.11h1.89c.91,0,2.01,0,3.28-.02,1.28-.01,2.64-.02,4.11-.04,1.46-.01,2.93-.03,4.41-.06,1.47-.02,2.86-.05,4.16-.07,1.3-.02,2.42-.06,3.38-.09.95-.04,1.61-.07,1.99-.09ZM1056,5.69l-3.83-.19c-.2-.23-.49-.45-.88-.68-.39-.22-.78-.41-1.18-.56l.26-1.05c.05-.15.19-.23.41-.23.45,0,.99.03,1.61.08.62.05,1.26.1,1.89.15.64.05,1.18.13,1.63.23l.08,2.25ZM1056.71,27.17l-3.79-.26c-.47-.53-1.15-.95-2.02-1.28l.26-1.01c.05-.12.19-.19.41-.19.42,0,.95.02,1.58.06.62.04,1.26.09,1.89.15.64.06,1.17.13,1.59.21l.08,2.32ZM1055.32,15.7h-1.99c-.13-.27-.23-.59-.32-.96-.09-.36-.14-.73-.17-1.11l-.68-8.17,3.83-.26.08,7.95c.02.65-.02,1.16-.13,1.54-.11.38-.32.71-.62,1.01ZM1056.04,36.74h-1.99c-.12-.28-.23-.61-.32-.99-.09-.39-.16-.77-.21-1.14l-.6-7.73,3.79-.3.11,7.54c.02.65-.03,1.17-.15,1.57-.12.4-.34.75-.64,1.05ZM1071,14.42l-15.15.15.11-2.21h2.59c.98,0,1.97-.01,2.98-.04,1.01-.02,1.97-.05,2.87-.07.9-.02,1.67-.05,2.33-.08l1.27-.34c.5-.12.91-.19,1.22-.21s.63.07.96.24l1.09.49c.2.1.3.26.3.49,0,.33-.06.64-.17.94-.11.3-.24.51-.39.64ZM1067.66,3.25v2.32c-1.2-.02-2.49-.03-3.86-.02-1.38.01-2.74.03-4.09.06-1.35.03-2.61.05-3.79.08l-.04-2.25h2.59c1.05,0,2.15-.01,3.3-.04,1.15-.02,2.25-.05,3.3-.08,1.05-.02,1.91-.05,2.59-.07ZM1067.7,24.62l.04,2.36c-1.72,0-3.59.02-5.59.06-2,.04-3.84.08-5.51.13l-.04-2.32c.65,0,1.47-.01,2.46-.04.99-.02,2.03-.04,3.13-.06,1.1-.01,2.14-.03,3.11-.06.98-.02,1.78-.05,2.4-.07ZM1070.92,35.5l-14.32.15.11-2.33h2.42c.89,0,1.8,0,2.74-.02s1.82-.03,2.66-.06c.84-.02,1.56-.05,2.16-.07l1.12-.3c.55-.2,1.01-.3,1.37-.3s.69.1.99.3l.98.49c.22.1.34.27.34.52,0,.35-.06.67-.17.98-.11.3-.24.51-.39.64ZM1063.57,20.24h-3.56v-6.56h3.56v6.56ZM1070.44,33.14l-2.96.04.11-6.19,3.75-.04c-.08,1-.19,2.04-.36,3.11-.16,1.08-.34,2.1-.54,3.07ZM1070.51,12.1l-3-.04.15-6.49,3.86-.07c-.1,1.05-.23,2.15-.39,3.3-.16,1.15-.37,2.25-.62,3.3ZM1071.52,5.54l-3.86.04-.08-2.32,1.58-.75c.22-.1.46-.1.71,0,.28.1.64.26,1.09.47s.77.39.97.54c.15.1.17.28.08.53l-.49,1.5ZM1071.34,26.99h-3.75l.08-2.36,1.42-.6c.25-.12.49-.12.71,0,.28.1.61.25,1.01.45.4.2.7.38.9.52.15.1.17.26.08.49l-.45,1.5Z"/>
  <path d="M1084.65,25.19l2.55,2.62c-.4.02-.94.11-1.61.24-.67.14-1.2.29-1.57.47-.7-.32-1.41-.72-2.14-1.2-.73-.47-1.38-.95-1.95-1.42-.15-.15-.19-.3-.11-.45l.3-.56c.7.1,1.46.18,2.27.24s1.57.08,2.27.06ZM1100.32,12.85c0,1.4-.37,2.66-1.11,3.77-.74,1.11-1.74,1.99-3.02,2.62-1.28.64-2.74.96-4.39.96s-3.04-.32-4.31-.96c-1.28-.64-2.28-1.51-3.02-2.62-.74-1.11-1.11-2.37-1.11-3.77s.37-2.65,1.11-3.75c.74-1.1,1.74-1.96,3.02-2.59,1.27-.62,2.71-.94,4.31-.94s3.11.31,4.39.94c1.27.63,2.28,1.49,3.02,2.59.74,1.1,1.11,2.35,1.11,3.75ZM1106.21,23.42l.19,1.24c.05.25-.05.4-.3.45-.9.23-1.97.46-3.21.69-1.24.24-2.56.46-3.96.67-1.4.21-2.81.41-4.24.58-1.43.18-2.78.33-4.07.47-1.29.14-2.43.23-3.43.28l-2.55-2.62c1.12-.02,2.41-.08,3.86-.15,1.45-.08,2.97-.18,4.56-.32,1.59-.14,3.17-.29,4.74-.45,1.58-.16,3.04-.34,4.41-.52,1.36-.19,2.53-.38,3.51-.58.28-.05.44.04.49.26ZM1096.61,12.85c0-.95-.21-1.77-.62-2.46-.41-.69-.98-1.22-1.71-1.59-.73-.38-1.55-.56-2.47-.56s-1.71.19-2.44.56c-.73.38-1.29.91-1.71,1.59-.41.69-.62,1.51-.62,2.46s.21,1.74.62,2.44c.41.7.98,1.24,1.71,1.61.72.38,1.54.56,2.44.56s1.75-.19,2.47-.56c.72-.38,1.29-.91,1.71-1.61.41-.7.62-1.51.62-2.44ZM1108.01,36.74h-2.06c-.05-.38-.1-.9-.15-1.58-.05-.67-.09-1.4-.13-2.17-.04-.77-.06-1.52-.08-2.23-.01-.71-.02-1.28-.02-1.71V4c-.3-.4-.73-.79-1.28-1.16s-1.16-.67-1.84-.9l.41-1.16c.02-.08.07-.13.13-.17.06-.04.18-.06.36-.06.53.03,1.14.09,1.84.21.7.11,1.38.24,2.04.39s1.19.33,1.59.52c.38.13.55.43.53.9l-.15,2.14v23.17c0,.58-.02,1.24-.07,2.01-.05.76-.13,1.56-.23,2.4-.1.84-.22,1.64-.38,2.4-.15.76-.33,1.44-.52,2.04Z"/>
  <path d="M1131.11,22.07h-3.71v-4.91c-.25-.25-.58-.47-.98-.66-.4-.19-.81-.36-1.24-.51l.19-.9c.05-.15.19-.23.41-.23.4,0,.96,0,1.67.02.71.01,1.42.03,2.12.06.7.03,1.24.06,1.61.11l-.08,2.14v4.88ZM1138.87,6.36v2.14c-.33,0-.83,0-1.5.02-.67.01-1.41.03-2.19.04-.79.01-1.51.03-2.16.06-.65.03-1.1.04-1.35.04-.38.03-.85.1-1.42.23-.58.13-1.1.25-1.58.38-.58-.27-1.12-.59-1.65-.94-.53-.35-1-.71-1.42-1.09-.13-.12-.16-.26-.11-.41l.3-.56c.5.1,1.09.18,1.78.23.69.05,1.26.07,1.71.07h1.41c.64,0,1.36,0,2.16-.02.8-.01,1.61-.02,2.42-.04.81-.01,1.54-.03,2.17-.06s1.12-.05,1.44-.08ZM1148.89,22.07v1.95c-1.72.55-3.6,1.06-5.62,1.52-2.03.46-4.01.84-5.96,1.14-1.95.3-3.71.51-5.29.64-.25.03-.49.04-.73.04h-.66c-.75,0-1.38-.21-1.89-.62-.51-.41-.88-.96-1.11-1.63-.08-.2-.13-.46-.17-.79-.04-.32-.06-.69-.06-1.09v-4.5h3.71v4.91c0,.48.24.71.71.71,1.15,0,2.46-.06,3.92-.17,1.46-.11,2.97-.27,4.52-.47,1.55-.2,3.07-.44,4.56-.71,1.49-.27,2.84-.59,4.07-.94ZM1142.14,16.86l-11.44.34v-2.14c.27,0,.66,0,1.16-.02.5-.01,1.04-.02,1.61-.04.57-.01,1.14-.03,1.69-.06.55-.02,1.05-.04,1.5-.06.45-.01.79-.03,1.01-.06l.86-.26c.55-.12,1.11-.19,1.67-.19s.96.06,1.18.19l.9.49c.17.1.26.25.26.45,0,.28-.04.54-.13.79-.09.25-.18.44-.28.56ZM1141.5,14.69h-3.19c.05-.3.08-.73.09-1.29s.02-1.17.02-1.82v-1.84c0-.57-.01-1-.04-1.27l4.05.04c-.03.58-.09,1.25-.19,2.02-.1.78-.21,1.54-.34,2.29-.13.75-.26,1.38-.41,1.88ZM1142.44,8.57l-4.05-.07.38-2.1,1.39-.67c.22-.12.46-.12.71,0,.25.1.58.26.99.49s.72.4.92.52c.15.1.19.28.11.52l-.45,1.31ZM1150.99,36.74h-2.06c-.05-.38-.09-.9-.13-1.58s-.08-1.4-.11-2.17c-.04-.77-.07-1.52-.09-2.23-.03-.71-.04-1.28-.04-1.71V4c-.28-.4-.69-.79-1.26-1.16s-1.17-.67-1.82-.9l.38-1.16c.02-.08.07-.13.13-.17.06-.04.18-.06.36-.06.52.03,1.14.09,1.84.21.7.11,1.38.24,2.04.39s1.19.33,1.59.52c.38.13.55.43.53.9l-.15,2.14v23.17c0,.58-.03,1.24-.08,2.01-.05.76-.12,1.56-.22,2.4-.1.84-.22,1.64-.38,2.4-.15.76-.33,1.44-.53,2.04Z"/>
  <path d="M1185.37,18.21l1.5-.64c.5,0,1.04.04,1.61.11.58.07,1.13.16,1.67.24.54.09.96.18,1.26.28.38.13.56.38.56.75,0,.43-.11.8-.34,1.12-.23.33-.45.54-.68.64-.3-.05-.74-.09-1.33-.11-.59-.02-1.17-.04-1.76-.06-.59-.01-1.08-.02-1.48-.02-.43,0-1.18,0-2.27.02-1.09.01-2.36.03-3.81.04-1.45.01-2.97.02-4.56.04s-3.09.03-4.52.06-2.66.05-3.69.07c-1.04.03-1.73.05-2.08.08-.33.03-.74.08-1.26.17-.51.09-1.03.18-1.54.28-.51.1-.93.2-1.26.3-.73-.25-1.44-.59-2.16-1.03-.71-.44-1.32-.88-1.82-1.33-.15-.12-.19-.27-.11-.45l.3-.6c.7.13,1.47.23,2.31.3.84.07,1.58.11,2.23.11h1.89c.91,0,2.01,0,3.28-.02,1.28-.01,2.64-.02,4.11-.04,1.46-.01,2.93-.03,4.41-.06,1.47-.02,2.86-.05,4.16-.08,1.3-.02,2.42-.06,3.38-.09.95-.04,1.61-.07,1.99-.09ZM1168.42,9.06h-3.71v-3.19c-.58-.55-1.38-.98-2.4-1.27l.26-1.05c.07-.15.21-.23.41-.23.32,0,.74,0,1.24.02.5.01,1.02.04,1.56.07.54.04,1.05.08,1.54.11s.88.09,1.18.17l-.08,2.14v3.23ZM1169.59,26.91l-3.79-.26c-.48-.5-1.15-.92-2.03-1.27l.26-.98c.05-.15.19-.23.41-.23.42,0,.95.02,1.57.06.62.04,1.26.09,1.89.15.64.06,1.17.13,1.59.21l.07,2.33ZM1169.29,12.96l-.86,2.14c-1.35.02-2.31-.24-2.87-.79-.56-.55-.84-1.35-.84-2.4v-4.28h3.71v4.43c0,.6.29.9.86.9ZM1168.91,36.59h-1.99c-.12-.28-.23-.61-.32-.99-.09-.39-.16-.77-.21-1.14l-.6-7.8,3.79-.3.11,7.61c.02.65-.03,1.17-.15,1.56-.12.39-.34.74-.64,1.07ZM1184.4,5.61l-16.24.23v-2.14c.47,0,1.12,0,1.93-.02.81-.01,1.7-.02,2.66-.04.96-.01,1.92-.02,2.89-.04.96-.01,1.83-.03,2.61-.06.77-.02,1.36-.05,1.76-.07l1.2-.56c.55,0,1.19.02,1.93.06s1.33.11,1.78.21c.38.08.56.3.56.68s-.04.69-.13.96c-.09.26-.18.46-.28.58-.15.15-.38.23-.68.23ZM1184.89,14.8l-16.46.3.86-2.14h1.89c.76,0,1.59,0,2.48-.02.89-.01,1.77-.03,2.66-.06.89-.02,1.7-.05,2.44-.07s1.33-.05,1.78-.08l1.09-.56c.6,0,1.27.03,2.02.08.75.05,1.33.11,1.73.19.38.1.56.33.56.67s-.05.66-.15.94c-.1.28-.2.46-.3.56-.08.08-.16.13-.26.15-.1.03-.21.04-.34.04ZM1183.72,35.35l-14.4.15.07-2.32h2.46c.91,0,1.84,0,2.79-.02s1.84-.04,2.68-.07c.84-.04,1.57-.07,2.19-.09l1.12-.3c.55-.17,1.01-.26,1.37-.26s.68.09.96.26l1.01.53c.22.1.34.27.34.53,0,.35-.06.67-.19.96-.13.29-.26.51-.41.66ZM1180.5,24.36v2.4c-1.7,0-3.54.01-5.51.04-1.98.03-3.8.06-5.47.11l-.04-2.33c.65,0,1.46,0,2.44-.02.98-.01,2.01-.02,3.11-.04,1.1-.01,2.14-.04,3.11-.08.97-.04,1.76-.07,2.36-.09ZM1183.27,32.91l-3-.04.11-6.15h3.75c-.08.97-.19,2-.34,3.07-.15,1.08-.33,2.11-.53,3.11ZM1184.14,26.76h-3.75l.07-2.4,1.46-.6c.22-.1.45-.1.67,0,.3.13.65.28,1.05.47.4.19.69.36.86.51.15.1.19.26.11.49l-.49,1.54Z"/>
  <path d="M1212.45,15.89c0,1.58-.38,2.98-1.14,4.22-.76,1.24-1.81,2.21-3.13,2.91-1.33.7-2.85,1.05-4.58,1.05s-3.22-.35-4.56-1.05c-1.34-.7-2.39-1.67-3.17-2.91-.77-1.24-1.16-2.64-1.16-4.22s.39-3.02,1.16-4.26c.78-1.24,1.83-2.21,3.17-2.91,1.34-.7,2.86-1.05,4.56-1.05s3.25.35,4.58,1.05c1.32.7,2.37,1.67,3.13,2.91.76,1.24,1.14,2.66,1.14,4.26ZM1208.7,15.89c0-1.12-.22-2.09-.66-2.89-.44-.8-1.04-1.41-1.8-1.84-.76-.42-1.64-.64-2.64-.64s-1.81.21-2.59.64c-.78.43-1.38,1.04-1.82,1.84-.44.8-.66,1.76-.66,2.89s.22,2.05.66,2.85c.44.8,1.04,1.41,1.82,1.84.77.43,1.64.64,2.59.64,1,0,1.88-.21,2.64-.64.76-.42,1.36-1.04,1.8-1.84.44-.8.66-1.75.66-2.85ZM1220.81,36.74h-2.06c-.05-.38-.09-.9-.13-1.58s-.08-1.4-.11-2.17c-.04-.77-.07-1.52-.09-2.23-.03-.71-.04-1.28-.04-1.71V4c-.28-.4-.69-.79-1.26-1.16s-1.17-.67-1.82-.9l.38-1.16c.02-.08.07-.13.13-.17.06-.04.18-.06.36-.06.52.03,1.14.09,1.84.21.7.11,1.38.24,2.04.39s1.19.33,1.59.52c.38.13.55.43.53.9l-.15,2.14v23.17c0,.58-.03,1.24-.08,2.01-.05.76-.12,1.56-.22,2.4-.1.84-.22,1.64-.38,2.4-.15.76-.33,1.44-.53,2.04Z"/>
  <path d="M783.71,81.79h-3.71v-9.64c-.25-.27-.59-.53-1.01-.75-.43-.22-.88-.41-1.35-.56l.26-1.05c.08-.15.21-.23.41-.23.42,0,.99.02,1.71.06.71.04,1.42.09,2.12.15s1.25.13,1.65.21l-.08,2.17v9.64ZM797.4,85.16l.19.9c.02.18-.08.31-.3.41-.83.35-1.76.68-2.81.99-1.05.31-2.14.59-3.26.83-1.12.24-2.23.44-3.3.62-1.08.17-2.04.29-2.89.34-.25.03-.51.04-.79.06-.28.01-.53.02-.75.02-.98,0-1.69-.14-2.16-.43-.46-.29-.84-.83-1.14-1.63-.05-.1-.09-.34-.13-.71-.04-.38-.06-.8-.06-1.28v-4.46h3.71v4.8c0,.45.23.67.67.67.9,0,1.91-.04,3.04-.11,1.12-.08,2.27-.17,3.43-.28,1.16-.11,2.28-.25,3.34-.41,1.06-.16,1.97-.33,2.72-.51.27-.05.44.01.49.19ZM794.55,71.77l-11.06.38v-2.17c.35,0,.85-.01,1.5-.04.65-.02,1.36-.05,2.12-.07.76-.03,1.46-.06,2.1-.09.64-.04,1.09-.07,1.37-.09l1.09-.68c.5,0,1.09.02,1.78.06s1.22.09,1.59.17c.4.08.6.29.6.64,0,.4-.05.74-.15,1.03-.1.29-.21.51-.34.66-.12.15-.33.22-.6.22ZM794.74,77.06l1.91,2.21c-.3.03-.7.11-1.2.24s-.91.27-1.24.39c-.6-.3-1.16-.63-1.69-.99-.52-.36-1.01-.73-1.46-1.11-.15-.15-.19-.3-.11-.45l.3-.53c.5.08,1.07.13,1.72.17.65.04,1.24.06,1.76.06ZM802.69,76.76v2.17c-.58,0-1.27.02-2.08.06s-1.58.08-2.31.13c-.73.05-1.28.1-1.65.15l-1.91-2.21c.4,0,.94,0,1.63-.02.69-.01,1.42-.03,2.21-.06.79-.03,1.54-.06,2.27-.11.72-.05,1.34-.09,1.84-.11ZM804.26,98.74h-2.06c-.05-.38-.1-.9-.15-1.58-.05-.67-.09-1.4-.13-2.17-.04-.78-.06-1.52-.07-2.23-.01-.71-.02-1.28-.02-1.71v-25.05c-.3-.4-.72-.79-1.27-1.16-.55-.38-1.16-.67-1.84-.9l.41-1.16c.02-.08.07-.13.13-.17.06-.04.18-.06.36-.06.52.02,1.14.09,1.84.21s1.38.24,2.04.39,1.19.33,1.59.53c.38.12.55.42.53.9l-.15,2.14v23.17c0,.58-.03,1.24-.08,2.01s-.12,1.56-.22,2.4c-.1.84-.22,1.64-.38,2.4-.15.76-.33,1.44-.53,2.04Z"/>
  <path d="M825.04,72.64l1.12-.49c.5,0,1.06.04,1.69.13.62.09,1.1.19,1.42.32.27.1.41.3.41.6,0,.4-.09.76-.28,1.07s-.37.52-.54.62c-.33-.02-.82-.05-1.48-.08-.66-.02-1.19-.04-1.59-.04-.25,0-.69,0-1.31.02-.63.01-1.35.03-2.18.06-.82.03-1.65.05-2.47.08-.83.02-1.55.04-2.17.06-.62.01-1.06.03-1.31.06-.35.03-.79.09-1.31.19-.53.1-.95.2-1.28.3-.5-.25-1-.56-1.5-.92-.5-.36-.92-.71-1.27-1.03-.15-.15-.19-.29-.11-.41l.26-.53c.53.1,1.08.18,1.67.23.59.05,1.11.07,1.56.07.27,0,.77,0,1.48-.02.71-.01,1.53-.03,2.46-.06.92-.03,1.85-.05,2.77-.08.92-.02,1.74-.05,2.46-.08.71-.02,1.22-.05,1.52-.08ZM828.19,82.76c0,1.23-.32,2.3-.96,3.23s-1.5,1.65-2.59,2.17c-1.09.52-2.29.79-3.62.79s-2.58-.26-3.67-.79c-1.1-.53-1.98-1.25-2.64-2.17s-.99-2-.99-3.23.33-2.3.99-3.22,1.54-1.64,2.64-2.16c1.1-.51,2.32-.77,3.67-.77s2.53.26,3.62.77c1.09.51,1.95,1.23,2.59,2.16s.96,2,.96,3.22ZM815.21,67.46l.34-.41c1.58.28,3.11.46,4.59.56s2.82.15,3.99.15c.35,0,.58.13.67.38.12.25.17.58.13.99-.04.41-.13.69-.28.84-.08.1-.16.16-.26.19-.1.03-.21.04-.34.04-.85.03-1.84.04-2.98.06s-2.11.06-2.91.13c-.17,0-.31,0-.41-.02-.1-.01-.2-.06-.3-.13-.38-.25-.76-.58-1.16-.99-.4-.41-.74-.83-1.01-1.26-.13-.2-.15-.38-.08-.53ZM824.81,82.76c0-1.22-.36-2.18-1.09-2.87-.73-.69-1.63-1.03-2.7-1.03s-1.98.34-2.7,1.03c-.73.69-1.09,1.64-1.09,2.87s.36,2.11,1.09,2.79c.72.69,1.62,1.03,2.7,1.03s1.97-.34,2.7-1.03c.72-.69,1.09-1.62,1.09-2.79ZM833.36,96.26h-1.88c-.05-.35-.1-.84-.15-1.46-.05-.62-.09-1.29-.13-1.99-.04-.7-.06-1.36-.07-1.99-.01-.62-.02-1.14-.02-1.54v-21.23c-.22-.35-.58-.68-1.05-.99s-.99-.57-1.54-.77l.41-1.09c.05-.17.23-.26.53-.26.45.03.97.09,1.58.19.6.1,1.19.23,1.76.38.58.15,1.03.31,1.35.49.3.13.45.4.45.83l-.11,1.76v19.61c0,.73-.04,1.58-.13,2.57-.09.99-.21,1.97-.38,2.96-.16.99-.37,1.83-.62,2.53ZM839.44,81l-6.49.15v-2.29l6.49-.15v2.29ZM840.49,98.74h-1.99c-.05-.35-.1-.85-.15-1.5-.05-.65-.09-1.35-.13-2.1-.04-.75-.06-1.47-.08-2.16-.01-.69-.02-1.24-.02-1.67v-25.46c-.25-.38-.63-.74-1.14-1.09-.51-.35-1.07-.62-1.67-.83l.38-1.12c.02-.1.08-.17.17-.21.09-.04.21-.06.36-.06.47.02,1.04.09,1.71.19.66.1,1.3.23,1.91.39.61.16,1.09.33,1.44.51.38.15.54.44.49.86l-.11,1.99v23.7c0,.75-.04,1.65-.13,2.7s-.22,2.09-.39,3.13c-.17,1.04-.39,1.94-.64,2.72Z"/>
  <path d="M847.54,89.89l-.64-.56c-.12-.15-.11-.3.04-.45,2.17-1.67,4.15-3.49,5.92-5.44,1.77-1.95,3.32-3.95,4.63-6,1.31-2.05,2.34-4.04,3.09-5.96l2.29-.79,2.21.79c-.65,1.67-1.54,3.36-2.66,5.04s-2.43,3.34-3.92,4.95c-1.49,1.61-3.11,3.13-4.88,4.54s-3.63,2.68-5.61,3.81c-.2.13-.36.15-.49.08ZM861.52,69.37v2.14c-.42,0-1,0-1.72-.02-.73-.01-1.48-.01-2.27,0-.79.01-1.5.03-2.14.04-.64.01-1.08.03-1.33.06-.38.03-.86.09-1.46.21-.6.11-1.09.24-1.46.39-.53-.25-1.07-.55-1.63-.9-.56-.35-1.04-.71-1.44-1.09-.15-.12-.19-.26-.11-.41l.26-.49c.55.07,1.14.13,1.78.17.64.04,1.21.06,1.71.06h1.39c.65,0,1.38,0,2.18-.02.8-.01,1.62-.02,2.46-.04.84-.01,1.59-.02,2.27-.04s1.19-.03,1.54-.06ZM864.56,82.65l-.26.26-6.04-3.04,1.54-1.76,4.76,4.54ZM865.58,87.56l-7.31-7.69,6.3,2.78,1.76.64c.3.45.62.97.96,1.58.34.6.59,1.09.77,1.46.22.6.27,1.04.15,1.31-.13.28-.36.48-.71.62-.35.14-.66.16-.94.06-.15-.05-.31-.16-.49-.32-.18-.16-.34-.31-.49-.43ZM865.09,71.47h-4.5l.94-2.1,1.43-.64c.25-.1.5-.1.75,0,.3.1.68.26,1.14.49.46.22.81.4,1.03.52.22.13.24.3.04.53l-.83,1.2ZM873.9,98.74h-2.06c-.05-.38-.09-.9-.13-1.58s-.08-1.4-.11-2.17c-.04-.78-.07-1.52-.09-2.23-.03-.71-.04-1.28-.04-1.71v-25.05c-.28-.4-.69-.79-1.26-1.16s-1.17-.67-1.82-.9l.38-1.16c.02-.08.07-.13.13-.17.06-.04.18-.06.36-.06.52.02,1.14.09,1.84.21s1.38.24,2.04.39,1.19.33,1.59.53c.38.12.55.42.53.9l-.15,2.14v23.17c0,.58-.03,1.24-.08,2.01s-.12,1.56-.22,2.4c-.1.84-.22,1.64-.38,2.4-.15.76-.33,1.44-.53,2.04Z"/>
  <path d="M908.29,89.7l1.5-.67c.5.03,1.04.07,1.61.13.58.06,1.13.14,1.67.23.54.09.96.19,1.26.32.38.13.56.38.56.75,0,.4-.11.77-.34,1.11-.23.34-.45.56-.68.66-.3-.05-.74-.09-1.33-.11-.59-.02-1.17-.04-1.76-.06-.59-.01-1.08-.02-1.48-.02h-2.27c-1.09,0-2.36.01-3.81.04-1.45.03-2.97.04-4.56.06s-3.09.03-4.52.06c-1.42.02-2.66.05-3.69.07-1.04.03-1.73.05-2.08.08-.33.03-.74.08-1.26.15-.51.08-1.03.17-1.54.28-.51.11-.93.22-1.26.32-.73-.27-1.44-.63-2.16-1.07-.71-.44-1.32-.88-1.82-1.33-.15-.12-.19-.26-.11-.41l.3-.6c.7.1,1.47.19,2.31.26.84.07,1.58.12,2.23.15h1.89c.91,0,2.01,0,3.28-.02,1.28-.01,2.64-.03,4.11-.06,1.46-.02,2.93-.05,4.41-.07,1.47-.03,2.86-.05,4.16-.08,1.3-.02,2.42-.05,3.38-.08.95-.02,1.61-.05,1.99-.08ZM905.51,67.42v2.36h-2.42c-.99,0-2.04,0-3.15.02-1.11.01-2.2.03-3.26.06-1.06.02-2.01.05-2.83.07-.83.03-1.44.05-1.84.08-.52.03-1.17.11-1.93.24-.76.14-1.38.28-1.86.43-.6-.27-1.22-.62-1.86-1.03-.64-.41-1.18-.82-1.63-1.22-.18-.17-.23-.34-.15-.49l.3-.56c.62.1,1.31.18,2.04.24s1.38.09,1.93.09h1.76c.83,0,1.79,0,2.91-.02s2.27-.03,3.47-.06c1.2-.02,2.38-.05,3.53-.08,1.15-.02,2.16-.05,3.04-.08.88-.02,1.53-.05,1.95-.07ZM897.9,80.92l-3.6-.6c-.23-.25-.55-.5-.98-.75-.42-.25-.88-.45-1.35-.6l.26-1.01c.02-.08.07-.13.13-.17.06-.04.18-.06.36-.06.42,0,.96.03,1.61.09.65.06,1.28.14,1.89.22.61.09,1.08.18,1.41.28.35.1.51.34.49.71l-.22,1.88ZM897.79,90.75h-3.41l-.07-10.42,3.6.6-.11,9.82ZM905.36,85.8l-1.01-.23c-.2-.02-.29-.21-.26-.56.17-1.07.34-2.26.49-3.56.15-1.3.26-2.64.34-4.03s.13-2.74.17-4.05c.04-1.31.06-2.51.06-3.58l2.21-.67,1.91.86c-.05,1.5-.22,3.17-.52,5.02-.3,1.85-.69,3.69-1.16,5.51-.47,1.83-1,3.48-1.58,4.95-.12.25-.34.36-.64.34ZM909.26,69.97l-4.12-.19.15-2.33,1.61-.79c.25-.12.49-.12.71,0,.32.12.71.33,1.14.6.44.28.77.49.99.64.15.15.19.34.11.56l-.6,1.5Z"/>
  <path d="M917.14,101.44l-.41-1.01c1.35-.68,2.39-1.41,3.11-2.19.72-.79,1.21-1.88,1.46-3.28l.45,1.35-2.17-1.2c-.62-.38-1.08-.78-1.35-1.22s-.41-.89-.41-1.37c0-.72.24-1.34.73-1.86.49-.51,1.12-.77,1.89-.77.45,0,.86.06,1.24.19.38.13.74.36,1.09.71.15.42.26.83.32,1.22s.09.83.09,1.33c0,1.97-.54,3.66-1.63,5.04-1.09,1.39-2.56,2.41-4.41,3.06Z"/>
  <path d="M939.79,88.72l2.51,2.59c-.4.03-.93.11-1.59.26-.66.15-1.18.3-1.56.45-.68-.3-1.38-.69-2.12-1.18-.74-.49-1.38-.97-1.93-1.44-.15-.12-.19-.27-.11-.45l.26-.56c.72.13,1.49.21,2.31.26.81.05,1.56.08,2.23.08ZM953.21,70.09l1.24-.56c.55.03,1.18.09,1.89.19.71.1,1.24.21,1.59.34.27.1.41.3.41.6,0,.38-.1.72-.3,1.03s-.39.52-.56.62c-.22-.03-.56-.04-.99-.04s-.88,0-1.33-.02c-.45-.01-.82-.02-1.12-.02-.28,0-.82,0-1.63.02s-1.74.03-2.79.04c-1.05.01-2.09.03-3.13.06-1.04.03-1.96.05-2.76.08-.8.03-1.34.05-1.61.08-.38.02-.86.09-1.44.21-.59.11-1.06.22-1.41.32-.55-.25-1.11-.56-1.67-.94s-1.04-.75-1.44-1.12c-.15-.12-.19-.25-.11-.38l.26-.52c.58.1,1.21.18,1.91.24.7.06,1.27.09,1.72.09.32,0,.92,0,1.8-.02s1.89-.02,3.04-.04c1.15-.01,2.31-.04,3.49-.08,1.17-.04,2.21-.07,3.09-.09.89-.02,1.51-.05,1.86-.08ZM961.42,86.96l.19,1.2c.05.25-.06.4-.34.45-.9.22-1.97.45-3.21.67-1.24.22-2.56.45-3.97.67-1.41.22-2.83.43-4.24.62-1.41.19-2.77.34-4.07.47s-2.46.21-3.49.26l-2.51-2.59c1.12-.02,2.42-.08,3.88-.17,1.46-.09,2.99-.19,4.58-.32,1.59-.12,3.17-.27,4.74-.43,1.58-.16,3.05-.34,4.42-.53s2.55-.38,3.53-.58c.12-.02.23-.01.32.04s.14.12.17.22ZM955.42,79.31c0,1.15-.34,2.16-1.03,3.02-.69.86-1.62,1.53-2.79,2.01-1.17.48-2.49.71-3.94.71s-2.77-.24-3.96-.71c-1.19-.47-2.13-1.14-2.83-2.01-.7-.86-1.05-1.87-1.05-3.02s.35-2.16,1.05-3.02c.7-.86,1.64-1.52,2.83-1.99,1.19-.46,2.51-.69,3.96-.69s2.76.23,3.94.69c1.17.46,2.11,1.12,2.79,1.99s1.03,1.87,1.03,3.02ZM941.81,65.25l.3-.38c1.62.28,3.23.46,4.82.56,1.59.1,2.98.15,4.18.15.35,0,.59.11.71.34.1.17.15.39.15.66s-.02.51-.06.75c-.04.24-.13.42-.28.54-.1.15-.3.23-.6.23-.58,0-1.22,0-1.95.02-.73.01-1.44.03-2.16.06-.71.02-1.33.06-1.86.11-.38.05-.66,0-.86-.15-.38-.25-.78-.6-1.22-1.05-.44-.45-.82-.91-1.14-1.39-.1-.17-.11-.32-.04-.45ZM951.94,79.31c0-1.12-.41-2-1.24-2.62-.83-.62-1.84-.94-3.04-.94s-2.21.31-3.04.94c-.83.63-1.24,1.5-1.24,2.62s.41,1.96,1.24,2.59,1.84.94,3.04.94,2.21-.31,3.04-.94,1.24-1.49,1.24-2.59ZM949.46,89.36h-3.41v-5.18h3.41v5.18ZM963.22,98.74h-2.02c-.05-.38-.1-.9-.15-1.58s-.09-1.4-.13-2.17c-.04-.78-.06-1.52-.08-2.23-.01-.71-.02-1.28-.02-1.71v-25.05c-.3-.4-.73-.79-1.29-1.16s-1.17-.67-1.82-.9l.38-1.16c.05-.08.11-.13.17-.17.06-.04.17-.06.32-.06.55.02,1.17.09,1.86.21.69.11,1.37.24,2.04.39.68.15,1.21.33,1.61.53.35.12.51.42.49.9l-.11,2.14v23.17c0,.58-.03,1.24-.09,2.01-.06.76-.14,1.56-.24,2.4-.1.84-.22,1.64-.38,2.4-.15.76-.33,1.44-.53,2.04Z"/>
  <path d="M997.42,81.41l1.5-.64c.5,0,1.04.04,1.61.11s1.13.16,1.67.24c.54.09.96.18,1.26.28.38.12.56.38.56.75,0,.42-.11.8-.34,1.12-.23.33-.45.54-.68.64-.3-.05-.74-.09-1.33-.11-.59-.02-1.17-.04-1.76-.06-.59-.01-1.08-.02-1.48-.02-.43,0-1.18,0-2.27.02-1.09.01-2.36.03-3.81.04-1.45.01-2.97.03-4.56.04s-3.09.03-4.52.06c-1.42.03-2.66.05-3.69.08-1.04.03-1.73.05-2.08.08-.33.03-.74.08-1.26.17-.51.09-1.03.18-1.54.28-.51.1-.93.2-1.26.3-.73-.25-1.44-.6-2.16-1.05-.71-.45-1.32-.89-1.82-1.31-.15-.12-.19-.28-.11-.45l.3-.6c.7.13,1.47.23,2.31.3.84.07,1.58.11,2.23.11h1.89c.91,0,2.01,0,3.28-.02,1.28-.01,2.64-.03,4.11-.04,1.46-.01,2.93-.03,4.41-.06,1.47-.03,2.86-.05,4.16-.08,1.3-.02,2.42-.06,3.38-.09.95-.04,1.61-.07,1.99-.09ZM993.34,87.04v2.29h-4.71c-.94,0-1.86.01-2.76.04-.9.02-1.71.04-2.42.06-.71.01-1.22.03-1.52.06-.48.03-1.07.09-1.78.21-.71.11-1.29.26-1.74.43-.65-.25-1.29-.56-1.91-.94-.63-.38-1.18-.75-1.65-1.12-.15-.12-.19-.29-.11-.49l.3-.56c.62.1,1.31.18,2.06.23s1.4.08,1.95.08c.32,0,.84,0,1.56-.02.71-.01,1.55-.02,2.51-.04.96-.01,1.96-.02,2.98-.04,1.02-.01,2.03-.03,3-.06.97-.02,1.84-.04,2.59-.06.75-.01,1.3-.03,1.65-.06ZM981.04,67.65l-3.64-.41c-.2-.25-.52-.5-.97-.75s-.9-.44-1.35-.56l.26-1.09c.02-.12.19-.19.49-.19.4-.02.91-.01,1.54.04.62.05,1.24.12,1.84.21.6.09,1.08.18,1.43.28.3.07.45.31.45.71l-.04,1.76ZM979.95,78.49h-2.02c-.13-.35-.23-.74-.3-1.18-.08-.44-.11-.83-.11-1.18l-.11-8.92,3.64.19-.11,8.25c.02.78-.07,1.39-.28,1.84-.21.45-.44.79-.69,1.01ZM993.97,70.99l-13.46.07v-2.21l13.46-.08v2.21ZM995.59,75.04l.98.41c.22.1.34.25.34.45,0,.3-.04.58-.11.83s-.16.44-.26.56h-6.09c-1.24,0-2.47,0-3.71.02-1.24.01-2.4.03-3.49.04-1.09.01-1.99.02-2.72.02l.19-2.21,12.98-.08,1.91-.04ZM988.5,82.69h-3.56v-6.49h3.56v6.49ZM996.49,66.37l-3.6-.6c-.22-.27-.54-.54-.94-.79-.4-.25-.84-.46-1.31-.64l.41-1.09c.02-.08.08-.13.15-.17.08-.04.19-.06.34-.06.42.03.93.09,1.52.19.59.1,1.17.22,1.74.36.57.14,1.01.27,1.31.39.3.1.45.34.45.71l-.08,1.69ZM995.92,75.26h-3.04v-9.49l3.6.38-.08,5.59c0,.58-.04,1.2-.13,1.88-.09.67-.21,1.22-.36,1.65ZM996.56,89.47l-3.68-.15.34-2.29,1.24-.56c.2-.12.41-.12.64,0,.27.12.61.3,1.01.52.4.23.69.41.86.56.12.13.15.3.08.53l-.49,1.39ZM995.44,99.11h-2.18c-.07-.4-.14-.89-.19-1.48-.05-.59-.09-1.19-.13-1.8-.04-.61-.06-1.13-.06-1.56v-4.99h3.68l-.08,4.12c0,.55-.05,1.19-.15,1.91s-.22,1.42-.36,2.08-.32,1.23-.54,1.71Z"/>
  <path d="M1009.61,87.34l2.51,2.62c-.4.03-.93.11-1.59.24s-1.18.28-1.56.43c-.68-.3-1.38-.69-2.12-1.16s-1.38-.95-1.93-1.42c-.15-.12-.19-.28-.11-.45l.26-.56c.72.1,1.49.18,2.31.24.81.06,1.56.08,2.23.06ZM1012.72,73.95h-3.64v-3.38c-.53-.57-1.28-1.01-2.25-1.31l.22-1.01c.08-.15.21-.22.41-.22.42,0,.99.02,1.69.06.7.04,1.39.08,2.06.13.67.05,1.2.11,1.57.19l-.07,2.06v3.49ZM1013.62,78.67l-.86,2.1c-1.33.03-2.27-.22-2.83-.75s-.84-1.31-.84-2.36v-4.5h3.64v4.61c0,.6.3.9.9.9ZM1031.25,85.57l.19,1.24c.05.23-.06.38-.34.45-.9.23-1.97.45-3.21.67-1.24.23-2.56.44-3.97.66-1.41.21-2.83.41-4.24.6-1.41.19-2.77.35-4.07.49-1.3.14-2.46.23-3.49.28l-2.51-2.62c1.12-.02,2.42-.08,3.88-.15,1.46-.07,2.99-.17,4.58-.3,1.59-.12,3.17-.27,4.74-.43,1.58-.16,3.05-.34,4.42-.53s2.55-.38,3.53-.58c.12-.05.23-.04.32.02s.14.13.17.21ZM1025.17,70.2l-12.6.26v-2.06c.42,0,1.04,0,1.84-.02.8-.01,1.66-.02,2.59-.04.92-.01,1.78-.04,2.55-.07.78-.04,1.35-.07,1.73-.09l1.05-.49c.5-.02,1.08-.01,1.74.04.66.05,1.19.1,1.59.15.35.08.52.29.52.64,0,.33-.04.62-.13.9-.09.28-.18.46-.28.56-.15.15-.35.22-.6.22ZM1025.4,80.44l-12.64.34.83-2.1c.42,0,1.01,0,1.74-.02.74-.01,1.52-.02,2.34-.04.83-.01,1.59-.04,2.31-.08.71-.04,1.26-.07,1.63-.09l1.01-.49c.5-.02,1.08-.02,1.74.02.66.04,1.18.09,1.56.17.38.05.56.25.56.6,0,.38-.06.69-.17.96-.11.26-.22.44-.32.54-.15.13-.35.19-.6.19ZM1019.25,87.64h-3.41v-7.58h3.41v7.58ZM1033.05,98.74h-2.06c-.05-.38-.1-.9-.15-1.58-.05-.67-.09-1.4-.13-2.17-.04-.78-.06-1.52-.07-2.23-.01-.71-.02-1.28-.02-1.71v-25.05c-.3-.4-.72-.79-1.27-1.16-.55-.38-1.16-.67-1.84-.9l.41-1.16c.02-.08.07-.13.13-.17.06-.04.18-.06.36-.06.52.02,1.14.09,1.84.21s1.38.24,2.04.39,1.19.33,1.59.53c.38.12.55.42.53.9l-.15,2.14v23.17c0,.58-.03,1.24-.08,2.01s-.12,1.56-.22,2.4c-.1.84-.22,1.64-.38,2.4-.15.76-.33,1.44-.53,2.04Z"/>
  <path d="M1058.77,78.07c0,1.63-.38,3.06-1.12,4.29-.75,1.24-1.79,2.21-3.11,2.91-1.33.7-2.84,1.05-4.54,1.05s-3.21-.35-4.54-1.05c-1.33-.7-2.37-1.67-3.13-2.91s-1.14-2.67-1.14-4.29.38-3.02,1.14-4.26,1.81-2.21,3.13-2.92c1.33-.71,2.84-1.07,4.54-1.07s3.21.36,4.54,1.07c1.33.71,2.36,1.69,3.11,2.92.75,1.24,1.12,2.66,1.12,4.26ZM1055.02,78.07c0-1.12-.21-2.09-.64-2.89-.43-.8-1.02-1.42-1.78-1.88-.76-.45-1.63-.67-2.61-.67s-1.81.23-2.57.67c-.76.45-1.36,1.08-1.78,1.88-.42.8-.64,1.76-.64,2.89,0,1.68.47,3,1.42,3.98.95.97,2.14,1.46,3.56,1.46s2.68-.49,3.62-1.46c.94-.98,1.41-2.3,1.41-3.98ZM1060.84,76.76l1.95,2.1c-.33.02-.74.11-1.24.24-.5.14-.91.27-1.24.39-.6-.27-1.15-.57-1.65-.9s-.96-.67-1.39-1.05c-.15-.12-.19-.28-.11-.45l.26-.49c.47.02,1.03.06,1.67.09.64.04,1.22.06,1.74.06ZM1066.42,76.54v2.21c-.35-.02-.77-.03-1.26-.02-.49.01-.94.03-1.37.04-.43.01-.76.04-1.01.09l-1.95-2.1c.42,0,.98-.01,1.67-.04.69-.02,1.39-.05,2.1-.08.71-.02,1.32-.06,1.82-.11ZM1067.96,98.74h-2.06c-.05-.38-.1-.9-.15-1.58-.05-.67-.09-1.4-.13-2.17-.04-.78-.06-1.52-.07-2.23-.01-.71-.02-1.28-.02-1.71v-25.05c-.3-.4-.72-.79-1.27-1.16-.55-.38-1.16-.67-1.84-.9l.41-1.16c.02-.08.07-.13.13-.17.06-.04.18-.06.36-.06.52.02,1.14.09,1.84.21s1.38.24,2.04.39,1.19.33,1.59.53c.38.12.55.42.53.9l-.15,2.14v23.17c0,.58-.03,1.24-.08,2.01s-.12,1.56-.22,2.4c-.1.84-.22,1.64-.38,2.4-.15.76-.33,1.44-.53,2.04Z"/>
  <path d="M1089.49,77.77h-3.71v-5.81c-.6-.6-1.41-1.04-2.44-1.31l.22-1.05c.08-.15.21-.23.41-.23.45,0,1.04.01,1.76.04.73.03,1.44.07,2.16.13.71.06,1.27.14,1.67.24l-.08,2.14v5.85ZM1107.04,83.02v2.03c-1.7.6-3.54,1.14-5.51,1.61-1.98.47-3.93.88-5.85,1.2s-3.65.55-5.17.67c-.28.03-.53.04-.77.06-.24.01-.46.02-.66.02-.78,0-1.42-.21-1.95-.64-.52-.42-.9-.98-1.12-1.65-.08-.2-.13-.47-.17-.81-.04-.34-.06-.69-.06-1.07v-7.65h3.71v7.99c0,.47.23.7.68.67,1.15-.02,2.44-.09,3.88-.21s2.92-.28,4.46-.49c1.54-.21,3.04-.47,4.5-.77,1.46-.3,2.81-.62,4.03-.97ZM1100.51,71.55l-11.25.38v-2.18c.38,0,.9-.01,1.58-.04.67-.02,1.39-.05,2.16-.08.76-.02,1.47-.06,2.12-.09.65-.04,1.12-.07,1.43-.09l1.09-.67c.5,0,1.09.02,1.78.06.69.04,1.23.09,1.63.17.38.1.56.33.56.68,0,.38-.05.71-.15.99-.1.29-.2.51-.3.66-.13.15-.34.23-.64.23ZM1108.72,98.74h-2.06c-.05-.38-.09-.9-.13-1.58-.04-.67-.08-1.4-.11-2.17-.04-.78-.06-1.52-.08-2.23-.01-.71-.02-1.28-.02-1.71v-25.05c-.3-.4-.73-.79-1.29-1.16s-1.17-.67-1.82-.9l.38-1.16c.05-.08.11-.13.17-.17.06-.04.17-.06.32-.06.55.02,1.17.09,1.86.21.69.11,1.37.24,2.04.39.67.15,1.21.33,1.61.53.35.12.51.42.49.9l-.11,2.14v23.17c0,.58-.03,1.24-.09,2.01-.06.76-.14,1.56-.24,2.4-.1.84-.22,1.64-.38,2.4-.15.76-.33,1.44-.52,2.04ZM1116.07,80.4l-6.94.15v-2.21l3.11-.15,1.2-.75c.55-.02,1.16-.02,1.84.02.67.04,1.17.09,1.5.17.45.1.69.35.71.75.02.4-.01.76-.11,1.07-.1.31-.21.53-.34.66-.1.1-.24.17-.43.22-.19.05-.37.08-.54.08Z"/>
  <path d="M1119.3,88.57l-.64-.52c-.1-.12-.08-.28.08-.45,1.75-1.73,3.31-3.54,4.69-5.46,1.38-1.91,2.52-3.84,3.43-5.79.91-1.95,1.54-3.83,1.89-5.62l4.27-.9c0,.35-.04.66-.11.94-.4,2.03-1.19,4.09-2.36,6.21-1.18,2.11-2.67,4.16-4.48,6.13s-3.91,3.79-6.28,5.44c-.17.1-.34.11-.49.04ZM1133.02,69.82l-4.27.9c-.18-.38-.47-.76-.88-1.14-.41-.39-.87-.71-1.37-.96l.52-1.01c.1-.12.28-.17.53-.15.5.05,1.07.16,1.71.34s1.26.37,1.86.58c.6.21,1.05.42,1.35.62.38.2.56.48.56.83ZM1135.05,81.3l-.26.26-6.19-3.67,1.28-2.02,5.17,5.44ZM1136.29,86.62l-7.69-8.74,6.45,3.41,2.03.9c.32.45.66.99,1.01,1.63.35.64.61,1.16.79,1.56.15.3.23.56.24.79.01.22-.02.41-.09.56-.15.3-.41.52-.79.66s-.7.16-.97.06c-.13-.05-.28-.16-.47-.34s-.36-.34-.51-.49ZM1145.77,98.74h-2.06c-.05-.38-.1-.9-.15-1.58-.05-.67-.09-1.4-.13-2.17-.04-.78-.06-1.52-.07-2.23-.01-.71-.02-1.28-.02-1.71v-25.05c-.3-.4-.72-.79-1.27-1.16-.55-.38-1.16-.67-1.84-.9l.38-1.16c.05-.08.11-.13.17-.17.06-.04.17-.06.32-.06.55.02,1.17.09,1.88.21s1.38.24,2.04.39,1.19.33,1.59.53c.35.12.51.42.49.9l-.11,2.14v23.17c0,.58-.03,1.24-.09,2.01s-.14,1.56-.24,2.4c-.1.84-.23,1.64-.38,2.4-.15.76-.31,1.44-.49,2.04Z"/>
  <path d="M1179.9,73.31c0,1.4-.36,2.64-1.07,3.71-.71,1.08-1.7,1.92-2.96,2.53-1.26.61-2.72.92-4.37.92s-3.08-.31-4.35-.92c-1.28-.61-2.28-1.46-3.02-2.53-.74-1.07-1.11-2.31-1.11-3.71s.37-2.64,1.11-3.71c.74-1.08,1.74-1.91,3.02-2.51,1.27-.6,2.72-.9,4.35-.9s3.11.3,4.37.9c1.26.6,2.25,1.44,2.96,2.51.71,1.08,1.07,2.31,1.07,3.71ZM1176.34,73.31c0-1.37-.46-2.47-1.37-3.28-.91-.81-2.07-1.22-3.47-1.22s-2.53.41-3.45,1.22c-.92.81-1.39,1.91-1.39,3.28s.46,2.46,1.39,3.24,2.08,1.18,3.45,1.18,2.56-.39,3.47-1.18c.91-.79,1.37-1.87,1.37-3.24ZM1174.99,93.82h-3.71v-2.1c-.25-.25-.56-.47-.92-.66s-.77-.33-1.22-.43l.15-.86c.05-.15.19-.22.41-.22.45,0,1.02,0,1.71.02s1.38.04,2.06.08c.69.04,1.22.08,1.59.13l-.08,1.99v2.06ZM1186.39,83.85v2.1h-4.09c-.9,0-1.79,0-2.66.02-.88.01-1.66.03-2.34.04s-1.18.03-1.48.06c-.4.03-.91.09-1.54.21-.62.11-1.18.23-1.65.36-.6-.25-1.18-.56-1.74-.94s-1.06-.74-1.48-1.09c-.15-.12-.19-.28-.11-.45l.26-.45c.53.1,1.15.18,1.88.24.73.06,1.31.09,1.76.09.4,0,1.04,0,1.91-.02.87-.01,1.87-.03,2.98-.04,1.11-.01,2.23-.02,3.36-.04s2.12-.02,3-.04c.88-.01,1.52-.03,1.95-.06ZM1175.66,95.62l-1.31,2.21c-1.12-.03-1.92-.25-2.38-.67-.46-.43-.69-1.09-.69-1.99v-2.03h3.71v1.76c0,.47.23.71.68.71ZM1191.11,97.72l-16.76.11,1.01-2.21h7.2c.92,0,1.77,0,2.53-.02s1.38-.03,1.86-.06l1.16-.6c.55,0,1.17.02,1.88.08.7.05,1.24.12,1.61.22s.56.33.56.68c0,.4-.05.74-.15,1.03-.1.29-.2.48-.3.58-.13.12-.33.19-.6.19ZM1189.46,91.57l-14.7.19v-1.99c.38,0,.92,0,1.63-.02.71-.01,1.51-.02,2.38-.04.88-.01,1.74-.02,2.59-.02s1.61,0,2.29-.02,1.17-.03,1.5-.06l1.05-.3c.53-.1,1-.15,1.42-.15s.76.06,1.01.19l.97.49c.17.1.26.24.26.41,0,.28-.04.54-.13.79-.09.25-.18.42-.28.52ZM1188.94,82.01h-2.14c-.07-.4-.14-.94-.21-1.61s-.11-1.36-.13-2.04c-.03-.69-.04-1.26-.04-1.71v-10.65c-.28-.4-.69-.79-1.24-1.16s-1.15-.67-1.8-.9l.38-1.16c.05-.15.22-.22.53-.22.52.02,1.13.09,1.82.21s1.36.24,2.01.39,1.17.33,1.58.53c.35.12.51.42.49.9l-.11,2.1v9c0,.7-.05,1.46-.15,2.27-.1.81-.24,1.58-.41,2.29-.17.71-.36,1.31-.56,1.78ZM1188.94,89.55h-3.11c.02-.25.04-.61.06-1.09.01-.47.02-.96.04-1.44.01-.49,0-.86-.02-1.11l3.79-.15c-.03.35-.08.76-.15,1.24-.08.48-.17.94-.28,1.41-.11.46-.22.84-.32,1.14ZM1189.69,85.8l-3.79.15.41-2.1,1.31-.6c.2-.1.42-.1.67,0,.25.1.57.24.96.41.39.17.68.33.88.45.17.12.2.31.08.56l-.53,1.12Z"/>
  <path d="M1214.77,78.07c0,1.63-.38,3.06-1.12,4.29s-1.79,2.21-3.11,2.91c-1.33.7-2.84,1.05-4.54,1.05s-3.21-.35-4.54-1.05c-1.33-.7-2.37-1.67-3.13-2.91s-1.14-2.67-1.14-4.29.38-3.02,1.14-4.26,1.81-2.21,3.13-2.92c1.33-.71,2.84-1.07,4.54-1.07s3.21.36,4.54,1.07c1.33.71,2.36,1.69,3.11,2.92s1.12,2.66,1.12,4.26ZM1211.02,78.07c0-1.12-.21-2.09-.64-2.89-.43-.8-1.02-1.42-1.78-1.88-.76-.45-1.63-.67-2.61-.67s-1.81.23-2.57.67c-.76.45-1.36,1.08-1.78,1.88-.42.8-.64,1.76-.64,2.89,0,1.68.47,3,1.42,3.98.95.97,2.14,1.46,3.56,1.46s2.68-.49,3.62-1.46c.94-.98,1.41-2.3,1.41-3.98ZM1216.84,76.76l1.95,2.1c-.33.02-.74.11-1.24.24-.5.14-.91.27-1.24.39-.6-.27-1.15-.57-1.65-.9s-.96-.67-1.39-1.05c-.15-.12-.19-.28-.11-.45l.26-.49c.47.02,1.03.06,1.67.09.64.04,1.22.06,1.74.06ZM1222.42,76.54v2.21c-.35-.02-.77-.03-1.26-.02-.49.01-.94.03-1.37.04-.43.01-.76.04-1.01.09l-1.95-2.1c.42,0,.98-.01,1.67-.04.69-.02,1.39-.05,2.1-.08.71-.02,1.32-.06,1.82-.11ZM1223.96,98.74h-2.06c-.05-.38-.1-.9-.15-1.58-.05-.67-.09-1.4-.13-2.17-.04-.78-.06-1.52-.07-2.23-.01-.71-.02-1.28-.02-1.71v-25.05c-.3-.4-.72-.79-1.27-1.16-.55-.38-1.16-.67-1.84-.9l.41-1.16c.02-.08.07-.13.13-.17.06-.04.18-.06.36-.06.52.02,1.14.09,1.84.21s1.38.24,2.04.39,1.19.33,1.59.53c.38.12.55.42.53.9l-.15,2.14v23.17c0,.58-.03,1.24-.08,2.01s-.12,1.56-.22,2.4c-.1.84-.22,1.64-.38,2.4-.15.76-.33,1.44-.53,2.04Z"/>
  <path d="M1237.72,77.77h-3.67v-5.62c-.3-.25-.7-.49-1.2-.73-.5-.24-1.01-.43-1.54-.58l.23-1.05c.08-.2.24-.3.49-.3.5,0,1.08.02,1.74.06.66.04,1.3.09,1.91.15.61.06,1.09.14,1.44.24.42.1.64.38.64.83l-.04,1.88v5.14ZM1254.97,82.65v2.03c-1.68.58-3.49,1.1-5.44,1.57-1.95.48-3.86.87-5.74,1.18s-3.56.54-5.06.69c-.25.03-.49.04-.73.04h-.66c-.78,0-1.43-.21-1.97-.62-.54-.41-.92-.97-1.14-1.67-.05-.2-.09-.46-.13-.79-.04-.32-.06-.69-.06-1.09v-7.65h3.67v8.02c0,.48.22.7.67.68,1.12,0,2.39-.06,3.81-.19,1.41-.12,2.87-.29,4.37-.51,1.5-.21,2.97-.46,4.42-.75,1.45-.29,2.78-.61,3.98-.96ZM1256.55,98.74h-2.06c-.05-.38-.09-.9-.13-1.58-.04-.67-.08-1.4-.11-2.17-.04-.78-.06-1.52-.08-2.23-.01-.71-.02-1.28-.02-1.71v-25.05c-.3-.4-.73-.79-1.29-1.16s-1.17-.67-1.82-.9l.38-1.16c.05-.08.11-.13.17-.17.06-.04.17-.06.32-.06.55.02,1.17.09,1.86.21.69.11,1.37.24,2.04.39.67.15,1.21.33,1.61.53.35.12.51.42.49.9l-.11,2.14v23.17c0,.58-.03,1.24-.09,2.01-.06.76-.14,1.56-.24,2.4-.1.84-.22,1.64-.38,2.4-.15.76-.33,1.44-.52,2.04ZM1263.9,79.99l-6.94.15v-2.17l3.11-.15,1.2-.75c.55-.02,1.16-.02,1.84.02.67.04,1.17.09,1.5.17.45.1.69.35.71.75.02.38-.01.72-.11,1.03-.1.31-.21.53-.34.66-.1.1-.24.18-.43.23s-.37.08-.54.08Z"/>
  <path d="M1293.07,80.96l1.5-.64c.5,0,1.04.04,1.61.11.58.08,1.13.16,1.67.24.54.09.96.18,1.26.28.38.12.56.38.56.75,0,.43-.11.8-.34,1.12-.23.33-.45.54-.68.64-.3-.05-.74-.09-1.33-.11-.59-.03-1.17-.04-1.76-.06-.59-.01-1.08-.02-1.48-.02-.43,0-1.18,0-2.27.02-1.09.01-2.36.03-3.81.04-1.45.01-2.97.03-4.56.04s-3.09.03-4.52.06c-1.42.03-2.66.05-3.69.08-1.04.03-1.73.05-2.08.08-.33.03-.74.08-1.26.17-.51.09-1.03.18-1.54.28-.51.1-.93.2-1.26.3-.73-.25-1.44-.59-2.16-1.03-.71-.44-1.32-.88-1.82-1.33-.15-.12-.19-.28-.11-.45l.3-.6c.7.12,1.47.22,2.31.3s1.58.11,2.23.11h1.89c.91,0,2.01,0,3.28-.02,1.28-.01,2.64-.02,4.11-.04,1.46-.01,2.93-.03,4.41-.06,1.47-.02,2.86-.05,4.16-.08,1.3-.02,2.42-.06,3.38-.09.95-.04,1.61-.07,1.99-.09ZM1276.31,69.49h-3.75v-1.8c-.28-.25-.63-.48-1.07-.69-.44-.21-.89-.38-1.37-.51l.22-1.01c.05-.17.21-.26.49-.26.47,0,1.03.02,1.67.06.64.04,1.25.08,1.84.13.59.05,1.06.12,1.41.22.42.08.64.35.64.83l-.08,1.88v1.16ZM1276.87,92.06h-3.67v-2.47c-.33-.25-.72-.49-1.18-.71-.46-.22-.94-.4-1.44-.52l.22-1.01c.05-.2.21-.3.49-.3.47,0,1.04.02,1.69.06.65.04,1.28.08,1.88.13.6.05,1.09.12,1.46.22.42.13.64.41.64.86l-.08,1.84v1.91ZM1277.25,74.51l-1.09,2.17c-1.22,0-2.13-.29-2.72-.86-.59-.57-.88-1.4-.88-2.47v-4.28h3.75v4.46c0,.35.07.6.21.75.14.15.38.22.73.22ZM1277.77,94.87l-1.16,2.21c-1.22-.03-2.1-.29-2.62-.81-.52-.51-.79-1.32-.79-2.42v-3.15h3.67v3.19c0,.33.07.57.21.73s.37.24.69.24ZM1293.15,76.46l-16.99.22,1.01-2.17h1.91c.77,0,1.61,0,2.51-.02.9-.01,1.79-.03,2.68-.06.89-.02,1.71-.04,2.47-.06s1.38-.03,1.86-.06l1.31-.75c.6,0,1.28.03,2.03.09.75.06,1.32.14,1.72.24.38.08.56.3.56.67,0,.43-.05.79-.15,1.09-.1.3-.21.5-.34.6-.15.12-.35.19-.6.19ZM1293.22,96.97l-16.65.11,1.05-2.21h4.22c.86,0,1.72,0,2.57-.02s1.64-.03,2.36-.04c.72-.01,1.32-.03,1.8-.06l1.39-.79c.6,0,1.29.03,2.06.09.77.06,1.36.14,1.76.24.4.08.6.3.6.68,0,.45-.06.83-.19,1.14-.13.31-.24.52-.34.62-.15.15-.36.23-.64.23Z"/>
  <path d="M1326.26,69.79l1.2-.6c.58.03,1.21.09,1.91.19.7.1,1.22.21,1.58.34.28.12.41.33.41.6,0,.4-.09.76-.28,1.09-.19.33-.37.54-.54.64-.23-.02-.56-.04-.99-.06-.44-.01-.88-.02-1.33-.04s-.83-.02-1.12-.02-.85,0-1.65.02-1.72.03-2.77.06c-1.05.03-2.09.05-3.13.08-1.04.03-1.96.05-2.77.08-.81.03-1.36.05-1.63.08-.38.03-.85.09-1.42.19s-1.04.21-1.39.34c-.55-.25-1.11-.57-1.69-.96-.58-.39-1.06-.77-1.46-1.14-.13-.15-.15-.29-.08-.41l.26-.49c.57.1,1.21.18,1.91.23s1.28.08,1.73.08c.32,0,.92,0,1.8-.02.88-.01,1.89-.02,3.04-.04,1.15-.01,2.31-.03,3.47-.06,1.16-.02,2.19-.05,3.09-.07.9-.03,1.52-.05,1.88-.08ZM1328.44,79.09c0,1.18-.34,2.2-1.03,3.08s-1.61,1.55-2.77,2.02c-1.16.48-2.48.71-3.96.71s-2.8-.24-3.98-.71c-1.17-.47-2.11-1.15-2.81-2.02s-1.05-1.9-1.05-3.08.35-2.19,1.05-3.06c.7-.86,1.64-1.52,2.81-1.99,1.17-.46,2.5-.69,3.98-.69s2.79.23,3.96.69c1.16.46,2.09,1.12,2.77,1.99.69.86,1.03,1.88,1.03,3.06ZM1314.71,65.02l.3-.38c1.67.28,3.31.46,4.91.56,1.6.1,3.01.15,4.24.15.38,0,.61.11.71.34.08.18.12.39.13.66.01.26,0,.51-.04.75-.04.24-.12.42-.24.54-.05.1-.14.16-.26.19-.12.03-.25.04-.38.04-.58,0-1.24,0-1.99.02s-1.49.04-2.21.07c-.73.04-1.36.08-1.91.13-.38.03-.66-.02-.86-.15-.38-.25-.78-.61-1.22-1.07-.44-.46-.82-.93-1.14-1.41-.1-.17-.11-.33-.04-.45ZM1324.95,79.09c0-1.15-.41-2.04-1.24-2.66s-1.84-.94-3.04-.94-2.21.31-3.04.94-1.24,1.51-1.24,2.66.41,2,1.24,2.62,1.84.94,3.04.94,2.21-.31,3.04-.94,1.24-1.5,1.24-2.62ZM1323.49,89.44l-3.79-.26c-.47-.53-1.15-.95-2.02-1.28l.26-1.01c.05-.12.19-.19.41-.19.42,0,.95.02,1.58.06.62.04,1.26.09,1.89.15.64.06,1.17.13,1.59.21l.08,2.32ZM1322.85,98.85h-2.03c-.12-.28-.23-.61-.32-1.01-.09-.4-.14-.78-.17-1.12l-.64-7.54,3.79-.3.11,7.35c.02.65-.03,1.17-.15,1.56s-.33.74-.6,1.07ZM1333.91,86.85v2.36c-1.65,0-3.41.03-5.29.08s-3.61.1-5.21.15l-.04-2.32c.62,0,1.4-.01,2.33-.04.92-.02,1.91-.04,2.96-.06s2.03-.04,2.94-.08c.91-.04,1.68-.07,2.31-.09ZM1337.06,97.57l-13.69.15.11-2.33h2.25c.85,0,1.71,0,2.59-.02.88-.01,1.71-.04,2.51-.08.8-.04,1.47-.07,2.03-.09l1.12-.3c.52-.18.97-.27,1.33-.28.36-.01.69.08.99.28l1.01.49c.2.12.3.3.3.53,0,.35-.06.67-.17.97-.11.3-.24.53-.39.67ZM1336.76,85.27h-2.14c-.05-.3-.09-.7-.13-1.2-.04-.5-.08-1.04-.11-1.61-.04-.58-.06-1.14-.08-1.69s-.02-1.01-.02-1.39v-13.39c-.3-.4-.72-.79-1.26-1.16-.54-.38-1.13-.67-1.78-.9l.38-1.16c.05-.15.21-.22.49-.22.52.02,1.14.09,1.84.21s1.37.24,2.01.39c.64.15,1.16.33,1.56.53.35.12.51.42.49.9l-.11,2.1v11.74c0,.73-.05,1.53-.15,2.4-.1.88-.23,1.71-.39,2.49-.16.79-.36,1.44-.58,1.97ZM1336.61,95.1h-2.96l.11-5.89,3.75-.04c-.08.95-.19,1.94-.36,2.96-.16,1.03-.34,2.01-.54,2.96ZM1337.51,89.21h-3.75l.08-2.36,1.42-.6c.25-.1.49-.1.71,0,.27.1.61.25,1.01.45.4.2.7.38.9.53.15.1.17.26.08.49l-.45,1.5Z"/>
</svg>